<?xml version="1.0" encoding="utf-8" standalone="no"?>
<!DOCTYPE svg PUBLIC "-//W3C//DTD SVG 1.1//EN"
  "http://www.w3.org/Graphics/SVG/1.1/DTD/svg11.dtd">
<svg xmlns:xlink="http://www.w3.org/1999/xlink" width="720pt" height="360pt" viewBox="0 0 720 360" xmlns="http://www.w3.org/2000/svg" version="1.1">
 <metadata>
  <rdf:RDF xmlns:dc="http://purl.org/dc/elements/1.1/" xmlns:cc="http://creativecommons.org/ns#" xmlns:rdf="http://www.w3.org/1999/02/22-rdf-syntax-ns#">
   <cc:Work>
    <dc:type rdf:resource="http://purl.org/dc/dcmitype/StillImage"/>
    <dc:date>2024-11-30T16:48:13.723531</dc:date>
    <dc:format>image/svg+xml</dc:format>
    <dc:creator>
     <cc:Agent>
      <dc:title>Matplotlib v3.9.2, https://matplotlib.org/</dc:title>
     </cc:Agent>
    </dc:creator>
   </cc:Work>
  </rdf:RDF>
 </metadata>
 <defs>
  <style type="text/css">*{stroke-linejoin: round; stroke-linecap: butt}</style>
 </defs>
 <g id="figure_1">
  <g id="patch_1">
   <path d="M 0 360 
L 720 360 
L 720 0 
L 0 0 
z
" style="fill: #ffffff"/>
  </g>
  <g id="axes_1">
   <g id="patch_2">
    <path d="M 90 320.4 
L 648 320.4 
L 648 43.2 
L 90 43.2 
z
" style="fill: #ffffff"/>
   </g>
   <g id="matplotlib.axis_1">
    <g id="xtick_1">
     <g id="line2d_1">
      <path d="M 114.855856 320.4 
L 114.855856 43.2 
" clip-path="url(#p16377d398d)" style="fill: none; stroke: #b0b0b0; stroke-width: 0.8; stroke-linecap: square"/>
     </g>
     <g id="line2d_2">
      <defs>
       <path id="m30ed84ede4" d="M 0 0 
L 0 3.5 
" style="stroke: #000000; stroke-width: 0.8"/>
      </defs>
      <g>
       <use xlink:href="#m30ed84ede4" x="114.855856" y="320.4" style="stroke: #000000; stroke-width: 0.8"/>
      </g>
     </g>
     <g id="text_1">
      <!-- 0 -->
      <g transform="translate(111.674606 334.998438) scale(0.1 -0.1)">
       <defs>
        <path id="DejaVuSans-30" d="M 2034 4250 
Q 1547 4250 1301 3770 
Q 1056 3291 1056 2328 
Q 1056 1369 1301 889 
Q 1547 409 2034 409 
Q 2525 409 2770 889 
Q 3016 1369 3016 2328 
Q 3016 3291 2770 3770 
Q 2525 4250 2034 4250 
z
M 2034 4750 
Q 2819 4750 3233 4129 
Q 3647 3509 3647 2328 
Q 3647 1150 3233 529 
Q 2819 -91 2034 -91 
Q 1250 -91 836 529 
Q 422 1150 422 2328 
Q 422 3509 836 4129 
Q 1250 4750 2034 4750 
z
" transform="scale(0.015625)"/>
       </defs>
       <use xlink:href="#DejaVuSans-30"/>
      </g>
     </g>
    </g>
    <g id="xtick_2">
     <g id="line2d_3">
      <path d="M 216.411957 320.4 
L 216.411957 43.2 
" clip-path="url(#p16377d398d)" style="fill: none; stroke: #b0b0b0; stroke-width: 0.8; stroke-linecap: square"/>
     </g>
     <g id="line2d_4">
      <g>
       <use xlink:href="#m30ed84ede4" x="216.411957" y="320.4" style="stroke: #000000; stroke-width: 0.8"/>
      </g>
     </g>
     <g id="text_2">
      <!-- 200 -->
      <g transform="translate(206.868207 334.998438) scale(0.1 -0.1)">
       <defs>
        <path id="DejaVuSans-32" d="M 1228 531 
L 3431 531 
L 3431 0 
L 469 0 
L 469 531 
Q 828 903 1448 1529 
Q 2069 2156 2228 2338 
Q 2531 2678 2651 2914 
Q 2772 3150 2772 3378 
Q 2772 3750 2511 3984 
Q 2250 4219 1831 4219 
Q 1534 4219 1204 4116 
Q 875 4013 500 3803 
L 500 4441 
Q 881 4594 1212 4672 
Q 1544 4750 1819 4750 
Q 2544 4750 2975 4387 
Q 3406 4025 3406 3419 
Q 3406 3131 3298 2873 
Q 3191 2616 2906 2266 
Q 2828 2175 2409 1742 
Q 1991 1309 1228 531 
z
" transform="scale(0.015625)"/>
       </defs>
       <use xlink:href="#DejaVuSans-32"/>
       <use xlink:href="#DejaVuSans-30" x="63.623047"/>
       <use xlink:href="#DejaVuSans-30" x="127.246094"/>
      </g>
     </g>
    </g>
    <g id="xtick_3">
     <g id="line2d_5">
      <path d="M 317.968059 320.4 
L 317.968059 43.2 
" clip-path="url(#p16377d398d)" style="fill: none; stroke: #b0b0b0; stroke-width: 0.8; stroke-linecap: square"/>
     </g>
     <g id="line2d_6">
      <g>
       <use xlink:href="#m30ed84ede4" x="317.968059" y="320.4" style="stroke: #000000; stroke-width: 0.8"/>
      </g>
     </g>
     <g id="text_3">
      <!-- 400 -->
      <g transform="translate(308.424309 334.998438) scale(0.1 -0.1)">
       <defs>
        <path id="DejaVuSans-34" d="M 2419 4116 
L 825 1625 
L 2419 1625 
L 2419 4116 
z
M 2253 4666 
L 3047 4666 
L 3047 1625 
L 3713 1625 
L 3713 1100 
L 3047 1100 
L 3047 0 
L 2419 0 
L 2419 1100 
L 313 1100 
L 313 1709 
L 2253 4666 
z
" transform="scale(0.015625)"/>
       </defs>
       <use xlink:href="#DejaVuSans-34"/>
       <use xlink:href="#DejaVuSans-30" x="63.623047"/>
       <use xlink:href="#DejaVuSans-30" x="127.246094"/>
      </g>
     </g>
    </g>
    <g id="xtick_4">
     <g id="line2d_7">
      <path d="M 419.524161 320.4 
L 419.524161 43.2 
" clip-path="url(#p16377d398d)" style="fill: none; stroke: #b0b0b0; stroke-width: 0.8; stroke-linecap: square"/>
     </g>
     <g id="line2d_8">
      <g>
       <use xlink:href="#m30ed84ede4" x="419.524161" y="320.4" style="stroke: #000000; stroke-width: 0.8"/>
      </g>
     </g>
     <g id="text_4">
      <!-- 600 -->
      <g transform="translate(409.980411 334.998438) scale(0.1 -0.1)">
       <defs>
        <path id="DejaVuSans-36" d="M 2113 2584 
Q 1688 2584 1439 2293 
Q 1191 2003 1191 1497 
Q 1191 994 1439 701 
Q 1688 409 2113 409 
Q 2538 409 2786 701 
Q 3034 994 3034 1497 
Q 3034 2003 2786 2293 
Q 2538 2584 2113 2584 
z
M 3366 4563 
L 3366 3988 
Q 3128 4100 2886 4159 
Q 2644 4219 2406 4219 
Q 1781 4219 1451 3797 
Q 1122 3375 1075 2522 
Q 1259 2794 1537 2939 
Q 1816 3084 2150 3084 
Q 2853 3084 3261 2657 
Q 3669 2231 3669 1497 
Q 3669 778 3244 343 
Q 2819 -91 2113 -91 
Q 1303 -91 875 529 
Q 447 1150 447 2328 
Q 447 3434 972 4092 
Q 1497 4750 2381 4750 
Q 2619 4750 2861 4703 
Q 3103 4656 3366 4563 
z
" transform="scale(0.015625)"/>
       </defs>
       <use xlink:href="#DejaVuSans-36"/>
       <use xlink:href="#DejaVuSans-30" x="63.623047"/>
       <use xlink:href="#DejaVuSans-30" x="127.246094"/>
      </g>
     </g>
    </g>
    <g id="xtick_5">
     <g id="line2d_9">
      <path d="M 521.080262 320.4 
L 521.080262 43.2 
" clip-path="url(#p16377d398d)" style="fill: none; stroke: #b0b0b0; stroke-width: 0.8; stroke-linecap: square"/>
     </g>
     <g id="line2d_10">
      <g>
       <use xlink:href="#m30ed84ede4" x="521.080262" y="320.4" style="stroke: #000000; stroke-width: 0.8"/>
      </g>
     </g>
     <g id="text_5">
      <!-- 800 -->
      <g transform="translate(511.536512 334.998438) scale(0.1 -0.1)">
       <defs>
        <path id="DejaVuSans-38" d="M 2034 2216 
Q 1584 2216 1326 1975 
Q 1069 1734 1069 1313 
Q 1069 891 1326 650 
Q 1584 409 2034 409 
Q 2484 409 2743 651 
Q 3003 894 3003 1313 
Q 3003 1734 2745 1975 
Q 2488 2216 2034 2216 
z
M 1403 2484 
Q 997 2584 770 2862 
Q 544 3141 544 3541 
Q 544 4100 942 4425 
Q 1341 4750 2034 4750 
Q 2731 4750 3128 4425 
Q 3525 4100 3525 3541 
Q 3525 3141 3298 2862 
Q 3072 2584 2669 2484 
Q 3125 2378 3379 2068 
Q 3634 1759 3634 1313 
Q 3634 634 3220 271 
Q 2806 -91 2034 -91 
Q 1263 -91 848 271 
Q 434 634 434 1313 
Q 434 1759 690 2068 
Q 947 2378 1403 2484 
z
M 1172 3481 
Q 1172 3119 1398 2916 
Q 1625 2713 2034 2713 
Q 2441 2713 2670 2916 
Q 2900 3119 2900 3481 
Q 2900 3844 2670 4047 
Q 2441 4250 2034 4250 
Q 1625 4250 1398 4047 
Q 1172 3844 1172 3481 
z
" transform="scale(0.015625)"/>
       </defs>
       <use xlink:href="#DejaVuSans-38"/>
       <use xlink:href="#DejaVuSans-30" x="63.623047"/>
       <use xlink:href="#DejaVuSans-30" x="127.246094"/>
      </g>
     </g>
    </g>
    <g id="xtick_6">
     <g id="line2d_11">
      <path d="M 622.636364 320.4 
L 622.636364 43.2 
" clip-path="url(#p16377d398d)" style="fill: none; stroke: #b0b0b0; stroke-width: 0.8; stroke-linecap: square"/>
     </g>
     <g id="line2d_12">
      <g>
       <use xlink:href="#m30ed84ede4" x="622.636364" y="320.4" style="stroke: #000000; stroke-width: 0.8"/>
      </g>
     </g>
     <g id="text_6">
      <!-- 1000 -->
      <g transform="translate(609.911364 334.998438) scale(0.1 -0.1)">
       <defs>
        <path id="DejaVuSans-31" d="M 794 531 
L 1825 531 
L 1825 4091 
L 703 3866 
L 703 4441 
L 1819 4666 
L 2450 4666 
L 2450 531 
L 3481 531 
L 3481 0 
L 794 0 
L 794 531 
z
" transform="scale(0.015625)"/>
       </defs>
       <use xlink:href="#DejaVuSans-31"/>
       <use xlink:href="#DejaVuSans-30" x="63.623047"/>
       <use xlink:href="#DejaVuSans-30" x="127.246094"/>
       <use xlink:href="#DejaVuSans-30" x="190.869141"/>
      </g>
     </g>
    </g>
    <g id="text_7">
     <!-- Query number -->
     <g transform="translate(332.700781 348.676562) scale(0.1 -0.1)">
      <defs>
       <path id="DejaVuSans-51" d="M 2522 4238 
Q 1834 4238 1429 3725 
Q 1025 3213 1025 2328 
Q 1025 1447 1429 934 
Q 1834 422 2522 422 
Q 3209 422 3611 934 
Q 4013 1447 4013 2328 
Q 4013 3213 3611 3725 
Q 3209 4238 2522 4238 
z
M 3406 84 
L 4238 -825 
L 3475 -825 
L 2784 -78 
Q 2681 -84 2626 -87 
Q 2572 -91 2522 -91 
Q 1538 -91 948 567 
Q 359 1225 359 2328 
Q 359 3434 948 4092 
Q 1538 4750 2522 4750 
Q 3503 4750 4090 4092 
Q 4678 3434 4678 2328 
Q 4678 1516 4351 937 
Q 4025 359 3406 84 
z
" transform="scale(0.015625)"/>
       <path id="DejaVuSans-75" d="M 544 1381 
L 544 3500 
L 1119 3500 
L 1119 1403 
Q 1119 906 1312 657 
Q 1506 409 1894 409 
Q 2359 409 2629 706 
Q 2900 1003 2900 1516 
L 2900 3500 
L 3475 3500 
L 3475 0 
L 2900 0 
L 2900 538 
Q 2691 219 2414 64 
Q 2138 -91 1772 -91 
Q 1169 -91 856 284 
Q 544 659 544 1381 
z
M 1991 3584 
L 1991 3584 
z
" transform="scale(0.015625)"/>
       <path id="DejaVuSans-65" d="M 3597 1894 
L 3597 1613 
L 953 1613 
Q 991 1019 1311 708 
Q 1631 397 2203 397 
Q 2534 397 2845 478 
Q 3156 559 3463 722 
L 3463 178 
Q 3153 47 2828 -22 
Q 2503 -91 2169 -91 
Q 1331 -91 842 396 
Q 353 884 353 1716 
Q 353 2575 817 3079 
Q 1281 3584 2069 3584 
Q 2775 3584 3186 3129 
Q 3597 2675 3597 1894 
z
M 3022 2063 
Q 3016 2534 2758 2815 
Q 2500 3097 2075 3097 
Q 1594 3097 1305 2825 
Q 1016 2553 972 2059 
L 3022 2063 
z
" transform="scale(0.015625)"/>
       <path id="DejaVuSans-72" d="M 2631 2963 
Q 2534 3019 2420 3045 
Q 2306 3072 2169 3072 
Q 1681 3072 1420 2755 
Q 1159 2438 1159 1844 
L 1159 0 
L 581 0 
L 581 3500 
L 1159 3500 
L 1159 2956 
Q 1341 3275 1631 3429 
Q 1922 3584 2338 3584 
Q 2397 3584 2469 3576 
Q 2541 3569 2628 3553 
L 2631 2963 
z
" transform="scale(0.015625)"/>
       <path id="DejaVuSans-79" d="M 2059 -325 
Q 1816 -950 1584 -1140 
Q 1353 -1331 966 -1331 
L 506 -1331 
L 506 -850 
L 844 -850 
Q 1081 -850 1212 -737 
Q 1344 -625 1503 -206 
L 1606 56 
L 191 3500 
L 800 3500 
L 1894 763 
L 2988 3500 
L 3597 3500 
L 2059 -325 
z
" transform="scale(0.015625)"/>
       <path id="DejaVuSans-20" transform="scale(0.015625)"/>
       <path id="DejaVuSans-6e" d="M 3513 2113 
L 3513 0 
L 2938 0 
L 2938 2094 
Q 2938 2591 2744 2837 
Q 2550 3084 2163 3084 
Q 1697 3084 1428 2787 
Q 1159 2491 1159 1978 
L 1159 0 
L 581 0 
L 581 3500 
L 1159 3500 
L 1159 2956 
Q 1366 3272 1645 3428 
Q 1925 3584 2291 3584 
Q 2894 3584 3203 3211 
Q 3513 2838 3513 2113 
z
" transform="scale(0.015625)"/>
       <path id="DejaVuSans-6d" d="M 3328 2828 
Q 3544 3216 3844 3400 
Q 4144 3584 4550 3584 
Q 5097 3584 5394 3201 
Q 5691 2819 5691 2113 
L 5691 0 
L 5113 0 
L 5113 2094 
Q 5113 2597 4934 2840 
Q 4756 3084 4391 3084 
Q 3944 3084 3684 2787 
Q 3425 2491 3425 1978 
L 3425 0 
L 2847 0 
L 2847 2094 
Q 2847 2600 2669 2842 
Q 2491 3084 2119 3084 
Q 1678 3084 1418 2786 
Q 1159 2488 1159 1978 
L 1159 0 
L 581 0 
L 581 3500 
L 1159 3500 
L 1159 2956 
Q 1356 3278 1631 3431 
Q 1906 3584 2284 3584 
Q 2666 3584 2933 3390 
Q 3200 3197 3328 2828 
z
" transform="scale(0.015625)"/>
       <path id="DejaVuSans-62" d="M 3116 1747 
Q 3116 2381 2855 2742 
Q 2594 3103 2138 3103 
Q 1681 3103 1420 2742 
Q 1159 2381 1159 1747 
Q 1159 1113 1420 752 
Q 1681 391 2138 391 
Q 2594 391 2855 752 
Q 3116 1113 3116 1747 
z
M 1159 2969 
Q 1341 3281 1617 3432 
Q 1894 3584 2278 3584 
Q 2916 3584 3314 3078 
Q 3713 2572 3713 1747 
Q 3713 922 3314 415 
Q 2916 -91 2278 -91 
Q 1894 -91 1617 61 
Q 1341 213 1159 525 
L 1159 0 
L 581 0 
L 581 4863 
L 1159 4863 
L 1159 2969 
z
" transform="scale(0.015625)"/>
      </defs>
      <use xlink:href="#DejaVuSans-51"/>
      <use xlink:href="#DejaVuSans-75" x="78.710938"/>
      <use xlink:href="#DejaVuSans-65" x="142.089844"/>
      <use xlink:href="#DejaVuSans-72" x="203.613281"/>
      <use xlink:href="#DejaVuSans-79" x="244.726562"/>
      <use xlink:href="#DejaVuSans-20" x="303.90625"/>
      <use xlink:href="#DejaVuSans-6e" x="335.693359"/>
      <use xlink:href="#DejaVuSans-75" x="399.072266"/>
      <use xlink:href="#DejaVuSans-6d" x="462.451172"/>
      <use xlink:href="#DejaVuSans-62" x="559.863281"/>
      <use xlink:href="#DejaVuSans-65" x="623.339844"/>
      <use xlink:href="#DejaVuSans-72" x="684.863281"/>
     </g>
    </g>
   </g>
   <g id="matplotlib.axis_2">
    <g id="ytick_1">
     <g id="line2d_13">
      <path d="M 90 280.824808 
L 648 280.824808 
" clip-path="url(#p16377d398d)" style="fill: none; stroke: #b0b0b0; stroke-width: 0.8; stroke-linecap: square"/>
     </g>
     <g id="line2d_14">
      <defs>
       <path id="mf784187ab5" d="M 0 0 
L -3.5 0 
" style="stroke: #000000; stroke-width: 0.8"/>
      </defs>
      <g>
       <use xlink:href="#mf784187ab5" x="90" y="280.824808" style="stroke: #000000; stroke-width: 0.8"/>
      </g>
     </g>
     <g id="text_8">
      <!-- 0.2 -->
      <g transform="translate(67.096875 284.624027) scale(0.1 -0.1)">
       <defs>
        <path id="DejaVuSans-2e" d="M 684 794 
L 1344 794 
L 1344 0 
L 684 0 
L 684 794 
z
" transform="scale(0.015625)"/>
       </defs>
       <use xlink:href="#DejaVuSans-30"/>
       <use xlink:href="#DejaVuSans-2e" x="63.623047"/>
       <use xlink:href="#DejaVuSans-32" x="95.410156"/>
      </g>
     </g>
    </g>
    <g id="ytick_2">
     <g id="line2d_15">
      <path d="M 90 235.645727 
L 648 235.645727 
" clip-path="url(#p16377d398d)" style="fill: none; stroke: #b0b0b0; stroke-width: 0.8; stroke-linecap: square"/>
     </g>
     <g id="line2d_16">
      <g>
       <use xlink:href="#mf784187ab5" x="90" y="235.645727" style="stroke: #000000; stroke-width: 0.8"/>
      </g>
     </g>
     <g id="text_9">
      <!-- 0.4 -->
      <g transform="translate(67.096875 239.444946) scale(0.1 -0.1)">
       <use xlink:href="#DejaVuSans-30"/>
       <use xlink:href="#DejaVuSans-2e" x="63.623047"/>
       <use xlink:href="#DejaVuSans-34" x="95.410156"/>
      </g>
     </g>
    </g>
    <g id="ytick_3">
     <g id="line2d_17">
      <path d="M 90 190.466646 
L 648 190.466646 
" clip-path="url(#p16377d398d)" style="fill: none; stroke: #b0b0b0; stroke-width: 0.8; stroke-linecap: square"/>
     </g>
     <g id="line2d_18">
      <g>
       <use xlink:href="#mf784187ab5" x="90" y="190.466646" style="stroke: #000000; stroke-width: 0.8"/>
      </g>
     </g>
     <g id="text_10">
      <!-- 0.6 -->
      <g transform="translate(67.096875 194.265864) scale(0.1 -0.1)">
       <use xlink:href="#DejaVuSans-30"/>
       <use xlink:href="#DejaVuSans-2e" x="63.623047"/>
       <use xlink:href="#DejaVuSans-36" x="95.410156"/>
      </g>
     </g>
    </g>
    <g id="ytick_4">
     <g id="line2d_19">
      <path d="M 90 145.287564 
L 648 145.287564 
" clip-path="url(#p16377d398d)" style="fill: none; stroke: #b0b0b0; stroke-width: 0.8; stroke-linecap: square"/>
     </g>
     <g id="line2d_20">
      <g>
       <use xlink:href="#mf784187ab5" x="90" y="145.287564" style="stroke: #000000; stroke-width: 0.8"/>
      </g>
     </g>
     <g id="text_11">
      <!-- 0.8 -->
      <g transform="translate(67.096875 149.086783) scale(0.1 -0.1)">
       <use xlink:href="#DejaVuSans-30"/>
       <use xlink:href="#DejaVuSans-2e" x="63.623047"/>
       <use xlink:href="#DejaVuSans-38" x="95.410156"/>
      </g>
     </g>
    </g>
    <g id="ytick_5">
     <g id="line2d_21">
      <path d="M 90 100.108483 
L 648 100.108483 
" clip-path="url(#p16377d398d)" style="fill: none; stroke: #b0b0b0; stroke-width: 0.8; stroke-linecap: square"/>
     </g>
     <g id="line2d_22">
      <g>
       <use xlink:href="#mf784187ab5" x="90" y="100.108483" style="stroke: #000000; stroke-width: 0.8"/>
      </g>
     </g>
     <g id="text_12">
      <!-- 1.0 -->
      <g transform="translate(67.096875 103.907702) scale(0.1 -0.1)">
       <use xlink:href="#DejaVuSans-31"/>
       <use xlink:href="#DejaVuSans-2e" x="63.623047"/>
       <use xlink:href="#DejaVuSans-30" x="95.410156"/>
      </g>
     </g>
    </g>
    <g id="ytick_6">
     <g id="line2d_23">
      <path d="M 90 54.929402 
L 648 54.929402 
" clip-path="url(#p16377d398d)" style="fill: none; stroke: #b0b0b0; stroke-width: 0.8; stroke-linecap: square"/>
     </g>
     <g id="line2d_24">
      <g>
       <use xlink:href="#mf784187ab5" x="90" y="54.929402" style="stroke: #000000; stroke-width: 0.8"/>
      </g>
     </g>
     <g id="text_13">
      <!-- 1.2 -->
      <g transform="translate(67.096875 58.72862) scale(0.1 -0.1)">
       <use xlink:href="#DejaVuSans-31"/>
       <use xlink:href="#DejaVuSans-2e" x="63.623047"/>
       <use xlink:href="#DejaVuSans-32" x="95.410156"/>
      </g>
     </g>
    </g>
    <g id="text_14">
     <!-- Time (milliseconds) -->
     <g transform="translate(61.017187 230.388281) rotate(-90) scale(0.1 -0.1)">
      <defs>
       <path id="DejaVuSans-54" d="M -19 4666 
L 3928 4666 
L 3928 4134 
L 2272 4134 
L 2272 0 
L 1638 0 
L 1638 4134 
L -19 4134 
L -19 4666 
z
" transform="scale(0.015625)"/>
       <path id="DejaVuSans-69" d="M 603 3500 
L 1178 3500 
L 1178 0 
L 603 0 
L 603 3500 
z
M 603 4863 
L 1178 4863 
L 1178 4134 
L 603 4134 
L 603 4863 
z
" transform="scale(0.015625)"/>
       <path id="DejaVuSans-28" d="M 1984 4856 
Q 1566 4138 1362 3434 
Q 1159 2731 1159 2009 
Q 1159 1288 1364 580 
Q 1569 -128 1984 -844 
L 1484 -844 
Q 1016 -109 783 600 
Q 550 1309 550 2009 
Q 550 2706 781 3412 
Q 1013 4119 1484 4856 
L 1984 4856 
z
" transform="scale(0.015625)"/>
       <path id="DejaVuSans-6c" d="M 603 4863 
L 1178 4863 
L 1178 0 
L 603 0 
L 603 4863 
z
" transform="scale(0.015625)"/>
       <path id="DejaVuSans-73" d="M 2834 3397 
L 2834 2853 
Q 2591 2978 2328 3040 
Q 2066 3103 1784 3103 
Q 1356 3103 1142 2972 
Q 928 2841 928 2578 
Q 928 2378 1081 2264 
Q 1234 2150 1697 2047 
L 1894 2003 
Q 2506 1872 2764 1633 
Q 3022 1394 3022 966 
Q 3022 478 2636 193 
Q 2250 -91 1575 -91 
Q 1294 -91 989 -36 
Q 684 19 347 128 
L 347 722 
Q 666 556 975 473 
Q 1284 391 1588 391 
Q 1994 391 2212 530 
Q 2431 669 2431 922 
Q 2431 1156 2273 1281 
Q 2116 1406 1581 1522 
L 1381 1569 
Q 847 1681 609 1914 
Q 372 2147 372 2553 
Q 372 3047 722 3315 
Q 1072 3584 1716 3584 
Q 2034 3584 2315 3537 
Q 2597 3491 2834 3397 
z
" transform="scale(0.015625)"/>
       <path id="DejaVuSans-63" d="M 3122 3366 
L 3122 2828 
Q 2878 2963 2633 3030 
Q 2388 3097 2138 3097 
Q 1578 3097 1268 2742 
Q 959 2388 959 1747 
Q 959 1106 1268 751 
Q 1578 397 2138 397 
Q 2388 397 2633 464 
Q 2878 531 3122 666 
L 3122 134 
Q 2881 22 2623 -34 
Q 2366 -91 2075 -91 
Q 1284 -91 818 406 
Q 353 903 353 1747 
Q 353 2603 823 3093 
Q 1294 3584 2113 3584 
Q 2378 3584 2631 3529 
Q 2884 3475 3122 3366 
z
" transform="scale(0.015625)"/>
       <path id="DejaVuSans-6f" d="M 1959 3097 
Q 1497 3097 1228 2736 
Q 959 2375 959 1747 
Q 959 1119 1226 758 
Q 1494 397 1959 397 
Q 2419 397 2687 759 
Q 2956 1122 2956 1747 
Q 2956 2369 2687 2733 
Q 2419 3097 1959 3097 
z
M 1959 3584 
Q 2709 3584 3137 3096 
Q 3566 2609 3566 1747 
Q 3566 888 3137 398 
Q 2709 -91 1959 -91 
Q 1206 -91 779 398 
Q 353 888 353 1747 
Q 353 2609 779 3096 
Q 1206 3584 1959 3584 
z
" transform="scale(0.015625)"/>
       <path id="DejaVuSans-64" d="M 2906 2969 
L 2906 4863 
L 3481 4863 
L 3481 0 
L 2906 0 
L 2906 525 
Q 2725 213 2448 61 
Q 2172 -91 1784 -91 
Q 1150 -91 751 415 
Q 353 922 353 1747 
Q 353 2572 751 3078 
Q 1150 3584 1784 3584 
Q 2172 3584 2448 3432 
Q 2725 3281 2906 2969 
z
M 947 1747 
Q 947 1113 1208 752 
Q 1469 391 1925 391 
Q 2381 391 2643 752 
Q 2906 1113 2906 1747 
Q 2906 2381 2643 2742 
Q 2381 3103 1925 3103 
Q 1469 3103 1208 2742 
Q 947 2381 947 1747 
z
" transform="scale(0.015625)"/>
       <path id="DejaVuSans-29" d="M 513 4856 
L 1013 4856 
Q 1481 4119 1714 3412 
Q 1947 2706 1947 2009 
Q 1947 1309 1714 600 
Q 1481 -109 1013 -844 
L 513 -844 
Q 928 -128 1133 580 
Q 1338 1288 1338 2009 
Q 1338 2731 1133 3434 
Q 928 4138 513 4856 
z
" transform="scale(0.015625)"/>
      </defs>
      <use xlink:href="#DejaVuSans-54"/>
      <use xlink:href="#DejaVuSans-69" x="57.958984"/>
      <use xlink:href="#DejaVuSans-6d" x="85.742188"/>
      <use xlink:href="#DejaVuSans-65" x="183.154297"/>
      <use xlink:href="#DejaVuSans-20" x="244.677734"/>
      <use xlink:href="#DejaVuSans-28" x="276.464844"/>
      <use xlink:href="#DejaVuSans-6d" x="315.478516"/>
      <use xlink:href="#DejaVuSans-69" x="412.890625"/>
      <use xlink:href="#DejaVuSans-6c" x="440.673828"/>
      <use xlink:href="#DejaVuSans-6c" x="468.457031"/>
      <use xlink:href="#DejaVuSans-69" x="496.240234"/>
      <use xlink:href="#DejaVuSans-73" x="524.023438"/>
      <use xlink:href="#DejaVuSans-65" x="576.123047"/>
      <use xlink:href="#DejaVuSans-63" x="637.646484"/>
      <use xlink:href="#DejaVuSans-6f" x="692.626953"/>
      <use xlink:href="#DejaVuSans-6e" x="753.808594"/>
      <use xlink:href="#DejaVuSans-64" x="817.1875"/>
      <use xlink:href="#DejaVuSans-73" x="880.664062"/>
      <use xlink:href="#DejaVuSans-29" x="932.763672"/>
     </g>
    </g>
   </g>
   <g id="line2d_25">
    <path d="M 115.363636 55.8 
L 115.871417 126.676683 
L 116.379197 248.017995 
L 116.886978 254.58863 
L 117.394758 255.073349 
L 117.902539 254.157769 
L 118.410319 254.480915 
L 118.9181 221.358453 
L 119.42588 225.505493 
L 119.933661 156.944689 
L 120.441441 121.183202 
L 120.949222 145.365292 
L 121.457002 153.390083 
L 121.964783 150.589485 
L 122.472563 152.474503 
L 122.980344 153.659372 
L 123.488124 103.087027 
L 123.995905 135.455482 
L 124.503686 136.801923 
L 125.011466 145.473007 
L 125.519247 123.876085 
L 126.027027 140.464244 
L 126.534808 167.231502 
L 127.042588 187.481983 
L 127.550369 245.863689 
L 128.058149 250.010729 
L 128.56593 250.710878 
L 129.07371 253.726907 
L 129.581491 250.387732 
L 130.089271 254.534772 
L 130.597052 255.450353 
L 131.104832 247.317846 
L 131.612613 228.521522 
L 132.628174 254.050053 
L 133.135954 255.450353 
L 133.643735 255.881214 
L 134.151515 255.50421 
L 134.659296 255.28878 
L 135.167076 256.20436 
L 135.674857 238.431331 
L 136.182637 231.699124 
L 136.690418 149.296901 
L 137.198198 260.566831 
L 137.705979 259.812823 
L 138.213759 262.451849 
L 138.72154 260.3514 
L 139.22932 263.313571 
L 139.737101 264.444582 
L 140.244881 264.175294 
L 140.752662 264.444582 
L 141.260442 270.045779 
L 141.768223 271.230648 
L 142.276003 257.550801 
L 142.783784 265.467878 
L 143.291564 224.374482 
L 143.799345 205.039581 
L 144.307125 199.492242 
L 144.814906 201.000256 
L 145.322686 218.288566 
L 145.830467 263.79829 
L 146.338247 259.758966 
L 146.846028 262.774995 
L 147.353808 260.082112 
L 147.861589 258.627955 
L 148.369369 256.419791 
L 148.87715 260.836119 
L 149.38493 207.247745 
L 149.892711 186.781834 
L 150.400491 194.860483 
L 150.908272 218.126993 
L 151.416052 160.499295 
L 151.923833 203.746997 
L 152.431613 204.60872 
L 152.939394 204.393289 
L 153.447174 200.246249 
L 153.954955 223.189613 
L 154.462735 264.121436 
L 154.970516 257.443086 
L 155.478296 255.396495 
L 155.986077 260.836119 
L 156.493857 263.475144 
L 157.001638 254.103911 
L 157.509419 261.428553 
L 158.017199 264.336867 
L 158.52498 265.360162 
L 159.03276 269.022483 
L 159.540541 259.812823 
L 160.048321 269.722633 
L 160.556102 266.545031 
L 161.571663 272.846377 
L 162.079443 261.96713 
L 162.587224 221.681599 
L 163.095004 255.342637 
L 163.602785 262.990425 
L 164.110565 263.636717 
L 164.618346 263.959863 
L 165.126126 262.344133 
L 165.633907 261.482411 
L 166.649468 266.060312 
L 167.665029 263.959863 
L 168.172809 266.545031 
L 168.68059 265.629451 
L 169.18837 263.690575 
L 169.696151 263.151998 
L 170.203931 263.367429 
L 170.711712 267.191323 
L 171.219492 266.545031 
L 171.727273 266.545031 
L 172.235053 264.229152 
L 172.742834 265.360162 
L 173.250614 262.128703 
L 173.758395 264.121436 
L 174.773956 264.767728 
L 175.281736 264.390725 
L 175.789517 264.875443 
L 176.297297 264.929301 
L 176.805078 265.575593 
L 177.312858 264.821586 
L 177.820639 264.929301 
L 178.328419 264.552297 
L 178.8362 264.552297 
L 179.34398 262.828852 
L 179.851761 264.552297 
L 180.359541 264.767728 
L 180.867322 266.760462 
L 181.375102 263.421287 
L 181.882883 264.121436 
L 182.390663 267.137465 
L 182.898444 265.360162 
L 183.406224 272.361658 
L 183.914005 275.054542 
L 184.421785 276.023979 
L 184.929566 276.185552 
L 185.437346 275.269972 
L 185.945127 275.162257 
L 186.452907 275.700834 
L 187.976249 275.754691 
L 188.484029 276.454841 
L 188.99181 276.293268 
L 189.49959 276.347125 
L 190.007371 276.077837 
L 190.515152 274.839111 
L 191.022932 275.485403 
L 191.530713 274.192819 
L 192.038493 275.700834 
L 192.546274 276.293268 
L 193.054054 275.808549 
L 193.561835 275.916264 
L 194.069615 274.569823 
L 194.577396 275.108399 
L 195.085176 269.668775 
L 195.592957 273.869673 
L 196.100737 275.000684 
L 196.608518 275.162257 
L 197.116298 272.846377 
L 197.624079 275.108399 
L 198.131859 276.077837 
L 198.63964 275.754691 
L 199.14742 276.293268 
L 199.655201 276.347125 
L 200.162981 272.577089 
L 200.670762 275.754691 
L 201.178542 276.293268 
L 201.686323 275.000684 
L 202.194103 276.293268 
L 204.225225 276.562556 
L 204.733006 275.862406 
L 205.240786 274.677538 
L 205.748567 275.808549 
L 206.256347 276.562556 
L 207.271908 275.593118 
L 207.779689 276.347125 
L 208.287469 276.400983 
L 208.79525 267.676042 
L 209.30303 273.546527 
L 209.810811 270.907502 
L 210.318591 269.291772 
L 210.826372 274.731396 
L 211.334152 274.085104 
L 212.349713 275.269972 
L 212.857494 275.054542 
L 213.873055 276.777987 
L 214.380835 276.724129 
L 214.888616 276.831844 
L 215.396396 274.569823 
L 215.904177 275.862406 
L 216.411957 276.400983 
L 217.427518 276.400983 
L 217.935299 276.454841 
L 218.443079 275.377688 
L 218.95086 272.469374 
L 219.966421 273.492669 
L 220.474201 270.315067 
L 220.981982 269.722633 
L 221.489762 272.361658 
L 221.997543 272.523231 
L 223.013104 273.061808 
L 223.520885 273.169523 
L 224.028665 271.553794 
L 224.536446 270.961359 
L 225.044226 273.115666 
L 225.552007 271.015217 
L 226.059787 273.115666 
L 226.567568 272.361658 
L 227.075348 273.00795 
L 227.583129 272.954093 
L 228.090909 272.684804 
L 228.59869 272.684804 
L 229.10647 273.977388 
L 229.614251 273.761958 
L 230.122031 268.322334 
L 231.137592 271.015217 
L 232.153153 272.253943 
L 232.660934 273.223381 
L 233.168714 272.200085 
L 233.676495 273.761958 
L 234.184275 273.869673 
L 234.692056 272.846377 
L 235.199836 269.291772 
L 235.707617 270.907502 
L 236.723178 272.900235 
L 237.230958 273.384954 
L 237.738739 273.600385 
L 238.246519 273.492669 
L 238.7543 273.654242 
L 239.26208 273.00795 
L 239.769861 273.815815 
L 240.277641 269.776491 
L 240.785422 270.638213 
L 241.293202 272.577089 
L 242.308763 272.900235 
L 242.816544 273.00795 
L 243.324324 268.322334 
L 243.832105 273.331096 
L 244.339885 273.223381 
L 244.847666 270.315067 
L 245.355446 270.692071 
L 245.863227 272.738662 
L 246.371007 272.738662 
L 246.878788 274.246677 
L 247.386568 273.600385 
L 247.894349 273.277239 
L 248.402129 273.546527 
L 248.90991 273.115666 
L 249.41769 272.523231 
L 249.925471 270.853644 
L 250.433251 271.984655 
L 251.448812 273.438812 
L 251.956593 273.7081 
L 252.464373 260.243685 
L 252.972154 251.734174 
L 253.479934 260.3514 
L 253.987715 260.728404 
L 254.495495 251.195597 
L 255.003276 260.028254 
L 255.511057 261.805557 
L 256.018837 261.643984 
L 256.526618 261.96713 
L 257.034398 258.574097 
L 257.542179 260.459115 
L 258.049959 259.597393 
L 258.55774 260.028254 
L 259.573301 261.26698 
L 260.588862 261.482411 
L 261.096642 261.105407 
L 261.604423 258.412524 
L 262.112203 258.250951 
L 262.619984 260.405258 
L 263.127764 262.020987 
L 263.635545 256.90451 
L 264.143325 260.836119 
L 265.158886 261.697841 
L 265.666667 257.012225 
L 266.174447 257.766232 
L 266.682228 261.159265 
L 267.190008 262.290276 
L 267.697789 261.320838 
L 268.205569 229.652533 
L 268.71335 261.536268 
L 269.22113 259.866681 
L 269.728911 260.566831 
L 270.236691 261.751699 
L 270.744472 262.074845 
L 271.252252 261.697841 
L 272.267813 262.236418 
L 272.775594 254.696345 
L 273.283374 239.831631 
L 273.791155 254.373199 
L 274.298935 252.326608 
L 274.806716 260.405258 
L 275.314496 261.697841 
L 275.822277 262.128703 
L 276.330057 255.342637 
L 276.837838 257.012225 
L 277.345618 259.920539 
L 277.853399 260.728404 
L 278.361179 260.728404 
L 278.86896 261.105407 
L 279.37674 262.074845 
L 279.884521 261.697841 
L 280.392301 258.089378 
L 280.900082 260.135969 
L 281.407862 260.620688 
L 281.915643 260.674546 
L 282.423423 259.43582 
L 282.931204 260.836119 
L 283.438984 260.943834 
L 283.946765 258.304809 
L 284.454545 260.459115 
L 284.962326 261.805557 
L 285.470106 261.320838 
L 285.977887 259.65125 
L 286.485667 261.051549 
L 286.993448 261.428553 
L 287.501229 261.482411 
L 288.009009 257.82009 
L 288.51679 259.866681 
L 289.532351 261.536268 
L 290.040131 259.920539 
L 290.547912 260.943834 
L 291.055692 260.728404 
L 291.563473 243.493952 
L 292.071253 247.802565 
L 292.579034 248.502714 
L 293.594595 268.968626 
L 294.102375 265.629451 
L 294.610156 268.64548 
L 295.117936 263.044283 
L 295.625717 255.073349 
L 296.133497 259.058816 
L 296.641278 264.121436 
L 297.149058 271.392221 
L 297.656839 271.069075 
L 298.164619 272.307801 
L 298.6724 272.523231 
L 299.18018 273.223381 
L 299.687961 267.568327 
L 300.195741 271.607651 
L 300.703522 271.984655 
L 301.211302 272.684804 
L 302.226863 272.146228 
L 302.734644 272.415516 
L 303.242424 273.438812 
L 303.750205 274.031246 
L 304.257985 266.275743 
L 304.765766 269.668775 
L 305.273546 272.038513 
L 305.781327 271.823082 
L 306.289107 272.684804 
L 306.796888 272.900235 
L 307.304668 270.853644 
L 307.812449 273.00795 
L 308.320229 273.761958 
L 308.82801 272.954093 
L 309.33579 270.530498 
L 309.843571 273.223381 
L 310.859132 273.654242 
L 311.366912 273.384954 
L 312.382473 273.546527 
L 312.890254 268.591622 
L 313.398034 273.169523 
L 313.905815 267.891473 
L 314.413595 269.130199 
L 314.921376 272.038513 
L 315.936937 272.738662 
L 316.444717 273.277239 
L 316.952498 273.492669 
L 317.460278 272.954093 
L 317.968059 273.438812 
L 318.475839 273.384954 
L 318.98362 262.074845 
L 319.4914 271.984655 
L 319.999181 274.085104 
L 320.506962 275.108399 
L 321.014742 275.216115 
L 322.030303 273.546527 
L 322.538084 274.62368 
L 323.045864 274.785253 
L 323.553645 274.40825 
L 324.061425 269.184056 
L 324.569206 272.846377 
L 325.076986 274.085104 
L 325.584767 274.677538 
L 326.092547 274.515965 
L 326.600328 273.761958 
L 327.108108 274.62368 
L 327.615889 274.62368 
L 328.123669 274.839111 
L 328.63145 274.246677 
L 329.13923 263.421287 
L 329.647011 272.577089 
L 330.154791 273.923531 
L 330.662572 274.569823 
L 331.170352 274.892969 
L 331.678133 274.462107 
L 332.185913 275.216115 
L 332.693694 273.977388 
L 333.201474 274.731396 
L 333.709255 274.731396 
L 334.217035 271.230648 
L 334.724816 273.331096 
L 335.232596 274.569823 
L 335.740377 274.40825 
L 336.248157 274.677538 
L 336.755938 272.361658 
L 337.263718 270.584356 
L 337.771499 274.40825 
L 338.279279 274.462107 
L 338.78706 270.045779 
L 339.29484 256.20436 
L 339.802621 264.067579 
L 340.310401 260.782261 
L 340.818182 269.830348 
L 341.833743 272.900235 
L 342.849304 273.492669 
L 343.357084 269.991921 
L 343.864865 267.514469 
L 344.372645 271.661509 
L 344.880426 272.79252 
L 345.388206 272.200085 
L 345.895987 273.331096 
L 346.403767 273.654242 
L 346.911548 273.546527 
L 347.419328 274.085104 
L 347.927109 274.085104 
L 348.434889 269.130199 
L 349.45045 272.738662 
L 350.466011 273.277239 
L 350.973792 273.277239 
L 351.481572 273.654242 
L 351.989353 274.300534 
L 352.497133 273.869673 
L 353.004914 274.138961 
L 353.512695 271.069075 
L 354.020475 270.961359 
L 354.528256 272.846377 
L 355.036036 273.277239 
L 355.543817 273.00795 
L 356.051597 272.523231 
L 356.559378 273.169523 
L 357.574939 273.115666 
L 358.082719 273.600385 
L 358.5905 271.17679 
L 359.09828 273.492669 
L 359.606061 272.038513 
L 360.113841 272.79252 
L 360.621622 272.038513 
L 361.129402 273.061808 
L 361.637183 273.331096 
L 362.144963 272.684804 
L 363.160524 270.530498 
L 363.668305 258.03552 
L 364.176085 259.058816 
L 364.683866 259.058816 
L 365.191646 260.836119 
L 365.699427 262.020987 
L 366.714988 261.213122 
L 367.730549 257.658517 
L 368.238329 260.997692 
L 368.74611 261.482411 
L 369.25389 260.997692 
L 369.761671 261.590126 
L 370.269451 260.889976 
L 370.777232 258.520239 
L 371.285012 257.496944 
L 371.792793 260.782261 
L 372.300573 261.643984 
L 372.808354 261.859414 
L 373.316134 253.242189 
L 373.823915 212.041077 
L 374.839476 257.550801 
L 375.347256 262.18256 
L 375.855037 262.290276 
L 376.362817 262.128703 
L 376.870598 263.205856 
L 377.378378 260.512973 
L 377.886159 260.674546 
L 378.393939 269.022483 
L 378.90172 272.307801 
L 379.4095 272.79252 
L 379.917281 273.00795 
L 380.425061 273.492669 
L 380.932842 273.654242 
L 381.440622 267.406754 
L 381.948403 271.284505 
L 382.456183 272.954093 
L 382.963964 273.654242 
L 383.979525 273.115666 
L 384.487305 274.031246 
L 384.995086 273.761958 
L 385.502867 274.031246 
L 386.010647 271.338363 
L 386.518428 273.277239 
L 387.026208 273.923531 
L 388.041769 274.246677 
L 388.54955 273.331096 
L 389.05733 274.192819 
L 389.565111 274.731396 
L 390.072891 273.923531 
L 390.580672 271.607651 
L 391.088452 271.015217 
L 391.596233 272.469374 
L 392.104013 273.223381 
L 393.119574 273.384954 
L 393.627355 274.192819 
L 394.135135 274.246677 
L 394.642916 270.099637 
L 395.150696 269.399487 
L 395.658477 271.122932 
L 396.674038 272.253943 
L 397.181818 272.200085 
L 397.689599 274.192819 
L 398.197379 274.462107 
L 398.70516 274.085104 
L 399.21294 270.422783 
L 399.720721 272.738662 
L 400.228501 273.223381 
L 400.736282 272.577089 
L 401.244062 274.246677 
L 401.751843 274.138961 
L 402.259623 274.354392 
L 403.275184 274.031246 
L 403.782965 273.061808 
L 404.290745 274.246677 
L 404.798526 274.785253 
L 405.306306 274.462107 
L 405.814087 274.731396 
L 406.321867 274.40825 
L 406.829648 274.246677 
L 407.337428 272.523231 
L 407.845209 244.194101 
L 408.352989 259.489677 
L 409.36855 271.069075 
L 409.876331 272.146228 
L 410.384111 272.307801 
L 410.891892 271.338363 
L 411.399672 273.492669 
L 411.907453 269.884206 
L 412.415233 270.961359 
L 412.923014 272.846377 
L 413.430794 272.307801 
L 413.938575 272.846377 
L 414.446355 272.684804 
L 414.954136 273.061808 
L 415.969697 273.600385 
L 416.477477 270.853644 
L 418.000819 272.09237 
L 419.524161 273.00795 
L 420.031941 273.600385 
L 420.539722 271.499936 
L 421.047502 270.638213 
L 421.555283 272.361658 
L 422.063063 272.846377 
L 422.570844 272.684804 
L 423.078624 271.661509 
L 423.586405 271.87694 
L 424.094185 274.300534 
L 424.601966 274.40825 
L 425.109746 270.045779 
L 425.617527 271.338363 
L 426.633088 272.200085 
L 427.140868 272.307801 
L 427.648649 272.200085 
L 428.156429 273.923531 
L 428.66421 274.892969 
L 429.17199 271.17679 
L 429.679771 271.930797 
L 430.187551 271.769224 
L 430.695332 272.038513 
L 431.203112 272.523231 
L 431.710893 272.307801 
L 432.218673 273.061808 
L 432.726454 274.192819 
L 433.234234 274.085104 
L 433.742015 270.853644 
L 434.757576 273.384954 
L 435.265356 271.230648 
L 435.773137 273.169523 
L 436.280917 273.438812 
L 437.296478 273.492669 
L 437.804259 274.138961 
L 438.312039 272.469374 
L 438.81982 273.061808 
L 439.835381 273.492669 
L 440.850942 272.954093 
L 441.358722 273.815815 
L 441.866503 274.192819 
L 442.374283 269.399487 
L 442.882064 271.338363 
L 443.897625 273.438812 
L 444.405405 273.492669 
L 444.913186 273.00795 
L 445.420966 274.300534 
L 446.436527 274.515965 
L 446.944308 269.237914 
L 447.452088 272.900235 
L 447.959869 273.438812 
L 448.467649 273.546527 
L 448.97543 272.577089 
L 449.48321 273.654242 
L 450.498771 273.277239 
L 451.006552 274.192819 
L 451.514333 272.038513 
L 452.022113 273.384954 
L 452.529894 273.115666 
L 453.037674 272.577089 
L 453.545455 273.7081 
L 454.561016 273.331096 
L 455.068796 274.40825 
L 455.576577 270.692071 
L 456.084357 271.87694 
L 456.592138 271.122932 
L 457.607699 273.761958 
L 458.115479 273.977388 
L 458.62326 273.654242 
L 459.13104 274.731396 
L 459.638821 273.546527 
L 460.146601 271.607651 
L 460.654382 266.652746 
L 461.162162 273.546527 
L 461.669943 274.031246 
L 462.177723 273.384954 
L 463.193284 274.300534 
L 463.701065 274.62368 
L 464.208845 273.977388 
L 464.716626 271.607651 
L 465.224406 273.00795 
L 465.732187 273.546527 
L 466.239967 273.761958 
L 466.747748 274.300534 
L 467.255528 274.031246 
L 467.763309 274.40825 
L 468.271089 274.40825 
L 468.77887 270.692071 
L 469.28665 271.984655 
L 469.794431 274.246677 
L 470.302211 273.115666 
L 470.809992 274.192819 
L 471.317772 274.192819 
L 471.825553 274.515965 
L 472.333333 274.677538 
L 472.841114 274.515965 
L 473.348894 259.274247 
L 473.856675 263.959863 
L 474.364455 270.692071 
L 474.872236 272.469374 
L 475.380016 273.277239 
L 475.887797 273.546527 
L 476.395577 273.600385 
L 476.903358 274.300534 
L 477.411138 270.422783 
L 477.918919 269.237914 
L 478.426699 272.846377 
L 479.44226 273.654242 
L 479.950041 273.654242 
L 480.457821 273.277239 
L 481.473382 274.839111 
L 481.981163 270.692071 
L 482.488943 269.884206 
L 482.996724 271.392221 
L 483.504505 274.138961 
L 484.012285 274.085104 
L 484.520066 272.846377 
L 485.027846 273.223381 
L 485.535627 273.815815 
L 486.043407 274.731396 
L 486.551188 271.930797 
L 487.058968 271.984655 
L 487.566749 272.954093 
L 488.074529 273.546527 
L 488.58231 273.331096 
L 489.09009 273.331096 
L 489.597871 274.731396 
L 490.105651 274.839111 
L 490.613432 274.354392 
L 491.121212 271.392221 
L 491.628993 272.684804 
L 492.136773 273.169523 
L 493.152334 273.115666 
L 493.660115 273.223381 
L 494.167895 274.192819 
L 494.675676 274.354392 
L 495.183456 268.914768 
L 495.691237 270.207352 
L 496.199017 272.307801 
L 496.706798 272.361658 
L 497.214578 273.169523 
L 497.722359 271.284505 
L 498.230139 272.361658 
L 498.73792 274.085104 
L 499.2457 271.984655 
L 499.753481 270.692071 
L 500.261261 272.684804 
L 501.276822 273.654242 
L 501.784603 272.954093 
L 502.292383 273.384954 
L 502.800164 274.785253 
L 503.307944 274.731396 
L 503.815725 269.184056 
L 504.323505 270.045779 
L 504.831286 271.984655 
L 505.846847 272.469374 
L 506.354627 273.438812 
L 507.370188 274.246677 
L 507.877969 274.354392 
L 508.385749 268.86091 
L 508.89353 273.223381 
L 509.40131 273.492669 
L 509.909091 273.277239 
L 510.924652 273.654242 
L 511.432432 273.384954 
L 511.940213 272.200085 
L 512.447993 270.638213 
L 512.955774 269.722633 
L 513.463554 272.954093 
L 513.971335 273.923531 
L 514.986896 273.600385 
L 515.494676 274.40825 
L 516.002457 274.462107 
L 516.510238 274.246677 
L 517.018018 269.399487 
L 517.525799 270.47664 
L 518.033579 272.900235 
L 519.556921 274.138961 
L 520.064701 273.977388 
L 520.572482 274.246677 
L 521.080262 274.839111 
L 521.588043 270.692071 
L 522.095823 273.7081 
L 522.603604 274.354392 
L 523.111384 274.246677 
L 523.619165 274.40825 
L 524.126945 274.300534 
L 524.634726 274.354392 
L 525.142506 274.569823 
L 525.650287 273.600385 
L 526.158067 269.668775 
L 526.665848 273.223381 
L 527.173628 273.654242 
L 527.681409 274.246677 
L 528.189189 273.600385 
L 528.69697 273.815815 
L 529.20475 274.515965 
L 529.712531 273.815815 
L 530.220311 270.584356 
L 531.235872 274.300534 
L 531.743653 273.7081 
L 532.251433 273.7081 
L 532.759214 274.569823 
L 533.266994 273.869673 
L 534.282555 274.300534 
L 534.790336 272.307801 
L 535.298116 273.331096 
L 535.805897 273.923531 
L 536.821458 259.812823 
L 537.329238 269.884206 
L 537.837019 273.815815 
L 538.344799 274.246677 
L 538.85258 274.354392 
L 539.36036 270.530498 
L 539.868141 273.169523 
L 540.375921 273.438812 
L 540.883702 273.438812 
L 541.391482 274.031246 
L 542.407043 274.354392 
L 542.914824 274.138961 
L 543.422604 268.430049 
L 543.930385 272.630947 
L 544.438165 273.223381 
L 544.945946 272.79252 
L 545.453726 273.923531 
L 545.961507 273.223381 
L 546.469287 274.462107 
L 546.977068 273.438812 
L 547.484848 274.354392 
L 547.992629 271.930797 
L 548.50041 273.7081 
L 549.00819 274.40825 
L 549.515971 258.250951 
L 550.023751 268.753195 
L 550.531532 272.630947 
L 551.039312 272.900235 
L 551.547093 272.954093 
L 552.054873 268.322334 
L 552.562654 269.345629 
L 553.578215 272.900235 
L 554.085995 273.00795 
L 554.593776 273.277239 
L 555.101556 269.668775 
L 555.609337 272.469374 
L 556.117117 274.138961 
L 556.624898 269.076341 
L 557.132678 271.230648 
L 557.640459 272.09237 
L 558.148239 272.200085 
L 558.65602 272.146228 
L 559.1638 272.307801 
L 560.179361 274.462107 
L 560.687142 270.745929 
L 561.194922 270.530498 
L 561.702703 272.630947 
L 562.210483 269.668775 
L 562.718264 271.338363 
L 563.226044 270.315067 
L 563.733825 272.738662 
L 564.241605 273.384954 
L 564.749386 273.7081 
L 565.257166 271.823082 
L 565.764947 273.815815 
L 566.272727 272.577089 
L 566.780508 273.654242 
L 567.288288 273.761958 
L 567.796069 273.169523 
L 568.303849 273.492669 
L 568.81163 274.246677 
L 569.31941 269.345629 
L 569.827191 269.991921 
L 570.334971 272.200085 
L 570.842752 271.984655 
L 572.873874 274.192819 
L 573.381654 274.031246 
L 573.889435 269.399487 
L 574.397215 272.954093 
L 574.904996 273.277239 
L 575.412776 272.630947 
L 575.920557 273.600385 
L 576.428337 273.869673 
L 576.936118 273.438812 
L 577.443898 273.7081 
L 577.951679 273.7081 
L 578.459459 272.253943 
L 578.96724 274.138961 
L 579.47502 273.223381 
L 579.982801 273.761958 
L 580.490581 273.223381 
L 580.998362 273.331096 
L 582.013923 273.761958 
L 582.521704 271.823082 
L 583.029484 272.684804 
L 583.537265 272.253943 
L 584.045045 273.761958 
L 584.552826 272.630947 
L 585.060606 273.654242 
L 585.568387 273.492669 
L 586.076167 274.354392 
L 586.583948 274.246677 
L 587.091728 270.853644 
L 587.599509 271.661509 
L 588.107289 273.061808 
L 588.61507 273.869673 
L 589.12285 272.954093 
L 589.630631 273.815815 
L 590.138411 273.546527 
L 590.646192 273.761958 
L 591.153972 274.40825 
L 591.661753 265.575593 
L 592.169533 266.383458 
L 592.677314 271.499936 
L 593.185094 274.138961 
L 594.200655 274.515965 
L 595.216216 274.677538 
L 595.723997 275.054542 
L 596.231777 271.392221 
L 596.739558 272.900235 
L 597.247338 273.923531 
L 597.755119 274.300534 
L 598.262899 274.354392 
L 599.27846 273.815815 
L 599.786241 275.054542 
L 600.294021 270.745929 
L 600.801802 271.446078 
L 601.309582 274.138961 
L 601.817363 269.130199 
L 602.325143 241.985937 
L 602.832924 268.591622 
L 603.340704 273.654242 
L 603.848485 275.539261 
L 604.356265 267.514469 
L 604.864046 274.462107 
L 605.371826 274.085104 
L 606.387387 275.000684 
L 606.895168 274.354392 
L 607.402948 275.377688 
L 607.910729 275.377688 
L 608.418509 276.347125 
L 608.92629 271.338363 
L 609.43407 274.946826 
L 609.941851 273.977388 
L 610.449631 274.892969 
L 610.957412 274.839111 
L 611.465192 275.32383 
L 611.972973 275.162257 
L 612.480753 276.293268 
L 612.988534 271.230648 
L 613.496314 272.846377 
L 614.004095 275.108399 
L 614.511876 274.192819 
L 615.019656 274.40825 
L 615.527437 274.839111 
L 616.035217 265.037016 
L 616.542998 271.769224 
L 617.050778 276.562556 
L 617.558559 272.684804 
L 618.066339 275.862406 
L 618.57412 274.031246 
L 619.0819 275.216115 
L 619.589681 275.000684 
L 620.605242 275.431545 
L 621.113022 276.454841 
L 621.620803 276.562556 
L 622.128583 274.246677 
L 622.636364 274.785253 
L 622.636364 274.785253 
" clip-path="url(#p16377d398d)" style="fill: none; stroke: #1f77b4; stroke-width: 1.5; stroke-linecap: square"/>
   </g>
   <g id="line2d_26">
    <path d="M 115.363636 204.770293 
L 116.379197 284.910494 
L 116.886978 286.364651 
L 117.394758 286.526224 
L 117.902539 285.395213 
L 118.410319 279.255439 
L 118.9181 259.166531 
L 119.42588 251.303313 
L 119.933661 259.920539 
L 120.441441 245.37897 
L 120.949222 252.272751 
L 121.457002 254.103911 
L 121.964783 252.595897 
L 122.980344 254.265484 
L 123.488124 236.115452 
L 123.995905 244.086386 
L 124.503686 250.118444 
L 125.011466 252.649754 
L 125.519247 223.566617 
L 126.027027 243.440094 
L 126.534808 241.555076 
L 127.042588 266.975892 
L 128.058149 285.341355 
L 128.56593 281.409746 
L 129.07371 280.655738 
L 129.581491 285.879932 
L 130.089271 285.933789 
L 130.597052 287.0648 
L 131.104832 263.044283 
L 132.120393 284.318059 
L 132.628174 288.357384 
L 133.135954 287.926523 
L 133.643735 288.141953 
L 134.151515 287.872665 
L 134.659296 287.818807 
L 135.167076 280.548023 
L 135.674857 270.907502 
L 136.182637 249.903013 
L 136.690418 293.312289 
L 137.198198 299.075059 
L 137.705979 296.97461 
L 138.213759 299.236632 
L 138.72154 298.374909 
L 139.22932 299.882924 
L 139.737101 299.50592 
L 140.244881 299.559778 
L 141.260442 307.530712 
L 141.768223 302.414234 
L 142.276003 299.936781 
L 142.783784 299.398205 
L 143.291564 291.534986 
L 143.799345 291.481128 
L 144.307125 288.141953 
L 144.814906 287.657234 
L 145.322686 299.128916 
L 145.830467 294.928019 
L 146.338247 299.452062 
L 146.846028 295.789741 
L 147.353808 298.536482 
L 147.861589 296.597606 
L 148.369369 297.89019 
L 148.87715 288.088096 
L 149.38493 290.403975 
L 149.892711 271.17679 
L 150.400491 298.105621 
L 151.416052 288.088096 
L 151.923833 291.050267 
L 152.431613 291.21184 
L 152.939394 288.572815 
L 153.447174 289.811541 
L 153.954955 299.236632 
L 154.462735 299.452062 
L 154.970516 285.502928 
L 155.478296 285.826074 
L 155.986077 299.182774 
L 156.493857 299.452062 
L 157.001638 296.328318 
L 157.509419 302.73738 
L 158.017199 302.95281 
L 158.52498 302.575807 
L 159.03276 292.12742 
L 159.540541 307.8 
L 160.048321 303.383672 
L 160.556102 300.20607 
L 161.571663 307.369139 
L 162.079443 282.486899 
L 162.587224 281.786749 
L 163.095004 288.088096 
L 163.602785 291.427271 
L 164.618346 292.12742 
L 165.126126 287.172515 
L 165.633907 287.280231 
L 166.141687 291.534986 
L 167.157248 291.696559 
L 167.665029 292.073563 
L 168.172809 292.019705 
L 168.68059 291.588844 
L 169.18837 291.427271 
L 169.696151 290.888694 
L 170.203931 292.073563 
L 170.711712 291.642701 
L 171.219492 292.342851 
L 171.727273 287.334088 
L 172.235053 290.350118 
L 172.742834 289.111391 
L 173.250614 288.788245 
L 173.758395 291.534986 
L 174.773956 291.750417 
L 175.281736 291.481128 
L 175.789517 291.804274 
L 176.297297 291.750417 
L 176.805078 287.926523 
L 177.312858 291.104125 
L 177.820639 291.588844 
L 178.328419 291.804274 
L 178.8362 291.804274 
L 179.34398 291.642701 
L 179.851761 291.642701 
L 180.359541 291.965847 
L 180.867322 287.711092 
L 181.375102 288.303526 
L 181.882883 291.157982 
L 182.390663 287.549519 
L 182.898444 288.195811 
L 183.406224 296.436033 
L 183.914005 300.906219 
L 184.421785 302.360376 
L 184.929566 300.044497 
L 185.945127 302.252661 
L 186.452907 301.875657 
L 187.468468 303.114383 
L 188.99181 302.521949 
L 189.49959 302.414234 
L 190.007371 303.006668 
L 190.515152 300.960077 
L 191.022932 302.306518 
L 191.530713 302.629664 
L 192.038493 302.468091 
L 192.546274 302.468091 
L 193.054054 300.529216 
L 193.561835 297.944048 
L 194.069615 298.482624 
L 194.577396 269.291772 
L 195.085176 298.59034 
L 195.592957 298.967343 
L 196.100737 300.044497 
L 196.608518 300.259927 
L 197.116298 299.021201 
L 197.624079 301.390938 
L 198.131859 302.306518 
L 198.63964 302.791237 
L 199.14742 303.006668 
L 199.655201 302.468091 
L 200.162981 299.182774 
L 200.670762 302.252661 
L 201.178542 302.73738 
L 201.686323 302.73738 
L 202.701884 303.329814 
L 203.209664 302.521949 
L 204.225225 302.95281 
L 205.240786 302.091088 
L 205.748567 302.791237 
L 206.764128 302.791237 
L 207.271908 301.067792 
L 207.779689 302.73738 
L 208.287469 297.89019 
L 208.79525 296.328318 
L 209.30303 296.166745 
L 209.810811 301.12165 
L 210.318591 296.813037 
L 210.826372 300.636931 
L 211.334152 300.690789 
L 211.841933 300.259927 
L 212.349713 300.636931 
L 212.857494 300.529216 
L 213.365274 301.983373 
L 213.873055 302.95281 
L 214.380835 303.060526 
L 214.888616 302.95281 
L 215.904177 300.098354 
L 216.919738 302.845095 
L 217.427518 302.73738 
L 217.935299 303.006668 
L 218.443079 298.80577 
L 218.95086 302.683522 
L 219.45864 303.060526 
L 219.966421 303.006668 
L 220.474201 300.960077 
L 220.981982 302.198803 
L 221.489762 303.006668 
L 221.997543 303.545245 
L 222.505324 303.114383 
L 223.013104 303.114383 
L 223.520885 302.95281 
L 224.028665 302.091088 
L 224.536446 303.329814 
L 225.044226 299.398205 
L 225.552007 303.006668 
L 227.075348 303.383672 
L 227.583129 303.114383 
L 228.090909 303.599102 
L 228.59869 303.599102 
L 229.10647 303.329814 
L 229.614251 303.437529 
L 230.122031 296.651464 
L 230.629812 300.367643 
L 231.137592 300.636931 
L 231.645373 301.12165 
L 232.153153 303.006668 
L 233.676495 303.599102 
L 234.692056 303.599102 
L 235.199836 298.159479 
L 235.707617 299.398205 
L 236.215397 301.013935 
L 236.723178 303.060526 
L 237.230958 302.898953 
L 237.738739 303.383672 
L 239.26208 303.760675 
L 239.769861 301.498654 
L 240.277641 301.8218 
L 240.785422 303.222099 
L 241.293202 303.437529 
L 241.800983 303.168241 
L 242.308763 303.383672 
L 242.816544 301.12165 
L 243.324324 303.168241 
L 243.832105 303.545245 
L 244.339885 303.65296 
L 244.847666 302.95281 
L 245.355446 302.791237 
L 245.863227 303.114383 
L 246.878788 303.168241 
L 247.386568 303.329814 
L 248.402129 303.437529 
L 248.90991 303.599102 
L 249.41769 303.599102 
L 249.925471 302.252661 
L 250.433251 302.144946 
L 250.941032 303.275956 
L 251.448812 303.329814 
L 251.956593 303.599102 
L 252.464373 288.088096 
L 253.479934 291.642701 
L 253.987715 284.156486 
L 254.495495 290.457833 
L 255.003276 291.696559 
L 255.511057 291.319555 
L 256.018837 291.91199 
L 256.526618 290.188545 
L 257.034398 290.673264 
L 257.542179 291.91199 
L 258.049959 291.157982 
L 258.55774 291.642701 
L 259.06552 291.642701 
L 259.573301 291.965847 
L 260.081081 291.319555 
L 260.588862 291.91199 
L 261.096642 291.642701 
L 261.604423 289.111391 
L 262.112203 291.373413 
L 262.619984 291.804274 
L 263.127764 284.264202 
L 263.635545 290.727121 
L 264.143325 291.858132 
L 264.651106 292.181278 
L 265.158886 287.711092 
L 265.666667 290.242402 
L 266.174447 291.481128 
L 266.682228 291.965847 
L 267.190008 292.019705 
L 267.697789 291.858132 
L 268.205569 292.12742 
L 268.71335 291.91199 
L 269.22113 290.403975 
L 269.728911 292.019705 
L 270.236691 292.12742 
L 270.744472 291.965847 
L 271.252252 291.481128 
L 271.760033 292.181278 
L 272.267813 291.965847 
L 272.775594 274.677538 
L 273.283374 283.83334 
L 273.791155 281.355888 
L 274.298935 290.080829 
L 274.806716 287.76495 
L 275.314496 292.181278 
L 275.822277 292.073563 
L 276.330057 290.350118 
L 276.837838 291.91199 
L 277.345618 291.91199 
L 277.853399 287.818807 
L 278.361179 291.804274 
L 278.86896 291.534986 
L 279.37674 291.965847 
L 279.884521 285.44907 
L 280.392301 291.642701 
L 280.900082 291.750417 
L 281.407862 290.780979 
L 281.915643 292.019705 
L 282.423423 291.750417 
L 282.931204 291.642701 
L 283.438984 291.696559 
L 283.946765 290.888694 
L 284.454545 291.588844 
L 284.962326 291.373413 
L 285.470106 291.804274 
L 285.977887 291.750417 
L 286.485667 292.019705 
L 286.993448 292.073563 
L 287.501229 289.219107 
L 288.51679 291.481128 
L 289.02457 291.373413 
L 289.532351 292.073563 
L 290.040131 291.534986 
L 290.547912 291.965847 
L 291.055692 289.865399 
L 291.563473 278.339859 
L 292.071253 286.14922 
L 292.579034 281.248173 
L 293.086814 297.459329 
L 293.594595 297.782475 
L 294.102375 299.829066 
L 294.610156 300.906219 
L 295.117936 284.425775 
L 295.625717 284.856636 
L 296.133497 289.111391 
L 296.641278 299.829066 
L 297.149058 299.829066 
L 297.656839 300.4215 
L 298.6724 303.168241 
L 299.18018 299.290489 
L 299.687961 298.59034 
L 300.195741 298.482624 
L 300.703522 299.667493 
L 301.211302 301.175508 
L 301.719083 299.936781 
L 302.226863 300.152212 
L 302.734644 302.521949 
L 303.242424 304.083821 
L 303.750205 303.275956 
L 304.257985 297.513187 
L 304.765766 299.829066 
L 305.781327 300.583073 
L 306.289107 300.475358 
L 306.796888 299.882924 
L 307.304668 303.383672 
L 307.812449 303.437529 
L 308.320229 303.222099 
L 308.82801 297.944048 
L 309.33579 302.306518 
L 309.843571 303.222099 
L 310.351351 303.545245 
L 310.859132 303.275956 
L 311.366912 303.545245 
L 311.874693 303.599102 
L 312.382473 302.95281 
L 312.890254 303.275956 
L 313.398034 303.437529 
L 313.905815 295.466595 
L 314.413595 299.721351 
L 314.921376 299.829066 
L 315.429156 300.313785 
L 315.936937 302.73738 
L 316.444717 303.168241 
L 316.952498 303.168241 
L 317.460278 303.545245 
L 317.968059 303.275956 
L 318.475839 303.65296 
L 318.98362 300.098354 
L 319.4914 303.599102 
L 319.999181 303.437529 
L 320.506962 304.945544 
L 321.014742 304.35311 
L 321.522523 305.053259 
L 322.030303 304.730113 
L 323.045864 304.837829 
L 323.553645 304.460825 
L 324.061425 302.252661 
L 324.569206 304.299252 
L 325.076986 304.35311 
L 325.584767 304.891686 
L 326.092547 304.514683 
L 327.108108 304.891686 
L 327.615889 304.676256 
L 328.123669 304.730113 
L 328.63145 274.300534 
L 329.13923 296.651464 
L 329.647011 302.521949 
L 330.154791 304.730113 
L 332.693694 304.891686 
L 333.201474 304.622398 
L 333.709255 299.344347 
L 334.217035 304.299252 
L 334.724816 304.083821 
L 335.232596 304.891686 
L 335.740377 304.837829 
L 336.248157 305.160975 
L 336.755938 296.166745 
L 337.263718 302.521949 
L 337.771499 304.514683 
L 338.279279 304.622398 
L 338.78706 302.683522 
L 339.29484 287.387946 
L 339.802621 298.698055 
L 340.310401 299.50592 
L 340.818182 302.414234 
L 341.325962 303.114383 
L 342.849304 303.706818 
L 343.357084 296.166745 
L 343.864865 298.159479 
L 344.880426 300.798504 
L 345.388206 302.791237 
L 345.895987 303.545245 
L 346.403767 303.491387 
L 346.911548 304.083821 
L 347.419328 304.299252 
L 347.927109 303.545245 
L 348.434889 297.082325 
L 348.94267 302.03723 
L 349.45045 303.222099 
L 349.958231 300.906219 
L 350.466011 303.383672 
L 351.481572 303.922248 
L 351.989353 304.245394 
L 352.497133 303.599102 
L 353.004914 301.175508 
L 353.512695 301.552511 
L 354.020475 303.114383 
L 354.528256 303.491387 
L 355.036036 303.65296 
L 355.543817 303.545245 
L 356.051597 303.922248 
L 356.559378 303.329814 
L 357.067158 303.65296 
L 357.574939 303.599102 
L 358.082719 299.829066 
L 358.5905 302.091088 
L 359.09828 303.383672 
L 360.113841 303.275956 
L 360.621622 303.65296 
L 361.129402 303.383672 
L 362.144963 303.65296 
L 362.652744 303.383672 
L 363.160524 301.390938 
L 363.668305 288.465099 
L 364.176085 291.481128 
L 364.683866 291.588844 
L 365.191646 291.481128 
L 365.699427 291.91199 
L 366.207207 291.858132 
L 366.714988 291.373413 
L 367.222768 288.303526 
L 367.730549 289.649968 
L 368.238329 291.965847 
L 369.25389 291.804274 
L 370.269451 291.588844 
L 370.777232 290.727121 
L 371.285012 291.642701 
L 372.300573 291.804274 
L 372.808354 291.373413 
L 373.316134 271.392221 
L 373.823915 258.197093 
L 374.331695 273.815815 
L 374.839476 280.548023 
L 375.347256 280.601881 
L 375.855037 282.00218 
L 376.870598 281.732892 
L 377.378378 279.201582 
L 377.886159 280.494165 
L 378.393939 288.411242 
L 378.90172 290.242402 
L 379.4095 290.619406 
L 379.917281 291.319555 
L 380.932842 294.389442 
L 381.440622 289.59611 
L 381.948403 290.403975 
L 382.456183 291.427271 
L 383.471744 291.481128 
L 384.487305 293.52772 
L 384.995086 293.581577 
L 385.502867 294.174012 
L 386.010647 292.181278 
L 386.518428 293.74315 
L 387.026208 293.366147 
L 388.041769 293.74315 
L 388.54955 293.581577 
L 389.05733 294.120154 
L 389.565111 294.389442 
L 390.072891 288.895961 
L 391.088452 293.420004 
L 391.596233 293.473862 
L 392.104013 292.719855 
L 392.611794 292.82757 
L 393.119574 293.52772 
L 394.135135 293.797008 
L 394.642916 286.310793 
L 395.150696 289.434537 
L 395.658477 290.242402 
L 396.166257 290.780979 
L 396.674038 290.996409 
L 397.181818 292.82757 
L 397.689599 291.696559 
L 398.197379 293.204574 
L 398.70516 291.050267 
L 399.21294 291.481128 
L 399.720721 292.881428 
L 400.228501 293.52772 
L 400.736282 293.258431 
L 401.244062 293.581577 
L 401.751843 294.120154 
L 402.259623 293.958581 
L 402.767404 294.174012 
L 403.275184 290.727121 
L 403.782965 293.043001 
L 404.290745 294.281727 
L 404.798526 293.958581 
L 405.306306 294.281727 
L 405.814087 293.635435 
L 406.321867 294.281727 
L 406.829648 293.689293 
L 407.337428 289.703826 
L 407.845209 280.925027 
L 408.352989 286.633939 
L 408.86077 290.188545 
L 409.36855 291.157982 
L 410.384111 292.019705 
L 410.891892 292.342851 
L 411.399672 293.850866 
L 411.907453 288.303526 
L 412.415233 290.996409 
L 413.430794 291.427271 
L 414.446355 291.319555 
L 414.954136 291.750417 
L 415.461916 293.473862 
L 415.969697 288.465099 
L 416.477477 289.865399 
L 416.985258 291.750417 
L 417.493038 291.750417 
L 418.000819 292.073563 
L 418.5086 292.019705 
L 419.01638 291.750417 
L 419.524161 293.150716 
L 420.031941 294.012439 
L 420.539722 288.842103 
L 421.047502 291.319555 
L 421.555283 292.396709 
L 422.063063 292.019705 
L 422.570844 291.91199 
L 423.078624 289.542253 
L 423.586405 291.965847 
L 424.094185 293.797008 
L 424.601966 289.111391 
L 425.109746 289.811541 
L 425.617527 291.534986 
L 426.125307 291.588844 
L 427.140868 292.181278 
L 427.648649 293.204574 
L 428.156429 294.874161 
L 428.66421 294.012439 
L 429.17199 289.757683 
L 429.679771 291.265698 
L 430.187551 290.996409 
L 430.695332 291.481128 
L 431.203112 291.750417 
L 431.710893 292.235136 
L 432.218673 294.227869 
L 432.726454 294.604873 
L 433.234234 290.242402 
L 433.742015 291.319555 
L 434.249795 293.420004 
L 434.757576 293.420004 
L 435.773137 293.689293 
L 436.280917 293.096858 
L 437.296478 294.227869 
L 437.804259 287.926523 
L 438.312039 293.473862 
L 438.81982 293.850866 
L 439.3276 293.150716 
L 439.835381 293.581577 
L 440.850942 293.420004 
L 441.866503 294.012439 
L 442.374283 288.626672 
L 442.882064 291.965847 
L 443.389844 291.750417 
L 443.897625 293.420004 
L 444.405405 293.581577 
L 444.913186 293.581577 
L 445.928747 294.120154 
L 446.436527 294.066296 
L 446.944308 291.157982 
L 447.452088 293.635435 
L 447.959869 293.258431 
L 448.467649 293.689293 
L 449.48321 293.52772 
L 449.990991 294.012439 
L 450.498771 294.227869 
L 451.006552 291.050267 
L 452.022113 294.012439 
L 452.529894 293.850866 
L 453.037674 294.604873 
L 453.545455 294.066296 
L 454.053235 294.335585 
L 455.068796 294.120154 
L 455.576577 292.881428 
L 456.084357 293.52772 
L 456.592138 288.949818 
L 457.099918 293.366147 
L 457.607699 294.551015 
L 458.115479 293.904723 
L 458.62326 294.335585 
L 459.13104 294.335585 
L 459.638821 294.120154 
L 460.146601 258.627955 
L 460.654382 291.427271 
L 461.162162 294.281727 
L 461.669943 294.604873 
L 462.177723 294.012439 
L 462.685504 294.174012 
L 463.701065 294.174012 
L 464.208845 289.703826 
L 464.716626 293.204574 
L 465.224406 293.635435 
L 465.732187 294.4433 
L 466.239967 294.389442 
L 466.747748 294.174012 
L 467.255528 294.389442 
L 467.763309 294.4433 
L 468.271089 294.174012 
L 468.77887 291.965847 
L 469.28665 293.850866 
L 469.794431 293.958581 
L 470.809992 294.65873 
L 471.317772 294.120154 
L 472.333333 294.712588 
L 472.841114 294.335585 
L 473.348894 279.740158 
L 473.856675 288.842103 
L 474.364455 291.588844 
L 474.872236 291.965847 
L 475.380016 291.858132 
L 475.887797 292.12742 
L 476.395577 292.773712 
L 476.903358 293.958581 
L 477.411138 292.235136 
L 477.918919 293.689293 
L 478.426699 294.227869 
L 478.93448 294.227869 
L 479.44226 293.958581 
L 479.950041 294.65873 
L 480.457821 294.820303 
L 481.473382 294.604873 
L 481.981163 288.734388 
L 482.488943 288.411242 
L 483.504505 291.427271 
L 484.012285 289.488395 
L 484.520066 291.642701 
L 485.027846 291.858132 
L 485.535627 293.420004 
L 486.043407 292.235136 
L 486.551188 291.804274 
L 487.058968 293.312289 
L 487.566749 293.581577 
L 488.074529 293.366147 
L 488.58231 293.52772 
L 489.597871 294.604873 
L 490.105651 294.281727 
L 490.613432 287.818807 
L 491.121212 292.073563 
L 491.628993 293.150716 
L 492.136773 293.420004 
L 492.644554 293.312289 
L 493.152334 293.581577 
L 493.660115 293.366147 
L 494.167895 293.581577 
L 494.675676 294.281727 
L 495.183456 287.98038 
L 495.691237 291.319555 
L 496.199017 290.511691 
L 497.214578 291.750417 
L 497.722359 291.21184 
L 498.230139 292.288993 
L 498.73792 294.120154 
L 499.2457 289.219107 
L 499.753481 291.696559 
L 500.261261 293.473862 
L 500.769042 293.204574 
L 501.276822 293.204574 
L 502.292383 293.420004 
L 502.800164 293.366147 
L 503.307944 293.958581 
L 503.815725 288.141953 
L 504.323505 290.673264 
L 504.831286 291.481128 
L 505.339066 291.050267 
L 505.846847 291.696559 
L 506.354627 291.642701 
L 507.370188 293.581577 
L 507.877969 294.120154 
L 508.385749 292.773712 
L 508.89353 293.52772 
L 509.40131 293.366147 
L 509.909091 293.366147 
L 510.924652 293.797008 
L 511.432432 293.689293 
L 511.940213 289.003676 
L 512.447993 285.610643 
L 512.955774 293.150716 
L 513.463554 292.665997 
L 513.971335 293.150716 
L 514.479115 293.366147 
L 514.986896 293.312289 
L 515.494676 292.881428 
L 516.002457 293.635435 
L 516.510238 293.850866 
L 517.018018 287.226373 
L 517.525799 291.696559 
L 518.033579 291.319555 
L 518.54136 290.727121 
L 519.04914 292.719855 
L 519.556921 293.312289 
L 520.064701 293.312289 
L 520.572482 294.604873 
L 521.080262 290.026972 
L 521.588043 291.157982 
L 522.095823 293.635435 
L 522.603604 292.935285 
L 523.111384 292.935285 
L 523.619165 293.52772 
L 524.126945 293.473862 
L 524.634726 294.389442 
L 525.142506 294.281727 
L 525.650287 289.811541 
L 526.158067 292.612139 
L 526.665848 293.258431 
L 527.173628 293.473862 
L 528.189189 294.389442 
L 528.69697 293.689293 
L 529.20475 293.258431 
L 529.712531 294.227869 
L 530.220311 289.973114 
L 530.728092 293.366147 
L 531.235872 294.174012 
L 531.743653 293.904723 
L 532.251433 294.335585 
L 533.266994 294.012439 
L 533.774775 294.604873 
L 534.282555 294.4433 
L 534.790336 291.965847 
L 535.298116 294.066296 
L 535.805897 292.450566 
L 536.313677 285.664501 
L 536.821458 287.98038 
L 537.329238 292.504424 
L 537.837019 293.958581 
L 538.344799 294.174012 
L 538.85258 286.741654 
L 539.36036 292.612139 
L 539.868141 293.52772 
L 540.883702 293.958581 
L 541.899263 293.366147 
L 542.407043 293.904723 
L 542.914824 294.227869 
L 543.422604 286.310793 
L 543.930385 290.996409 
L 544.438165 291.265698 
L 544.945946 291.157982 
L 545.961507 292.773712 
L 546.469287 292.450566 
L 546.977068 293.150716 
L 547.484848 290.942552 
L 547.992629 291.050267 
L 548.50041 293.258431 
L 549.00819 293.689293 
L 549.515971 291.534986 
L 550.023751 293.635435 
L 550.531532 294.174012 
L 551.547093 294.389442 
L 552.054873 287.98038 
L 552.562654 291.588844 
L 553.070434 291.965847 
L 554.085995 292.288993 
L 554.593776 290.511691 
L 555.101556 289.973114 
L 555.609337 293.096858 
L 556.117117 289.057534 
L 556.624898 288.949818 
L 557.132678 291.21184 
L 557.640459 291.373413 
L 558.65602 292.235136 
L 559.671581 293.797008 
L 560.179361 293.850866 
L 560.687142 287.603377 
L 561.194922 291.104125 
L 562.718264 291.588844 
L 563.226044 291.427271 
L 563.733825 291.588844 
L 564.241605 294.012439 
L 564.749386 290.457833 
L 565.257166 292.558282 
L 565.764947 293.366147 
L 566.780508 293.635435 
L 567.288288 293.204574 
L 567.796069 293.74315 
L 568.303849 293.689293 
L 568.81163 294.174012 
L 569.31941 289.542253 
L 570.334971 291.534986 
L 570.842752 291.642701 
L 571.350532 292.019705 
L 571.858313 291.481128 
L 572.366093 293.312289 
L 572.873874 293.689293 
L 573.381654 293.850866 
L 573.889435 292.719855 
L 574.397215 293.043001 
L 574.904996 293.689293 
L 575.412776 293.74315 
L 575.920557 293.52772 
L 576.428337 293.74315 
L 576.936118 294.227869 
L 577.443898 294.066296 
L 577.951679 289.811541 
L 578.459459 293.473862 
L 579.47502 294.174012 
L 579.982801 294.174012 
L 580.490581 293.043001 
L 580.998362 293.420004 
L 581.506143 293.635435 
L 582.013923 293.689293 
L 582.521704 292.719855 
L 583.029484 292.665997 
L 583.537265 293.420004 
L 584.045045 293.581577 
L 584.552826 293.52772 
L 585.060606 293.797008 
L 585.568387 294.227869 
L 586.076167 294.227869 
L 586.583948 294.551015 
L 587.091728 288.034238 
L 587.599509 291.265698 
L 588.107289 292.181278 
L 588.61507 293.904723 
L 589.630631 294.497158 
L 590.138411 294.604873 
L 590.646192 294.066296 
L 591.153972 294.4433 
L 591.661753 288.411242 
L 592.169533 288.465099 
L 592.677314 293.52772 
L 593.185094 294.335585 
L 593.692875 294.227869 
L 594.708436 294.335585 
L 595.216216 295.035734 
L 595.723997 289.919256 
L 596.231777 293.258431 
L 596.739558 294.227869 
L 597.247338 294.389442 
L 597.755119 294.012439 
L 598.262899 294.4433 
L 598.77068 294.120154 
L 599.786241 294.227869 
L 600.294021 292.181278 
L 601.309582 294.65873 
L 601.817363 244.409532 
L 602.325143 279.147724 
L 602.832924 288.626672 
L 603.340704 289.919256 
L 603.848485 291.534986 
L 604.356265 289.272964 
L 604.864046 291.534986 
L 605.371826 292.396709 
L 605.879607 291.858132 
L 606.387387 292.181278 
L 606.895168 292.235136 
L 607.402948 290.834837 
L 607.910729 292.181278 
L 608.418509 286.526224 
L 608.92629 290.727121 
L 609.43407 292.181278 
L 610.449631 292.073563 
L 610.957412 291.750417 
L 611.465192 292.450566 
L 611.972973 292.12742 
L 612.480753 292.288993 
L 612.988534 286.041505 
L 613.496314 289.111391 
L 614.004095 289.865399 
L 614.511876 289.59611 
L 615.019656 289.488395 
L 615.527437 289.111391 
L 616.035217 290.242402 
L 616.542998 292.073563 
L 617.050778 288.842103 
L 618.066339 293.312289 
L 618.57412 290.188545 
L 619.0819 292.719855 
L 619.589681 292.019705 
L 620.097461 301.067792 
L 620.605242 301.929515 
L 621.113022 303.060526 
L 621.620803 300.4215 
L 622.128583 301.013935 
L 622.636364 301.229365 
L 622.636364 301.229365 
" clip-path="url(#p16377d398d)" style="fill: none; stroke: #ff7f0e; stroke-width: 1.5; stroke-linecap: square"/>
   </g>
   <g id="patch_3">
    <path d="M 90 320.4 
L 90 43.2 
" style="fill: none; stroke: #000000; stroke-width: 0.8; stroke-linejoin: miter; stroke-linecap: square"/>
   </g>
   <g id="patch_4">
    <path d="M 648 320.4 
L 648 43.2 
" style="fill: none; stroke: #000000; stroke-width: 0.8; stroke-linejoin: miter; stroke-linecap: square"/>
   </g>
   <g id="patch_5">
    <path d="M 90 320.4 
L 648 320.4 
" style="fill: none; stroke: #000000; stroke-width: 0.8; stroke-linejoin: miter; stroke-linecap: square"/>
   </g>
   <g id="patch_6">
    <path d="M 90 43.2 
L 648 43.2 
" style="fill: none; stroke: #000000; stroke-width: 0.8; stroke-linejoin: miter; stroke-linecap: square"/>
   </g>
   <g id="text_15">
    <!-- Time Comparison: PostgreSQL vs Redis -->
    <g transform="translate(251.620313 37.2) scale(0.12 -0.12)">
     <defs>
      <path id="DejaVuSans-43" d="M 4122 4306 
L 4122 3641 
Q 3803 3938 3442 4084 
Q 3081 4231 2675 4231 
Q 1875 4231 1450 3742 
Q 1025 3253 1025 2328 
Q 1025 1406 1450 917 
Q 1875 428 2675 428 
Q 3081 428 3442 575 
Q 3803 722 4122 1019 
L 4122 359 
Q 3791 134 3420 21 
Q 3050 -91 2638 -91 
Q 1578 -91 968 557 
Q 359 1206 359 2328 
Q 359 3453 968 4101 
Q 1578 4750 2638 4750 
Q 3056 4750 3426 4639 
Q 3797 4528 4122 4306 
z
" transform="scale(0.015625)"/>
      <path id="DejaVuSans-70" d="M 1159 525 
L 1159 -1331 
L 581 -1331 
L 581 3500 
L 1159 3500 
L 1159 2969 
Q 1341 3281 1617 3432 
Q 1894 3584 2278 3584 
Q 2916 3584 3314 3078 
Q 3713 2572 3713 1747 
Q 3713 922 3314 415 
Q 2916 -91 2278 -91 
Q 1894 -91 1617 61 
Q 1341 213 1159 525 
z
M 3116 1747 
Q 3116 2381 2855 2742 
Q 2594 3103 2138 3103 
Q 1681 3103 1420 2742 
Q 1159 2381 1159 1747 
Q 1159 1113 1420 752 
Q 1681 391 2138 391 
Q 2594 391 2855 752 
Q 3116 1113 3116 1747 
z
" transform="scale(0.015625)"/>
      <path id="DejaVuSans-61" d="M 2194 1759 
Q 1497 1759 1228 1600 
Q 959 1441 959 1056 
Q 959 750 1161 570 
Q 1363 391 1709 391 
Q 2188 391 2477 730 
Q 2766 1069 2766 1631 
L 2766 1759 
L 2194 1759 
z
M 3341 1997 
L 3341 0 
L 2766 0 
L 2766 531 
Q 2569 213 2275 61 
Q 1981 -91 1556 -91 
Q 1019 -91 701 211 
Q 384 513 384 1019 
Q 384 1609 779 1909 
Q 1175 2209 1959 2209 
L 2766 2209 
L 2766 2266 
Q 2766 2663 2505 2880 
Q 2244 3097 1772 3097 
Q 1472 3097 1187 3025 
Q 903 2953 641 2809 
L 641 3341 
Q 956 3463 1253 3523 
Q 1550 3584 1831 3584 
Q 2591 3584 2966 3190 
Q 3341 2797 3341 1997 
z
" transform="scale(0.015625)"/>
      <path id="DejaVuSans-3a" d="M 750 794 
L 1409 794 
L 1409 0 
L 750 0 
L 750 794 
z
M 750 3309 
L 1409 3309 
L 1409 2516 
L 750 2516 
L 750 3309 
z
" transform="scale(0.015625)"/>
      <path id="DejaVuSans-50" d="M 1259 4147 
L 1259 2394 
L 2053 2394 
Q 2494 2394 2734 2622 
Q 2975 2850 2975 3272 
Q 2975 3691 2734 3919 
Q 2494 4147 2053 4147 
L 1259 4147 
z
M 628 4666 
L 2053 4666 
Q 2838 4666 3239 4311 
Q 3641 3956 3641 3272 
Q 3641 2581 3239 2228 
Q 2838 1875 2053 1875 
L 1259 1875 
L 1259 0 
L 628 0 
L 628 4666 
z
" transform="scale(0.015625)"/>
      <path id="DejaVuSans-74" d="M 1172 4494 
L 1172 3500 
L 2356 3500 
L 2356 3053 
L 1172 3053 
L 1172 1153 
Q 1172 725 1289 603 
Q 1406 481 1766 481 
L 2356 481 
L 2356 0 
L 1766 0 
Q 1100 0 847 248 
Q 594 497 594 1153 
L 594 3053 
L 172 3053 
L 172 3500 
L 594 3500 
L 594 4494 
L 1172 4494 
z
" transform="scale(0.015625)"/>
      <path id="DejaVuSans-67" d="M 2906 1791 
Q 2906 2416 2648 2759 
Q 2391 3103 1925 3103 
Q 1463 3103 1205 2759 
Q 947 2416 947 1791 
Q 947 1169 1205 825 
Q 1463 481 1925 481 
Q 2391 481 2648 825 
Q 2906 1169 2906 1791 
z
M 3481 434 
Q 3481 -459 3084 -895 
Q 2688 -1331 1869 -1331 
Q 1566 -1331 1297 -1286 
Q 1028 -1241 775 -1147 
L 775 -588 
Q 1028 -725 1275 -790 
Q 1522 -856 1778 -856 
Q 2344 -856 2625 -561 
Q 2906 -266 2906 331 
L 2906 616 
Q 2728 306 2450 153 
Q 2172 0 1784 0 
Q 1141 0 747 490 
Q 353 981 353 1791 
Q 353 2603 747 3093 
Q 1141 3584 1784 3584 
Q 2172 3584 2450 3431 
Q 2728 3278 2906 2969 
L 2906 3500 
L 3481 3500 
L 3481 434 
z
" transform="scale(0.015625)"/>
      <path id="DejaVuSans-53" d="M 3425 4513 
L 3425 3897 
Q 3066 4069 2747 4153 
Q 2428 4238 2131 4238 
Q 1616 4238 1336 4038 
Q 1056 3838 1056 3469 
Q 1056 3159 1242 3001 
Q 1428 2844 1947 2747 
L 2328 2669 
Q 3034 2534 3370 2195 
Q 3706 1856 3706 1288 
Q 3706 609 3251 259 
Q 2797 -91 1919 -91 
Q 1588 -91 1214 -16 
Q 841 59 441 206 
L 441 856 
Q 825 641 1194 531 
Q 1563 422 1919 422 
Q 2459 422 2753 634 
Q 3047 847 3047 1241 
Q 3047 1584 2836 1778 
Q 2625 1972 2144 2069 
L 1759 2144 
Q 1053 2284 737 2584 
Q 422 2884 422 3419 
Q 422 4038 858 4394 
Q 1294 4750 2059 4750 
Q 2388 4750 2728 4690 
Q 3069 4631 3425 4513 
z
" transform="scale(0.015625)"/>
      <path id="DejaVuSans-4c" d="M 628 4666 
L 1259 4666 
L 1259 531 
L 3531 531 
L 3531 0 
L 628 0 
L 628 4666 
z
" transform="scale(0.015625)"/>
      <path id="DejaVuSans-76" d="M 191 3500 
L 800 3500 
L 1894 563 
L 2988 3500 
L 3597 3500 
L 2284 0 
L 1503 0 
L 191 3500 
z
" transform="scale(0.015625)"/>
      <path id="DejaVuSans-52" d="M 2841 2188 
Q 3044 2119 3236 1894 
Q 3428 1669 3622 1275 
L 4263 0 
L 3584 0 
L 2988 1197 
Q 2756 1666 2539 1819 
Q 2322 1972 1947 1972 
L 1259 1972 
L 1259 0 
L 628 0 
L 628 4666 
L 2053 4666 
Q 2853 4666 3247 4331 
Q 3641 3997 3641 3322 
Q 3641 2881 3436 2590 
Q 3231 2300 2841 2188 
z
M 1259 4147 
L 1259 2491 
L 2053 2491 
Q 2509 2491 2742 2702 
Q 2975 2913 2975 3322 
Q 2975 3731 2742 3939 
Q 2509 4147 2053 4147 
L 1259 4147 
z
" transform="scale(0.015625)"/>
     </defs>
     <use xlink:href="#DejaVuSans-54"/>
     <use xlink:href="#DejaVuSans-69" x="57.958984"/>
     <use xlink:href="#DejaVuSans-6d" x="85.742188"/>
     <use xlink:href="#DejaVuSans-65" x="183.154297"/>
     <use xlink:href="#DejaVuSans-20" x="244.677734"/>
     <use xlink:href="#DejaVuSans-43" x="276.464844"/>
     <use xlink:href="#DejaVuSans-6f" x="346.289062"/>
     <use xlink:href="#DejaVuSans-6d" x="407.470703"/>
     <use xlink:href="#DejaVuSans-70" x="504.882812"/>
     <use xlink:href="#DejaVuSans-61" x="568.359375"/>
     <use xlink:href="#DejaVuSans-72" x="629.638672"/>
     <use xlink:href="#DejaVuSans-69" x="670.751953"/>
     <use xlink:href="#DejaVuSans-73" x="698.535156"/>
     <use xlink:href="#DejaVuSans-6f" x="750.634766"/>
     <use xlink:href="#DejaVuSans-6e" x="811.816406"/>
     <use xlink:href="#DejaVuSans-3a" x="875.195312"/>
     <use xlink:href="#DejaVuSans-20" x="908.886719"/>
     <use xlink:href="#DejaVuSans-50" x="940.673828"/>
     <use xlink:href="#DejaVuSans-6f" x="997.351562"/>
     <use xlink:href="#DejaVuSans-73" x="1058.533203"/>
     <use xlink:href="#DejaVuSans-74" x="1110.632812"/>
     <use xlink:href="#DejaVuSans-67" x="1149.841797"/>
     <use xlink:href="#DejaVuSans-72" x="1213.318359"/>
     <use xlink:href="#DejaVuSans-65" x="1252.181641"/>
     <use xlink:href="#DejaVuSans-53" x="1313.705078"/>
     <use xlink:href="#DejaVuSans-51" x="1377.181641"/>
     <use xlink:href="#DejaVuSans-4c" x="1455.892578"/>
     <use xlink:href="#DejaVuSans-20" x="1511.605469"/>
     <use xlink:href="#DejaVuSans-76" x="1543.392578"/>
     <use xlink:href="#DejaVuSans-73" x="1602.572266"/>
     <use xlink:href="#DejaVuSans-20" x="1654.671875"/>
     <use xlink:href="#DejaVuSans-52" x="1686.458984"/>
     <use xlink:href="#DejaVuSans-65" x="1751.441406"/>
     <use xlink:href="#DejaVuSans-64" x="1812.964844"/>
     <use xlink:href="#DejaVuSans-69" x="1876.441406"/>
     <use xlink:href="#DejaVuSans-73" x="1904.224609"/>
    </g>
   </g>
   <g id="legend_1">
    <g id="patch_7">
     <path d="M 526.134375 80.55625 
L 641 80.55625 
Q 643 80.55625 643 78.55625 
L 643 50.2 
Q 643 48.2 641 48.2 
L 526.134375 48.2 
Q 524.134375 48.2 524.134375 50.2 
L 524.134375 78.55625 
Q 524.134375 80.55625 526.134375 80.55625 
z
" style="fill: #ffffff; opacity: 0.8; stroke: #cccccc; stroke-linejoin: miter"/>
    </g>
    <g id="line2d_27">
     <path d="M 528.134375 56.298437 
L 538.134375 56.298437 
L 548.134375 56.298437 
" style="fill: none; stroke: #1f77b4; stroke-width: 1.5; stroke-linecap: square"/>
    </g>
    <g id="text_16">
     <!-- PostgreSQL time -->
     <g transform="translate(556.134375 59.798437) scale(0.1 -0.1)">
      <use xlink:href="#DejaVuSans-50"/>
      <use xlink:href="#DejaVuSans-6f" x="56.677734"/>
      <use xlink:href="#DejaVuSans-73" x="117.859375"/>
      <use xlink:href="#DejaVuSans-74" x="169.958984"/>
      <use xlink:href="#DejaVuSans-67" x="209.167969"/>
      <use xlink:href="#DejaVuSans-72" x="272.644531"/>
      <use xlink:href="#DejaVuSans-65" x="311.507812"/>
      <use xlink:href="#DejaVuSans-53" x="373.03125"/>
      <use xlink:href="#DejaVuSans-51" x="436.507812"/>
      <use xlink:href="#DejaVuSans-4c" x="515.21875"/>
      <use xlink:href="#DejaVuSans-20" x="570.931641"/>
      <use xlink:href="#DejaVuSans-74" x="602.71875"/>
      <use xlink:href="#DejaVuSans-69" x="641.927734"/>
      <use xlink:href="#DejaVuSans-6d" x="669.710938"/>
      <use xlink:href="#DejaVuSans-65" x="767.123047"/>
     </g>
    </g>
    <g id="line2d_28">
     <path d="M 528.134375 70.976562 
L 538.134375 70.976562 
L 548.134375 70.976562 
" style="fill: none; stroke: #ff7f0e; stroke-width: 1.5; stroke-linecap: square"/>
    </g>
    <g id="text_17">
     <!-- Redis time -->
     <g transform="translate(556.134375 74.476562) scale(0.1 -0.1)">
      <use xlink:href="#DejaVuSans-52"/>
      <use xlink:href="#DejaVuSans-65" x="64.982422"/>
      <use xlink:href="#DejaVuSans-64" x="126.505859"/>
      <use xlink:href="#DejaVuSans-69" x="189.982422"/>
      <use xlink:href="#DejaVuSans-73" x="217.765625"/>
      <use xlink:href="#DejaVuSans-20" x="269.865234"/>
      <use xlink:href="#DejaVuSans-74" x="301.652344"/>
      <use xlink:href="#DejaVuSans-69" x="340.861328"/>
      <use xlink:href="#DejaVuSans-6d" x="368.644531"/>
      <use xlink:href="#DejaVuSans-65" x="466.056641"/>
     </g>
    </g>
   </g>
  </g>
 </g>
 <defs>
  <clipPath id="p16377d398d">
   <rect x="90" y="43.2" width="558" height="277.2"/>
  </clipPath>
 </defs>
</svg>
