<?xml version="1.0" encoding="utf-8" standalone="no"?>
<!DOCTYPE svg PUBLIC "-//W3C//DTD SVG 1.1//EN"
  "http://www.w3.org/Graphics/SVG/1.1/DTD/svg11.dtd">
<svg xmlns:xlink="http://www.w3.org/1999/xlink" width="720pt" height="360pt" viewBox="0 0 720 360" xmlns="http://www.w3.org/2000/svg" version="1.1">
 <metadata>
  <rdf:RDF xmlns:dc="http://purl.org/dc/elements/1.1/" xmlns:cc="http://creativecommons.org/ns#" xmlns:rdf="http://www.w3.org/1999/02/22-rdf-syntax-ns#">
   <cc:Work>
    <dc:type rdf:resource="http://purl.org/dc/dcmitype/StillImage"/>
    <dc:date>2024-11-30T16:47:33.367761</dc:date>
    <dc:format>image/svg+xml</dc:format>
    <dc:creator>
     <cc:Agent>
      <dc:title>Matplotlib v3.9.2, https://matplotlib.org/</dc:title>
     </cc:Agent>
    </dc:creator>
   </cc:Work>
  </rdf:RDF>
 </metadata>
 <defs>
  <style type="text/css">*{stroke-linejoin: round; stroke-linecap: butt}</style>
 </defs>
 <g id="figure_1">
  <g id="patch_1">
   <path d="M 0 360 
L 720 360 
L 720 0 
L 0 0 
z
" style="fill: #ffffff"/>
  </g>
  <g id="axes_1">
   <g id="patch_2">
    <path d="M 90 320.4 
L 648 320.4 
L 648 43.2 
L 90 43.2 
z
" style="fill: #ffffff"/>
   </g>
   <g id="matplotlib.axis_1">
    <g id="xtick_1">
     <g id="line2d_1">
      <path d="M 114.855856 320.4 
L 114.855856 43.2 
" clip-path="url(#pd69e5271af)" style="fill: none; stroke: #b0b0b0; stroke-width: 0.8; stroke-linecap: square"/>
     </g>
     <g id="line2d_2">
      <defs>
       <path id="meeb3a347df" d="M 0 0 
L 0 3.5 
" style="stroke: #000000; stroke-width: 0.8"/>
      </defs>
      <g>
       <use xlink:href="#meeb3a347df" x="114.855856" y="320.4" style="stroke: #000000; stroke-width: 0.8"/>
      </g>
     </g>
     <g id="text_1">
      <!-- 0 -->
      <g transform="translate(111.674606 334.998438) scale(0.1 -0.1)">
       <defs>
        <path id="DejaVuSans-30" d="M 2034 4250 
Q 1547 4250 1301 3770 
Q 1056 3291 1056 2328 
Q 1056 1369 1301 889 
Q 1547 409 2034 409 
Q 2525 409 2770 889 
Q 3016 1369 3016 2328 
Q 3016 3291 2770 3770 
Q 2525 4250 2034 4250 
z
M 2034 4750 
Q 2819 4750 3233 4129 
Q 3647 3509 3647 2328 
Q 3647 1150 3233 529 
Q 2819 -91 2034 -91 
Q 1250 -91 836 529 
Q 422 1150 422 2328 
Q 422 3509 836 4129 
Q 1250 4750 2034 4750 
z
" transform="scale(0.015625)"/>
       </defs>
       <use xlink:href="#DejaVuSans-30"/>
      </g>
     </g>
    </g>
    <g id="xtick_2">
     <g id="line2d_3">
      <path d="M 216.411957 320.4 
L 216.411957 43.2 
" clip-path="url(#pd69e5271af)" style="fill: none; stroke: #b0b0b0; stroke-width: 0.8; stroke-linecap: square"/>
     </g>
     <g id="line2d_4">
      <g>
       <use xlink:href="#meeb3a347df" x="216.411957" y="320.4" style="stroke: #000000; stroke-width: 0.8"/>
      </g>
     </g>
     <g id="text_2">
      <!-- 200 -->
      <g transform="translate(206.868207 334.998438) scale(0.1 -0.1)">
       <defs>
        <path id="DejaVuSans-32" d="M 1228 531 
L 3431 531 
L 3431 0 
L 469 0 
L 469 531 
Q 828 903 1448 1529 
Q 2069 2156 2228 2338 
Q 2531 2678 2651 2914 
Q 2772 3150 2772 3378 
Q 2772 3750 2511 3984 
Q 2250 4219 1831 4219 
Q 1534 4219 1204 4116 
Q 875 4013 500 3803 
L 500 4441 
Q 881 4594 1212 4672 
Q 1544 4750 1819 4750 
Q 2544 4750 2975 4387 
Q 3406 4025 3406 3419 
Q 3406 3131 3298 2873 
Q 3191 2616 2906 2266 
Q 2828 2175 2409 1742 
Q 1991 1309 1228 531 
z
" transform="scale(0.015625)"/>
       </defs>
       <use xlink:href="#DejaVuSans-32"/>
       <use xlink:href="#DejaVuSans-30" x="63.623047"/>
       <use xlink:href="#DejaVuSans-30" x="127.246094"/>
      </g>
     </g>
    </g>
    <g id="xtick_3">
     <g id="line2d_5">
      <path d="M 317.968059 320.4 
L 317.968059 43.2 
" clip-path="url(#pd69e5271af)" style="fill: none; stroke: #b0b0b0; stroke-width: 0.8; stroke-linecap: square"/>
     </g>
     <g id="line2d_6">
      <g>
       <use xlink:href="#meeb3a347df" x="317.968059" y="320.4" style="stroke: #000000; stroke-width: 0.8"/>
      </g>
     </g>
     <g id="text_3">
      <!-- 400 -->
      <g transform="translate(308.424309 334.998438) scale(0.1 -0.1)">
       <defs>
        <path id="DejaVuSans-34" d="M 2419 4116 
L 825 1625 
L 2419 1625 
L 2419 4116 
z
M 2253 4666 
L 3047 4666 
L 3047 1625 
L 3713 1625 
L 3713 1100 
L 3047 1100 
L 3047 0 
L 2419 0 
L 2419 1100 
L 313 1100 
L 313 1709 
L 2253 4666 
z
" transform="scale(0.015625)"/>
       </defs>
       <use xlink:href="#DejaVuSans-34"/>
       <use xlink:href="#DejaVuSans-30" x="63.623047"/>
       <use xlink:href="#DejaVuSans-30" x="127.246094"/>
      </g>
     </g>
    </g>
    <g id="xtick_4">
     <g id="line2d_7">
      <path d="M 419.524161 320.4 
L 419.524161 43.2 
" clip-path="url(#pd69e5271af)" style="fill: none; stroke: #b0b0b0; stroke-width: 0.8; stroke-linecap: square"/>
     </g>
     <g id="line2d_8">
      <g>
       <use xlink:href="#meeb3a347df" x="419.524161" y="320.4" style="stroke: #000000; stroke-width: 0.8"/>
      </g>
     </g>
     <g id="text_4">
      <!-- 600 -->
      <g transform="translate(409.980411 334.998438) scale(0.1 -0.1)">
       <defs>
        <path id="DejaVuSans-36" d="M 2113 2584 
Q 1688 2584 1439 2293 
Q 1191 2003 1191 1497 
Q 1191 994 1439 701 
Q 1688 409 2113 409 
Q 2538 409 2786 701 
Q 3034 994 3034 1497 
Q 3034 2003 2786 2293 
Q 2538 2584 2113 2584 
z
M 3366 4563 
L 3366 3988 
Q 3128 4100 2886 4159 
Q 2644 4219 2406 4219 
Q 1781 4219 1451 3797 
Q 1122 3375 1075 2522 
Q 1259 2794 1537 2939 
Q 1816 3084 2150 3084 
Q 2853 3084 3261 2657 
Q 3669 2231 3669 1497 
Q 3669 778 3244 343 
Q 2819 -91 2113 -91 
Q 1303 -91 875 529 
Q 447 1150 447 2328 
Q 447 3434 972 4092 
Q 1497 4750 2381 4750 
Q 2619 4750 2861 4703 
Q 3103 4656 3366 4563 
z
" transform="scale(0.015625)"/>
       </defs>
       <use xlink:href="#DejaVuSans-36"/>
       <use xlink:href="#DejaVuSans-30" x="63.623047"/>
       <use xlink:href="#DejaVuSans-30" x="127.246094"/>
      </g>
     </g>
    </g>
    <g id="xtick_5">
     <g id="line2d_9">
      <path d="M 521.080262 320.4 
L 521.080262 43.2 
" clip-path="url(#pd69e5271af)" style="fill: none; stroke: #b0b0b0; stroke-width: 0.8; stroke-linecap: square"/>
     </g>
     <g id="line2d_10">
      <g>
       <use xlink:href="#meeb3a347df" x="521.080262" y="320.4" style="stroke: #000000; stroke-width: 0.8"/>
      </g>
     </g>
     <g id="text_5">
      <!-- 800 -->
      <g transform="translate(511.536512 334.998438) scale(0.1 -0.1)">
       <defs>
        <path id="DejaVuSans-38" d="M 2034 2216 
Q 1584 2216 1326 1975 
Q 1069 1734 1069 1313 
Q 1069 891 1326 650 
Q 1584 409 2034 409 
Q 2484 409 2743 651 
Q 3003 894 3003 1313 
Q 3003 1734 2745 1975 
Q 2488 2216 2034 2216 
z
M 1403 2484 
Q 997 2584 770 2862 
Q 544 3141 544 3541 
Q 544 4100 942 4425 
Q 1341 4750 2034 4750 
Q 2731 4750 3128 4425 
Q 3525 4100 3525 3541 
Q 3525 3141 3298 2862 
Q 3072 2584 2669 2484 
Q 3125 2378 3379 2068 
Q 3634 1759 3634 1313 
Q 3634 634 3220 271 
Q 2806 -91 2034 -91 
Q 1263 -91 848 271 
Q 434 634 434 1313 
Q 434 1759 690 2068 
Q 947 2378 1403 2484 
z
M 1172 3481 
Q 1172 3119 1398 2916 
Q 1625 2713 2034 2713 
Q 2441 2713 2670 2916 
Q 2900 3119 2900 3481 
Q 2900 3844 2670 4047 
Q 2441 4250 2034 4250 
Q 1625 4250 1398 4047 
Q 1172 3844 1172 3481 
z
" transform="scale(0.015625)"/>
       </defs>
       <use xlink:href="#DejaVuSans-38"/>
       <use xlink:href="#DejaVuSans-30" x="63.623047"/>
       <use xlink:href="#DejaVuSans-30" x="127.246094"/>
      </g>
     </g>
    </g>
    <g id="xtick_6">
     <g id="line2d_11">
      <path d="M 622.636364 320.4 
L 622.636364 43.2 
" clip-path="url(#pd69e5271af)" style="fill: none; stroke: #b0b0b0; stroke-width: 0.8; stroke-linecap: square"/>
     </g>
     <g id="line2d_12">
      <g>
       <use xlink:href="#meeb3a347df" x="622.636364" y="320.4" style="stroke: #000000; stroke-width: 0.8"/>
      </g>
     </g>
     <g id="text_6">
      <!-- 1000 -->
      <g transform="translate(609.911364 334.998438) scale(0.1 -0.1)">
       <defs>
        <path id="DejaVuSans-31" d="M 794 531 
L 1825 531 
L 1825 4091 
L 703 3866 
L 703 4441 
L 1819 4666 
L 2450 4666 
L 2450 531 
L 3481 531 
L 3481 0 
L 794 0 
L 794 531 
z
" transform="scale(0.015625)"/>
       </defs>
       <use xlink:href="#DejaVuSans-31"/>
       <use xlink:href="#DejaVuSans-30" x="63.623047"/>
       <use xlink:href="#DejaVuSans-30" x="127.246094"/>
       <use xlink:href="#DejaVuSans-30" x="190.869141"/>
      </g>
     </g>
    </g>
    <g id="text_7">
     <!-- Query number -->
     <g transform="translate(332.700781 348.676562) scale(0.1 -0.1)">
      <defs>
       <path id="DejaVuSans-51" d="M 2522 4238 
Q 1834 4238 1429 3725 
Q 1025 3213 1025 2328 
Q 1025 1447 1429 934 
Q 1834 422 2522 422 
Q 3209 422 3611 934 
Q 4013 1447 4013 2328 
Q 4013 3213 3611 3725 
Q 3209 4238 2522 4238 
z
M 3406 84 
L 4238 -825 
L 3475 -825 
L 2784 -78 
Q 2681 -84 2626 -87 
Q 2572 -91 2522 -91 
Q 1538 -91 948 567 
Q 359 1225 359 2328 
Q 359 3434 948 4092 
Q 1538 4750 2522 4750 
Q 3503 4750 4090 4092 
Q 4678 3434 4678 2328 
Q 4678 1516 4351 937 
Q 4025 359 3406 84 
z
" transform="scale(0.015625)"/>
       <path id="DejaVuSans-75" d="M 544 1381 
L 544 3500 
L 1119 3500 
L 1119 1403 
Q 1119 906 1312 657 
Q 1506 409 1894 409 
Q 2359 409 2629 706 
Q 2900 1003 2900 1516 
L 2900 3500 
L 3475 3500 
L 3475 0 
L 2900 0 
L 2900 538 
Q 2691 219 2414 64 
Q 2138 -91 1772 -91 
Q 1169 -91 856 284 
Q 544 659 544 1381 
z
M 1991 3584 
L 1991 3584 
z
" transform="scale(0.015625)"/>
       <path id="DejaVuSans-65" d="M 3597 1894 
L 3597 1613 
L 953 1613 
Q 991 1019 1311 708 
Q 1631 397 2203 397 
Q 2534 397 2845 478 
Q 3156 559 3463 722 
L 3463 178 
Q 3153 47 2828 -22 
Q 2503 -91 2169 -91 
Q 1331 -91 842 396 
Q 353 884 353 1716 
Q 353 2575 817 3079 
Q 1281 3584 2069 3584 
Q 2775 3584 3186 3129 
Q 3597 2675 3597 1894 
z
M 3022 2063 
Q 3016 2534 2758 2815 
Q 2500 3097 2075 3097 
Q 1594 3097 1305 2825 
Q 1016 2553 972 2059 
L 3022 2063 
z
" transform="scale(0.015625)"/>
       <path id="DejaVuSans-72" d="M 2631 2963 
Q 2534 3019 2420 3045 
Q 2306 3072 2169 3072 
Q 1681 3072 1420 2755 
Q 1159 2438 1159 1844 
L 1159 0 
L 581 0 
L 581 3500 
L 1159 3500 
L 1159 2956 
Q 1341 3275 1631 3429 
Q 1922 3584 2338 3584 
Q 2397 3584 2469 3576 
Q 2541 3569 2628 3553 
L 2631 2963 
z
" transform="scale(0.015625)"/>
       <path id="DejaVuSans-79" d="M 2059 -325 
Q 1816 -950 1584 -1140 
Q 1353 -1331 966 -1331 
L 506 -1331 
L 506 -850 
L 844 -850 
Q 1081 -850 1212 -737 
Q 1344 -625 1503 -206 
L 1606 56 
L 191 3500 
L 800 3500 
L 1894 763 
L 2988 3500 
L 3597 3500 
L 2059 -325 
z
" transform="scale(0.015625)"/>
       <path id="DejaVuSans-20" transform="scale(0.015625)"/>
       <path id="DejaVuSans-6e" d="M 3513 2113 
L 3513 0 
L 2938 0 
L 2938 2094 
Q 2938 2591 2744 2837 
Q 2550 3084 2163 3084 
Q 1697 3084 1428 2787 
Q 1159 2491 1159 1978 
L 1159 0 
L 581 0 
L 581 3500 
L 1159 3500 
L 1159 2956 
Q 1366 3272 1645 3428 
Q 1925 3584 2291 3584 
Q 2894 3584 3203 3211 
Q 3513 2838 3513 2113 
z
" transform="scale(0.015625)"/>
       <path id="DejaVuSans-6d" d="M 3328 2828 
Q 3544 3216 3844 3400 
Q 4144 3584 4550 3584 
Q 5097 3584 5394 3201 
Q 5691 2819 5691 2113 
L 5691 0 
L 5113 0 
L 5113 2094 
Q 5113 2597 4934 2840 
Q 4756 3084 4391 3084 
Q 3944 3084 3684 2787 
Q 3425 2491 3425 1978 
L 3425 0 
L 2847 0 
L 2847 2094 
Q 2847 2600 2669 2842 
Q 2491 3084 2119 3084 
Q 1678 3084 1418 2786 
Q 1159 2488 1159 1978 
L 1159 0 
L 581 0 
L 581 3500 
L 1159 3500 
L 1159 2956 
Q 1356 3278 1631 3431 
Q 1906 3584 2284 3584 
Q 2666 3584 2933 3390 
Q 3200 3197 3328 2828 
z
" transform="scale(0.015625)"/>
       <path id="DejaVuSans-62" d="M 3116 1747 
Q 3116 2381 2855 2742 
Q 2594 3103 2138 3103 
Q 1681 3103 1420 2742 
Q 1159 2381 1159 1747 
Q 1159 1113 1420 752 
Q 1681 391 2138 391 
Q 2594 391 2855 752 
Q 3116 1113 3116 1747 
z
M 1159 2969 
Q 1341 3281 1617 3432 
Q 1894 3584 2278 3584 
Q 2916 3584 3314 3078 
Q 3713 2572 3713 1747 
Q 3713 922 3314 415 
Q 2916 -91 2278 -91 
Q 1894 -91 1617 61 
Q 1341 213 1159 525 
L 1159 0 
L 581 0 
L 581 4863 
L 1159 4863 
L 1159 2969 
z
" transform="scale(0.015625)"/>
      </defs>
      <use xlink:href="#DejaVuSans-51"/>
      <use xlink:href="#DejaVuSans-75" x="78.710938"/>
      <use xlink:href="#DejaVuSans-65" x="142.089844"/>
      <use xlink:href="#DejaVuSans-72" x="203.613281"/>
      <use xlink:href="#DejaVuSans-79" x="244.726562"/>
      <use xlink:href="#DejaVuSans-20" x="303.90625"/>
      <use xlink:href="#DejaVuSans-6e" x="335.693359"/>
      <use xlink:href="#DejaVuSans-75" x="399.072266"/>
      <use xlink:href="#DejaVuSans-6d" x="462.451172"/>
      <use xlink:href="#DejaVuSans-62" x="559.863281"/>
      <use xlink:href="#DejaVuSans-65" x="623.339844"/>
      <use xlink:href="#DejaVuSans-72" x="684.863281"/>
     </g>
    </g>
   </g>
   <g id="matplotlib.axis_2">
    <g id="ytick_1">
     <g id="line2d_13">
      <path d="M 90 316.289056 
L 648 316.289056 
" clip-path="url(#pd69e5271af)" style="fill: none; stroke: #b0b0b0; stroke-width: 0.8; stroke-linecap: square"/>
     </g>
     <g id="line2d_14">
      <defs>
       <path id="m912ab65260" d="M 0 0 
L -3.5 0 
" style="stroke: #000000; stroke-width: 0.8"/>
      </defs>
      <g>
       <use xlink:href="#m912ab65260" x="90" y="316.289056" style="stroke: #000000; stroke-width: 0.8"/>
      </g>
     </g>
     <g id="text_8">
      <!-- 0.0 -->
      <g transform="translate(67.096875 320.088275) scale(0.1 -0.1)">
       <defs>
        <path id="DejaVuSans-2e" d="M 684 794 
L 1344 794 
L 1344 0 
L 684 0 
L 684 794 
z
" transform="scale(0.015625)"/>
       </defs>
       <use xlink:href="#DejaVuSans-30"/>
       <use xlink:href="#DejaVuSans-2e" x="63.623047"/>
       <use xlink:href="#DejaVuSans-30" x="95.410156"/>
      </g>
     </g>
    </g>
    <g id="ytick_2">
     <g id="line2d_15">
      <path d="M 90 280.141156 
L 648 280.141156 
" clip-path="url(#pd69e5271af)" style="fill: none; stroke: #b0b0b0; stroke-width: 0.8; stroke-linecap: square"/>
     </g>
     <g id="line2d_16">
      <g>
       <use xlink:href="#m912ab65260" x="90" y="280.141156" style="stroke: #000000; stroke-width: 0.8"/>
      </g>
     </g>
     <g id="text_9">
      <!-- 0.2 -->
      <g transform="translate(67.096875 283.940374) scale(0.1 -0.1)">
       <use xlink:href="#DejaVuSans-30"/>
       <use xlink:href="#DejaVuSans-2e" x="63.623047"/>
       <use xlink:href="#DejaVuSans-32" x="95.410156"/>
      </g>
     </g>
    </g>
    <g id="ytick_3">
     <g id="line2d_17">
      <path d="M 90 243.993255 
L 648 243.993255 
" clip-path="url(#pd69e5271af)" style="fill: none; stroke: #b0b0b0; stroke-width: 0.8; stroke-linecap: square"/>
     </g>
     <g id="line2d_18">
      <g>
       <use xlink:href="#m912ab65260" x="90" y="243.993255" style="stroke: #000000; stroke-width: 0.8"/>
      </g>
     </g>
     <g id="text_10">
      <!-- 0.4 -->
      <g transform="translate(67.096875 247.792474) scale(0.1 -0.1)">
       <use xlink:href="#DejaVuSans-30"/>
       <use xlink:href="#DejaVuSans-2e" x="63.623047"/>
       <use xlink:href="#DejaVuSans-34" x="95.410156"/>
      </g>
     </g>
    </g>
    <g id="ytick_4">
     <g id="line2d_19">
      <path d="M 90 207.845355 
L 648 207.845355 
" clip-path="url(#pd69e5271af)" style="fill: none; stroke: #b0b0b0; stroke-width: 0.8; stroke-linecap: square"/>
     </g>
     <g id="line2d_20">
      <g>
       <use xlink:href="#m912ab65260" x="90" y="207.845355" style="stroke: #000000; stroke-width: 0.8"/>
      </g>
     </g>
     <g id="text_11">
      <!-- 0.6 -->
      <g transform="translate(67.096875 211.644574) scale(0.1 -0.1)">
       <use xlink:href="#DejaVuSans-30"/>
       <use xlink:href="#DejaVuSans-2e" x="63.623047"/>
       <use xlink:href="#DejaVuSans-36" x="95.410156"/>
      </g>
     </g>
    </g>
    <g id="ytick_5">
     <g id="line2d_21">
      <path d="M 90 171.697454 
L 648 171.697454 
" clip-path="url(#pd69e5271af)" style="fill: none; stroke: #b0b0b0; stroke-width: 0.8; stroke-linecap: square"/>
     </g>
     <g id="line2d_22">
      <g>
       <use xlink:href="#m912ab65260" x="90" y="171.697454" style="stroke: #000000; stroke-width: 0.8"/>
      </g>
     </g>
     <g id="text_12">
      <!-- 0.8 -->
      <g transform="translate(67.096875 175.496673) scale(0.1 -0.1)">
       <use xlink:href="#DejaVuSans-30"/>
       <use xlink:href="#DejaVuSans-2e" x="63.623047"/>
       <use xlink:href="#DejaVuSans-38" x="95.410156"/>
      </g>
     </g>
    </g>
    <g id="ytick_6">
     <g id="line2d_23">
      <path d="M 90 135.549554 
L 648 135.549554 
" clip-path="url(#pd69e5271af)" style="fill: none; stroke: #b0b0b0; stroke-width: 0.8; stroke-linecap: square"/>
     </g>
     <g id="line2d_24">
      <g>
       <use xlink:href="#m912ab65260" x="90" y="135.549554" style="stroke: #000000; stroke-width: 0.8"/>
      </g>
     </g>
     <g id="text_13">
      <!-- 1.0 -->
      <g transform="translate(67.096875 139.348773) scale(0.1 -0.1)">
       <use xlink:href="#DejaVuSans-31"/>
       <use xlink:href="#DejaVuSans-2e" x="63.623047"/>
       <use xlink:href="#DejaVuSans-30" x="95.410156"/>
      </g>
     </g>
    </g>
    <g id="ytick_7">
     <g id="line2d_25">
      <path d="M 90 99.401654 
L 648 99.401654 
" clip-path="url(#pd69e5271af)" style="fill: none; stroke: #b0b0b0; stroke-width: 0.8; stroke-linecap: square"/>
     </g>
     <g id="line2d_26">
      <g>
       <use xlink:href="#m912ab65260" x="90" y="99.401654" style="stroke: #000000; stroke-width: 0.8"/>
      </g>
     </g>
     <g id="text_14">
      <!-- 1.2 -->
      <g transform="translate(67.096875 103.200872) scale(0.1 -0.1)">
       <use xlink:href="#DejaVuSans-31"/>
       <use xlink:href="#DejaVuSans-2e" x="63.623047"/>
       <use xlink:href="#DejaVuSans-32" x="95.410156"/>
      </g>
     </g>
    </g>
    <g id="ytick_8">
     <g id="line2d_27">
      <path d="M 90 63.253753 
L 648 63.253753 
" clip-path="url(#pd69e5271af)" style="fill: none; stroke: #b0b0b0; stroke-width: 0.8; stroke-linecap: square"/>
     </g>
     <g id="line2d_28">
      <g>
       <use xlink:href="#m912ab65260" x="90" y="63.253753" style="stroke: #000000; stroke-width: 0.8"/>
      </g>
     </g>
     <g id="text_15">
      <!-- 1.4 -->
      <g transform="translate(67.096875 67.052972) scale(0.1 -0.1)">
       <use xlink:href="#DejaVuSans-31"/>
       <use xlink:href="#DejaVuSans-2e" x="63.623047"/>
       <use xlink:href="#DejaVuSans-34" x="95.410156"/>
      </g>
     </g>
    </g>
    <g id="text_16">
     <!-- Time (milliseconds) -->
     <g transform="translate(61.017187 230.388281) rotate(-90) scale(0.1 -0.1)">
      <defs>
       <path id="DejaVuSans-54" d="M -19 4666 
L 3928 4666 
L 3928 4134 
L 2272 4134 
L 2272 0 
L 1638 0 
L 1638 4134 
L -19 4134 
L -19 4666 
z
" transform="scale(0.015625)"/>
       <path id="DejaVuSans-69" d="M 603 3500 
L 1178 3500 
L 1178 0 
L 603 0 
L 603 3500 
z
M 603 4863 
L 1178 4863 
L 1178 4134 
L 603 4134 
L 603 4863 
z
" transform="scale(0.015625)"/>
       <path id="DejaVuSans-28" d="M 1984 4856 
Q 1566 4138 1362 3434 
Q 1159 2731 1159 2009 
Q 1159 1288 1364 580 
Q 1569 -128 1984 -844 
L 1484 -844 
Q 1016 -109 783 600 
Q 550 1309 550 2009 
Q 550 2706 781 3412 
Q 1013 4119 1484 4856 
L 1984 4856 
z
" transform="scale(0.015625)"/>
       <path id="DejaVuSans-6c" d="M 603 4863 
L 1178 4863 
L 1178 0 
L 603 0 
L 603 4863 
z
" transform="scale(0.015625)"/>
       <path id="DejaVuSans-73" d="M 2834 3397 
L 2834 2853 
Q 2591 2978 2328 3040 
Q 2066 3103 1784 3103 
Q 1356 3103 1142 2972 
Q 928 2841 928 2578 
Q 928 2378 1081 2264 
Q 1234 2150 1697 2047 
L 1894 2003 
Q 2506 1872 2764 1633 
Q 3022 1394 3022 966 
Q 3022 478 2636 193 
Q 2250 -91 1575 -91 
Q 1294 -91 989 -36 
Q 684 19 347 128 
L 347 722 
Q 666 556 975 473 
Q 1284 391 1588 391 
Q 1994 391 2212 530 
Q 2431 669 2431 922 
Q 2431 1156 2273 1281 
Q 2116 1406 1581 1522 
L 1381 1569 
Q 847 1681 609 1914 
Q 372 2147 372 2553 
Q 372 3047 722 3315 
Q 1072 3584 1716 3584 
Q 2034 3584 2315 3537 
Q 2597 3491 2834 3397 
z
" transform="scale(0.015625)"/>
       <path id="DejaVuSans-63" d="M 3122 3366 
L 3122 2828 
Q 2878 2963 2633 3030 
Q 2388 3097 2138 3097 
Q 1578 3097 1268 2742 
Q 959 2388 959 1747 
Q 959 1106 1268 751 
Q 1578 397 2138 397 
Q 2388 397 2633 464 
Q 2878 531 3122 666 
L 3122 134 
Q 2881 22 2623 -34 
Q 2366 -91 2075 -91 
Q 1284 -91 818 406 
Q 353 903 353 1747 
Q 353 2603 823 3093 
Q 1294 3584 2113 3584 
Q 2378 3584 2631 3529 
Q 2884 3475 3122 3366 
z
" transform="scale(0.015625)"/>
       <path id="DejaVuSans-6f" d="M 1959 3097 
Q 1497 3097 1228 2736 
Q 959 2375 959 1747 
Q 959 1119 1226 758 
Q 1494 397 1959 397 
Q 2419 397 2687 759 
Q 2956 1122 2956 1747 
Q 2956 2369 2687 2733 
Q 2419 3097 1959 3097 
z
M 1959 3584 
Q 2709 3584 3137 3096 
Q 3566 2609 3566 1747 
Q 3566 888 3137 398 
Q 2709 -91 1959 -91 
Q 1206 -91 779 398 
Q 353 888 353 1747 
Q 353 2609 779 3096 
Q 1206 3584 1959 3584 
z
" transform="scale(0.015625)"/>
       <path id="DejaVuSans-64" d="M 2906 2969 
L 2906 4863 
L 3481 4863 
L 3481 0 
L 2906 0 
L 2906 525 
Q 2725 213 2448 61 
Q 2172 -91 1784 -91 
Q 1150 -91 751 415 
Q 353 922 353 1747 
Q 353 2572 751 3078 
Q 1150 3584 1784 3584 
Q 2172 3584 2448 3432 
Q 2725 3281 2906 2969 
z
M 947 1747 
Q 947 1113 1208 752 
Q 1469 391 1925 391 
Q 2381 391 2643 752 
Q 2906 1113 2906 1747 
Q 2906 2381 2643 2742 
Q 2381 3103 1925 3103 
Q 1469 3103 1208 2742 
Q 947 2381 947 1747 
z
" transform="scale(0.015625)"/>
       <path id="DejaVuSans-29" d="M 513 4856 
L 1013 4856 
Q 1481 4119 1714 3412 
Q 1947 2706 1947 2009 
Q 1947 1309 1714 600 
Q 1481 -109 1013 -844 
L 513 -844 
Q 928 -128 1133 580 
Q 1338 1288 1338 2009 
Q 1338 2731 1133 3434 
Q 928 4138 513 4856 
z
" transform="scale(0.015625)"/>
      </defs>
      <use xlink:href="#DejaVuSans-54"/>
      <use xlink:href="#DejaVuSans-69" x="57.958984"/>
      <use xlink:href="#DejaVuSans-6d" x="85.742188"/>
      <use xlink:href="#DejaVuSans-65" x="183.154297"/>
      <use xlink:href="#DejaVuSans-20" x="244.677734"/>
      <use xlink:href="#DejaVuSans-28" x="276.464844"/>
      <use xlink:href="#DejaVuSans-6d" x="315.478516"/>
      <use xlink:href="#DejaVuSans-69" x="412.890625"/>
      <use xlink:href="#DejaVuSans-6c" x="440.673828"/>
      <use xlink:href="#DejaVuSans-6c" x="468.457031"/>
      <use xlink:href="#DejaVuSans-69" x="496.240234"/>
      <use xlink:href="#DejaVuSans-73" x="524.023438"/>
      <use xlink:href="#DejaVuSans-65" x="576.123047"/>
      <use xlink:href="#DejaVuSans-63" x="637.646484"/>
      <use xlink:href="#DejaVuSans-6f" x="692.626953"/>
      <use xlink:href="#DejaVuSans-6e" x="753.808594"/>
      <use xlink:href="#DejaVuSans-64" x="817.1875"/>
      <use xlink:href="#DejaVuSans-73" x="880.664062"/>
      <use xlink:href="#DejaVuSans-29" x="932.763672"/>
     </g>
    </g>
   </g>
   <g id="line2d_29">
    <path d="M 115.363636 55.8 
L 115.871417 114.404651 
L 116.379197 224.374555 
L 116.886978 252.254856 
L 117.394758 255.529822 
L 117.902539 231.484679 
L 118.9181 259.451163 
L 119.42588 264.234337 
L 119.933661 266.001094 
L 120.441441 265.785636 
L 120.949222 265.785636 
L 121.457002 266.216553 
L 121.964783 264.665253 
L 122.472563 265.527086 
L 122.980344 265.440903 
L 123.488124 265.871819 
L 123.995905 265.785636 
L 125.011466 265.828728 
L 125.519247 263.02777 
L 126.534808 261.562654 
L 127.042588 265.699453 
L 127.550369 264.191245 
L 128.058149 265.656361 
L 129.07371 230.450479 
L 129.581491 252.039398 
L 130.089271 262.51067 
L 130.597052 263.02777 
L 131.104832 269.836252 
L 131.612613 270.396443 
L 132.120393 264.923803 
L 132.628174 269.362244 
L 133.135954 269.922435 
L 133.643735 266.475103 
L 134.151515 267.121477 
L 134.659296 266.690561 
L 135.674857 268.155677 
L 136.690418 261.045554 
L 137.198198 252.039398 
L 137.705979 241.007934 
L 138.213759 237.948427 
L 138.72154 259.192613 
L 139.22932 261.950479 
L 139.737101 266.992202 
L 140.244881 269.879343 
L 140.752662 269.836252 
L 141.260442 270.611902 
L 141.768223 270.56881 
L 142.276003 269.922435 
L 142.783784 266.087278 
L 143.291564 267.293844 
L 143.799345 265.139261 
L 144.307125 228.382079 
L 144.814906 224.202189 
L 145.322686 270.05171 
L 145.830467 269.965527 
L 146.338247 269.319152 
L 146.846028 267.250752 
L 147.353808 269.663885 
L 147.861589 269.491518 
L 148.369369 270.267168 
L 148.87715 270.654993 
L 149.38493 270.094802 
L 149.892711 276.860192 
L 150.400491 277.8513 
L 150.908272 278.066758 
L 151.416052 276.213817 
L 152.431613 279.445691 
L 152.939394 280.264432 
L 153.447174 280.048974 
L 153.954955 279.574966 
L 154.462735 279.962791 
L 155.478296 280.048974 
L 155.986077 279.574966 
L 156.493857 280.092066 
L 157.001638 280.221341 
L 157.509419 279.919699 
L 158.017199 276.860192 
L 158.52498 279.704241 
L 159.03276 279.661149 
L 159.540541 278.540766 
L 160.048321 274.102326 
L 160.556102 274.059234 
L 161.063882 272.163201 
L 161.571663 270.913543 
L 162.079443 273.886867 
L 162.587224 271.559918 
L 163.602785 273.929959 
L 164.110565 273.542134 
L 164.618346 255.443639 
L 165.126126 273.369767 
L 165.633907 275.481259 
L 166.141687 275.050342 
L 166.649468 259.838988 
L 167.157248 266.604378 
L 167.665029 231.01067 
L 168.172809 248.893707 
L 168.68059 274.662517 
L 169.18837 274.360876 
L 169.696151 272.637209 
L 170.203931 273.800684 
L 170.711712 274.662517 
L 171.219492 274.231601 
L 171.727273 274.964159 
L 172.235053 271.990834 
L 172.742834 275.955267 
L 173.250614 276.472367 
L 173.758395 276.515458 
L 174.266175 275.998358 
L 174.773956 270.784268 
L 175.281736 275.7829 
L 175.789517 275.481259 
L 176.297297 276.386183 
L 177.312858 275.998358 
L 177.820639 275.998358 
L 178.328419 276.386183 
L 178.8362 276.472367 
L 179.34398 276.04145 
L 179.851761 274.403967 
L 180.359541 275.00725 
L 180.867322 276.127633 
L 181.375102 275.998358 
L 181.882883 276.3 
L 182.390663 276.084542 
L 182.898444 276.04145 
L 183.406224 276.55855 
L 183.914005 276.084542 
L 184.929566 276.429275 
L 185.437346 272.378659 
L 185.945127 276.04145 
L 186.960688 276.213817 
L 187.468468 276.213817 
L 187.976249 276.343092 
L 188.484029 275.653625 
L 188.99181 276.213817 
L 189.49959 276.472367 
L 190.007371 275.696717 
L 190.515152 275.222709 
L 191.022932 275.998358 
L 191.530713 275.696717 
L 192.546274 276.213817 
L 193.054054 276.170725 
L 193.561835 276.256908 
L 194.069615 276.127633 
L 194.577396 276.3 
L 195.085176 276.127633 
L 195.592957 274.360876 
L 196.608518 276.04145 
L 197.624079 276.213817 
L 198.131859 276.3 
L 198.63964 275.955267 
L 199.14742 276.04145 
L 199.655201 276.644733 
L 200.670762 276.3 
L 201.178542 274.016142 
L 201.686323 276.084542 
L 202.194103 275.955267 
L 202.701884 276.472367 
L 203.209664 276.213817 
L 205.240786 276.386183 
L 205.748567 275.869083 
L 206.256347 274.360876 
L 207.271908 275.869083 
L 207.779689 276.3 
L 208.287469 276.213817 
L 208.79525 276.343092 
L 209.30303 275.653625 
L 209.810811 276.256908 
L 210.318591 276.213817 
L 210.826372 275.52435 
L 211.334152 276.472367 
L 211.841933 275.179617 
L 212.349713 276.256908 
L 213.365274 276.3 
L 214.380835 276.04145 
L 214.888616 276.343092 
L 215.396396 276.256908 
L 215.904177 276.343092 
L 216.411957 276.3 
L 216.919738 275.52435 
L 217.427518 259.580438 
L 217.935299 274.231601 
L 218.443079 273.283584 
L 218.95086 275.351984 
L 219.45864 275.52435 
L 219.966421 276.3 
L 220.474201 271.990834 
L 220.981982 275.696717 
L 222.505324 275.998358 
L 223.013104 275.825992 
L 223.520885 276.127633 
L 224.028665 255.874555 
L 224.536446 253.806156 
L 225.044226 266.345828 
L 225.552007 271.473735 
L 226.059787 272.766484 
L 226.567568 272.378659 
L 227.075348 273.111218 
L 227.583129 273.283584 
L 228.090909 273.283584 
L 228.59869 273.671409 
L 229.10647 270.224077 
L 229.614251 272.766484 
L 230.122031 273.197401 
L 230.629812 273.412859 
L 232.153153 274.576334 
L 232.660934 274.576334 
L 233.168714 270.482627 
L 233.676495 267.940219 
L 234.184275 271.08591 
L 234.692056 273.240492 
L 235.199836 273.800684 
L 235.707617 273.671409 
L 236.215397 273.800684 
L 236.723178 274.619425 
L 237.230958 274.447059 
L 237.738739 273.585226 
L 238.246519 271.689193 
L 238.7543 274.274692 
L 239.26208 274.662517 
L 239.769861 274.576334 
L 240.277641 274.317784 
L 241.293202 275.136525 
L 241.800983 271.559918 
L 242.308763 273.240492 
L 242.816544 274.274692 
L 243.324324 274.145417 
L 243.832105 274.49015 
L 244.339885 214.506566 
L 244.847666 218.51409 
L 245.355446 183.265116 
L 245.863227 247.945691 
L 246.371007 264.492886 
L 246.878788 264.191245 
L 247.894349 265.914911 
L 248.402129 263.28632 
L 248.90991 262.683037 
L 249.41769 239.715185 
L 249.925471 225.365663 
L 250.433251 266.087278 
L 250.941032 266.087278 
L 251.448812 266.216553 
L 251.956593 260.183721 
L 252.464373 263.415595 
L 252.972154 264.966895 
L 253.479934 265.397811 
L 253.987715 232.605062 
L 254.495495 265.570178 
L 255.003276 266.044186 
L 255.511057 260.787004 
L 256.018837 263.54487 
L 256.526618 265.182353 
L 257.542179 265.914911 
L 258.049959 265.699453 
L 258.55774 266.776744 
L 259.06552 265.958003 
L 259.573301 264.622161 
L 260.081081 264.966895 
L 260.588862 265.527086 
L 261.096642 265.009986 
L 261.604423 263.458687 
L 262.112203 259.020246 
L 262.619984 265.225445 
L 263.127764 256.219289 
L 263.635545 265.570178 
L 264.143325 266.345828 
L 265.666667 266.001094 
L 266.174447 266.345828 
L 266.682228 261.131737 
L 267.190008 263.587962 
L 267.697789 265.09617 
L 268.205569 250.53119 
L 268.71335 262.812312 
L 269.22113 189.85814 
L 269.728911 241.740492 
L 270.236691 262.381395 
L 270.744472 265.35472 
L 271.252252 266.432011 
L 271.760033 262.76922 
L 272.267813 265.785636 
L 272.775594 263.674145 
L 273.283374 264.83762 
L 273.791155 264.665253 
L 274.298935 265.527086 
L 274.806716 266.044186 
L 275.314496 261.821204 
L 275.822277 263.501778 
L 276.330057 264.794528 
L 276.837838 265.570178 
L 277.345618 265.570178 
L 277.853399 266.259644 
L 278.361179 215.152941 
L 278.86896 213.084542 
L 279.37674 264.880711 
L 279.884521 266.345828 
L 280.392301 265.828728 
L 280.900082 266.345828 
L 281.407862 266.518194 
L 281.915643 265.656361 
L 282.423423 263.157045 
L 282.931204 264.406703 
L 283.438984 263.631053 
L 283.946765 257.770588 
L 284.454545 263.760328 
L 284.962326 266.001094 
L 285.470106 266.130369 
L 285.977887 262.984679 
L 286.485667 263.674145 
L 286.993448 265.785636 
L 288.009009 266.087278 
L 288.51679 265.656361 
L 289.02457 266.216553 
L 289.532351 265.182353 
L 290.040131 261.562654 
L 290.547912 262.424487 
L 291.055692 264.966895 
L 291.563473 265.397811 
L 292.071253 264.880711 
L 292.579034 264.191245 
L 293.086814 263.760328 
L 293.594595 264.57907 
L 294.102375 264.105062 
L 294.610156 266.173461 
L 295.625717 266.259644 
L 296.133497 264.622161 
L 296.641278 264.966895 
L 297.149058 266.130369 
L 297.656839 261.217921 
L 298.164619 263.631053 
L 298.6724 265.483995 
L 299.18018 265.613269 
L 299.687961 266.388919 
L 300.195741 265.397811 
L 300.703522 266.302736 
L 301.211302 266.173461 
L 301.719083 265.053078 
L 302.226863 265.09617 
L 302.734644 265.268536 
L 303.242424 264.665253 
L 303.750205 265.440903 
L 304.257985 265.527086 
L 304.765766 266.130369 
L 305.781327 271.172093 
L 306.289107 272.249384 
L 307.304668 272.938851 
L 307.812449 272.981943 
L 308.320229 272.895759 
L 308.82801 274.317784 
L 309.33579 274.791792 
L 309.843571 272.852668 
L 310.351351 272.981943 
L 310.859132 267.336936 
L 311.366912 269.620793 
L 311.874693 216.876607 
L 312.382473 248.290424 
L 312.890254 250.143365 
L 313.398034 263.674145 
L 313.905815 247.040766 
L 314.413595 267.250752 
L 314.921376 274.102326 
L 315.429156 274.921067 
L 315.936937 274.403967 
L 316.444717 275.739808 
L 316.952498 273.025034 
L 317.460278 272.809576 
L 317.968059 274.447059 
L 318.475839 275.050342 
L 318.98362 257.770588 
L 319.4914 273.197401 
L 319.999181 275.2658 
L 320.506962 272.421751 
L 321.014742 274.834884 
L 321.522523 275.610534 
L 322.030303 275.093434 
L 322.538084 275.825992 
L 323.045864 276.213817 
L 323.553645 278.928591 
L 324.061425 279.014774 
L 324.569206 279.790424 
L 325.076986 279.833516 
L 325.584767 280.048974 
L 326.092547 280.005882 
L 326.600328 277.118741 
L 327.108108 278.325308 
L 327.615889 278.885499 
L 328.123669 279.790424 
L 328.63145 279.747332 
L 329.13923 280.092066 
L 329.647011 280.135157 
L 330.154791 280.048974 
L 330.662572 280.221341 
L 331.170352 278.10985 
L 331.678133 279.187141 
L 332.185913 280.566074 
L 332.693694 280.178249 
L 333.201474 277.678933 
L 334.217035 279.962791 
L 334.724816 279.962791 
L 335.232596 279.531874 
L 336.248157 279.790424 
L 336.755938 280.652257 
L 337.263718 279.919699 
L 337.771499 279.531874 
L 338.279279 280.135157 
L 338.78706 280.221341 
L 339.29484 277.420383 
L 340.310401 279.704241 
L 340.818182 280.048974 
L 341.325962 279.919699 
L 341.833743 280.221341 
L 342.341523 280.135157 
L 342.849304 280.393707 
L 343.357084 280.005882 
L 343.864865 280.264432 
L 344.372645 280.307524 
L 344.880426 280.048974 
L 345.388206 280.135157 
L 345.895987 277.635841 
L 346.911548 280.350616 
L 347.419328 279.531874 
L 347.927109 279.962791 
L 348.434889 280.005882 
L 348.94267 280.307524 
L 349.45045 280.135157 
L 349.958231 279.833516 
L 350.466011 280.005882 
L 350.973792 279.919699 
L 351.481572 280.005882 
L 351.989353 276.256908 
L 352.497133 274.188509 
L 353.004914 273.455951 
L 353.512695 277.678933 
L 354.020475 277.937483 
L 354.528256 270.56881 
L 355.036036 273.240492 
L 355.543817 277.161833 
L 356.051597 277.3342 
L 356.559378 277.765116 
L 357.067158 277.980575 
L 357.574939 277.8513 
L 358.082719 278.10985 
L 358.5905 275.050342 
L 359.09828 277.204925 
L 359.606061 277.506566 
L 360.113841 277.937483 
L 360.621622 276.472367 
L 361.129402 277.549658 
L 361.637183 277.765116 
L 362.144963 277.3342 
L 362.652744 278.066758 
L 363.160524 278.282216 
L 363.668305 277.937483 
L 364.176085 277.937483 
L 364.683866 273.455951 
L 365.191646 276.04145 
L 365.699427 277.463475 
L 366.714988 277.291108 
L 367.222768 277.937483 
L 367.730549 277.506566 
L 368.238329 277.3342 
L 369.25389 277.808208 
L 369.761671 262.898495 
L 370.269451 275.136525 
L 370.777232 276.989466 
L 371.285012 277.420383 
L 371.792793 277.3342 
L 372.300573 275.52435 
L 373.316134 277.59275 
L 373.823915 278.023666 
L 374.331695 274.360876 
L 374.839476 275.395075 
L 375.347256 277.291108 
L 375.855037 277.463475 
L 377.378378 277.420383 
L 377.886159 277.980575 
L 378.393939 278.282216 
L 379.4095 277.894391 
L 379.917281 277.808208 
L 380.425061 274.921067 
L 380.932842 276.04145 
L 381.440622 276.55855 
L 381.948403 277.678933 
L 382.456183 277.506566 
L 382.963964 277.59275 
L 383.471744 274.791792 
L 383.979525 273.542134 
L 384.487305 273.585226 
L 384.995086 276.084542 
L 385.502867 277.937483 
L 386.010647 275.222709 
L 386.518428 275.438167 
L 387.026208 276.946375 
L 387.533989 277.808208 
L 388.041769 277.549658 
L 388.54955 276.644733 
L 389.05733 277.161833 
L 389.565111 277.894391 
L 390.072891 277.420383 
L 390.580672 277.118741 
L 391.088452 278.368399 
L 391.596233 278.368399 
L 392.104013 275.222709 
L 392.611794 275.739808 
L 393.119574 277.032558 
L 393.627355 277.377291 
L 394.135135 277.894391 
L 394.642916 277.635841 
L 395.658477 277.722025 
L 396.674038 275.395075 
L 397.181818 277.765116 
L 397.689599 277.980575 
L 398.197379 273.111218 
L 398.70516 277.161833 
L 399.21294 276.601642 
L 399.720721 279.574966 
L 400.736282 279.876607 
L 401.244062 279.919699 
L 401.751843 280.522982 
L 402.259623 278.325308 
L 402.767404 280.178249 
L 403.275184 279.876607 
L 403.782965 274.964159 
L 404.290745 278.626949 
L 404.798526 278.799316 
L 405.306306 279.402599 
L 405.814087 279.144049 
L 406.321867 278.411491 
L 406.829648 278.670041 
L 407.337428 280.307524 
L 407.845209 279.445691 
L 408.352989 280.178249 
L 408.86077 280.221341 
L 409.36855 275.825992 
L 409.876331 277.980575 
L 410.384111 279.531874 
L 410.891892 279.661149 
L 411.399672 280.135157 
L 411.907453 279.747332 
L 412.415233 280.178249 
L 412.923014 277.291108 
L 413.430794 280.005882 
L 413.938575 280.264432 
L 414.446355 280.307524 
L 414.954136 280.048974 
L 415.461916 280.307524 
L 415.969697 275.998358 
L 416.477477 277.635841 
L 416.985258 279.833516 
L 417.493038 279.014774 
L 418.000819 279.919699 
L 418.5086 279.919699 
L 419.01638 280.479891 
L 419.524161 280.005882 
L 420.031941 280.436799 
L 420.539722 262.639945 
L 421.047502 277.722025 
L 421.555283 279.402599 
L 422.063063 280.350616 
L 422.570844 280.264432 
L 423.078624 279.618057 
L 424.094185 280.135157 
L 424.601966 280.092066 
L 425.109746 279.790424 
L 425.617527 280.221341 
L 426.125307 280.135157 
L 426.633088 277.3342 
L 427.140868 277.291108 
L 427.648649 279.402599 
L 428.66421 280.048974 
L 429.679771 279.618057 
L 430.187551 280.092066 
L 430.695332 279.704241 
L 431.203112 280.264432 
L 431.710893 280.350616 
L 432.218673 280.609166 
L 432.726454 280.307524 
L 433.234234 276.730917 
L 433.742015 278.583858 
L 434.249795 279.790424 
L 434.757576 279.144049 
L 435.265356 279.833516 
L 435.773137 279.962791 
L 436.280917 280.221341 
L 436.788698 279.661149 
L 437.296478 280.350616 
L 438.81982 280.436799 
L 439.3276 280.135157 
L 439.835381 276.515458 
L 440.343161 278.626949 
L 441.358722 279.747332 
L 441.866503 279.790424 
L 442.374283 279.962791 
L 442.882064 279.790424 
L 443.389844 280.436799 
L 443.897625 280.307524 
L 444.405405 280.566074 
L 444.913186 280.695349 
L 445.420966 280.695349 
L 445.928747 280.436799 
L 446.436527 273.154309 
L 446.944308 275.653625 
L 447.452088 279.574966 
L 448.467649 279.445691 
L 448.97543 280.048974 
L 449.48321 279.230233 
L 449.990991 280.522982 
L 450.498771 279.488782 
L 451.006552 280.005882 
L 451.514333 280.178249 
L 452.022113 280.178249 
L 452.529894 279.531874 
L 453.037674 276.515458 
L 453.545455 278.756224 
L 454.053235 279.833516 
L 454.561016 279.919699 
L 455.576577 280.307524 
L 456.084357 280.264432 
L 456.592138 280.522982 
L 457.099918 280.221341 
L 457.607699 280.479891 
L 458.115479 280.350616 
L 458.62326 279.747332 
L 459.13104 280.522982 
L 459.638821 276.3 
L 460.146601 278.626949 
L 460.654382 279.661149 
L 461.162162 280.307524 
L 462.177723 280.221341 
L 462.685504 279.790424 
L 463.193284 280.350616 
L 463.701065 280.566074 
L 464.208845 280.092066 
L 465.224406 280.048974 
L 465.732187 280.566074 
L 466.239967 277.722025 
L 466.747748 279.230233 
L 467.255528 279.876607 
L 467.763309 280.307524 
L 468.271089 279.618057 
L 468.77887 280.221341 
L 469.28665 280.092066 
L 469.794431 280.221341 
L 470.302211 280.522982 
L 470.809992 280.652257 
L 471.317772 265.139261 
L 471.825553 279.316416 
L 472.333333 278.454583 
L 472.841114 280.048974 
L 473.348894 280.092066 
L 473.856675 279.359508 
L 474.364455 280.264432 
L 474.872236 280.221341 
L 475.380016 279.273324 
L 475.887797 280.005882 
L 476.395577 280.307524 
L 476.903358 278.066758 
L 477.411138 280.005882 
L 477.918919 279.704241 
L 478.426699 280.135157 
L 479.44226 280.221341 
L 480.457821 267.940219 
L 480.965602 270.137893 
L 481.473382 273.068126 
L 481.981163 274.317784 
L 482.488943 269.448427 
L 482.996724 273.283584 
L 483.504505 273.369767 
L 484.012285 272.723393 
L 484.520066 273.714501 
L 485.027846 272.507934 
L 486.043407 274.102326 
L 486.551188 273.671409 
L 487.058968 269.319152 
L 487.566749 271.34446 
L 488.074529 272.120109 
L 488.58231 273.283584 
L 489.09009 273.455951 
L 489.597871 272.981943 
L 490.105651 274.145417 
L 491.121212 274.231601 
L 491.628993 274.403967 
L 492.136773 272.766484 
L 492.644554 272.852668 
L 493.152334 273.800684 
L 493.660115 273.542134 
L 494.167895 273.585226 
L 494.675676 273.369767 
L 495.183456 273.929959 
L 495.691237 273.283584 
L 496.199017 274.145417 
L 496.706798 274.274692 
L 497.214578 271.34446 
L 497.722359 273.585226 
L 498.230139 273.757592 
L 499.2457 273.671409 
L 499.753481 273.973051 
L 500.261261 273.585226 
L 500.769042 274.274692 
L 501.276822 274.059234 
L 501.784603 268.845144 
L 502.292383 271.732285 
L 502.800164 272.895759 
L 503.307944 273.240492 
L 503.815725 273.757592 
L 504.831286 274.317784 
L 505.339066 274.403967 
L 505.846847 273.455951 
L 506.354627 274.231601 
L 506.862408 268.888235 
L 507.370188 272.163201 
L 507.877969 274.188509 
L 508.385749 274.49015 
L 508.89353 274.016142 
L 509.40131 273.757592 
L 509.909091 273.929959 
L 510.416871 270.741176 
L 510.924652 272.895759 
L 511.432432 273.886867 
L 511.940213 264.966895 
L 512.447993 271.775376 
L 512.955774 273.111218 
L 513.463554 274.059234 
L 513.971335 273.671409 
L 514.479115 273.843776 
L 514.986896 273.628317 
L 515.494676 272.163201 
L 516.002457 250.746648 
L 516.510238 266.561286 
L 517.018018 271.86156 
L 517.525799 272.766484 
L 518.033579 273.068126 
L 518.54136 272.551026 
L 519.04914 274.145417 
L 519.556921 274.576334 
L 520.064701 273.886867 
L 520.572482 274.274692 
L 521.080262 270.611902 
L 521.588043 271.430643 
L 522.095823 259.623529 
L 522.603604 271.818468 
L 523.111384 273.714501 
L 523.619165 274.102326 
L 524.126945 267.854036 
L 524.634726 271.172093 
L 525.142506 273.068126 
L 525.650287 273.542134 
L 526.158067 273.326676 
L 526.665848 273.326676 
L 527.173628 273.197401 
L 528.189189 274.403967 
L 528.69697 269.491518 
L 529.712531 272.809576 
L 530.220311 273.240492 
L 530.728092 273.412859 
L 531.235872 273.326676 
L 531.743653 271.732285 
L 532.251433 273.369767 
L 533.266994 274.231601 
L 533.774775 271.387551 
L 534.282555 271.60301 
L 534.790336 273.240492 
L 535.298116 273.757592 
L 535.805897 273.455951 
L 536.313677 273.455951 
L 536.821458 272.852668 
L 537.329238 271.473735 
L 537.837019 273.843776 
L 538.344799 268.75896 
L 538.85258 270.224077 
L 539.36036 272.249384 
L 539.868141 272.852668 
L 540.375921 272.637209 
L 541.391482 273.929959 
L 541.899263 273.757592 
L 542.407043 273.929959 
L 542.914824 274.317784 
L 543.422604 272.378659 
L 543.930385 272.723393 
L 544.438165 273.671409 
L 545.453726 273.757592 
L 545.961507 274.447059 
L 546.469287 274.317784 
L 546.977068 273.671409 
L 547.484848 274.102326 
L 547.992629 274.145417 
L 548.50041 272.723393 
L 549.515971 273.542134 
L 550.023751 273.412859 
L 550.531532 274.145417 
L 551.039312 273.714501 
L 552.054873 273.412859 
L 552.562654 274.102326 
L 553.070434 269.01751 
L 553.578215 270.224077 
L 554.085995 272.852668 
L 554.593776 272.809576 
L 555.101556 273.886867 
L 555.609337 273.929959 
L 556.117117 274.231601 
L 556.624898 273.929959 
L 557.132678 274.059234 
L 557.640459 274.576334 
L 558.148239 269.060602 
L 558.65602 271.775376 
L 559.1638 272.723393 
L 560.179361 273.499042 
L 561.194922 273.154309 
L 561.702703 273.843776 
L 562.210483 269.53461 
L 562.718264 268.198769 
L 563.226044 270.913543 
L 563.733825 277.549658 
L 564.241605 277.894391 
L 565.257166 277.204925 
L 565.764947 277.8513 
L 566.272727 278.023666 
L 567.796069 277.980575 
L 568.303849 276.343092 
L 568.81163 275.136525 
L 569.31941 277.678933 
L 570.334971 277.463475 
L 570.842752 277.420383 
L 571.858313 278.239124 
L 572.366093 278.023666 
L 572.873874 261.433379 
L 573.381654 273.929959 
L 573.889435 277.377291 
L 574.397215 275.093434 
L 574.904996 273.326676 
L 575.412776 275.912175 
L 575.920557 275.567442 
L 576.428337 274.533242 
L 576.936118 274.231601 
L 577.443898 273.671409 
L 577.951679 270.008618 
L 578.459459 271.86156 
L 578.96724 276.386183 
L 579.47502 278.023666 
L 579.982801 278.152941 
L 580.490581 252.125581 
L 580.998362 277.248016 
L 581.506143 278.066758 
L 582.013923 278.325308 
L 582.521704 278.325308 
L 583.029484 278.454583 
L 583.537265 276.386183 
L 584.045045 275.52435 
L 584.552826 278.10985 
L 585.568387 278.023666 
L 586.076167 278.454583 
L 586.583948 278.713133 
L 587.091728 278.497674 
L 587.599509 278.626949 
L 588.107289 278.411491 
L 588.61507 278.368399 
L 589.12285 266.949111 
L 589.630631 249.884815 
L 590.138411 274.145417 
L 590.646192 276.730917 
L 591.153972 275.050342 
L 591.661753 277.377291 
L 592.169533 277.678933 
L 592.677314 276.472367 
L 593.185094 276.730917 
L 593.692875 277.549658 
L 594.200655 277.980575 
L 594.708436 277.678933 
L 595.216216 274.877975 
L 595.723997 275.610534 
L 596.231777 277.3342 
L 596.739558 277.980575 
L 597.755119 277.722025 
L 598.262899 278.454583 
L 598.77068 278.713133 
L 599.27846 277.765116 
L 599.786241 277.980575 
L 600.294021 278.411491 
L 600.801802 278.239124 
L 601.309582 274.662517 
L 601.817363 276.903283 
L 602.325143 277.59275 
L 602.832924 277.291108 
L 603.340704 277.463475 
L 603.848485 276.903283 
L 604.356265 277.635841 
L 604.864046 277.894391 
L 605.371826 277.420383 
L 605.879607 278.325308 
L 606.895168 278.282216 
L 607.402948 276.8171 
L 607.910729 277.032558 
L 608.92629 277.8513 
L 609.43407 277.291108 
L 609.941851 277.765116 
L 610.957412 277.722025 
L 611.465192 277.980575 
L 611.972973 275.136525 
L 612.480753 277.248016 
L 612.988534 278.066758 
L 613.496314 275.395075 
L 614.004095 276.644733 
L 614.511876 277.420383 
L 615.019656 277.678933 
L 615.527437 277.635841 
L 616.542998 278.239124 
L 617.050778 278.239124 
L 617.558559 277.3342 
L 618.066339 276.04145 
L 618.57412 273.542134 
L 619.0819 274.533242 
L 619.589681 273.197401 
L 620.097461 274.274692 
L 620.605242 271.129001 
L 621.113022 274.403967 
L 621.620803 273.628317 
L 622.636364 273.714501 
L 622.636364 273.714501 
" clip-path="url(#pd69e5271af)" style="fill: none; stroke: #1f77b4; stroke-width: 1.5; stroke-linecap: square"/>
   </g>
   <g id="line2d_30">
    <path d="M 115.363636 209.077018 
L 115.871417 226.399863 
L 116.379197 271.775376 
L 116.886978 272.551026 
L 117.394758 265.742544 
L 117.902539 265.656361 
L 118.410319 283.367031 
L 119.42588 288.107114 
L 119.933661 287.805472 
L 120.441441 288.451847 
L 120.949222 288.150205 
L 121.457002 234.156361 
L 121.964783 287.029822 
L 122.472563 288.064022 
L 122.980344 288.236389 
L 123.488124 287.977839 
L 123.995905 288.193297 
L 124.503686 287.848564 
L 125.011466 278.583858 
L 125.519247 287.331464 
L 126.027027 286.728181 
L 126.534808 287.891655 
L 127.042588 287.417647 
L 127.550369 287.891655 
L 128.058149 288.064022 
L 128.56593 275.179617 
L 129.07371 278.971683 
L 129.581491 285.392339 
L 130.089271 263.157045 
L 130.597052 294.053762 
L 131.104832 296.897811 
L 131.612613 297.113269 
L 132.120393 292.933379 
L 132.628174 295.56197 
L 133.135954 296.251436 
L 133.643735 287.072914 
L 134.151515 286.598906 
L 134.659296 287.029822 
L 135.167076 288.107114 
L 135.674857 288.53803 
L 136.182637 287.072914 
L 136.690418 283.625581 
L 137.198198 276.256908 
L 137.705979 261.691929 
L 138.213759 272.637209 
L 138.72154 287.116005 
L 139.22932 283.367031 
L 139.737101 295.777428 
L 140.244881 296.07907 
L 140.752662 295.82052 
L 141.260442 295.691245 
L 141.768223 195.33078 
L 142.276003 297.458003 
L 142.783784 293.924487 
L 143.291564 295.001778 
L 143.799345 294.355404 
L 144.307125 294.226129 
L 144.814906 297.199453 
L 145.322686 297.113269 
L 145.830467 297.371819 
L 146.338247 297.414911 
L 146.846028 293.364295 
L 147.353808 296.07907 
L 147.861589 296.251436 
L 148.369369 295.56197 
L 149.38493 297.759644 
L 150.908272 297.716553 
L 151.923833 303.921751 
L 152.431613 304.999042 
L 153.447174 305.171409 
L 153.954955 305.085226 
L 154.462735 304.438851 
L 154.970516 305.128317 
L 155.478296 305.300684 
L 155.986077 305.257592 
L 156.493857 305.473051 
L 157.509419 305.128317 
L 158.017199 304.266484 
L 158.52498 305.085226 
L 159.03276 300.345144 
L 159.540541 292.028454 
L 160.048321 290.003146 
L 160.556102 289.227497 
L 161.063882 287.546922 
L 161.571663 289.31368 
L 162.079443 290.003146 
L 162.587224 288.624213 
L 163.095004 289.916963 
L 163.602785 289.184405 
L 164.110565 276.3 
L 164.618346 287.934747 
L 165.126126 295.346512 
L 165.633907 297.027086 
L 166.141687 297.285636 
L 166.649468 289.873871 
L 167.157248 293.709029 
L 167.665029 295.174145 
L 168.172809 298.449111 
L 168.68059 298.406019 
L 169.18837 299.095486 
L 169.696151 296.725445 
L 170.203931 299.138577 
L 170.711712 298.018194 
L 171.219492 299.181669 
L 171.727273 289.356772 
L 172.235053 295.648153 
L 172.742834 297.156361 
L 173.250614 297.414911 
L 174.266175 297.328728 
L 174.773956 294.312312 
L 175.789517 299.440219 
L 179.34398 299.655677 
L 179.851761 297.845828 
L 180.359541 296.768536 
L 181.375102 297.285636 
L 181.882883 299.569494 
L 182.390663 299.655677 
L 182.898444 301.250068 
L 183.406224 299.828044 
L 183.914005 299.74186 
L 184.421785 301.379343 
L 184.929566 294.484679 
L 185.437346 297.027086 
L 185.945127 297.673461 
L 186.452907 297.587278 
L 186.960688 299.784952 
L 187.976249 299.655677 
L 188.484029 299.957319 
L 188.99181 301.29316 
L 189.49959 299.784952 
L 190.007371 299.526402 
L 190.515152 298.923119 
L 191.022932 299.310944 
L 191.530713 295.691245 
L 192.038493 297.501094 
L 192.546274 297.501094 
L 193.054054 299.138577 
L 193.561835 299.569494 
L 195.085176 299.655677 
L 195.592957 298.190561 
L 196.100737 295.605062 
L 196.608518 297.113269 
L 197.116298 297.587278 
L 197.624079 299.354036 
L 198.131859 299.655677 
L 198.63964 299.526402 
L 199.14742 299.784952 
L 200.162981 299.612585 
L 200.670762 296.983995 
L 201.178542 299.526402 
L 201.686323 299.74186 
L 202.194103 299.828044 
L 202.701884 299.74186 
L 203.209664 299.526402 
L 203.717445 299.698769 
L 204.225225 299.569494 
L 205.240786 299.655677 
L 205.748567 299.569494 
L 206.256347 297.630369 
L 206.764128 299.267852 
L 207.271908 299.440219 
L 207.779689 301.206977 
L 208.287469 299.612585 
L 209.30303 299.397127 
L 210.318591 299.655677 
L 210.826372 299.526402 
L 211.334152 296.768536 
L 211.841933 299.612585 
L 212.349713 299.569494 
L 212.857494 299.655677 
L 213.365274 299.483311 
L 214.888616 299.612585 
L 215.396396 296.59617 
L 215.904177 297.458003 
L 216.411957 297.759644 
L 216.919738 300.603694 
L 217.427518 289.442955 
L 217.935299 298.750752 
L 218.443079 297.630369 
L 218.95086 297.458003 
L 219.45864 297.630369 
L 219.966421 296.59617 
L 220.474201 299.310944 
L 220.981982 298.793844 
L 221.489762 299.569494 
L 221.997543 299.655677 
L 222.505324 299.526402 
L 223.013104 299.612585 
L 223.520885 298.061286 
L 224.028665 277.506566 
L 224.536446 276.04145 
L 225.044226 284.918331 
L 225.552007 287.24528 
L 226.059787 287.546922 
L 226.567568 288.064022 
L 227.075348 288.150205 
L 227.583129 287.633105 
L 228.090909 289.442955 
L 228.59869 285.866347 
L 229.614251 287.934747 
L 230.122031 288.02093 
L 230.629812 288.624213 
L 231.137592 289.442955 
L 232.660934 290.951163 
L 233.168714 289.399863 
L 233.676495 283.237756 
L 234.184275 287.934747 
L 235.199836 288.968947 
L 236.215397 288.968947 
L 236.723178 290.046238 
L 237.230958 287.676197 
L 237.738739 289.744596 
L 238.246519 290.563338 
L 238.7543 289.787688 
L 239.26208 290.60643 
L 240.277641 290.34788 
L 240.785422 291.338988 
L 241.293202 290.908071 
L 241.800983 289.184405 
L 242.308763 289.529138 
L 242.816544 290.563338 
L 243.324324 290.261696 
L 243.832105 290.304788 
L 244.339885 288.27948 
L 244.847666 289.658413 
L 245.355446 274.145417 
L 245.863227 287.417647 
L 246.371007 286.986731 
L 246.878788 287.76238 
L 247.386568 288.107114 
L 247.894349 289.31368 
L 248.402129 285.866347 
L 248.90991 288.193297 
L 249.41769 279.187141 
L 249.925471 289.486047 
L 250.433251 289.658413 
L 250.941032 289.658413 
L 251.448812 289.83078 
L 251.956593 284.702873 
L 252.464373 286.986731 
L 252.972154 287.977839 
L 253.987715 288.494938 
L 254.495495 288.882763 
L 255.003276 290.003146 
L 255.511057 284.616689 
L 256.018837 287.50383 
L 257.034398 288.064022 
L 257.542179 288.064022 
L 258.049959 289.57223 
L 258.55774 289.57223 
L 259.06552 285.780164 
L 259.573301 287.24528 
L 260.588862 288.451847 
L 261.096642 288.322572 
L 261.604423 261.217921 
L 262.112203 285.952531 
L 262.619984 285.909439 
L 263.127764 288.236389 
L 263.635545 289.787688 
L 264.143325 289.615321 
L 265.158886 289.873871 
L 265.666667 290.477155 
L 266.174447 290.08933 
L 266.682228 285.564706 
L 267.190008 287.934747 
L 267.697789 288.53803 
L 268.205569 272.335568 
L 268.71335 285.349248 
L 269.22113 277.248016 
L 270.236691 287.891655 
L 270.744472 289.270588 
L 271.252252 286.297264 
L 271.760033 288.365663 
L 272.267813 289.57223 
L 272.775594 285.650889 
L 273.283374 287.590014 
L 273.791155 288.02093 
L 274.298935 289.658413 
L 274.806716 290.821888 
L 275.314496 285.650889 
L 275.822277 287.805472 
L 276.330057 288.408755 
L 276.837838 288.365663 
L 277.853399 290.132421 
L 278.361179 286.641997 
L 278.86896 284.918331 
L 279.37674 289.83078 
L 279.884521 290.132421 
L 280.392301 290.304788 
L 280.900082 289.960055 
L 281.407862 290.08933 
L 281.915643 290.520246 
L 282.423423 287.934747 
L 282.931204 290.003146 
L 283.438984 278.842408 
L 283.946765 284.961423 
L 284.454545 289.486047 
L 284.962326 290.08933 
L 285.470106 290.08933 
L 285.977887 287.331464 
L 286.485667 289.916963 
L 286.993448 289.701505 
L 287.501229 290.261696 
L 288.51679 290.132421 
L 289.02457 290.563338 
L 289.532351 290.175513 
L 290.040131 283.754856 
L 290.547912 286.297264 
L 291.055692 287.719289 
L 291.563473 287.460739 
L 292.071253 287.676197 
L 292.579034 286.254172 
L 293.086814 288.925855 
L 293.594595 285.090698 
L 294.102375 289.615321 
L 295.117936 289.442955 
L 295.625717 289.658413 
L 296.133497 286.211081 
L 296.641278 289.744596 
L 297.149058 289.960055 
L 297.656839 284.702873 
L 298.164619 287.891655 
L 298.6724 287.460739 
L 299.18018 287.977839 
L 299.687961 287.460739 
L 300.195741 289.05513 
L 300.703522 289.701505 
L 301.211302 285.564706 
L 302.226863 288.193297 
L 302.734644 288.193297 
L 303.242424 288.451847 
L 303.750205 287.977839 
L 304.765766 290.218605 
L 305.273546 286.685089 
L 305.781327 287.159097 
L 306.289107 288.236389 
L 306.796888 288.925855 
L 307.304668 289.227497 
L 307.812449 289.012038 
L 308.320229 290.520246 
L 308.82801 290.951163 
L 309.33579 289.615321 
L 309.843571 289.356772 
L 310.351351 288.667305 
L 310.859132 290.218605 
L 311.366912 245.661833 
L 311.874693 254.581806 
L 312.382473 276.213817 
L 312.890254 284.315048 
L 313.398034 295.82052 
L 313.905815 291.468263 
L 314.413595 301.724077 
L 314.921376 302.887551 
L 315.429156 302.801368 
L 315.936937 303.620109 
L 316.444717 303.663201 
L 316.952498 301.594802 
L 317.460278 297.113269 
L 317.968059 297.845828 
L 318.475839 298.061286 
L 318.98362 289.486047 
L 319.4914 298.018194 
L 319.999181 298.190561 
L 320.506962 302.111902 
L 321.014742 303.404651 
L 321.522523 303.706293 
L 323.045864 303.577018 
L 323.553645 304.611218 
L 324.061425 304.697401 
L 324.569206 305.257592 
L 325.076986 305.429959 
L 325.584767 307.498358 
L 326.092547 307.412175 
L 326.600328 304.611218 
L 327.108108 305.860876 
L 327.615889 306.033242 
L 328.123669 305.99015 
L 328.63145 307.325992 
L 329.13923 307.54145 
L 329.647011 305.473051 
L 330.154791 305.645417 
L 330.662572 305.386867 
L 331.170352 305.343776 
L 331.678133 307.325992 
L 332.185913 307.584542 
L 332.693694 304.740492 
L 333.201474 304.525034 
L 333.709255 306.550342 
L 334.217035 306.679617 
L 334.724816 306.291792 
L 335.232596 306.076334 
L 335.740377 306.076334 
L 336.248157 307.412175 
L 336.755938 307.670725 
L 337.263718 306.119425 
L 337.771499 305.042134 
L 338.279279 305.300684 
L 338.78706 305.214501 
L 339.29484 304.352668 
L 340.310401 306.981259 
L 340.818182 307.498358 
L 341.833743 307.498358 
L 342.341523 307.8 
L 342.849304 307.756908 
L 343.357084 305.085226 
L 343.864865 305.386867 
L 344.372645 305.516142 
L 344.880426 305.300684 
L 345.388206 307.54145 
L 345.895987 306.377975 
L 346.403767 307.2829 
L 346.911548 307.54145 
L 347.419328 307.455267 
L 347.927109 307.627633 
L 348.434889 307.54145 
L 348.94267 307.584542 
L 349.45045 305.214501 
L 350.973792 305.386867 
L 351.481572 302.456635 
L 351.989353 305.300684 
L 352.497133 303.835568 
L 353.004914 305.128317 
L 353.512695 305.731601 
L 354.020475 304.912859 
L 354.528256 295.131053 
L 355.036036 303.921751 
L 355.543817 304.912859 
L 356.051597 305.128317 
L 356.559378 304.869767 
L 357.067158 305.300684 
L 357.574939 305.99015 
L 358.082719 302.456635 
L 358.5905 304.568126 
L 359.09828 305.688509 
L 359.606061 305.774692 
L 360.113841 304.137209 
L 360.621622 305.602326 
L 361.637183 305.99015 
L 363.160524 305.99015 
L 363.668305 305.300684 
L 364.176085 303.706293 
L 364.683866 301.680985 
L 365.191646 304.568126 
L 365.699427 305.042134 
L 366.207207 305.042134 
L 366.714988 305.429959 
L 367.222768 306.119425 
L 367.730549 305.257592 
L 368.238329 304.999042 
L 369.25389 305.860876 
L 369.761671 290.821888 
L 370.269451 304.051026 
L 370.777232 305.042134 
L 371.285012 305.171409 
L 371.792793 304.999042 
L 372.300573 304.438851 
L 373.823915 305.947059 
L 374.331695 302.801368 
L 375.347256 304.697401 
L 375.855037 304.955951 
L 376.362817 305.042134 
L 376.870598 304.955951 
L 377.886159 306.033242 
L 378.393939 305.947059 
L 378.90172 305.516142 
L 379.917281 305.860876 
L 380.425061 303.447743 
L 380.932842 304.481943 
L 381.440622 304.826676 
L 382.456183 304.740492 
L 382.963964 304.999042 
L 383.471744 296.553078 
L 383.979525 295.863611 
L 384.487305 297.716553 
L 384.995086 305.688509 
L 385.502867 305.688509 
L 386.010647 302.715185 
L 386.518428 304.395759 
L 387.026208 304.525034 
L 387.533989 304.912859 
L 389.565111 304.999042 
L 390.580672 305.731601 
L 391.088452 305.731601 
L 391.596233 305.903967 
L 392.104013 302.887551 
L 392.611794 304.352668 
L 393.119574 304.568126 
L 393.627355 305.171409 
L 394.135135 305.343776 
L 394.642916 304.999042 
L 395.150696 305.042134 
L 395.658477 305.300684 
L 396.166257 293.838304 
L 396.674038 297.027086 
L 397.181818 297.802736 
L 397.689599 295.432695 
L 398.70516 297.845828 
L 399.21294 303.059918 
L 399.720721 302.973735 
L 400.228501 303.189193 
L 400.736282 303.10301 
L 401.244062 303.146101 
L 401.751843 282.677565 
L 402.259623 302.58591 
L 402.767404 303.059918 
L 403.275184 298.664569 
L 403.782965 301.680985 
L 404.290745 303.146101 
L 405.306306 303.059918 
L 405.814087 297.975103 
L 406.321867 297.888919 
L 406.829648 297.975103 
L 407.337428 304.481943 
L 407.845209 307.369083 
L 408.352989 307.498358 
L 408.86077 307.455267 
L 409.36855 302.629001 
L 409.876331 306.50725 
L 410.384111 306.722709 
L 410.891892 306.033242 
L 411.399672 306.808892 
L 411.907453 306.722709 
L 412.415233 305.559234 
L 412.923014 307.110534 
L 413.430794 307.455267 
L 413.938575 307.627633 
L 414.954136 307.455267 
L 415.461916 305.602326 
L 415.969697 302.973735 
L 416.477477 304.395759 
L 416.985258 304.568126 
L 417.493038 306.076334 
L 418.000819 306.076334 
L 418.5086 307.455267 
L 419.524161 305.300684 
L 420.031941 305.343776 
L 420.539722 297.630369 
L 421.047502 304.180301 
L 422.063063 304.481943 
L 422.570844 302.629001 
L 423.078624 305.947059 
L 423.586405 306.119425 
L 424.094185 307.325992 
L 424.601966 307.54145 
L 426.125307 307.584542 
L 427.140868 304.481943 
L 427.648649 304.697401 
L 428.156429 304.568126 
L 428.66421 306.205609 
L 429.17199 306.119425 
L 429.679771 307.196717 
L 430.695332 307.325992 
L 431.203112 307.627633 
L 431.710893 307.8 
L 432.726454 307.153625 
L 433.234234 305.860876 
L 433.742015 306.076334 
L 434.249795 306.119425 
L 434.757576 306.7658 
L 435.265356 306.808892 
L 435.773137 306.205609 
L 436.280917 307.325992 
L 436.788698 305.473051 
L 438.312039 305.559234 
L 438.81982 307.670725 
L 439.3276 307.584542 
L 439.835381 304.309576 
L 440.343161 306.593434 
L 440.850942 306.679617 
L 441.358722 306.119425 
L 441.866503 306.2487 
L 442.374283 307.110534 
L 442.882064 307.498358 
L 444.405405 307.54145 
L 444.913186 305.429959 
L 445.420966 305.688509 
L 445.928747 305.731601 
L 446.436527 304.352668 
L 446.944308 306.636525 
L 447.452088 306.162517 
L 447.959869 306.119425 
L 448.467649 306.851984 
L 448.97543 307.369083 
L 449.48321 307.54145 
L 449.990991 307.584542 
L 450.498771 305.559234 
L 451.006552 305.343776 
L 452.022113 305.343776 
L 452.529894 307.498358 
L 453.037674 305.343776 
L 453.545455 306.076334 
L 454.053235 305.903967 
L 454.561016 306.162517 
L 455.068796 307.325992 
L 455.576577 307.584542 
L 457.099918 307.54145 
L 457.607699 307.584542 
L 458.115479 307.498358 
L 458.62326 305.429959 
L 459.13104 305.473051 
L 459.638821 303.404651 
L 460.146601 304.481943 
L 460.654382 306.722709 
L 461.162162 307.369083 
L 461.669943 307.498358 
L 462.177723 307.153625 
L 462.685504 307.412175 
L 463.193284 307.8 
L 463.701065 305.300684 
L 464.208845 306.593434 
L 464.716626 307.2829 
L 465.224406 307.584542 
L 465.732187 307.02435 
L 466.239967 302.758276 
L 466.747748 304.051026 
L 467.255528 304.783584 
L 467.763309 305.171409 
L 468.271089 305.343776 
L 468.77887 304.826676 
L 469.28665 304.999042 
L 469.794431 304.912859 
L 470.302211 305.300684 
L 470.809992 304.999042 
L 471.317772 296.59617 
L 471.825553 304.094118 
L 472.333333 304.783584 
L 472.841114 304.783584 
L 473.348894 304.999042 
L 473.856675 305.042134 
L 474.364455 305.386867 
L 474.872236 305.214501 
L 475.887797 305.429959 
L 476.395577 305.343776 
L 476.903358 304.395759 
L 477.411138 304.826676 
L 479.44226 304.999042 
L 479.950041 285.866347 
L 480.965602 296.035978 
L 481.473382 297.802736 
L 481.981163 294.441587 
L 482.488943 297.458003 
L 482.996724 298.018194 
L 484.012285 298.147469 
L 484.520066 297.414911 
L 485.027846 297.802736 
L 485.535627 297.802736 
L 486.043407 298.147469 
L 486.551188 298.190561 
L 487.058968 292.890287 
L 487.566749 296.251436 
L 488.074529 295.648153 
L 489.09009 295.691245 
L 489.597871 297.716553 
L 490.105651 298.104378 
L 490.613432 297.932011 
L 491.121212 298.018194 
L 491.628993 296.811628 
L 492.136773 297.587278 
L 492.644554 298.018194 
L 493.152334 298.147469 
L 493.660115 297.932011 
L 494.167895 298.190561 
L 494.675676 298.061286 
L 495.183456 298.061286 
L 495.691237 298.233653 
L 496.199017 298.233653 
L 496.706798 294.743228 
L 497.214578 297.888919 
L 497.722359 298.147469 
L 498.230139 298.147469 
L 498.73792 298.362927 
L 499.2457 298.233653 
L 499.753481 298.233653 
L 500.261261 298.406019 
L 501.276822 298.449111 
L 501.784603 293.795212 
L 502.292383 295.518878 
L 502.800164 296.639261 
L 503.307944 295.863611 
L 503.815725 298.104378 
L 504.323505 297.975103 
L 504.831286 298.449111 
L 505.339066 298.319836 
L 505.846847 297.630369 
L 506.354627 298.190561 
L 506.862408 294.053762 
L 507.370188 297.285636 
L 507.877969 298.147469 
L 509.40131 298.362927 
L 509.909091 298.578386 
L 510.416871 297.802736 
L 510.924652 298.276744 
L 511.432432 285.780164 
L 511.940213 292.416279 
L 512.447993 295.217237 
L 512.955774 297.242544 
L 513.463554 298.018194 
L 514.986896 298.147469 
L 515.494676 290.563338 
L 516.002457 286.986731 
L 516.510238 294.053762 
L 517.018018 295.605062 
L 517.525799 294.915595 
L 518.033579 295.174145 
L 518.54136 297.371819 
L 519.04914 298.319836 
L 519.556921 298.104378 
L 520.064701 298.147469 
L 520.572482 295.217237 
L 521.080262 293.924487 
L 521.588043 296.639261 
L 522.095823 287.50383 
L 522.603604 297.458003 
L 523.111384 297.845828 
L 523.619165 298.018194 
L 524.126945 291.597538 
L 524.634726 294.743228 
L 525.650287 295.734337 
L 526.158067 296.208345 
L 526.665848 295.863611 
L 527.173628 296.811628 
L 527.681409 298.233653 
L 528.189189 298.190561 
L 528.69697 293.881395 
L 529.20475 295.648153 
L 529.712531 296.294528 
L 530.220311 295.906703 
L 530.728092 295.691245 
L 531.743653 295.518878 
L 532.251433 297.630369 
L 532.759214 298.104378 
L 533.266994 295.432695 
L 533.774775 296.035978 
L 534.282555 297.716553 
L 534.790336 298.018194 
L 535.298116 297.975103 
L 536.313677 298.190561 
L 536.821458 294.01067 
L 537.329238 297.716553 
L 537.837019 298.147469 
L 538.344799 293.622845 
L 538.85258 296.035978 
L 539.36036 296.33762 
L 539.868141 295.949795 
L 540.375921 295.82052 
L 540.883702 295.82052 
L 541.391482 297.113269 
L 541.899263 298.018194 
L 542.407043 298.104378 
L 542.914824 296.251436 
L 543.422604 297.328728 
L 544.438165 298.319836 
L 544.945946 298.276744 
L 545.453726 297.845828 
L 545.961507 298.319836 
L 546.469287 298.276744 
L 546.977068 298.362927 
L 547.484848 298.276744 
L 547.992629 295.389603 
L 548.50041 297.371819 
L 549.00819 297.414911 
L 549.515971 297.932011 
L 550.531532 298.104378 
L 551.039312 298.018194 
L 551.547093 298.319836 
L 552.054873 298.104378 
L 552.562654 298.147469 
L 553.070434 294.01067 
L 553.578215 296.035978 
L 554.085995 296.553078 
L 555.101556 298.319836 
L 556.117117 298.104378 
L 556.624898 298.233653 
L 557.132678 298.578386 
L 557.640459 298.276744 
L 558.148239 294.01067 
L 558.65602 295.56197 
L 559.1638 296.553078 
L 559.671581 295.691245 
L 560.179361 295.56197 
L 560.687142 295.691245 
L 561.194922 297.414911 
L 561.702703 277.8513 
L 562.210483 297.328728 
L 562.718264 292.674829 
L 563.733825 305.602326 
L 564.241605 305.860876 
L 564.749386 305.731601 
L 565.257166 305.817784 
L 565.764947 305.731601 
L 566.780508 306.119425 
L 567.288288 305.903967 
L 567.796069 305.817784 
L 568.303849 304.912859 
L 568.81163 304.955951 
L 569.31941 305.774692 
L 570.842752 305.903967 
L 571.350532 305.774692 
L 571.858313 305.903967 
L 572.366093 305.688509 
L 572.873874 294.355404 
L 573.381654 305.085226 
L 573.889435 305.731601 
L 574.397215 299.181669 
L 574.904996 301.077702 
L 575.412776 305.214501 
L 575.920557 298.104378 
L 576.428337 298.362927 
L 576.936118 297.888919 
L 577.443898 298.147469 
L 577.951679 295.691245 
L 578.459459 297.587278 
L 578.96724 305.903967 
L 579.47502 305.99015 
L 579.982801 306.2487 
L 580.490581 304.180301 
L 580.998362 305.860876 
L 581.506143 305.99015 
L 582.013923 305.860876 
L 582.521704 306.033242 
L 583.029484 305.903967 
L 583.537265 304.783584 
L 584.045045 305.602326 
L 584.552826 305.99015 
L 585.060606 305.947059 
L 586.076167 306.205609 
L 586.583948 305.99015 
L 587.091728 305.903967 
L 587.599509 306.033242 
L 588.107289 305.947059 
L 588.61507 306.033242 
L 589.12285 284.185773 
L 589.630631 295.217237 
L 590.138411 303.232285 
L 590.646192 299.526402 
L 591.153972 303.964843 
L 591.661753 304.783584 
L 592.169533 305.085226 
L 592.677314 304.869767 
L 593.185094 304.912859 
L 593.692875 305.171409 
L 594.200655 305.99015 
L 594.708436 306.2487 
L 595.216216 302.715185 
L 595.723997 304.180301 
L 596.231777 304.180301 
L 596.739558 304.999042 
L 597.247338 304.697401 
L 598.262899 306.119425 
L 598.77068 305.473051 
L 599.27846 305.300684 
L 599.786241 305.99015 
L 600.294021 306.033242 
L 600.801802 305.903967 
L 601.309582 302.58591 
L 601.817363 304.611218 
L 602.325143 304.999042 
L 602.832924 304.137209 
L 603.340704 305.128317 
L 603.848485 305.257592 
L 604.356265 305.171409 
L 605.371826 305.473051 
L 605.879607 305.947059 
L 606.895168 306.291792 
L 607.402948 304.438851 
L 607.910729 304.654309 
L 608.418509 305.085226 
L 609.43407 305.214501 
L 609.941851 305.171409 
L 610.449631 304.999042 
L 610.957412 305.128317 
L 611.465192 305.731601 
L 611.972973 305.386867 
L 612.480753 306.119425 
L 612.988534 305.903967 
L 613.496314 303.189193 
L 614.004095 303.10301 
L 614.511876 303.706293 
L 615.019656 304.783584 
L 616.035217 305.559234 
L 616.542998 306.162517 
L 617.050778 305.171409 
L 617.558559 302.887551 
L 618.066339 303.577018 
L 618.57412 298.362927 
L 619.0819 294.700137 
L 619.589681 297.371819 
L 620.097461 298.147469 
L 620.605242 298.018194 
L 621.113022 298.276744 
L 621.620803 298.319836 
L 622.636364 297.716553 
L 622.636364 297.716553 
" clip-path="url(#pd69e5271af)" style="fill: none; stroke: #ff7f0e; stroke-width: 1.5; stroke-linecap: square"/>
   </g>
   <g id="patch_3">
    <path d="M 90 320.4 
L 90 43.2 
" style="fill: none; stroke: #000000; stroke-width: 0.8; stroke-linejoin: miter; stroke-linecap: square"/>
   </g>
   <g id="patch_4">
    <path d="M 648 320.4 
L 648 43.2 
" style="fill: none; stroke: #000000; stroke-width: 0.8; stroke-linejoin: miter; stroke-linecap: square"/>
   </g>
   <g id="patch_5">
    <path d="M 90 320.4 
L 648 320.4 
" style="fill: none; stroke: #000000; stroke-width: 0.8; stroke-linejoin: miter; stroke-linecap: square"/>
   </g>
   <g id="patch_6">
    <path d="M 90 43.2 
L 648 43.2 
" style="fill: none; stroke: #000000; stroke-width: 0.8; stroke-linejoin: miter; stroke-linecap: square"/>
   </g>
   <g id="text_17">
    <!-- Time Comparison: PostgreSQL vs Redis -->
    <g transform="translate(251.620313 37.2) scale(0.12 -0.12)">
     <defs>
      <path id="DejaVuSans-43" d="M 4122 4306 
L 4122 3641 
Q 3803 3938 3442 4084 
Q 3081 4231 2675 4231 
Q 1875 4231 1450 3742 
Q 1025 3253 1025 2328 
Q 1025 1406 1450 917 
Q 1875 428 2675 428 
Q 3081 428 3442 575 
Q 3803 722 4122 1019 
L 4122 359 
Q 3791 134 3420 21 
Q 3050 -91 2638 -91 
Q 1578 -91 968 557 
Q 359 1206 359 2328 
Q 359 3453 968 4101 
Q 1578 4750 2638 4750 
Q 3056 4750 3426 4639 
Q 3797 4528 4122 4306 
z
" transform="scale(0.015625)"/>
      <path id="DejaVuSans-70" d="M 1159 525 
L 1159 -1331 
L 581 -1331 
L 581 3500 
L 1159 3500 
L 1159 2969 
Q 1341 3281 1617 3432 
Q 1894 3584 2278 3584 
Q 2916 3584 3314 3078 
Q 3713 2572 3713 1747 
Q 3713 922 3314 415 
Q 2916 -91 2278 -91 
Q 1894 -91 1617 61 
Q 1341 213 1159 525 
z
M 3116 1747 
Q 3116 2381 2855 2742 
Q 2594 3103 2138 3103 
Q 1681 3103 1420 2742 
Q 1159 2381 1159 1747 
Q 1159 1113 1420 752 
Q 1681 391 2138 391 
Q 2594 391 2855 752 
Q 3116 1113 3116 1747 
z
" transform="scale(0.015625)"/>
      <path id="DejaVuSans-61" d="M 2194 1759 
Q 1497 1759 1228 1600 
Q 959 1441 959 1056 
Q 959 750 1161 570 
Q 1363 391 1709 391 
Q 2188 391 2477 730 
Q 2766 1069 2766 1631 
L 2766 1759 
L 2194 1759 
z
M 3341 1997 
L 3341 0 
L 2766 0 
L 2766 531 
Q 2569 213 2275 61 
Q 1981 -91 1556 -91 
Q 1019 -91 701 211 
Q 384 513 384 1019 
Q 384 1609 779 1909 
Q 1175 2209 1959 2209 
L 2766 2209 
L 2766 2266 
Q 2766 2663 2505 2880 
Q 2244 3097 1772 3097 
Q 1472 3097 1187 3025 
Q 903 2953 641 2809 
L 641 3341 
Q 956 3463 1253 3523 
Q 1550 3584 1831 3584 
Q 2591 3584 2966 3190 
Q 3341 2797 3341 1997 
z
" transform="scale(0.015625)"/>
      <path id="DejaVuSans-3a" d="M 750 794 
L 1409 794 
L 1409 0 
L 750 0 
L 750 794 
z
M 750 3309 
L 1409 3309 
L 1409 2516 
L 750 2516 
L 750 3309 
z
" transform="scale(0.015625)"/>
      <path id="DejaVuSans-50" d="M 1259 4147 
L 1259 2394 
L 2053 2394 
Q 2494 2394 2734 2622 
Q 2975 2850 2975 3272 
Q 2975 3691 2734 3919 
Q 2494 4147 2053 4147 
L 1259 4147 
z
M 628 4666 
L 2053 4666 
Q 2838 4666 3239 4311 
Q 3641 3956 3641 3272 
Q 3641 2581 3239 2228 
Q 2838 1875 2053 1875 
L 1259 1875 
L 1259 0 
L 628 0 
L 628 4666 
z
" transform="scale(0.015625)"/>
      <path id="DejaVuSans-74" d="M 1172 4494 
L 1172 3500 
L 2356 3500 
L 2356 3053 
L 1172 3053 
L 1172 1153 
Q 1172 725 1289 603 
Q 1406 481 1766 481 
L 2356 481 
L 2356 0 
L 1766 0 
Q 1100 0 847 248 
Q 594 497 594 1153 
L 594 3053 
L 172 3053 
L 172 3500 
L 594 3500 
L 594 4494 
L 1172 4494 
z
" transform="scale(0.015625)"/>
      <path id="DejaVuSans-67" d="M 2906 1791 
Q 2906 2416 2648 2759 
Q 2391 3103 1925 3103 
Q 1463 3103 1205 2759 
Q 947 2416 947 1791 
Q 947 1169 1205 825 
Q 1463 481 1925 481 
Q 2391 481 2648 825 
Q 2906 1169 2906 1791 
z
M 3481 434 
Q 3481 -459 3084 -895 
Q 2688 -1331 1869 -1331 
Q 1566 -1331 1297 -1286 
Q 1028 -1241 775 -1147 
L 775 -588 
Q 1028 -725 1275 -790 
Q 1522 -856 1778 -856 
Q 2344 -856 2625 -561 
Q 2906 -266 2906 331 
L 2906 616 
Q 2728 306 2450 153 
Q 2172 0 1784 0 
Q 1141 0 747 490 
Q 353 981 353 1791 
Q 353 2603 747 3093 
Q 1141 3584 1784 3584 
Q 2172 3584 2450 3431 
Q 2728 3278 2906 2969 
L 2906 3500 
L 3481 3500 
L 3481 434 
z
" transform="scale(0.015625)"/>
      <path id="DejaVuSans-53" d="M 3425 4513 
L 3425 3897 
Q 3066 4069 2747 4153 
Q 2428 4238 2131 4238 
Q 1616 4238 1336 4038 
Q 1056 3838 1056 3469 
Q 1056 3159 1242 3001 
Q 1428 2844 1947 2747 
L 2328 2669 
Q 3034 2534 3370 2195 
Q 3706 1856 3706 1288 
Q 3706 609 3251 259 
Q 2797 -91 1919 -91 
Q 1588 -91 1214 -16 
Q 841 59 441 206 
L 441 856 
Q 825 641 1194 531 
Q 1563 422 1919 422 
Q 2459 422 2753 634 
Q 3047 847 3047 1241 
Q 3047 1584 2836 1778 
Q 2625 1972 2144 2069 
L 1759 2144 
Q 1053 2284 737 2584 
Q 422 2884 422 3419 
Q 422 4038 858 4394 
Q 1294 4750 2059 4750 
Q 2388 4750 2728 4690 
Q 3069 4631 3425 4513 
z
" transform="scale(0.015625)"/>
      <path id="DejaVuSans-4c" d="M 628 4666 
L 1259 4666 
L 1259 531 
L 3531 531 
L 3531 0 
L 628 0 
L 628 4666 
z
" transform="scale(0.015625)"/>
      <path id="DejaVuSans-76" d="M 191 3500 
L 800 3500 
L 1894 563 
L 2988 3500 
L 3597 3500 
L 2284 0 
L 1503 0 
L 191 3500 
z
" transform="scale(0.015625)"/>
      <path id="DejaVuSans-52" d="M 2841 2188 
Q 3044 2119 3236 1894 
Q 3428 1669 3622 1275 
L 4263 0 
L 3584 0 
L 2988 1197 
Q 2756 1666 2539 1819 
Q 2322 1972 1947 1972 
L 1259 1972 
L 1259 0 
L 628 0 
L 628 4666 
L 2053 4666 
Q 2853 4666 3247 4331 
Q 3641 3997 3641 3322 
Q 3641 2881 3436 2590 
Q 3231 2300 2841 2188 
z
M 1259 4147 
L 1259 2491 
L 2053 2491 
Q 2509 2491 2742 2702 
Q 2975 2913 2975 3322 
Q 2975 3731 2742 3939 
Q 2509 4147 2053 4147 
L 1259 4147 
z
" transform="scale(0.015625)"/>
     </defs>
     <use xlink:href="#DejaVuSans-54"/>
     <use xlink:href="#DejaVuSans-69" x="57.958984"/>
     <use xlink:href="#DejaVuSans-6d" x="85.742188"/>
     <use xlink:href="#DejaVuSans-65" x="183.154297"/>
     <use xlink:href="#DejaVuSans-20" x="244.677734"/>
     <use xlink:href="#DejaVuSans-43" x="276.464844"/>
     <use xlink:href="#DejaVuSans-6f" x="346.289062"/>
     <use xlink:href="#DejaVuSans-6d" x="407.470703"/>
     <use xlink:href="#DejaVuSans-70" x="504.882812"/>
     <use xlink:href="#DejaVuSans-61" x="568.359375"/>
     <use xlink:href="#DejaVuSans-72" x="629.638672"/>
     <use xlink:href="#DejaVuSans-69" x="670.751953"/>
     <use xlink:href="#DejaVuSans-73" x="698.535156"/>
     <use xlink:href="#DejaVuSans-6f" x="750.634766"/>
     <use xlink:href="#DejaVuSans-6e" x="811.816406"/>
     <use xlink:href="#DejaVuSans-3a" x="875.195312"/>
     <use xlink:href="#DejaVuSans-20" x="908.886719"/>
     <use xlink:href="#DejaVuSans-50" x="940.673828"/>
     <use xlink:href="#DejaVuSans-6f" x="997.351562"/>
     <use xlink:href="#DejaVuSans-73" x="1058.533203"/>
     <use xlink:href="#DejaVuSans-74" x="1110.632812"/>
     <use xlink:href="#DejaVuSans-67" x="1149.841797"/>
     <use xlink:href="#DejaVuSans-72" x="1213.318359"/>
     <use xlink:href="#DejaVuSans-65" x="1252.181641"/>
     <use xlink:href="#DejaVuSans-53" x="1313.705078"/>
     <use xlink:href="#DejaVuSans-51" x="1377.181641"/>
     <use xlink:href="#DejaVuSans-4c" x="1455.892578"/>
     <use xlink:href="#DejaVuSans-20" x="1511.605469"/>
     <use xlink:href="#DejaVuSans-76" x="1543.392578"/>
     <use xlink:href="#DejaVuSans-73" x="1602.572266"/>
     <use xlink:href="#DejaVuSans-20" x="1654.671875"/>
     <use xlink:href="#DejaVuSans-52" x="1686.458984"/>
     <use xlink:href="#DejaVuSans-65" x="1751.441406"/>
     <use xlink:href="#DejaVuSans-64" x="1812.964844"/>
     <use xlink:href="#DejaVuSans-69" x="1876.441406"/>
     <use xlink:href="#DejaVuSans-73" x="1904.224609"/>
    </g>
   </g>
   <g id="legend_1">
    <g id="patch_7">
     <path d="M 526.134375 80.55625 
L 641 80.55625 
Q 643 80.55625 643 78.55625 
L 643 50.2 
Q 643 48.2 641 48.2 
L 526.134375 48.2 
Q 524.134375 48.2 524.134375 50.2 
L 524.134375 78.55625 
Q 524.134375 80.55625 526.134375 80.55625 
z
" style="fill: #ffffff; opacity: 0.8; stroke: #cccccc; stroke-linejoin: miter"/>
    </g>
    <g id="line2d_31">
     <path d="M 528.134375 56.298437 
L 538.134375 56.298437 
L 548.134375 56.298437 
" style="fill: none; stroke: #1f77b4; stroke-width: 1.5; stroke-linecap: square"/>
    </g>
    <g id="text_18">
     <!-- PostgreSQL time -->
     <g transform="translate(556.134375 59.798437) scale(0.1 -0.1)">
      <use xlink:href="#DejaVuSans-50"/>
      <use xlink:href="#DejaVuSans-6f" x="56.677734"/>
      <use xlink:href="#DejaVuSans-73" x="117.859375"/>
      <use xlink:href="#DejaVuSans-74" x="169.958984"/>
      <use xlink:href="#DejaVuSans-67" x="209.167969"/>
      <use xlink:href="#DejaVuSans-72" x="272.644531"/>
      <use xlink:href="#DejaVuSans-65" x="311.507812"/>
      <use xlink:href="#DejaVuSans-53" x="373.03125"/>
      <use xlink:href="#DejaVuSans-51" x="436.507812"/>
      <use xlink:href="#DejaVuSans-4c" x="515.21875"/>
      <use xlink:href="#DejaVuSans-20" x="570.931641"/>
      <use xlink:href="#DejaVuSans-74" x="602.71875"/>
      <use xlink:href="#DejaVuSans-69" x="641.927734"/>
      <use xlink:href="#DejaVuSans-6d" x="669.710938"/>
      <use xlink:href="#DejaVuSans-65" x="767.123047"/>
     </g>
    </g>
    <g id="line2d_32">
     <path d="M 528.134375 70.976562 
L 538.134375 70.976562 
L 548.134375 70.976562 
" style="fill: none; stroke: #ff7f0e; stroke-width: 1.5; stroke-linecap: square"/>
    </g>
    <g id="text_19">
     <!-- Redis time -->
     <g transform="translate(556.134375 74.476562) scale(0.1 -0.1)">
      <use xlink:href="#DejaVuSans-52"/>
      <use xlink:href="#DejaVuSans-65" x="64.982422"/>
      <use xlink:href="#DejaVuSans-64" x="126.505859"/>
      <use xlink:href="#DejaVuSans-69" x="189.982422"/>
      <use xlink:href="#DejaVuSans-73" x="217.765625"/>
      <use xlink:href="#DejaVuSans-20" x="269.865234"/>
      <use xlink:href="#DejaVuSans-74" x="301.652344"/>
      <use xlink:href="#DejaVuSans-69" x="340.861328"/>
      <use xlink:href="#DejaVuSans-6d" x="368.644531"/>
      <use xlink:href="#DejaVuSans-65" x="466.056641"/>
     </g>
    </g>
   </g>
  </g>
 </g>
 <defs>
  <clipPath id="pd69e5271af">
   <rect x="90" y="43.2" width="558" height="277.2"/>
  </clipPath>
 </defs>
</svg>
