<?xml version="1.0" encoding="utf-8" standalone="no"?>
<!DOCTYPE svg PUBLIC "-//W3C//DTD SVG 1.1//EN"
  "http://www.w3.org/Graphics/SVG/1.1/DTD/svg11.dtd">
<svg xmlns:xlink="http://www.w3.org/1999/xlink" width="720pt" height="360pt" viewBox="0 0 720 360" xmlns="http://www.w3.org/2000/svg" version="1.1">
 <metadata>
  <rdf:RDF xmlns:dc="http://purl.org/dc/elements/1.1/" xmlns:cc="http://creativecommons.org/ns#" xmlns:rdf="http://www.w3.org/1999/02/22-rdf-syntax-ns#">
   <cc:Work>
    <dc:type rdf:resource="http://purl.org/dc/dcmitype/StillImage"/>
    <dc:date>2024-11-30T16:42:37.598408</dc:date>
    <dc:format>image/svg+xml</dc:format>
    <dc:creator>
     <cc:Agent>
      <dc:title>Matplotlib v3.9.2, https://matplotlib.org/</dc:title>
     </cc:Agent>
    </dc:creator>
   </cc:Work>
  </rdf:RDF>
 </metadata>
 <defs>
  <style type="text/css">*{stroke-linejoin: round; stroke-linecap: butt}</style>
 </defs>
 <g id="figure_1">
  <g id="patch_1">
   <path d="M 0 360 
L 720 360 
L 720 0 
L 0 0 
z
" style="fill: #ffffff"/>
  </g>
  <g id="axes_1">
   <g id="patch_2">
    <path d="M 90 320.4 
L 648 320.4 
L 648 43.2 
L 90 43.2 
z
" style="fill: #ffffff"/>
   </g>
   <g id="matplotlib.axis_1">
    <g id="xtick_1">
     <g id="line2d_1">
      <path d="M 114.855856 320.4 
L 114.855856 43.2 
" clip-path="url(#pc46a00518e)" style="fill: none; stroke: #b0b0b0; stroke-width: 0.8; stroke-linecap: square"/>
     </g>
     <g id="line2d_2">
      <defs>
       <path id="m0871beb2bf" d="M 0 0 
L 0 3.5 
" style="stroke: #000000; stroke-width: 0.8"/>
      </defs>
      <g>
       <use xlink:href="#m0871beb2bf" x="114.855856" y="320.4" style="stroke: #000000; stroke-width: 0.8"/>
      </g>
     </g>
     <g id="text_1">
      <!-- 0 -->
      <g transform="translate(111.674606 334.998438) scale(0.1 -0.1)">
       <defs>
        <path id="DejaVuSans-30" d="M 2034 4250 
Q 1547 4250 1301 3770 
Q 1056 3291 1056 2328 
Q 1056 1369 1301 889 
Q 1547 409 2034 409 
Q 2525 409 2770 889 
Q 3016 1369 3016 2328 
Q 3016 3291 2770 3770 
Q 2525 4250 2034 4250 
z
M 2034 4750 
Q 2819 4750 3233 4129 
Q 3647 3509 3647 2328 
Q 3647 1150 3233 529 
Q 2819 -91 2034 -91 
Q 1250 -91 836 529 
Q 422 1150 422 2328 
Q 422 3509 836 4129 
Q 1250 4750 2034 4750 
z
" transform="scale(0.015625)"/>
       </defs>
       <use xlink:href="#DejaVuSans-30"/>
      </g>
     </g>
    </g>
    <g id="xtick_2">
     <g id="line2d_3">
      <path d="M 216.411957 320.4 
L 216.411957 43.2 
" clip-path="url(#pc46a00518e)" style="fill: none; stroke: #b0b0b0; stroke-width: 0.8; stroke-linecap: square"/>
     </g>
     <g id="line2d_4">
      <g>
       <use xlink:href="#m0871beb2bf" x="216.411957" y="320.4" style="stroke: #000000; stroke-width: 0.8"/>
      </g>
     </g>
     <g id="text_2">
      <!-- 200 -->
      <g transform="translate(206.868207 334.998438) scale(0.1 -0.1)">
       <defs>
        <path id="DejaVuSans-32" d="M 1228 531 
L 3431 531 
L 3431 0 
L 469 0 
L 469 531 
Q 828 903 1448 1529 
Q 2069 2156 2228 2338 
Q 2531 2678 2651 2914 
Q 2772 3150 2772 3378 
Q 2772 3750 2511 3984 
Q 2250 4219 1831 4219 
Q 1534 4219 1204 4116 
Q 875 4013 500 3803 
L 500 4441 
Q 881 4594 1212 4672 
Q 1544 4750 1819 4750 
Q 2544 4750 2975 4387 
Q 3406 4025 3406 3419 
Q 3406 3131 3298 2873 
Q 3191 2616 2906 2266 
Q 2828 2175 2409 1742 
Q 1991 1309 1228 531 
z
" transform="scale(0.015625)"/>
       </defs>
       <use xlink:href="#DejaVuSans-32"/>
       <use xlink:href="#DejaVuSans-30" x="63.623047"/>
       <use xlink:href="#DejaVuSans-30" x="127.246094"/>
      </g>
     </g>
    </g>
    <g id="xtick_3">
     <g id="line2d_5">
      <path d="M 317.968059 320.4 
L 317.968059 43.2 
" clip-path="url(#pc46a00518e)" style="fill: none; stroke: #b0b0b0; stroke-width: 0.8; stroke-linecap: square"/>
     </g>
     <g id="line2d_6">
      <g>
       <use xlink:href="#m0871beb2bf" x="317.968059" y="320.4" style="stroke: #000000; stroke-width: 0.8"/>
      </g>
     </g>
     <g id="text_3">
      <!-- 400 -->
      <g transform="translate(308.424309 334.998438) scale(0.1 -0.1)">
       <defs>
        <path id="DejaVuSans-34" d="M 2419 4116 
L 825 1625 
L 2419 1625 
L 2419 4116 
z
M 2253 4666 
L 3047 4666 
L 3047 1625 
L 3713 1625 
L 3713 1100 
L 3047 1100 
L 3047 0 
L 2419 0 
L 2419 1100 
L 313 1100 
L 313 1709 
L 2253 4666 
z
" transform="scale(0.015625)"/>
       </defs>
       <use xlink:href="#DejaVuSans-34"/>
       <use xlink:href="#DejaVuSans-30" x="63.623047"/>
       <use xlink:href="#DejaVuSans-30" x="127.246094"/>
      </g>
     </g>
    </g>
    <g id="xtick_4">
     <g id="line2d_7">
      <path d="M 419.524161 320.4 
L 419.524161 43.2 
" clip-path="url(#pc46a00518e)" style="fill: none; stroke: #b0b0b0; stroke-width: 0.8; stroke-linecap: square"/>
     </g>
     <g id="line2d_8">
      <g>
       <use xlink:href="#m0871beb2bf" x="419.524161" y="320.4" style="stroke: #000000; stroke-width: 0.8"/>
      </g>
     </g>
     <g id="text_4">
      <!-- 600 -->
      <g transform="translate(409.980411 334.998438) scale(0.1 -0.1)">
       <defs>
        <path id="DejaVuSans-36" d="M 2113 2584 
Q 1688 2584 1439 2293 
Q 1191 2003 1191 1497 
Q 1191 994 1439 701 
Q 1688 409 2113 409 
Q 2538 409 2786 701 
Q 3034 994 3034 1497 
Q 3034 2003 2786 2293 
Q 2538 2584 2113 2584 
z
M 3366 4563 
L 3366 3988 
Q 3128 4100 2886 4159 
Q 2644 4219 2406 4219 
Q 1781 4219 1451 3797 
Q 1122 3375 1075 2522 
Q 1259 2794 1537 2939 
Q 1816 3084 2150 3084 
Q 2853 3084 3261 2657 
Q 3669 2231 3669 1497 
Q 3669 778 3244 343 
Q 2819 -91 2113 -91 
Q 1303 -91 875 529 
Q 447 1150 447 2328 
Q 447 3434 972 4092 
Q 1497 4750 2381 4750 
Q 2619 4750 2861 4703 
Q 3103 4656 3366 4563 
z
" transform="scale(0.015625)"/>
       </defs>
       <use xlink:href="#DejaVuSans-36"/>
       <use xlink:href="#DejaVuSans-30" x="63.623047"/>
       <use xlink:href="#DejaVuSans-30" x="127.246094"/>
      </g>
     </g>
    </g>
    <g id="xtick_5">
     <g id="line2d_9">
      <path d="M 521.080262 320.4 
L 521.080262 43.2 
" clip-path="url(#pc46a00518e)" style="fill: none; stroke: #b0b0b0; stroke-width: 0.8; stroke-linecap: square"/>
     </g>
     <g id="line2d_10">
      <g>
       <use xlink:href="#m0871beb2bf" x="521.080262" y="320.4" style="stroke: #000000; stroke-width: 0.8"/>
      </g>
     </g>
     <g id="text_5">
      <!-- 800 -->
      <g transform="translate(511.536512 334.998438) scale(0.1 -0.1)">
       <defs>
        <path id="DejaVuSans-38" d="M 2034 2216 
Q 1584 2216 1326 1975 
Q 1069 1734 1069 1313 
Q 1069 891 1326 650 
Q 1584 409 2034 409 
Q 2484 409 2743 651 
Q 3003 894 3003 1313 
Q 3003 1734 2745 1975 
Q 2488 2216 2034 2216 
z
M 1403 2484 
Q 997 2584 770 2862 
Q 544 3141 544 3541 
Q 544 4100 942 4425 
Q 1341 4750 2034 4750 
Q 2731 4750 3128 4425 
Q 3525 4100 3525 3541 
Q 3525 3141 3298 2862 
Q 3072 2584 2669 2484 
Q 3125 2378 3379 2068 
Q 3634 1759 3634 1313 
Q 3634 634 3220 271 
Q 2806 -91 2034 -91 
Q 1263 -91 848 271 
Q 434 634 434 1313 
Q 434 1759 690 2068 
Q 947 2378 1403 2484 
z
M 1172 3481 
Q 1172 3119 1398 2916 
Q 1625 2713 2034 2713 
Q 2441 2713 2670 2916 
Q 2900 3119 2900 3481 
Q 2900 3844 2670 4047 
Q 2441 4250 2034 4250 
Q 1625 4250 1398 4047 
Q 1172 3844 1172 3481 
z
" transform="scale(0.015625)"/>
       </defs>
       <use xlink:href="#DejaVuSans-38"/>
       <use xlink:href="#DejaVuSans-30" x="63.623047"/>
       <use xlink:href="#DejaVuSans-30" x="127.246094"/>
      </g>
     </g>
    </g>
    <g id="xtick_6">
     <g id="line2d_11">
      <path d="M 622.636364 320.4 
L 622.636364 43.2 
" clip-path="url(#pc46a00518e)" style="fill: none; stroke: #b0b0b0; stroke-width: 0.8; stroke-linecap: square"/>
     </g>
     <g id="line2d_12">
      <g>
       <use xlink:href="#m0871beb2bf" x="622.636364" y="320.4" style="stroke: #000000; stroke-width: 0.8"/>
      </g>
     </g>
     <g id="text_6">
      <!-- 1000 -->
      <g transform="translate(609.911364 334.998438) scale(0.1 -0.1)">
       <defs>
        <path id="DejaVuSans-31" d="M 794 531 
L 1825 531 
L 1825 4091 
L 703 3866 
L 703 4441 
L 1819 4666 
L 2450 4666 
L 2450 531 
L 3481 531 
L 3481 0 
L 794 0 
L 794 531 
z
" transform="scale(0.015625)"/>
       </defs>
       <use xlink:href="#DejaVuSans-31"/>
       <use xlink:href="#DejaVuSans-30" x="63.623047"/>
       <use xlink:href="#DejaVuSans-30" x="127.246094"/>
       <use xlink:href="#DejaVuSans-30" x="190.869141"/>
      </g>
     </g>
    </g>
    <g id="text_7">
     <!-- Query number -->
     <g transform="translate(332.700781 348.676562) scale(0.1 -0.1)">
      <defs>
       <path id="DejaVuSans-51" d="M 2522 4238 
Q 1834 4238 1429 3725 
Q 1025 3213 1025 2328 
Q 1025 1447 1429 934 
Q 1834 422 2522 422 
Q 3209 422 3611 934 
Q 4013 1447 4013 2328 
Q 4013 3213 3611 3725 
Q 3209 4238 2522 4238 
z
M 3406 84 
L 4238 -825 
L 3475 -825 
L 2784 -78 
Q 2681 -84 2626 -87 
Q 2572 -91 2522 -91 
Q 1538 -91 948 567 
Q 359 1225 359 2328 
Q 359 3434 948 4092 
Q 1538 4750 2522 4750 
Q 3503 4750 4090 4092 
Q 4678 3434 4678 2328 
Q 4678 1516 4351 937 
Q 4025 359 3406 84 
z
" transform="scale(0.015625)"/>
       <path id="DejaVuSans-75" d="M 544 1381 
L 544 3500 
L 1119 3500 
L 1119 1403 
Q 1119 906 1312 657 
Q 1506 409 1894 409 
Q 2359 409 2629 706 
Q 2900 1003 2900 1516 
L 2900 3500 
L 3475 3500 
L 3475 0 
L 2900 0 
L 2900 538 
Q 2691 219 2414 64 
Q 2138 -91 1772 -91 
Q 1169 -91 856 284 
Q 544 659 544 1381 
z
M 1991 3584 
L 1991 3584 
z
" transform="scale(0.015625)"/>
       <path id="DejaVuSans-65" d="M 3597 1894 
L 3597 1613 
L 953 1613 
Q 991 1019 1311 708 
Q 1631 397 2203 397 
Q 2534 397 2845 478 
Q 3156 559 3463 722 
L 3463 178 
Q 3153 47 2828 -22 
Q 2503 -91 2169 -91 
Q 1331 -91 842 396 
Q 353 884 353 1716 
Q 353 2575 817 3079 
Q 1281 3584 2069 3584 
Q 2775 3584 3186 3129 
Q 3597 2675 3597 1894 
z
M 3022 2063 
Q 3016 2534 2758 2815 
Q 2500 3097 2075 3097 
Q 1594 3097 1305 2825 
Q 1016 2553 972 2059 
L 3022 2063 
z
" transform="scale(0.015625)"/>
       <path id="DejaVuSans-72" d="M 2631 2963 
Q 2534 3019 2420 3045 
Q 2306 3072 2169 3072 
Q 1681 3072 1420 2755 
Q 1159 2438 1159 1844 
L 1159 0 
L 581 0 
L 581 3500 
L 1159 3500 
L 1159 2956 
Q 1341 3275 1631 3429 
Q 1922 3584 2338 3584 
Q 2397 3584 2469 3576 
Q 2541 3569 2628 3553 
L 2631 2963 
z
" transform="scale(0.015625)"/>
       <path id="DejaVuSans-79" d="M 2059 -325 
Q 1816 -950 1584 -1140 
Q 1353 -1331 966 -1331 
L 506 -1331 
L 506 -850 
L 844 -850 
Q 1081 -850 1212 -737 
Q 1344 -625 1503 -206 
L 1606 56 
L 191 3500 
L 800 3500 
L 1894 763 
L 2988 3500 
L 3597 3500 
L 2059 -325 
z
" transform="scale(0.015625)"/>
       <path id="DejaVuSans-20" transform="scale(0.015625)"/>
       <path id="DejaVuSans-6e" d="M 3513 2113 
L 3513 0 
L 2938 0 
L 2938 2094 
Q 2938 2591 2744 2837 
Q 2550 3084 2163 3084 
Q 1697 3084 1428 2787 
Q 1159 2491 1159 1978 
L 1159 0 
L 581 0 
L 581 3500 
L 1159 3500 
L 1159 2956 
Q 1366 3272 1645 3428 
Q 1925 3584 2291 3584 
Q 2894 3584 3203 3211 
Q 3513 2838 3513 2113 
z
" transform="scale(0.015625)"/>
       <path id="DejaVuSans-6d" d="M 3328 2828 
Q 3544 3216 3844 3400 
Q 4144 3584 4550 3584 
Q 5097 3584 5394 3201 
Q 5691 2819 5691 2113 
L 5691 0 
L 5113 0 
L 5113 2094 
Q 5113 2597 4934 2840 
Q 4756 3084 4391 3084 
Q 3944 3084 3684 2787 
Q 3425 2491 3425 1978 
L 3425 0 
L 2847 0 
L 2847 2094 
Q 2847 2600 2669 2842 
Q 2491 3084 2119 3084 
Q 1678 3084 1418 2786 
Q 1159 2488 1159 1978 
L 1159 0 
L 581 0 
L 581 3500 
L 1159 3500 
L 1159 2956 
Q 1356 3278 1631 3431 
Q 1906 3584 2284 3584 
Q 2666 3584 2933 3390 
Q 3200 3197 3328 2828 
z
" transform="scale(0.015625)"/>
       <path id="DejaVuSans-62" d="M 3116 1747 
Q 3116 2381 2855 2742 
Q 2594 3103 2138 3103 
Q 1681 3103 1420 2742 
Q 1159 2381 1159 1747 
Q 1159 1113 1420 752 
Q 1681 391 2138 391 
Q 2594 391 2855 752 
Q 3116 1113 3116 1747 
z
M 1159 2969 
Q 1341 3281 1617 3432 
Q 1894 3584 2278 3584 
Q 2916 3584 3314 3078 
Q 3713 2572 3713 1747 
Q 3713 922 3314 415 
Q 2916 -91 2278 -91 
Q 1894 -91 1617 61 
Q 1341 213 1159 525 
L 1159 0 
L 581 0 
L 581 4863 
L 1159 4863 
L 1159 2969 
z
" transform="scale(0.015625)"/>
      </defs>
      <use xlink:href="#DejaVuSans-51"/>
      <use xlink:href="#DejaVuSans-75" x="78.710938"/>
      <use xlink:href="#DejaVuSans-65" x="142.089844"/>
      <use xlink:href="#DejaVuSans-72" x="203.613281"/>
      <use xlink:href="#DejaVuSans-79" x="244.726562"/>
      <use xlink:href="#DejaVuSans-20" x="303.90625"/>
      <use xlink:href="#DejaVuSans-6e" x="335.693359"/>
      <use xlink:href="#DejaVuSans-75" x="399.072266"/>
      <use xlink:href="#DejaVuSans-6d" x="462.451172"/>
      <use xlink:href="#DejaVuSans-62" x="559.863281"/>
      <use xlink:href="#DejaVuSans-65" x="623.339844"/>
      <use xlink:href="#DejaVuSans-72" x="684.863281"/>
     </g>
    </g>
   </g>
   <g id="matplotlib.axis_2">
    <g id="ytick_1">
     <g id="line2d_13">
      <path d="M 90 312.85072 
L 648 312.85072 
" clip-path="url(#pc46a00518e)" style="fill: none; stroke: #b0b0b0; stroke-width: 0.8; stroke-linecap: square"/>
     </g>
     <g id="line2d_14">
      <defs>
       <path id="mb0c266a982" d="M 0 0 
L -3.5 0 
" style="stroke: #000000; stroke-width: 0.8"/>
      </defs>
      <g>
       <use xlink:href="#mb0c266a982" x="90" y="312.85072" style="stroke: #000000; stroke-width: 0.8"/>
      </g>
     </g>
     <g id="text_8">
      <!-- 0.0 -->
      <g transform="translate(67.096875 316.649939) scale(0.1 -0.1)">
       <defs>
        <path id="DejaVuSans-2e" d="M 684 794 
L 1344 794 
L 1344 0 
L 684 0 
L 684 794 
z
" transform="scale(0.015625)"/>
       </defs>
       <use xlink:href="#DejaVuSans-30"/>
       <use xlink:href="#DejaVuSans-2e" x="63.623047"/>
       <use xlink:href="#DejaVuSans-30" x="95.410156"/>
      </g>
     </g>
    </g>
    <g id="ytick_2">
     <g id="line2d_15">
      <path d="M 90 269.617547 
L 648 269.617547 
" clip-path="url(#pc46a00518e)" style="fill: none; stroke: #b0b0b0; stroke-width: 0.8; stroke-linecap: square"/>
     </g>
     <g id="line2d_16">
      <g>
       <use xlink:href="#mb0c266a982" x="90" y="269.617547" style="stroke: #000000; stroke-width: 0.8"/>
      </g>
     </g>
     <g id="text_9">
      <!-- 0.5 -->
      <g transform="translate(67.096875 273.416766) scale(0.1 -0.1)">
       <defs>
        <path id="DejaVuSans-35" d="M 691 4666 
L 3169 4666 
L 3169 4134 
L 1269 4134 
L 1269 2991 
Q 1406 3038 1543 3061 
Q 1681 3084 1819 3084 
Q 2600 3084 3056 2656 
Q 3513 2228 3513 1497 
Q 3513 744 3044 326 
Q 2575 -91 1722 -91 
Q 1428 -91 1123 -41 
Q 819 9 494 109 
L 494 744 
Q 775 591 1075 516 
Q 1375 441 1709 441 
Q 2250 441 2565 725 
Q 2881 1009 2881 1497 
Q 2881 1984 2565 2268 
Q 2250 2553 1709 2553 
Q 1456 2553 1204 2497 
Q 953 2441 691 2322 
L 691 4666 
z
" transform="scale(0.015625)"/>
       </defs>
       <use xlink:href="#DejaVuSans-30"/>
       <use xlink:href="#DejaVuSans-2e" x="63.623047"/>
       <use xlink:href="#DejaVuSans-35" x="95.410156"/>
      </g>
     </g>
    </g>
    <g id="ytick_3">
     <g id="line2d_17">
      <path d="M 90 226.384374 
L 648 226.384374 
" clip-path="url(#pc46a00518e)" style="fill: none; stroke: #b0b0b0; stroke-width: 0.8; stroke-linecap: square"/>
     </g>
     <g id="line2d_18">
      <g>
       <use xlink:href="#mb0c266a982" x="90" y="226.384374" style="stroke: #000000; stroke-width: 0.8"/>
      </g>
     </g>
     <g id="text_10">
      <!-- 1.0 -->
      <g transform="translate(67.096875 230.183593) scale(0.1 -0.1)">
       <use xlink:href="#DejaVuSans-31"/>
       <use xlink:href="#DejaVuSans-2e" x="63.623047"/>
       <use xlink:href="#DejaVuSans-30" x="95.410156"/>
      </g>
     </g>
    </g>
    <g id="ytick_4">
     <g id="line2d_19">
      <path d="M 90 183.151202 
L 648 183.151202 
" clip-path="url(#pc46a00518e)" style="fill: none; stroke: #b0b0b0; stroke-width: 0.8; stroke-linecap: square"/>
     </g>
     <g id="line2d_20">
      <g>
       <use xlink:href="#mb0c266a982" x="90" y="183.151202" style="stroke: #000000; stroke-width: 0.8"/>
      </g>
     </g>
     <g id="text_11">
      <!-- 1.5 -->
      <g transform="translate(67.096875 186.95042) scale(0.1 -0.1)">
       <use xlink:href="#DejaVuSans-31"/>
       <use xlink:href="#DejaVuSans-2e" x="63.623047"/>
       <use xlink:href="#DejaVuSans-35" x="95.410156"/>
      </g>
     </g>
    </g>
    <g id="ytick_5">
     <g id="line2d_21">
      <path d="M 90 139.918029 
L 648 139.918029 
" clip-path="url(#pc46a00518e)" style="fill: none; stroke: #b0b0b0; stroke-width: 0.8; stroke-linecap: square"/>
     </g>
     <g id="line2d_22">
      <g>
       <use xlink:href="#mb0c266a982" x="90" y="139.918029" style="stroke: #000000; stroke-width: 0.8"/>
      </g>
     </g>
     <g id="text_12">
      <!-- 2.0 -->
      <g transform="translate(67.096875 143.717248) scale(0.1 -0.1)">
       <use xlink:href="#DejaVuSans-32"/>
       <use xlink:href="#DejaVuSans-2e" x="63.623047"/>
       <use xlink:href="#DejaVuSans-30" x="95.410156"/>
      </g>
     </g>
    </g>
    <g id="ytick_6">
     <g id="line2d_23">
      <path d="M 90 96.684856 
L 648 96.684856 
" clip-path="url(#pc46a00518e)" style="fill: none; stroke: #b0b0b0; stroke-width: 0.8; stroke-linecap: square"/>
     </g>
     <g id="line2d_24">
      <g>
       <use xlink:href="#mb0c266a982" x="90" y="96.684856" style="stroke: #000000; stroke-width: 0.8"/>
      </g>
     </g>
     <g id="text_13">
      <!-- 2.5 -->
      <g transform="translate(67.096875 100.484075) scale(0.1 -0.1)">
       <use xlink:href="#DejaVuSans-32"/>
       <use xlink:href="#DejaVuSans-2e" x="63.623047"/>
       <use xlink:href="#DejaVuSans-35" x="95.410156"/>
      </g>
     </g>
    </g>
    <g id="ytick_7">
     <g id="line2d_25">
      <path d="M 90 53.451683 
L 648 53.451683 
" clip-path="url(#pc46a00518e)" style="fill: none; stroke: #b0b0b0; stroke-width: 0.8; stroke-linecap: square"/>
     </g>
     <g id="line2d_26">
      <g>
       <use xlink:href="#mb0c266a982" x="90" y="53.451683" style="stroke: #000000; stroke-width: 0.8"/>
      </g>
     </g>
     <g id="text_14">
      <!-- 3.0 -->
      <g transform="translate(67.096875 57.250902) scale(0.1 -0.1)">
       <defs>
        <path id="DejaVuSans-33" d="M 2597 2516 
Q 3050 2419 3304 2112 
Q 3559 1806 3559 1356 
Q 3559 666 3084 287 
Q 2609 -91 1734 -91 
Q 1441 -91 1130 -33 
Q 819 25 488 141 
L 488 750 
Q 750 597 1062 519 
Q 1375 441 1716 441 
Q 2309 441 2620 675 
Q 2931 909 2931 1356 
Q 2931 1769 2642 2001 
Q 2353 2234 1838 2234 
L 1294 2234 
L 1294 2753 
L 1863 2753 
Q 2328 2753 2575 2939 
Q 2822 3125 2822 3475 
Q 2822 3834 2567 4026 
Q 2313 4219 1838 4219 
Q 1578 4219 1281 4162 
Q 984 4106 628 3988 
L 628 4550 
Q 988 4650 1302 4700 
Q 1616 4750 1894 4750 
Q 2613 4750 3031 4423 
Q 3450 4097 3450 3541 
Q 3450 3153 3228 2886 
Q 3006 2619 2597 2516 
z
" transform="scale(0.015625)"/>
       </defs>
       <use xlink:href="#DejaVuSans-33"/>
       <use xlink:href="#DejaVuSans-2e" x="63.623047"/>
       <use xlink:href="#DejaVuSans-30" x="95.410156"/>
      </g>
     </g>
    </g>
    <g id="text_15">
     <!-- Time (milliseconds) -->
     <g transform="translate(61.017187 230.388281) rotate(-90) scale(0.1 -0.1)">
      <defs>
       <path id="DejaVuSans-54" d="M -19 4666 
L 3928 4666 
L 3928 4134 
L 2272 4134 
L 2272 0 
L 1638 0 
L 1638 4134 
L -19 4134 
L -19 4666 
z
" transform="scale(0.015625)"/>
       <path id="DejaVuSans-69" d="M 603 3500 
L 1178 3500 
L 1178 0 
L 603 0 
L 603 3500 
z
M 603 4863 
L 1178 4863 
L 1178 4134 
L 603 4134 
L 603 4863 
z
" transform="scale(0.015625)"/>
       <path id="DejaVuSans-28" d="M 1984 4856 
Q 1566 4138 1362 3434 
Q 1159 2731 1159 2009 
Q 1159 1288 1364 580 
Q 1569 -128 1984 -844 
L 1484 -844 
Q 1016 -109 783 600 
Q 550 1309 550 2009 
Q 550 2706 781 3412 
Q 1013 4119 1484 4856 
L 1984 4856 
z
" transform="scale(0.015625)"/>
       <path id="DejaVuSans-6c" d="M 603 4863 
L 1178 4863 
L 1178 0 
L 603 0 
L 603 4863 
z
" transform="scale(0.015625)"/>
       <path id="DejaVuSans-73" d="M 2834 3397 
L 2834 2853 
Q 2591 2978 2328 3040 
Q 2066 3103 1784 3103 
Q 1356 3103 1142 2972 
Q 928 2841 928 2578 
Q 928 2378 1081 2264 
Q 1234 2150 1697 2047 
L 1894 2003 
Q 2506 1872 2764 1633 
Q 3022 1394 3022 966 
Q 3022 478 2636 193 
Q 2250 -91 1575 -91 
Q 1294 -91 989 -36 
Q 684 19 347 128 
L 347 722 
Q 666 556 975 473 
Q 1284 391 1588 391 
Q 1994 391 2212 530 
Q 2431 669 2431 922 
Q 2431 1156 2273 1281 
Q 2116 1406 1581 1522 
L 1381 1569 
Q 847 1681 609 1914 
Q 372 2147 372 2553 
Q 372 3047 722 3315 
Q 1072 3584 1716 3584 
Q 2034 3584 2315 3537 
Q 2597 3491 2834 3397 
z
" transform="scale(0.015625)"/>
       <path id="DejaVuSans-63" d="M 3122 3366 
L 3122 2828 
Q 2878 2963 2633 3030 
Q 2388 3097 2138 3097 
Q 1578 3097 1268 2742 
Q 959 2388 959 1747 
Q 959 1106 1268 751 
Q 1578 397 2138 397 
Q 2388 397 2633 464 
Q 2878 531 3122 666 
L 3122 134 
Q 2881 22 2623 -34 
Q 2366 -91 2075 -91 
Q 1284 -91 818 406 
Q 353 903 353 1747 
Q 353 2603 823 3093 
Q 1294 3584 2113 3584 
Q 2378 3584 2631 3529 
Q 2884 3475 3122 3366 
z
" transform="scale(0.015625)"/>
       <path id="DejaVuSans-6f" d="M 1959 3097 
Q 1497 3097 1228 2736 
Q 959 2375 959 1747 
Q 959 1119 1226 758 
Q 1494 397 1959 397 
Q 2419 397 2687 759 
Q 2956 1122 2956 1747 
Q 2956 2369 2687 2733 
Q 2419 3097 1959 3097 
z
M 1959 3584 
Q 2709 3584 3137 3096 
Q 3566 2609 3566 1747 
Q 3566 888 3137 398 
Q 2709 -91 1959 -91 
Q 1206 -91 779 398 
Q 353 888 353 1747 
Q 353 2609 779 3096 
Q 1206 3584 1959 3584 
z
" transform="scale(0.015625)"/>
       <path id="DejaVuSans-64" d="M 2906 2969 
L 2906 4863 
L 3481 4863 
L 3481 0 
L 2906 0 
L 2906 525 
Q 2725 213 2448 61 
Q 2172 -91 1784 -91 
Q 1150 -91 751 415 
Q 353 922 353 1747 
Q 353 2572 751 3078 
Q 1150 3584 1784 3584 
Q 2172 3584 2448 3432 
Q 2725 3281 2906 2969 
z
M 947 1747 
Q 947 1113 1208 752 
Q 1469 391 1925 391 
Q 2381 391 2643 752 
Q 2906 1113 2906 1747 
Q 2906 2381 2643 2742 
Q 2381 3103 1925 3103 
Q 1469 3103 1208 2742 
Q 947 2381 947 1747 
z
" transform="scale(0.015625)"/>
       <path id="DejaVuSans-29" d="M 513 4856 
L 1013 4856 
Q 1481 4119 1714 3412 
Q 1947 2706 1947 2009 
Q 1947 1309 1714 600 
Q 1481 -109 1013 -844 
L 513 -844 
Q 928 -128 1133 580 
Q 1338 1288 1338 2009 
Q 1338 2731 1133 3434 
Q 928 4138 513 4856 
z
" transform="scale(0.015625)"/>
      </defs>
      <use xlink:href="#DejaVuSans-54"/>
      <use xlink:href="#DejaVuSans-69" x="57.958984"/>
      <use xlink:href="#DejaVuSans-6d" x="85.742188"/>
      <use xlink:href="#DejaVuSans-65" x="183.154297"/>
      <use xlink:href="#DejaVuSans-20" x="244.677734"/>
      <use xlink:href="#DejaVuSans-28" x="276.464844"/>
      <use xlink:href="#DejaVuSans-6d" x="315.478516"/>
      <use xlink:href="#DejaVuSans-69" x="412.890625"/>
      <use xlink:href="#DejaVuSans-6c" x="440.673828"/>
      <use xlink:href="#DejaVuSans-6c" x="468.457031"/>
      <use xlink:href="#DejaVuSans-69" x="496.240234"/>
      <use xlink:href="#DejaVuSans-73" x="524.023438"/>
      <use xlink:href="#DejaVuSans-65" x="576.123047"/>
      <use xlink:href="#DejaVuSans-63" x="637.646484"/>
      <use xlink:href="#DejaVuSans-6f" x="692.626953"/>
      <use xlink:href="#DejaVuSans-6e" x="753.808594"/>
      <use xlink:href="#DejaVuSans-64" x="817.1875"/>
      <use xlink:href="#DejaVuSans-73" x="880.664062"/>
      <use xlink:href="#DejaVuSans-29" x="932.763672"/>
     </g>
    </g>
   </g>
   <g id="line2d_27">
    <path d="M 115.363636 80.002225 
L 115.871417 274.58894 
L 116.379197 288.318652 
L 116.886978 288.834031 
L 117.394758 285.24699 
L 117.902539 285.906675 
L 118.410319 285.700524 
L 118.9181 288.730955 
L 119.42588 290.813089 
L 119.933661 291.390314 
L 120.441441 289.143259 
L 120.949222 288.937107 
L 121.457002 289.431872 
L 121.964783 289.390641 
L 122.472563 287.432199 
L 122.980344 289.885406 
L 123.488124 289.246335 
L 123.995905 286.710668 
L 124.503686 286.174673 
L 125.011466 288.009424 
L 125.519247 289.308181 
L 126.027027 289.163874 
L 126.534808 287.452814 
L 127.042588 288.813416 
L 127.550369 289.081414 
L 128.058149 290.132788 
L 128.56593 289.122644 
L 129.07371 289.308181 
L 129.581491 289.246335 
L 130.089271 286.669437 
L 130.597052 286.071597 
L 131.104832 287.658966 
L 131.612613 292.482919 
L 132.120393 294.482592 
L 132.628174 294.956741 
L 133.135954 294.626898 
L 133.643735 294.132134 
L 134.151515 294.008442 
L 134.659296 294.668128 
L 135.167076 291.802618 
L 135.674857 293.967212 
L 136.182637 294.750589 
L 136.690418 289.679254 
L 137.198198 281.453796 
L 137.705979 280.484882 
L 138.213759 287.741427 
L 138.72154 288.545419 
L 139.22932 285.824215 
L 139.737101 287.576505 
L 140.244881 288.009424 
L 140.752662 282.546401 
L 141.768223 288.050654 
L 142.276003 286.95805 
L 142.783784 285.453141 
L 143.291564 286.566361 
L 143.799345 287.308508 
L 144.307125 288.298037 
L 144.814906 288.978338 
L 145.322686 276.093848 
L 145.830467 281.556872 
L 146.338247 279.887042 
L 146.846028 282.031021 
L 147.353808 286.648822 
L 147.861589 289.205105 
L 148.369369 292.524149 
L 148.87715 292.668455 
L 149.38493 292.668455 
L 149.892711 291.246008 
L 150.400491 287.865118 
L 151.416052 288.256806 
L 152.431613 292.771531 
L 153.954955 292.833377 
L 154.462735 290.998626 
L 154.970516 289.885406 
L 155.478296 287.473429 
L 155.986077 292.029385 
L 156.493857 292.338613 
L 157.001638 292.421073 
L 157.509419 289.761715 
L 158.017199 292.09123 
L 158.52498 290.38017 
L 159.03276 289.081414 
L 159.540541 291.53462 
L 160.048321 288.442343 
L 160.556102 287.617736 
L 161.063882 286.174673 
L 161.571663 289.679254 
L 162.079443 291.658312 
L 162.587224 291.740772 
L 163.095004 290.215249 
L 163.602785 291.390314 
L 164.110565 292.09123 
L 165.126126 292.833377 
L 165.633907 292.256152 
L 166.141687 293.018914 
L 166.649468 214.165838 
L 167.157248 181.078469 
L 167.665029 285.143914 
L 168.172809 282.876243 
L 168.68059 238.203141 
L 169.18837 281.577487 
L 169.696151 285.28822 
L 170.203931 285.556217 
L 171.219492 284.917147 
L 171.727273 283.57716 
L 172.235053 284.442997 
L 172.742834 284.875916 
L 173.250614 284.525458 
L 173.758395 285.576832 
L 174.266175 285.535602 
L 174.773956 283.371008 
L 175.281736 286.875589 
L 175.789517 288.834031 
L 176.297297 288.895877 
L 176.805078 289.411257 
L 177.820639 289.82356 
L 178.328419 286.545746 
L 178.8362 288.813416 
L 179.34398 289.534948 
L 180.359541 289.514332 
L 180.867322 290.029712 
L 181.882883 290.112173 
L 182.390663 287.226047 
L 183.406224 289.431872 
L 183.914005 289.638024 
L 184.421785 289.390641 
L 184.929566 270.177291 
L 185.437346 288.256806 
L 185.945127 288.277421 
L 186.452907 288.71034 
L 186.960688 289.679254 
L 187.468468 287.988809 
L 187.976249 288.730955 
L 188.484029 288.957723 
L 188.99181 289.019568 
L 189.49959 288.957723 
L 190.007371 285.308835 
L 190.515152 287.968194 
L 191.022932 288.607264 
L 191.530713 288.215576 
L 192.038493 288.71034 
L 192.546274 285.556217 
L 193.054054 288.772186 
L 193.561835 288.834031 
L 194.069615 287.349738 
L 194.577396 288.091885 
L 195.085176 288.380497 
L 195.592957 288.421728 
L 196.100737 288.772186 
L 196.608518 288.648495 
L 197.116298 288.277421 
L 197.624079 286.586976 
L 198.131859 287.762042 
L 198.63964 288.380497 
L 199.14742 288.772186 
L 199.655201 288.916492 
L 200.162981 288.792801 
L 200.670762 288.298037 
L 201.178542 289.060798 
L 201.686323 287.102356 
L 202.194103 288.380497 
L 202.701884 289.163874 
L 203.717445 289.205105 
L 204.225225 291.967539 
L 205.240786 292.977683 
L 205.748567 288.524804 
L 206.256347 289.864791 
L 206.764128 292.09123 
L 207.271908 292.977683 
L 207.779689 292.936453 
L 208.287469 291.163547 
L 208.79525 263.683508 
L 209.30303 278.505825 
L 209.810811 287.267277 
L 210.318591 291.266623 
L 210.826372 291.885079 
L 211.334152 292.111846 
L 211.841933 295.142277 
L 212.349713 295.616427 
L 212.857494 292.070615 
L 213.365274 291.843848 
L 213.873055 292.194306 
L 214.380835 292.173691 
L 214.888616 291.101702 
L 215.396396 291.740772 
L 216.411957 292.153076 
L 216.919738 292.194306 
L 217.427518 287.267277 
L 217.935299 268.837304 
L 218.443079 262.302291 
L 218.95086 253.994372 
L 219.45864 292.132461 
L 219.966421 292.09123 
L 220.474201 294.956741 
L 220.981982 292.132461 
L 221.489762 291.019241 
L 221.997543 291.823233 
L 222.505324 292.214921 
L 223.013104 292.214921 
L 223.520885 290.689398 
L 224.028665 291.967539 
L 224.536446 292.194306 
L 225.552007 292.132461 
L 226.059787 291.410929 
L 226.567568 288.586649 
L 227.075348 294.111518 
L 227.583129 295.410275 
L 228.090909 294.090903 
L 229.614251 295.47212 
L 231.645373 295.595812 
L 232.153153 295.554581 
L 232.660934 294.008442 
L 233.168714 294.379516 
L 233.676495 295.224738 
L 234.184275 295.369045 
L 234.692056 294.173364 
L 235.199836 293.389987 
L 235.707617 293.431217 
L 236.215397 293.060144 
L 236.723178 293.678599 
L 237.230958 293.843521 
L 237.738739 293.431217 
L 238.246519 292.359228 
L 238.7543 292.05 
L 239.769861 293.616754 
L 240.277641 293.678599 
L 240.785422 293.018914 
L 241.800983 293.596139 
L 242.308763 293.307526 
L 242.816544 293.71983 
L 243.324324 291.369699 
L 243.832105 292.585995 
L 244.339885 293.307526 
L 244.847666 293.266296 
L 245.355446 293.410602 
L 245.863227 293.348757 
L 246.371007 293.802291 
L 246.878788 293.822906 
L 247.386568 293.534293 
L 247.894349 293.71983 
L 248.402129 291.905694 
L 248.90991 292.60661 
L 249.41769 293.678599 
L 249.925471 293.596139 
L 251.448812 294.029058 
L 251.956593 292.874607 
L 252.464373 292.977683 
L 252.972154 293.740445 
L 253.479934 290.97801 
L 254.495495 293.451832 
L 255.511057 293.884751 
L 256.018837 293.76106 
L 257.542179 293.802291 
L 258.049959 294.029058 
L 258.55774 292.853992 
L 259.06552 293.678599 
L 259.573301 293.843521 
L 260.081081 293.71983 
L 261.604423 294.070288 
L 262.112203 293.657984 
L 263.127764 293.781675 
L 264.143325 292.792147 
L 264.651106 293.472448 
L 265.158886 293.554908 
L 265.666667 293.76106 
L 266.174447 293.843521 
L 266.682228 293.472448 
L 267.190008 293.843521 
L 267.697789 293.822906 
L 268.205569 287.122971 
L 268.71335 292.359228 
L 269.22113 293.328141 
L 269.728911 293.699215 
L 270.236691 293.740445 
L 270.744472 293.657984 
L 271.760033 293.822906 
L 272.267813 291.163547 
L 272.775594 292.915838 
L 273.283374 293.678599 
L 273.791155 293.822906 
L 274.298935 293.76106 
L 275.822277 293.864136 
L 276.330057 293.781675 
L 276.837838 293.20445 
L 277.345618 291.596466 
L 277.853399 293.266296 
L 278.361179 293.657984 
L 278.86896 291.843848 
L 279.37674 293.328141 
L 279.884521 293.678599 
L 280.392301 293.554908 
L 280.900082 293.657984 
L 281.407862 291.514005 
L 281.915643 292.977683 
L 282.423423 291.678927 
L 282.931204 292.462304 
L 283.946765 293.183835 
L 284.454545 292.977683 
L 284.962326 292.235537 
L 285.470106 293.060144 
L 286.485667 293.699215 
L 286.993448 292.00877 
L 287.501229 291.988154 
L 288.009009 291.410929 
L 288.51679 292.812762 
L 289.532351 293.080759 
L 290.040131 293.101374 
L 291.055692 293.596139 
L 291.563473 293.616754 
L 292.071253 292.029385 
L 292.579034 292.441688 
L 293.086814 293.101374 
L 293.594595 292.503534 
L 294.610156 293.616754 
L 295.117936 293.71983 
L 295.625717 293.554908 
L 296.641278 293.657984 
L 297.149058 292.524149 
L 297.656839 292.895223 
L 298.164619 293.472448 
L 298.6724 293.369372 
L 299.18018 293.884751 
L 299.687961 293.20445 
L 300.703522 293.657984 
L 301.211302 292.338613 
L 301.719083 293.080759 
L 302.226863 292.503534 
L 302.734644 290.462631 
L 303.242424 292.00877 
L 303.750205 292.833377 
L 304.257985 293.328141 
L 304.765766 293.431217 
L 305.273546 293.348757 
L 305.781327 293.678599 
L 306.796888 293.76106 
L 307.304668 292.60661 
L 307.812449 292.627225 
L 308.320229 293.493063 
L 308.82801 293.348757 
L 309.33579 293.493063 
L 309.843571 293.431217 
L 310.859132 293.802291 
L 311.366912 293.884751 
L 311.874693 293.575524 
L 312.382473 292.317997 
L 312.890254 293.286911 
L 313.398034 293.16322 
L 314.413595 293.534293 
L 314.921376 293.575524 
L 315.429156 294.008442 
L 315.936937 293.967212 
L 316.444717 293.472448 
L 316.952498 293.802291 
L 317.460278 292.544764 
L 317.968059 292.56538 
L 318.475839 293.431217 
L 318.98362 287.720812 
L 319.4914 293.039529 
L 319.999181 293.534293 
L 320.506962 293.637369 
L 321.014742 292.256152 
L 321.522523 292.874607 
L 322.030303 293.286911 
L 322.538084 292.998298 
L 323.045864 293.348757 
L 323.553645 292.194306 
L 324.061425 293.039529 
L 324.569206 292.998298 
L 325.076986 293.16322 
L 325.584767 293.039529 
L 326.092547 290.545092 
L 326.600328 291.658312 
L 327.108108 290.235864 
L 327.615889 291.905694 
L 328.123669 292.64784 
L 329.13923 292.874607 
L 329.647011 293.080759 
L 330.154791 292.915838 
L 330.662572 293.12199 
L 331.170352 291.307853 
L 331.678133 292.60661 
L 332.185913 293.080759 
L 335.232596 293.12199 
L 335.740377 293.20445 
L 336.248157 292.338613 
L 336.755938 292.194306 
L 337.263718 293.018914 
L 337.771499 292.936453 
L 338.279279 293.245681 
L 339.802621 293.12199 
L 340.818182 293.183835 
L 341.325962 291.782003 
L 342.341523 293.225065 
L 342.849304 293.16322 
L 343.864865 293.286911 
L 344.372645 292.977683 
L 344.880426 293.225065 
L 345.388206 293.16322 
L 345.895987 290.174018 
L 346.403767 288.689725 
L 347.419328 292.833377 
L 349.958231 292.853992 
L 351.481572 291.101702 
L 351.989353 290.730628 
L 352.497133 292.441688 
L 353.004914 292.792147 
L 354.020475 292.895223 
L 354.528256 292.482919 
L 355.543817 293.12199 
L 356.051597 292.812762 
L 357.067158 291.431545 
L 357.574939 292.462304 
L 358.082719 292.874607 
L 358.5905 292.709686 
L 359.606061 292.957068 
L 360.113841 293.245681 
L 360.621622 293.12199 
L 361.129402 293.12199 
L 361.637183 292.297382 
L 362.144963 293.12199 
L 362.652744 293.039529 
L 363.160524 293.12199 
L 363.668305 292.895223 
L 364.176085 293.307526 
L 364.683866 293.16322 
L 366.207207 293.060144 
L 366.714988 292.441688 
L 367.222768 292.60661 
L 367.730549 293.16322 
L 368.74611 293.12199 
L 369.25389 293.039529 
L 369.761671 287.762042 
L 370.777232 292.503534 
L 371.285012 292.421073 
L 371.792793 292.895223 
L 372.300573 291.802618 
L 373.316134 293.142605 
L 374.331695 292.792147 
L 375.347256 290.813089 
L 375.855037 291.204777 
L 376.362817 291.740772 
L 376.870598 292.64784 
L 377.378378 292.750916 
L 377.886159 292.668455 
L 378.393939 293.018914 
L 378.90172 292.853992 
L 379.4095 293.060144 
L 379.917281 291.699542 
L 380.932842 292.853992 
L 381.948403 293.225065 
L 382.456183 292.874607 
L 382.963964 292.895223 
L 383.471744 293.12199 
L 383.979525 292.853992 
L 384.487305 292.998298 
L 384.995086 290.524476 
L 385.502867 291.988154 
L 386.010647 292.853992 
L 388.041769 293.018914 
L 388.54955 293.039529 
L 389.05733 292.895223 
L 389.565111 293.12199 
L 390.072891 290.89555 
L 390.580672 292.194306 
L 391.088452 292.812762 
L 392.104013 292.936453 
L 394.135135 292.936453 
L 394.642916 293.16322 
L 395.150696 292.503534 
L 395.658477 293.018914 
L 396.166257 292.874607 
L 398.197379 292.771531 
L 399.21294 293.225065 
L 399.720721 293.142605 
L 400.228501 290.668783 
L 400.736282 292.173691 
L 401.244062 292.812762 
L 401.751843 292.874607 
L 402.259623 287.019895 
L 402.767404 286.071597 
L 403.275184 288.730955 
L 403.782965 289.060798 
L 404.798526 287.741427 
L 405.306306 288.854647 
L 405.814087 288.875262 
L 406.321867 288.730955 
L 406.829648 288.978338 
L 407.845209 288.607264 
L 408.352989 288.772186 
L 408.86077 288.421728 
L 409.36855 289.122644 
L 409.876331 288.875262 
L 410.384111 289.411257 
L 410.891892 289.060798 
L 411.907453 288.998953 
L 412.415233 274.856937 
L 412.923014 288.751571 
L 413.430794 289.163874 
L 413.938575 288.978338 
L 414.954136 289.040183 
L 415.461916 270.610209 
L 415.969697 278.52644 
L 416.985258 288.66911 
L 417.493038 288.566034 
L 418.000819 289.246335 
L 418.5086 289.349411 
L 419.01638 288.854647 
L 419.524161 288.689725 
L 420.031941 287.308508 
L 420.539722 280.732264 
L 421.047502 287.844503 
L 421.555283 288.895877 
L 422.063063 287.535275 
L 422.570844 288.421728 
L 423.078624 288.689725 
L 424.094185 289.493717 
L 424.601966 289.658639 
L 425.109746 291.864463 
L 425.617527 292.689071 
L 426.125307 292.627225 
L 426.633088 293.225065 
L 427.140868 291.720157 
L 427.648649 292.627225 
L 428.156429 292.709686 
L 428.66421 292.915838 
L 429.17199 292.689071 
L 429.679771 292.895223 
L 430.187551 292.957068 
L 430.695332 292.833377 
L 431.710893 293.225065 
L 432.218673 292.503534 
L 432.726454 292.936453 
L 433.234234 293.12199 
L 434.249795 293.060144 
L 435.265356 293.286911 
L 436.788698 293.16322 
L 437.296478 291.823233 
L 437.804259 292.029385 
L 438.312039 292.689071 
L 438.81982 292.998298 
L 439.3276 292.812762 
L 440.850942 292.957068 
L 441.358722 293.12199 
L 441.866503 292.070615 
L 442.374283 291.596466 
L 442.882064 292.194306 
L 443.389844 290.462631 
L 443.897625 290.689398 
L 444.405405 292.297382 
L 444.913186 293.018914 
L 445.420966 293.142605 
L 445.928747 292.936453 
L 446.436527 293.183835 
L 446.944308 293.142605 
L 447.452088 292.338613 
L 447.959869 292.936453 
L 448.97543 293.20445 
L 449.48321 293.142605 
L 450.498771 293.245681 
L 451.006552 293.16322 
L 451.514333 293.266296 
L 452.022113 293.16322 
L 452.529894 290.89555 
L 453.545455 292.709686 
L 454.053235 292.792147 
L 454.561016 293.018914 
L 455.576577 292.833377 
L 456.084357 293.101374 
L 457.099918 293.245681 
L 457.607699 291.885079 
L 458.115479 292.400458 
L 458.62326 292.585995 
L 459.13104 292.09123 
L 459.638821 287.494045 
L 460.146601 288.957723 
L 460.654382 286.772513 
L 461.162162 281.495026 
L 461.669943 284.607919 
L 462.177723 284.339921 
L 462.685504 287.308508 
L 463.193284 291.472775 
L 463.701065 292.070615 
L 464.208845 292.132461 
L 464.716626 292.338613 
L 465.224406 291.988154 
L 466.239967 292.132461 
L 466.747748 290.070942 
L 467.255528 290.957395 
L 467.763309 290.091558 
L 468.271089 290.957395 
L 468.77887 292.09123 
L 469.28665 291.967539 
L 470.302211 292.194306 
L 470.809992 292.153076 
L 471.317772 285.824215 
L 471.825553 291.266623 
L 472.333333 292.070615 
L 472.841114 291.967539 
L 473.348894 292.00877 
L 473.856675 291.740772 
L 474.872236 292.05 
L 475.380016 287.349738 
L 475.887797 289.82356 
L 476.395577 291.49339 
L 476.903358 291.988154 
L 477.411138 291.472775 
L 477.918919 291.967539 
L 479.950041 291.720157 
L 480.457821 290.627552 
L 480.965602 291.101702 
L 481.473382 291.761387 
L 481.981163 292.111846 
L 482.488943 292.111846 
L 482.996724 292.276767 
L 483.504505 292.05 
L 484.012285 291.988154 
L 484.520066 292.173691 
L 485.027846 292.029385 
L 485.535627 290.874935 
L 486.043407 290.586322 
L 486.551188 291.864463 
L 487.566749 292.359228 
L 488.074529 292.029385 
L 489.597871 292.070615 
L 490.613432 292.338613 
L 491.121212 287.349738 
L 491.628993 291.782003 
L 492.136773 292.111846 
L 492.644554 291.617081 
L 493.152334 291.699542 
L 493.660115 292.05 
L 494.167895 292.194306 
L 494.675676 291.946924 
L 495.183456 291.946924 
L 495.691237 291.678927 
L 496.199017 288.895877 
L 496.706798 282.237173 
L 497.214578 281.30949 
L 497.722359 288.030039 
L 498.230139 286.916819 
L 498.73792 288.62788 
L 499.2457 288.359882 
L 499.753481 287.926963 
L 500.261261 288.133115 
L 500.769042 289.370026 
L 501.276822 288.978338 
L 501.784603 279.103665 
L 502.292383 289.060798 
L 502.800164 288.730955 
L 503.307944 289.308181 
L 503.815725 287.390969 
L 504.323505 289.060798 
L 504.831286 288.937107 
L 505.339066 289.102029 
L 505.846847 289.534948 
L 506.354627 288.854647 
L 506.862408 288.916492 
L 507.370188 263.003207 
L 507.877969 287.782657 
L 508.385749 288.566034 
L 508.89353 288.998953 
L 509.40131 285.865445 
L 509.909091 288.751571 
L 510.416871 285.84483 
L 510.924652 285.906675 
L 511.432432 288.256806 
L 511.940213 288.359882 
L 512.447993 288.895877 
L 512.955774 289.122644 
L 513.463554 289.019568 
L 513.971335 288.545419 
L 514.479115 289.844175 
L 514.986896 288.524804 
L 515.494676 291.967539 
L 516.002457 292.936453 
L 516.510238 292.812762 
L 518.033579 292.977683 
L 518.54136 292.812762 
L 519.04914 293.20445 
L 519.556921 292.173691 
L 520.064701 292.132461 
L 520.572482 292.750916 
L 521.588043 292.895223 
L 522.095823 287.494045 
L 522.603604 292.60661 
L 523.111384 293.018914 
L 523.619165 292.359228 
L 524.126945 293.018914 
L 524.634726 293.286911 
L 525.142506 293.060144 
L 525.650287 293.142605 
L 526.158067 293.348757 
L 526.665848 293.348757 
L 527.681409 293.018914 
L 528.189189 293.348757 
L 528.69697 292.524149 
L 529.20475 292.441688 
L 529.712531 293.142605 
L 531.743653 293.142605 
L 532.251433 292.379843 
L 532.759214 291.287238 
L 533.266994 292.977683 
L 533.774775 290.730628 
L 534.282555 292.297382 
L 534.790336 292.792147 
L 535.298116 292.833377 
L 535.805897 292.524149 
L 536.313677 292.750916 
L 537.329238 292.895223 
L 537.837019 292.998298 
L 538.344799 292.853992 
L 538.85258 292.09123 
L 539.868141 293.12199 
L 540.375921 293.266296 
L 541.391482 292.874607 
L 541.899263 293.328141 
L 542.407043 293.307526 
L 542.914824 292.936453 
L 543.422604 293.20445 
L 543.930385 291.946924 
L 544.945946 292.792147 
L 545.453726 292.977683 
L 545.961507 292.56538 
L 546.469287 292.998298 
L 546.977068 293.20445 
L 547.484848 292.998298 
L 548.50041 293.225065 
L 549.00819 292.132461 
L 550.531532 292.750916 
L 551.039312 292.895223 
L 551.547093 292.792147 
L 552.054873 292.895223 
L 552.562654 292.874607 
L 553.070434 293.060144 
L 553.578215 293.039529 
L 554.085995 292.421073 
L 554.593776 292.482919 
L 555.101556 292.874607 
L 557.640459 293.245681 
L 558.148239 293.060144 
L 558.65602 292.524149 
L 559.1638 290.503861 
L 559.671581 292.441688 
L 560.179361 293.16322 
L 560.687142 293.101374 
L 561.702703 293.225065 
L 562.718264 293.183835 
L 563.226044 292.853992 
L 563.733825 293.142605 
L 564.241605 293.183835 
L 564.749386 291.184162 
L 565.257166 290.648168 
L 565.764947 292.111846 
L 566.272727 292.503534 
L 567.288288 292.957068 
L 567.796069 292.482919 
L 568.81163 293.225065 
L 569.31941 293.060144 
L 569.827191 290.462631 
L 570.334971 292.09123 
L 570.842752 292.771531 
L 571.350532 292.64784 
L 571.858313 293.039529 
L 572.366093 293.101374 
L 572.873874 285.741754 
L 573.381654 291.307853 
L 573.889435 292.482919 
L 574.397215 292.544764 
L 574.904996 292.421073 
L 575.412776 292.709686 
L 575.920557 292.709686 
L 576.428337 292.400458 
L 576.936118 293.060144 
L 577.443898 293.142605 
L 577.951679 292.915838 
L 578.459459 290.874935 
L 578.96724 290.277094 
L 579.47502 292.60661 
L 579.982801 293.101374 
L 580.490581 293.142605 
L 580.998362 292.853992 
L 581.506143 293.12199 
L 582.013923 292.730301 
L 582.521704 293.16322 
L 583.029484 292.771531 
L 583.537265 293.16322 
L 584.045045 292.276767 
L 584.552826 292.029385 
L 585.060606 292.874607 
L 585.568387 292.792147 
L 586.076167 293.245681 
L 586.583948 293.16322 
L 587.091728 293.266296 
L 587.599509 293.20445 
L 588.107289 292.771531 
L 588.61507 292.895223 
L 589.12285 293.245681 
L 589.630631 293.245681 
L 590.138411 292.936453 
L 590.646192 293.225065 
L 591.661753 293.12199 
L 592.677314 293.266296 
L 593.185094 291.472775 
L 593.692875 292.56538 
L 594.200655 292.853992 
L 595.216216 292.874607 
L 595.723997 293.183835 
L 596.231777 293.245681 
L 596.739558 292.792147 
L 597.247338 293.142605 
L 597.755119 293.16322 
L 598.262899 291.905694 
L 598.77068 292.524149 
L 599.786241 292.874607 
L 600.801802 292.709686 
L 601.309582 292.874607 
L 601.817363 292.812762 
L 602.325143 293.018914 
L 602.832924 293.389987 
L 603.340704 292.05 
L 603.848485 292.544764 
L 604.356265 292.853992 
L 605.371826 292.957068 
L 605.879607 292.998298 
L 606.387387 292.915838 
L 606.895168 292.64784 
L 607.910729 293.183835 
L 608.418509 291.946924 
L 608.92629 292.194306 
L 609.43407 292.585995 
L 609.941851 292.771531 
L 611.465192 292.936453 
L 612.480753 292.812762 
L 612.988534 293.12199 
L 613.496314 292.05 
L 614.004095 292.544764 
L 614.511876 292.853992 
L 616.035217 293.018914 
L 616.542998 292.853992 
L 617.558559 293.328141 
L 618.066339 293.018914 
L 618.57412 292.111846 
L 619.0819 292.689071 
L 620.097461 292.936453 
L 621.113022 292.56538 
L 621.620803 293.20445 
L 622.636364 293.080759 
L 622.636364 293.080759 
" clip-path="url(#pc46a00518e)" style="fill: none; stroke: #1f77b4; stroke-width: 1.5; stroke-linecap: square"/>
   </g>
   <g id="line2d_28">
    <path d="M 115.363636 55.8 
L 115.871417 289.679254 
L 116.379197 302.130825 
L 116.886978 302.74928 
L 117.394758 300.419764 
L 117.902539 302.130825 
L 118.410319 302.172055 
L 118.9181 302.378207 
L 119.42588 305.779712 
L 119.933661 303.82127 
L 120.441441 302.501898 
L 120.949222 302.831741 
L 121.457002 302.955432 
L 121.964783 302.089594 
L 122.472563 302.336976 
L 122.980344 303.161584 
L 123.488124 302.955432 
L 123.995905 297.69856 
L 124.503686 297.842866 
L 125.011466 302.872971 
L 125.519247 302.79051 
L 126.027027 302.996662 
L 126.534808 302.543128 
L 127.042588 302.831741 
L 127.550369 302.687435 
L 128.058149 303.26466 
L 128.56593 302.769895 
L 129.07371 302.955432 
L 129.581491 304.41911 
L 130.089271 298.667474 
L 130.597052 291.53462 
L 131.104832 289.617408 
L 131.612613 303.470812 
L 132.120393 304.130497 
L 132.628174 304.006806 
L 133.135954 304.233573 
L 133.643735 302.666819 
L 134.151515 303.738809 
L 134.659296 304.109882 
L 135.167076 303.8625 
L 135.674857 303.944961 
L 136.182637 304.151113 
L 136.690418 298.007788 
L 137.198198 294.111518 
L 137.705979 297.616099 
L 138.213759 300.089921 
L 138.72154 300.192997 
L 139.22932 297.65733 
L 139.737101 299.945615 
L 140.244881 298.85301 
L 140.752662 296.131806 
L 141.260442 299.492081 
L 141.768223 300.151767 
L 142.783784 299.36839 
L 143.291564 299.821924 
L 144.307125 299.945615 
L 145.322686 292.524149 
L 145.830467 292.730301 
L 146.846028 296.173037 
L 147.353808 301.244372 
L 147.861589 303.656348 
L 148.369369 304.151113 
L 149.38493 304.089267 
L 149.892711 300.007461 
L 150.400491 300.543455 
L 150.908272 300.131152 
L 151.416052 300.028076 
L 151.923833 303.883115 
L 152.939394 304.501571 
L 153.447174 304.604647 
L 153.954955 304.274804 
L 154.462735 303.553272 
L 154.970516 297.842866 
L 155.478296 302.625589 
L 155.986077 302.872971 
L 156.493857 302.914202 
L 157.001638 303.140969 
L 157.509419 303.079123 
L 158.017199 301.368063 
L 158.52498 303.965576 
L 159.03276 302.460668 
L 159.540541 302.893586 
L 160.556102 297.018259 
L 161.571663 302.934817 
L 162.079443 302.275131 
L 162.587224 304.151113 
L 163.095004 302.213285 
L 163.602785 302.955432 
L 164.110565 303.037893 
L 164.618346 303.573887 
L 165.126126 303.202814 
L 165.633907 304.171728 
L 166.141687 303.965576 
L 166.649468 270.69267 
L 167.157248 296.276113 
L 167.665029 298.110864 
L 168.172809 286.463285 
L 168.68059 293.575524 
L 169.18837 297.265641 
L 169.696151 298.21394 
L 170.203931 297.677945 
L 170.711712 282.46394 
L 171.219492 290.091558 
L 171.727273 292.235537 
L 172.235053 292.689071 
L 172.742834 292.957068 
L 173.250614 297.719175 
L 173.758395 297.65733 
L 174.266175 291.864463 
L 174.773956 292.297382 
L 175.281736 299.203469 
L 175.789517 301.264987 
L 176.297297 296.090576 
L 176.805078 298.976702 
L 177.820639 299.718848 
L 178.328419 300.976374 
L 178.8362 301.924673 
L 179.34398 302.19267 
L 179.851761 302.089594 
L 180.359541 302.501898 
L 180.867322 300.151767 
L 181.375102 299.698233 
L 181.882883 299.780694 
L 182.390663 299.698233 
L 182.898444 301.904058 
L 183.914005 302.213285 
L 184.421785 302.068979 
L 184.929566 299.945615 
L 185.437346 299.038547 
L 185.945127 296.853338 
L 186.452907 299.471466 
L 186.960688 298.997317 
L 187.976249 300.213613 
L 188.484029 300.357919 
L 188.99181 300.357919 
L 189.49959 300.646531 
L 190.007371 298.152094 
L 190.515152 299.574542 
L 191.022932 299.657003 
L 191.530713 299.36839 
L 192.038493 300.357919 
L 193.054054 300.584686 
L 193.561835 297.739791 
L 194.069615 298.626243 
L 194.577396 299.141623 
L 195.085176 299.40962 
L 196.100737 300.192997 
L 196.608518 299.760079 
L 197.116298 300.564071 
L 197.624079 298.77055 
L 199.14742 300.028076 
L 199.655201 300.357919 
L 200.162981 300.192997 
L 200.670762 300.151767 
L 201.178542 300.605301 
L 201.686323 299.450851 
L 202.194103 300.357919 
L 202.701884 300.172382 
L 203.209664 300.316688 
L 203.717445 300.625916 
L 204.225225 300.687762 
L 204.733006 300.893914 
L 205.240786 300.893914 
L 205.748567 299.100393 
L 206.256347 300.337304 
L 206.764128 300.873298 
L 207.271908 300.770223 
L 207.779689 300.337304 
L 208.287469 299.657003 
L 208.79525 296.131806 
L 209.30303 300.151767 
L 209.810811 306.027094 
L 210.318591 306.789856 
L 210.826372 306.872317 
L 211.334152 307.470157 
L 212.349713 307.346466 
L 212.857494 307.28462 
L 213.365274 307.552618 
L 213.873055 307.552618 
L 214.380835 304.563416 
L 214.888616 306.439398 
L 215.396396 307.057853 
L 215.904177 307.305236 
L 216.919738 307.428927 
L 217.427518 304.398495 
L 217.935299 306.563089 
L 218.443079 300.151767 
L 218.95086 307.24339 
L 219.966421 307.717539 
L 220.981982 307.511387 
L 221.489762 306.913547 
L 221.997543 307.470157 
L 222.505324 307.470157 
L 223.013104 294.977356 
L 223.520885 306.789856 
L 224.028665 307.511387 
L 225.044226 307.635079 
L 225.552007 307.490772 
L 226.059787 306.418783 
L 227.075348 307.593848 
L 231.645373 307.717539 
L 232.153153 307.676309 
L 232.660934 305.367408 
L 233.168714 306.913547 
L 233.676495 307.346466 
L 234.184275 307.325851 
L 234.692056 303.450196 
L 235.199836 303.326505 
L 235.707617 303.367736 
L 236.723178 304.130497 
L 237.230958 304.027421 
L 237.738739 304.130497 
L 238.246519 302.872971 
L 238.7543 303.161584 
L 239.26208 303.30589 
L 239.769861 303.099738 
L 240.277641 303.285275 
L 240.785422 303.037893 
L 241.800983 304.048037 
L 242.308763 304.006806 
L 242.816544 304.109882 
L 243.324324 302.893586 
L 243.832105 303.326505 
L 245.355446 303.388351 
L 245.863227 303.924346 
L 246.371007 304.171728 
L 246.878788 302.646204 
L 247.386568 304.068652 
L 247.894349 304.171728 
L 248.402129 302.811126 
L 248.90991 304.151113 
L 249.41769 303.34712 
L 249.925471 303.90373 
L 250.433251 303.532657 
L 250.941032 304.171728 
L 251.448812 304.171728 
L 251.956593 301.63606 
L 252.464373 303.965576 
L 252.972154 302.543128 
L 253.479934 301.677291 
L 253.987715 303.697579 
L 254.495495 303.924346 
L 255.003276 303.986191 
L 255.511057 303.90373 
L 256.018837 304.006806 
L 257.034398 303.944961 
L 257.542179 304.316034 
L 258.049959 302.728665 
L 259.06552 303.8625 
L 260.588862 304.212958 
L 261.604423 304.109882 
L 262.112203 304.212958 
L 262.619984 304.130497 
L 263.127764 304.37788 
L 263.635545 302.233901 
L 264.143325 302.976047 
L 264.651106 303.26466 
L 265.158886 303.718194 
L 265.666667 304.006806 
L 266.174447 304.089267 
L 266.682228 304.048037 
L 267.190008 303.553272 
L 267.697789 303.90373 
L 268.205569 300.460995 
L 268.71335 302.955432 
L 269.22113 303.738809 
L 269.728911 303.90373 
L 270.744472 303.944961 
L 271.252252 303.82127 
L 271.760033 304.027421 
L 272.267813 302.543128 
L 272.775594 303.82127 
L 273.791155 303.986191 
L 274.298935 304.068652 
L 274.806716 304.295419 
L 276.330057 304.109882 
L 276.837838 301.512369 
L 277.853399 303.924346 
L 278.361179 304.089267 
L 278.86896 304.130497 
L 279.37674 302.769895 
L 279.884521 304.109882 
L 280.900082 304.274804 
L 281.407862 301.491754 
L 281.915643 303.841885 
L 282.423423 301.986518 
L 282.931204 302.852356 
L 283.438984 302.976047 
L 283.946765 303.30589 
L 284.454545 300.605301 
L 284.962326 302.522513 
L 285.470106 303.244045 
L 285.977887 303.573887 
L 286.485667 304.048037 
L 286.993448 302.976047 
L 287.501229 302.625589 
L 288.51679 303.079123 
L 290.547912 303.140969 
L 291.563473 304.109882 
L 292.071253 302.233901 
L 292.579034 302.934817 
L 293.086814 303.182199 
L 293.594595 303.223429 
L 294.610156 304.109882 
L 295.117936 303.429581 
L 295.625717 303.26466 
L 296.133497 303.82127 
L 296.641278 304.130497 
L 297.149058 302.563743 
L 297.656839 303.079123 
L 298.164619 303.017277 
L 299.18018 303.34712 
L 300.195741 303.140969 
L 300.703522 303.841885 
L 301.211302 302.130825 
L 301.719083 304.027421 
L 302.226863 302.543128 
L 303.242424 303.26466 
L 303.750205 303.202814 
L 304.257985 303.30589 
L 304.765766 303.26466 
L 305.781327 304.089267 
L 306.289107 304.171728 
L 306.796888 302.811126 
L 307.304668 303.615118 
L 307.812449 304.089267 
L 309.843571 304.171728 
L 310.351351 304.048037 
L 311.366912 304.130497 
L 311.874693 301.471139 
L 312.382473 303.429581 
L 312.890254 304.068652 
L 313.398034 303.965576 
L 314.921376 304.192343 
L 315.429156 304.212958 
L 315.936937 304.089267 
L 316.952498 304.089267 
L 317.460278 302.481283 
L 317.968059 303.34712 
L 318.475839 303.285275 
L 318.98362 301.450524 
L 319.4914 303.965576 
L 319.999181 304.130497 
L 320.506962 304.048037 
L 321.014742 302.584359 
L 321.522523 303.140969 
L 322.538084 303.408966 
L 323.045864 302.336976 
L 323.553645 304.357264 
L 324.061425 304.769568 
L 325.076986 304.852029 
L 325.584767 304.109882 
L 326.092547 302.213285 
L 326.600328 304.254188 
L 327.108108 303.470812 
L 327.615889 304.439725 
L 328.123669 304.37788 
L 328.63145 304.501571 
L 329.13923 304.852029 
L 330.662572 304.831414 
L 331.170352 304.130497 
L 331.678133 304.831414 
L 333.709255 304.996335 
L 334.217035 304.810798 
L 335.740377 304.955105 
L 336.248157 304.254188 
L 336.755938 304.089267 
L 337.263718 304.810798 
L 339.29484 304.810798 
L 339.802621 304.645877 
L 340.310401 304.893259 
L 340.818182 304.996335 
L 341.325962 304.336649 
L 341.833743 304.563416 
L 342.341523 304.955105 
L 342.849304 305.058181 
L 343.357084 305.01695 
L 343.864865 303.285275 
L 344.372645 304.831414 
L 345.388206 305.01695 
L 345.895987 301.924673 
L 346.403767 301.59483 
L 346.911548 304.316034 
L 348.434889 304.542801 
L 349.45045 304.563416 
L 349.958231 304.41911 
L 350.466011 301.904058 
L 350.973792 303.8625 
L 351.481572 302.172055 
L 351.989353 302.419437 
L 352.497133 304.254188 
L 353.004914 304.46034 
L 354.020475 304.501571 
L 354.528256 304.398495 
L 355.036036 304.604647 
L 355.543817 304.93449 
L 356.051597 302.831741 
L 356.559378 303.470812 
L 357.067158 303.079123 
L 357.574939 304.295419 
L 358.5905 304.563416 
L 359.09828 304.955105 
L 359.606061 304.810798 
L 360.113841 304.97572 
L 360.621622 304.893259 
L 361.129402 302.893586 
L 361.637183 304.439725 
L 362.144963 304.872644 
L 363.668305 305.037565 
L 366.207207 304.93449 
L 366.714988 304.212958 
L 367.222768 304.852029 
L 367.730549 304.93449 
L 368.238329 304.790183 
L 368.74611 304.97572 
L 369.25389 304.790183 
L 369.761671 301.656675 
L 370.269451 302.625589 
L 370.777232 304.336649 
L 371.285012 304.439725 
L 371.792793 294.297055 
L 372.300573 304.439725 
L 372.808354 305.01695 
L 373.316134 304.810798 
L 374.331695 304.790183 
L 374.839476 303.244045 
L 375.347256 302.336976 
L 375.855037 303.34712 
L 376.362817 302.976047 
L 376.870598 304.501571 
L 377.378378 303.202814 
L 377.886159 304.522186 
L 378.393939 304.604647 
L 378.90172 304.398495 
L 379.4095 305.01695 
L 379.917281 303.656348 
L 380.425061 304.357264 
L 381.948403 304.852029 
L 382.456183 304.584031 
L 382.963964 304.687107 
L 383.471744 303.697579 
L 383.979525 304.522186 
L 384.487305 304.769568 
L 384.995086 303.182199 
L 385.502867 304.41911 
L 386.010647 304.37788 
L 386.518428 304.666492 
L 387.026208 304.542801 
L 388.54955 304.707723 
L 389.05733 304.37788 
L 389.565111 304.522186 
L 390.072891 302.74928 
L 390.580672 304.316034 
L 392.611794 304.563416 
L 393.119574 304.584031 
L 393.627355 304.274804 
L 394.135135 304.542801 
L 394.642916 304.97572 
L 395.150696 304.728338 
L 395.658477 304.893259 
L 396.166257 304.37788 
L 397.689599 304.645877 
L 398.197379 304.357264 
L 398.70516 304.810798 
L 399.21294 304.872644 
L 399.720721 302.831741 
L 400.228501 302.625589 
L 400.736282 304.37788 
L 401.751843 304.542801 
L 402.259623 296.709031 
L 402.767404 300.089921 
L 403.275184 300.254843 
L 403.782965 300.007461 
L 404.290745 298.069634 
L 404.798526 299.863154 
L 405.306306 300.234228 
L 405.814087 300.234228 
L 406.321867 301.203141 
L 406.829648 300.192997 
L 407.337428 299.945615 
L 407.845209 301.285602 
L 408.352989 300.131152 
L 408.86077 298.688089 
L 409.36855 300.172382 
L 409.876331 301.182526 
L 410.384111 301.306217 
L 410.891892 301.141296 
L 411.399672 301.285602 
L 411.907453 301.244372 
L 412.415233 301.07945 
L 412.923014 301.244372 
L 413.430794 300.172382 
L 413.938575 301.306217 
L 414.446355 300.089921 
L 414.954136 301.264987 
L 415.461916 298.77055 
L 415.969697 298.523168 
L 416.985258 301.161911 
L 417.493038 300.151767 
L 418.000819 301.285602 
L 418.5086 300.275458 
L 419.01638 300.213613 
L 419.524161 299.36839 
L 420.031941 300.110537 
L 420.539722 295.348429 
L 421.047502 300.213613 
L 424.601966 300.151767 
L 425.109746 303.285275 
L 425.617527 303.8625 
L 426.125307 304.748953 
L 426.633088 303.82127 
L 427.140868 304.398495 
L 427.648649 304.563416 
L 428.156429 304.604647 
L 428.66421 304.501571 
L 429.17199 304.831414 
L 429.679771 304.398495 
L 430.187551 304.46034 
L 430.695332 304.913874 
L 431.203112 304.893259 
L 431.710893 302.976047 
L 432.218673 304.666492 
L 433.234234 304.852029 
L 434.249795 304.893259 
L 434.757576 304.852029 
L 435.265356 304.955105 
L 435.773137 304.893259 
L 436.280917 304.955105 
L 436.788698 304.769568 
L 437.296478 304.254188 
L 437.804259 304.109882 
L 438.312039 304.37788 
L 439.3276 304.41911 
L 439.835381 304.542801 
L 440.850942 304.480955 
L 441.358722 302.563743 
L 441.866503 304.666492 
L 442.374283 303.223429 
L 442.882064 304.274804 
L 443.389844 303.82127 
L 443.897625 304.37788 
L 444.913186 304.769568 
L 446.436527 304.790183 
L 446.944308 303.8625 
L 447.452088 304.584031 
L 447.959869 304.831414 
L 448.467649 304.872644 
L 448.97543 304.769568 
L 449.48321 304.93449 
L 449.990991 304.97572 
L 450.498771 304.46034 
L 451.514333 304.955105 
L 452.022113 304.852029 
L 452.529894 302.74928 
L 453.037674 304.357264 
L 453.545455 304.501571 
L 454.053235 304.41911 
L 454.561016 304.93449 
L 455.068796 304.41911 
L 455.576577 304.522186 
L 456.084357 304.893259 
L 457.099918 304.872644 
L 457.607699 304.006806 
L 458.115479 304.37788 
L 458.62326 304.501571 
L 459.638821 302.666819 
L 460.146601 302.934817 
L 460.654382 299.925 
L 461.162162 300.708377 
L 461.669943 301.862827 
L 462.177723 301.141296 
L 462.685504 305.243717 
L 463.193284 305.944634 
L 464.208845 306.027094 
L 464.716626 305.862173 
L 465.224406 306.027094 
L 466.239967 306.006479 
L 466.747748 305.656021 
L 467.255528 304.212958 
L 467.763309 304.563416 
L 468.271089 305.882788 
L 468.77887 306.068325 
L 469.794431 306.047709 
L 470.809992 305.985864 
L 471.317772 301.120681 
L 471.825553 305.202487 
L 472.333333 305.882788 
L 472.841114 305.800327 
L 473.348894 304.769568 
L 473.856675 306.068325 
L 474.364455 306.171401 
L 474.872236 305.552945 
L 475.380016 303.367736 
L 475.887797 305.429254 
L 476.395577 305.470484 
L 476.903358 305.697251 
L 477.411138 305.57356 
L 477.918919 305.738482 
L 478.93448 305.697251 
L 479.44226 305.965249 
L 479.950041 306.068325 
L 480.457821 305.305563 
L 480.965602 305.264332 
L 481.473382 306.047709 
L 484.520066 306.047709 
L 485.027846 306.192016 
L 485.535627 304.645877 
L 486.043407 305.449869 
L 486.551188 305.882788 
L 487.566749 306.109555 
L 489.597871 306.047709 
L 490.105651 306.171401 
L 490.613432 303.140969 
L 491.628993 306.068325 
L 492.136773 306.109555 
L 492.644554 304.955105 
L 493.152334 305.985864 
L 494.167895 305.965249 
L 494.675676 305.779712 
L 495.183456 306.109555 
L 495.691237 303.017277 
L 496.199017 303.470812 
L 496.706798 294.090903 
L 497.214578 299.636387 
L 497.722359 298.399476 
L 498.230139 300.131152 
L 498.73792 300.007461 
L 499.2457 301.161911 
L 499.753481 299.780694 
L 500.261261 301.161911 
L 500.769042 300.151767 
L 501.276822 301.285602 
L 501.784603 301.161911 
L 502.292383 301.532984 
L 502.800164 301.553599 
L 503.307944 298.585013 
L 503.815725 299.945615 
L 504.323505 300.131152 
L 504.831286 300.110537 
L 505.339066 301.429908 
L 505.846847 298.667474 
L 506.354627 300.131152 
L 506.862408 301.120681 
L 507.370188 299.925 
L 507.877969 300.131152 
L 508.385749 300.172382 
L 508.89353 287.782657 
L 509.40131 299.657003 
L 509.909091 301.223757 
L 510.416871 299.739463 
L 510.924652 299.863154 
L 511.432432 299.760079 
L 511.940213 300.151767 
L 513.463554 300.192997 
L 513.971335 301.182526 
L 514.479115 298.667474 
L 514.986896 299.88377 
L 515.494676 303.140969 
L 516.002457 304.625262 
L 517.018018 304.501571 
L 517.525799 304.542801 
L 518.033579 304.46034 
L 519.04914 304.810798 
L 519.556921 304.130497 
L 521.080262 304.604647 
L 521.588043 304.584031 
L 522.095823 300.852683 
L 522.603604 304.130497 
L 523.111384 303.26466 
L 523.619165 304.439725 
L 524.126945 304.316034 
L 524.634726 304.769568 
L 526.665848 305.01695 
L 527.173628 304.398495 
L 527.681409 304.769568 
L 528.189189 303.986191 
L 529.20475 304.790183 
L 530.220311 304.955105 
L 531.743653 304.955105 
L 532.251433 304.089267 
L 532.759214 304.645877 
L 533.266994 304.955105 
L 533.774775 303.656348 
L 534.282555 304.357264 
L 534.790336 304.46034 
L 535.298116 303.120353 
L 535.805897 304.41911 
L 537.329238 304.522186 
L 537.837019 304.852029 
L 538.344799 303.223429 
L 538.85258 304.336649 
L 539.36036 304.810798 
L 540.375921 304.893259 
L 540.883702 304.604647 
L 541.391482 304.955105 
L 541.899263 304.872644 
L 542.914824 304.913874 
L 543.422604 304.913874 
L 543.930385 303.924346 
L 544.438165 304.46034 
L 544.945946 304.584031 
L 545.453726 304.480955 
L 546.469287 304.522186 
L 546.977068 304.913874 
L 548.50041 305.01695 
L 549.00819 304.336649 
L 549.515971 304.171728 
L 550.023751 304.295419 
L 550.531532 304.274804 
L 551.039312 304.46034 
L 552.562654 304.584031 
L 553.070434 304.893259 
L 553.578215 305.01695 
L 554.593776 304.501571 
L 555.609337 304.604647 
L 556.624898 304.687107 
L 557.132678 304.212958 
L 557.640459 304.852029 
L 558.148239 304.769568 
L 558.65602 304.130497 
L 559.1638 304.130497 
L 559.671581 304.831414 
L 560.179361 304.480955 
L 560.687142 304.93449 
L 562.210483 304.893259 
L 563.733825 304.913874 
L 564.241605 304.006806 
L 564.749386 302.027749 
L 565.257166 303.986191 
L 565.764947 304.274804 
L 567.288288 304.563416 
L 568.81163 304.748953 
L 569.31941 302.625589 
L 569.827191 302.646204 
L 570.334971 304.130497 
L 570.842752 303.037893 
L 571.350532 304.357264 
L 571.858313 304.810798 
L 572.366093 304.790183 
L 572.873874 300.007461 
L 573.381654 303.883115 
L 573.889435 303.986191 
L 574.904996 304.522186 
L 576.428337 304.41911 
L 576.936118 304.913874 
L 577.443898 303.986191 
L 577.951679 304.46034 
L 578.459459 302.893586 
L 578.96724 304.37788 
L 579.47502 304.37788 
L 579.982801 304.852029 
L 580.490581 304.913874 
L 580.998362 304.810798 
L 581.506143 304.831414 
L 582.013923 304.501571 
L 582.521704 303.388351 
L 583.029484 304.913874 
L 583.537265 304.893259 
L 584.045045 304.068652 
L 584.552826 304.522186 
L 585.060606 304.810798 
L 587.091728 304.955105 
L 587.599509 303.82127 
L 588.107289 304.192343 
L 588.61507 304.37788 
L 589.12285 304.810798 
L 591.153972 304.852029 
L 591.661753 304.336649 
L 592.169533 304.790183 
L 592.677314 304.93449 
L 593.185094 303.326505 
L 593.692875 304.316034 
L 594.200655 304.522186 
L 595.216216 304.666492 
L 595.723997 304.913874 
L 596.231777 304.872644 
L 596.739558 304.439725 
L 597.247338 304.810798 
L 597.755119 304.97572 
L 598.262899 302.625589 
L 598.77068 304.274804 
L 599.27846 304.522186 
L 600.801802 304.46034 
L 601.309582 304.584031 
L 601.817363 304.46034 
L 602.832924 303.553272 
L 603.848485 304.336649 
L 604.356265 304.687107 
L 604.864046 303.676963 
L 605.371826 304.625262 
L 605.879607 304.645877 
L 606.387387 303.285275 
L 606.895168 304.41911 
L 607.402948 304.584031 
L 607.910729 304.93449 
L 608.418509 302.15144 
L 608.92629 304.37788 
L 609.43407 304.37788 
L 609.941851 304.233573 
L 610.449631 304.46034 
L 611.972973 304.46034 
L 612.480753 304.604647 
L 612.988534 304.604647 
L 613.496314 304.109882 
L 614.004095 304.41911 
L 614.511876 304.480955 
L 615.019656 304.37788 
L 615.527437 304.542801 
L 616.542998 304.480955 
L 617.050778 304.790183 
L 617.558559 304.893259 
L 618.066339 304.852029 
L 618.57412 304.274804 
L 619.0819 304.563416 
L 620.097461 304.41911 
L 621.113022 304.542801 
L 621.620803 304.872644 
L 622.128583 304.728338 
L 622.636364 304.872644 
L 622.636364 304.872644 
" clip-path="url(#pc46a00518e)" style="fill: none; stroke: #ff7f0e; stroke-width: 1.5; stroke-linecap: square"/>
   </g>
   <g id="patch_3">
    <path d="M 90 320.4 
L 90 43.2 
" style="fill: none; stroke: #000000; stroke-width: 0.8; stroke-linejoin: miter; stroke-linecap: square"/>
   </g>
   <g id="patch_4">
    <path d="M 648 320.4 
L 648 43.2 
" style="fill: none; stroke: #000000; stroke-width: 0.8; stroke-linejoin: miter; stroke-linecap: square"/>
   </g>
   <g id="patch_5">
    <path d="M 90 320.4 
L 648 320.4 
" style="fill: none; stroke: #000000; stroke-width: 0.8; stroke-linejoin: miter; stroke-linecap: square"/>
   </g>
   <g id="patch_6">
    <path d="M 90 43.2 
L 648 43.2 
" style="fill: none; stroke: #000000; stroke-width: 0.8; stroke-linejoin: miter; stroke-linecap: square"/>
   </g>
   <g id="text_16">
    <!-- Time Comparison: PostgreSQL vs Redis -->
    <g transform="translate(251.620313 37.2) scale(0.12 -0.12)">
     <defs>
      <path id="DejaVuSans-43" d="M 4122 4306 
L 4122 3641 
Q 3803 3938 3442 4084 
Q 3081 4231 2675 4231 
Q 1875 4231 1450 3742 
Q 1025 3253 1025 2328 
Q 1025 1406 1450 917 
Q 1875 428 2675 428 
Q 3081 428 3442 575 
Q 3803 722 4122 1019 
L 4122 359 
Q 3791 134 3420 21 
Q 3050 -91 2638 -91 
Q 1578 -91 968 557 
Q 359 1206 359 2328 
Q 359 3453 968 4101 
Q 1578 4750 2638 4750 
Q 3056 4750 3426 4639 
Q 3797 4528 4122 4306 
z
" transform="scale(0.015625)"/>
      <path id="DejaVuSans-70" d="M 1159 525 
L 1159 -1331 
L 581 -1331 
L 581 3500 
L 1159 3500 
L 1159 2969 
Q 1341 3281 1617 3432 
Q 1894 3584 2278 3584 
Q 2916 3584 3314 3078 
Q 3713 2572 3713 1747 
Q 3713 922 3314 415 
Q 2916 -91 2278 -91 
Q 1894 -91 1617 61 
Q 1341 213 1159 525 
z
M 3116 1747 
Q 3116 2381 2855 2742 
Q 2594 3103 2138 3103 
Q 1681 3103 1420 2742 
Q 1159 2381 1159 1747 
Q 1159 1113 1420 752 
Q 1681 391 2138 391 
Q 2594 391 2855 752 
Q 3116 1113 3116 1747 
z
" transform="scale(0.015625)"/>
      <path id="DejaVuSans-61" d="M 2194 1759 
Q 1497 1759 1228 1600 
Q 959 1441 959 1056 
Q 959 750 1161 570 
Q 1363 391 1709 391 
Q 2188 391 2477 730 
Q 2766 1069 2766 1631 
L 2766 1759 
L 2194 1759 
z
M 3341 1997 
L 3341 0 
L 2766 0 
L 2766 531 
Q 2569 213 2275 61 
Q 1981 -91 1556 -91 
Q 1019 -91 701 211 
Q 384 513 384 1019 
Q 384 1609 779 1909 
Q 1175 2209 1959 2209 
L 2766 2209 
L 2766 2266 
Q 2766 2663 2505 2880 
Q 2244 3097 1772 3097 
Q 1472 3097 1187 3025 
Q 903 2953 641 2809 
L 641 3341 
Q 956 3463 1253 3523 
Q 1550 3584 1831 3584 
Q 2591 3584 2966 3190 
Q 3341 2797 3341 1997 
z
" transform="scale(0.015625)"/>
      <path id="DejaVuSans-3a" d="M 750 794 
L 1409 794 
L 1409 0 
L 750 0 
L 750 794 
z
M 750 3309 
L 1409 3309 
L 1409 2516 
L 750 2516 
L 750 3309 
z
" transform="scale(0.015625)"/>
      <path id="DejaVuSans-50" d="M 1259 4147 
L 1259 2394 
L 2053 2394 
Q 2494 2394 2734 2622 
Q 2975 2850 2975 3272 
Q 2975 3691 2734 3919 
Q 2494 4147 2053 4147 
L 1259 4147 
z
M 628 4666 
L 2053 4666 
Q 2838 4666 3239 4311 
Q 3641 3956 3641 3272 
Q 3641 2581 3239 2228 
Q 2838 1875 2053 1875 
L 1259 1875 
L 1259 0 
L 628 0 
L 628 4666 
z
" transform="scale(0.015625)"/>
      <path id="DejaVuSans-74" d="M 1172 4494 
L 1172 3500 
L 2356 3500 
L 2356 3053 
L 1172 3053 
L 1172 1153 
Q 1172 725 1289 603 
Q 1406 481 1766 481 
L 2356 481 
L 2356 0 
L 1766 0 
Q 1100 0 847 248 
Q 594 497 594 1153 
L 594 3053 
L 172 3053 
L 172 3500 
L 594 3500 
L 594 4494 
L 1172 4494 
z
" transform="scale(0.015625)"/>
      <path id="DejaVuSans-67" d="M 2906 1791 
Q 2906 2416 2648 2759 
Q 2391 3103 1925 3103 
Q 1463 3103 1205 2759 
Q 947 2416 947 1791 
Q 947 1169 1205 825 
Q 1463 481 1925 481 
Q 2391 481 2648 825 
Q 2906 1169 2906 1791 
z
M 3481 434 
Q 3481 -459 3084 -895 
Q 2688 -1331 1869 -1331 
Q 1566 -1331 1297 -1286 
Q 1028 -1241 775 -1147 
L 775 -588 
Q 1028 -725 1275 -790 
Q 1522 -856 1778 -856 
Q 2344 -856 2625 -561 
Q 2906 -266 2906 331 
L 2906 616 
Q 2728 306 2450 153 
Q 2172 0 1784 0 
Q 1141 0 747 490 
Q 353 981 353 1791 
Q 353 2603 747 3093 
Q 1141 3584 1784 3584 
Q 2172 3584 2450 3431 
Q 2728 3278 2906 2969 
L 2906 3500 
L 3481 3500 
L 3481 434 
z
" transform="scale(0.015625)"/>
      <path id="DejaVuSans-53" d="M 3425 4513 
L 3425 3897 
Q 3066 4069 2747 4153 
Q 2428 4238 2131 4238 
Q 1616 4238 1336 4038 
Q 1056 3838 1056 3469 
Q 1056 3159 1242 3001 
Q 1428 2844 1947 2747 
L 2328 2669 
Q 3034 2534 3370 2195 
Q 3706 1856 3706 1288 
Q 3706 609 3251 259 
Q 2797 -91 1919 -91 
Q 1588 -91 1214 -16 
Q 841 59 441 206 
L 441 856 
Q 825 641 1194 531 
Q 1563 422 1919 422 
Q 2459 422 2753 634 
Q 3047 847 3047 1241 
Q 3047 1584 2836 1778 
Q 2625 1972 2144 2069 
L 1759 2144 
Q 1053 2284 737 2584 
Q 422 2884 422 3419 
Q 422 4038 858 4394 
Q 1294 4750 2059 4750 
Q 2388 4750 2728 4690 
Q 3069 4631 3425 4513 
z
" transform="scale(0.015625)"/>
      <path id="DejaVuSans-4c" d="M 628 4666 
L 1259 4666 
L 1259 531 
L 3531 531 
L 3531 0 
L 628 0 
L 628 4666 
z
" transform="scale(0.015625)"/>
      <path id="DejaVuSans-76" d="M 191 3500 
L 800 3500 
L 1894 563 
L 2988 3500 
L 3597 3500 
L 2284 0 
L 1503 0 
L 191 3500 
z
" transform="scale(0.015625)"/>
      <path id="DejaVuSans-52" d="M 2841 2188 
Q 3044 2119 3236 1894 
Q 3428 1669 3622 1275 
L 4263 0 
L 3584 0 
L 2988 1197 
Q 2756 1666 2539 1819 
Q 2322 1972 1947 1972 
L 1259 1972 
L 1259 0 
L 628 0 
L 628 4666 
L 2053 4666 
Q 2853 4666 3247 4331 
Q 3641 3997 3641 3322 
Q 3641 2881 3436 2590 
Q 3231 2300 2841 2188 
z
M 1259 4147 
L 1259 2491 
L 2053 2491 
Q 2509 2491 2742 2702 
Q 2975 2913 2975 3322 
Q 2975 3731 2742 3939 
Q 2509 4147 2053 4147 
L 1259 4147 
z
" transform="scale(0.015625)"/>
     </defs>
     <use xlink:href="#DejaVuSans-54"/>
     <use xlink:href="#DejaVuSans-69" x="57.958984"/>
     <use xlink:href="#DejaVuSans-6d" x="85.742188"/>
     <use xlink:href="#DejaVuSans-65" x="183.154297"/>
     <use xlink:href="#DejaVuSans-20" x="244.677734"/>
     <use xlink:href="#DejaVuSans-43" x="276.464844"/>
     <use xlink:href="#DejaVuSans-6f" x="346.289062"/>
     <use xlink:href="#DejaVuSans-6d" x="407.470703"/>
     <use xlink:href="#DejaVuSans-70" x="504.882812"/>
     <use xlink:href="#DejaVuSans-61" x="568.359375"/>
     <use xlink:href="#DejaVuSans-72" x="629.638672"/>
     <use xlink:href="#DejaVuSans-69" x="670.751953"/>
     <use xlink:href="#DejaVuSans-73" x="698.535156"/>
     <use xlink:href="#DejaVuSans-6f" x="750.634766"/>
     <use xlink:href="#DejaVuSans-6e" x="811.816406"/>
     <use xlink:href="#DejaVuSans-3a" x="875.195312"/>
     <use xlink:href="#DejaVuSans-20" x="908.886719"/>
     <use xlink:href="#DejaVuSans-50" x="940.673828"/>
     <use xlink:href="#DejaVuSans-6f" x="997.351562"/>
     <use xlink:href="#DejaVuSans-73" x="1058.533203"/>
     <use xlink:href="#DejaVuSans-74" x="1110.632812"/>
     <use xlink:href="#DejaVuSans-67" x="1149.841797"/>
     <use xlink:href="#DejaVuSans-72" x="1213.318359"/>
     <use xlink:href="#DejaVuSans-65" x="1252.181641"/>
     <use xlink:href="#DejaVuSans-53" x="1313.705078"/>
     <use xlink:href="#DejaVuSans-51" x="1377.181641"/>
     <use xlink:href="#DejaVuSans-4c" x="1455.892578"/>
     <use xlink:href="#DejaVuSans-20" x="1511.605469"/>
     <use xlink:href="#DejaVuSans-76" x="1543.392578"/>
     <use xlink:href="#DejaVuSans-73" x="1602.572266"/>
     <use xlink:href="#DejaVuSans-20" x="1654.671875"/>
     <use xlink:href="#DejaVuSans-52" x="1686.458984"/>
     <use xlink:href="#DejaVuSans-65" x="1751.441406"/>
     <use xlink:href="#DejaVuSans-64" x="1812.964844"/>
     <use xlink:href="#DejaVuSans-69" x="1876.441406"/>
     <use xlink:href="#DejaVuSans-73" x="1904.224609"/>
    </g>
   </g>
   <g id="legend_1">
    <g id="patch_7">
     <path d="M 526.134375 80.55625 
L 641 80.55625 
Q 643 80.55625 643 78.55625 
L 643 50.2 
Q 643 48.2 641 48.2 
L 526.134375 48.2 
Q 524.134375 48.2 524.134375 50.2 
L 524.134375 78.55625 
Q 524.134375 80.55625 526.134375 80.55625 
z
" style="fill: #ffffff; opacity: 0.8; stroke: #cccccc; stroke-linejoin: miter"/>
    </g>
    <g id="line2d_29">
     <path d="M 528.134375 56.298437 
L 538.134375 56.298437 
L 548.134375 56.298437 
" style="fill: none; stroke: #1f77b4; stroke-width: 1.5; stroke-linecap: square"/>
    </g>
    <g id="text_17">
     <!-- PostgreSQL time -->
     <g transform="translate(556.134375 59.798437) scale(0.1 -0.1)">
      <use xlink:href="#DejaVuSans-50"/>
      <use xlink:href="#DejaVuSans-6f" x="56.677734"/>
      <use xlink:href="#DejaVuSans-73" x="117.859375"/>
      <use xlink:href="#DejaVuSans-74" x="169.958984"/>
      <use xlink:href="#DejaVuSans-67" x="209.167969"/>
      <use xlink:href="#DejaVuSans-72" x="272.644531"/>
      <use xlink:href="#DejaVuSans-65" x="311.507812"/>
      <use xlink:href="#DejaVuSans-53" x="373.03125"/>
      <use xlink:href="#DejaVuSans-51" x="436.507812"/>
      <use xlink:href="#DejaVuSans-4c" x="515.21875"/>
      <use xlink:href="#DejaVuSans-20" x="570.931641"/>
      <use xlink:href="#DejaVuSans-74" x="602.71875"/>
      <use xlink:href="#DejaVuSans-69" x="641.927734"/>
      <use xlink:href="#DejaVuSans-6d" x="669.710938"/>
      <use xlink:href="#DejaVuSans-65" x="767.123047"/>
     </g>
    </g>
    <g id="line2d_30">
     <path d="M 528.134375 70.976562 
L 538.134375 70.976562 
L 548.134375 70.976562 
" style="fill: none; stroke: #ff7f0e; stroke-width: 1.5; stroke-linecap: square"/>
    </g>
    <g id="text_18">
     <!-- Redis time -->
     <g transform="translate(556.134375 74.476562) scale(0.1 -0.1)">
      <use xlink:href="#DejaVuSans-52"/>
      <use xlink:href="#DejaVuSans-65" x="64.982422"/>
      <use xlink:href="#DejaVuSans-64" x="126.505859"/>
      <use xlink:href="#DejaVuSans-69" x="189.982422"/>
      <use xlink:href="#DejaVuSans-73" x="217.765625"/>
      <use xlink:href="#DejaVuSans-20" x="269.865234"/>
      <use xlink:href="#DejaVuSans-74" x="301.652344"/>
      <use xlink:href="#DejaVuSans-69" x="340.861328"/>
      <use xlink:href="#DejaVuSans-6d" x="368.644531"/>
      <use xlink:href="#DejaVuSans-65" x="466.056641"/>
     </g>
    </g>
   </g>
  </g>
 </g>
 <defs>
  <clipPath id="pc46a00518e">
   <rect x="90" y="43.2" width="558" height="277.2"/>
  </clipPath>
 </defs>
</svg>
