<?xml version="1.0" encoding="utf-8" standalone="no"?>
<!DOCTYPE svg PUBLIC "-//W3C//DTD SVG 1.1//EN"
  "http://www.w3.org/Graphics/SVG/1.1/DTD/svg11.dtd">
<svg xmlns:xlink="http://www.w3.org/1999/xlink" width="720pt" height="360pt" viewBox="0 0 720 360" xmlns="http://www.w3.org/2000/svg" version="1.1">
 <metadata>
  <rdf:RDF xmlns:dc="http://purl.org/dc/elements/1.1/" xmlns:cc="http://creativecommons.org/ns#" xmlns:rdf="http://www.w3.org/1999/02/22-rdf-syntax-ns#">
   <cc:Work>
    <dc:type rdf:resource="http://purl.org/dc/dcmitype/StillImage"/>
    <dc:date>2024-11-30T16:46:41.082824</dc:date>
    <dc:format>image/svg+xml</dc:format>
    <dc:creator>
     <cc:Agent>
      <dc:title>Matplotlib v3.9.2, https://matplotlib.org/</dc:title>
     </cc:Agent>
    </dc:creator>
   </cc:Work>
  </rdf:RDF>
 </metadata>
 <defs>
  <style type="text/css">*{stroke-linejoin: round; stroke-linecap: butt}</style>
 </defs>
 <g id="figure_1">
  <g id="patch_1">
   <path d="M 0 360 
L 720 360 
L 720 0 
L 0 0 
z
" style="fill: #ffffff"/>
  </g>
  <g id="axes_1">
   <g id="patch_2">
    <path d="M 90 320.4 
L 648 320.4 
L 648 43.2 
L 90 43.2 
z
" style="fill: #ffffff"/>
   </g>
   <g id="matplotlib.axis_1">
    <g id="xtick_1">
     <g id="line2d_1">
      <path d="M 114.855856 320.4 
L 114.855856 43.2 
" clip-path="url(#p4e0442c5cf)" style="fill: none; stroke: #b0b0b0; stroke-width: 0.8; stroke-linecap: square"/>
     </g>
     <g id="line2d_2">
      <defs>
       <path id="m72b83f1381" d="M 0 0 
L 0 3.5 
" style="stroke: #000000; stroke-width: 0.8"/>
      </defs>
      <g>
       <use xlink:href="#m72b83f1381" x="114.855856" y="320.4" style="stroke: #000000; stroke-width: 0.8"/>
      </g>
     </g>
     <g id="text_1">
      <!-- 0 -->
      <g transform="translate(111.674606 334.998438) scale(0.1 -0.1)">
       <defs>
        <path id="DejaVuSans-30" d="M 2034 4250 
Q 1547 4250 1301 3770 
Q 1056 3291 1056 2328 
Q 1056 1369 1301 889 
Q 1547 409 2034 409 
Q 2525 409 2770 889 
Q 3016 1369 3016 2328 
Q 3016 3291 2770 3770 
Q 2525 4250 2034 4250 
z
M 2034 4750 
Q 2819 4750 3233 4129 
Q 3647 3509 3647 2328 
Q 3647 1150 3233 529 
Q 2819 -91 2034 -91 
Q 1250 -91 836 529 
Q 422 1150 422 2328 
Q 422 3509 836 4129 
Q 1250 4750 2034 4750 
z
" transform="scale(0.015625)"/>
       </defs>
       <use xlink:href="#DejaVuSans-30"/>
      </g>
     </g>
    </g>
    <g id="xtick_2">
     <g id="line2d_3">
      <path d="M 216.411957 320.4 
L 216.411957 43.2 
" clip-path="url(#p4e0442c5cf)" style="fill: none; stroke: #b0b0b0; stroke-width: 0.8; stroke-linecap: square"/>
     </g>
     <g id="line2d_4">
      <g>
       <use xlink:href="#m72b83f1381" x="216.411957" y="320.4" style="stroke: #000000; stroke-width: 0.8"/>
      </g>
     </g>
     <g id="text_2">
      <!-- 200 -->
      <g transform="translate(206.868207 334.998438) scale(0.1 -0.1)">
       <defs>
        <path id="DejaVuSans-32" d="M 1228 531 
L 3431 531 
L 3431 0 
L 469 0 
L 469 531 
Q 828 903 1448 1529 
Q 2069 2156 2228 2338 
Q 2531 2678 2651 2914 
Q 2772 3150 2772 3378 
Q 2772 3750 2511 3984 
Q 2250 4219 1831 4219 
Q 1534 4219 1204 4116 
Q 875 4013 500 3803 
L 500 4441 
Q 881 4594 1212 4672 
Q 1544 4750 1819 4750 
Q 2544 4750 2975 4387 
Q 3406 4025 3406 3419 
Q 3406 3131 3298 2873 
Q 3191 2616 2906 2266 
Q 2828 2175 2409 1742 
Q 1991 1309 1228 531 
z
" transform="scale(0.015625)"/>
       </defs>
       <use xlink:href="#DejaVuSans-32"/>
       <use xlink:href="#DejaVuSans-30" x="63.623047"/>
       <use xlink:href="#DejaVuSans-30" x="127.246094"/>
      </g>
     </g>
    </g>
    <g id="xtick_3">
     <g id="line2d_5">
      <path d="M 317.968059 320.4 
L 317.968059 43.2 
" clip-path="url(#p4e0442c5cf)" style="fill: none; stroke: #b0b0b0; stroke-width: 0.8; stroke-linecap: square"/>
     </g>
     <g id="line2d_6">
      <g>
       <use xlink:href="#m72b83f1381" x="317.968059" y="320.4" style="stroke: #000000; stroke-width: 0.8"/>
      </g>
     </g>
     <g id="text_3">
      <!-- 400 -->
      <g transform="translate(308.424309 334.998438) scale(0.1 -0.1)">
       <defs>
        <path id="DejaVuSans-34" d="M 2419 4116 
L 825 1625 
L 2419 1625 
L 2419 4116 
z
M 2253 4666 
L 3047 4666 
L 3047 1625 
L 3713 1625 
L 3713 1100 
L 3047 1100 
L 3047 0 
L 2419 0 
L 2419 1100 
L 313 1100 
L 313 1709 
L 2253 4666 
z
" transform="scale(0.015625)"/>
       </defs>
       <use xlink:href="#DejaVuSans-34"/>
       <use xlink:href="#DejaVuSans-30" x="63.623047"/>
       <use xlink:href="#DejaVuSans-30" x="127.246094"/>
      </g>
     </g>
    </g>
    <g id="xtick_4">
     <g id="line2d_7">
      <path d="M 419.524161 320.4 
L 419.524161 43.2 
" clip-path="url(#p4e0442c5cf)" style="fill: none; stroke: #b0b0b0; stroke-width: 0.8; stroke-linecap: square"/>
     </g>
     <g id="line2d_8">
      <g>
       <use xlink:href="#m72b83f1381" x="419.524161" y="320.4" style="stroke: #000000; stroke-width: 0.8"/>
      </g>
     </g>
     <g id="text_4">
      <!-- 600 -->
      <g transform="translate(409.980411 334.998438) scale(0.1 -0.1)">
       <defs>
        <path id="DejaVuSans-36" d="M 2113 2584 
Q 1688 2584 1439 2293 
Q 1191 2003 1191 1497 
Q 1191 994 1439 701 
Q 1688 409 2113 409 
Q 2538 409 2786 701 
Q 3034 994 3034 1497 
Q 3034 2003 2786 2293 
Q 2538 2584 2113 2584 
z
M 3366 4563 
L 3366 3988 
Q 3128 4100 2886 4159 
Q 2644 4219 2406 4219 
Q 1781 4219 1451 3797 
Q 1122 3375 1075 2522 
Q 1259 2794 1537 2939 
Q 1816 3084 2150 3084 
Q 2853 3084 3261 2657 
Q 3669 2231 3669 1497 
Q 3669 778 3244 343 
Q 2819 -91 2113 -91 
Q 1303 -91 875 529 
Q 447 1150 447 2328 
Q 447 3434 972 4092 
Q 1497 4750 2381 4750 
Q 2619 4750 2861 4703 
Q 3103 4656 3366 4563 
z
" transform="scale(0.015625)"/>
       </defs>
       <use xlink:href="#DejaVuSans-36"/>
       <use xlink:href="#DejaVuSans-30" x="63.623047"/>
       <use xlink:href="#DejaVuSans-30" x="127.246094"/>
      </g>
     </g>
    </g>
    <g id="xtick_5">
     <g id="line2d_9">
      <path d="M 521.080262 320.4 
L 521.080262 43.2 
" clip-path="url(#p4e0442c5cf)" style="fill: none; stroke: #b0b0b0; stroke-width: 0.8; stroke-linecap: square"/>
     </g>
     <g id="line2d_10">
      <g>
       <use xlink:href="#m72b83f1381" x="521.080262" y="320.4" style="stroke: #000000; stroke-width: 0.8"/>
      </g>
     </g>
     <g id="text_5">
      <!-- 800 -->
      <g transform="translate(511.536512 334.998438) scale(0.1 -0.1)">
       <defs>
        <path id="DejaVuSans-38" d="M 2034 2216 
Q 1584 2216 1326 1975 
Q 1069 1734 1069 1313 
Q 1069 891 1326 650 
Q 1584 409 2034 409 
Q 2484 409 2743 651 
Q 3003 894 3003 1313 
Q 3003 1734 2745 1975 
Q 2488 2216 2034 2216 
z
M 1403 2484 
Q 997 2584 770 2862 
Q 544 3141 544 3541 
Q 544 4100 942 4425 
Q 1341 4750 2034 4750 
Q 2731 4750 3128 4425 
Q 3525 4100 3525 3541 
Q 3525 3141 3298 2862 
Q 3072 2584 2669 2484 
Q 3125 2378 3379 2068 
Q 3634 1759 3634 1313 
Q 3634 634 3220 271 
Q 2806 -91 2034 -91 
Q 1263 -91 848 271 
Q 434 634 434 1313 
Q 434 1759 690 2068 
Q 947 2378 1403 2484 
z
M 1172 3481 
Q 1172 3119 1398 2916 
Q 1625 2713 2034 2713 
Q 2441 2713 2670 2916 
Q 2900 3119 2900 3481 
Q 2900 3844 2670 4047 
Q 2441 4250 2034 4250 
Q 1625 4250 1398 4047 
Q 1172 3844 1172 3481 
z
" transform="scale(0.015625)"/>
       </defs>
       <use xlink:href="#DejaVuSans-38"/>
       <use xlink:href="#DejaVuSans-30" x="63.623047"/>
       <use xlink:href="#DejaVuSans-30" x="127.246094"/>
      </g>
     </g>
    </g>
    <g id="xtick_6">
     <g id="line2d_11">
      <path d="M 622.636364 320.4 
L 622.636364 43.2 
" clip-path="url(#p4e0442c5cf)" style="fill: none; stroke: #b0b0b0; stroke-width: 0.8; stroke-linecap: square"/>
     </g>
     <g id="line2d_12">
      <g>
       <use xlink:href="#m72b83f1381" x="622.636364" y="320.4" style="stroke: #000000; stroke-width: 0.8"/>
      </g>
     </g>
     <g id="text_6">
      <!-- 1000 -->
      <g transform="translate(609.911364 334.998438) scale(0.1 -0.1)">
       <defs>
        <path id="DejaVuSans-31" d="M 794 531 
L 1825 531 
L 1825 4091 
L 703 3866 
L 703 4441 
L 1819 4666 
L 2450 4666 
L 2450 531 
L 3481 531 
L 3481 0 
L 794 0 
L 794 531 
z
" transform="scale(0.015625)"/>
       </defs>
       <use xlink:href="#DejaVuSans-31"/>
       <use xlink:href="#DejaVuSans-30" x="63.623047"/>
       <use xlink:href="#DejaVuSans-30" x="127.246094"/>
       <use xlink:href="#DejaVuSans-30" x="190.869141"/>
      </g>
     </g>
    </g>
    <g id="text_7">
     <!-- Query number -->
     <g transform="translate(332.700781 348.676562) scale(0.1 -0.1)">
      <defs>
       <path id="DejaVuSans-51" d="M 2522 4238 
Q 1834 4238 1429 3725 
Q 1025 3213 1025 2328 
Q 1025 1447 1429 934 
Q 1834 422 2522 422 
Q 3209 422 3611 934 
Q 4013 1447 4013 2328 
Q 4013 3213 3611 3725 
Q 3209 4238 2522 4238 
z
M 3406 84 
L 4238 -825 
L 3475 -825 
L 2784 -78 
Q 2681 -84 2626 -87 
Q 2572 -91 2522 -91 
Q 1538 -91 948 567 
Q 359 1225 359 2328 
Q 359 3434 948 4092 
Q 1538 4750 2522 4750 
Q 3503 4750 4090 4092 
Q 4678 3434 4678 2328 
Q 4678 1516 4351 937 
Q 4025 359 3406 84 
z
" transform="scale(0.015625)"/>
       <path id="DejaVuSans-75" d="M 544 1381 
L 544 3500 
L 1119 3500 
L 1119 1403 
Q 1119 906 1312 657 
Q 1506 409 1894 409 
Q 2359 409 2629 706 
Q 2900 1003 2900 1516 
L 2900 3500 
L 3475 3500 
L 3475 0 
L 2900 0 
L 2900 538 
Q 2691 219 2414 64 
Q 2138 -91 1772 -91 
Q 1169 -91 856 284 
Q 544 659 544 1381 
z
M 1991 3584 
L 1991 3584 
z
" transform="scale(0.015625)"/>
       <path id="DejaVuSans-65" d="M 3597 1894 
L 3597 1613 
L 953 1613 
Q 991 1019 1311 708 
Q 1631 397 2203 397 
Q 2534 397 2845 478 
Q 3156 559 3463 722 
L 3463 178 
Q 3153 47 2828 -22 
Q 2503 -91 2169 -91 
Q 1331 -91 842 396 
Q 353 884 353 1716 
Q 353 2575 817 3079 
Q 1281 3584 2069 3584 
Q 2775 3584 3186 3129 
Q 3597 2675 3597 1894 
z
M 3022 2063 
Q 3016 2534 2758 2815 
Q 2500 3097 2075 3097 
Q 1594 3097 1305 2825 
Q 1016 2553 972 2059 
L 3022 2063 
z
" transform="scale(0.015625)"/>
       <path id="DejaVuSans-72" d="M 2631 2963 
Q 2534 3019 2420 3045 
Q 2306 3072 2169 3072 
Q 1681 3072 1420 2755 
Q 1159 2438 1159 1844 
L 1159 0 
L 581 0 
L 581 3500 
L 1159 3500 
L 1159 2956 
Q 1341 3275 1631 3429 
Q 1922 3584 2338 3584 
Q 2397 3584 2469 3576 
Q 2541 3569 2628 3553 
L 2631 2963 
z
" transform="scale(0.015625)"/>
       <path id="DejaVuSans-79" d="M 2059 -325 
Q 1816 -950 1584 -1140 
Q 1353 -1331 966 -1331 
L 506 -1331 
L 506 -850 
L 844 -850 
Q 1081 -850 1212 -737 
Q 1344 -625 1503 -206 
L 1606 56 
L 191 3500 
L 800 3500 
L 1894 763 
L 2988 3500 
L 3597 3500 
L 2059 -325 
z
" transform="scale(0.015625)"/>
       <path id="DejaVuSans-20" transform="scale(0.015625)"/>
       <path id="DejaVuSans-6e" d="M 3513 2113 
L 3513 0 
L 2938 0 
L 2938 2094 
Q 2938 2591 2744 2837 
Q 2550 3084 2163 3084 
Q 1697 3084 1428 2787 
Q 1159 2491 1159 1978 
L 1159 0 
L 581 0 
L 581 3500 
L 1159 3500 
L 1159 2956 
Q 1366 3272 1645 3428 
Q 1925 3584 2291 3584 
Q 2894 3584 3203 3211 
Q 3513 2838 3513 2113 
z
" transform="scale(0.015625)"/>
       <path id="DejaVuSans-6d" d="M 3328 2828 
Q 3544 3216 3844 3400 
Q 4144 3584 4550 3584 
Q 5097 3584 5394 3201 
Q 5691 2819 5691 2113 
L 5691 0 
L 5113 0 
L 5113 2094 
Q 5113 2597 4934 2840 
Q 4756 3084 4391 3084 
Q 3944 3084 3684 2787 
Q 3425 2491 3425 1978 
L 3425 0 
L 2847 0 
L 2847 2094 
Q 2847 2600 2669 2842 
Q 2491 3084 2119 3084 
Q 1678 3084 1418 2786 
Q 1159 2488 1159 1978 
L 1159 0 
L 581 0 
L 581 3500 
L 1159 3500 
L 1159 2956 
Q 1356 3278 1631 3431 
Q 1906 3584 2284 3584 
Q 2666 3584 2933 3390 
Q 3200 3197 3328 2828 
z
" transform="scale(0.015625)"/>
       <path id="DejaVuSans-62" d="M 3116 1747 
Q 3116 2381 2855 2742 
Q 2594 3103 2138 3103 
Q 1681 3103 1420 2742 
Q 1159 2381 1159 1747 
Q 1159 1113 1420 752 
Q 1681 391 2138 391 
Q 2594 391 2855 752 
Q 3116 1113 3116 1747 
z
M 1159 2969 
Q 1341 3281 1617 3432 
Q 1894 3584 2278 3584 
Q 2916 3584 3314 3078 
Q 3713 2572 3713 1747 
Q 3713 922 3314 415 
Q 2916 -91 2278 -91 
Q 1894 -91 1617 61 
Q 1341 213 1159 525 
L 1159 0 
L 581 0 
L 581 4863 
L 1159 4863 
L 1159 2969 
z
" transform="scale(0.015625)"/>
      </defs>
      <use xlink:href="#DejaVuSans-51"/>
      <use xlink:href="#DejaVuSans-75" x="78.710938"/>
      <use xlink:href="#DejaVuSans-65" x="142.089844"/>
      <use xlink:href="#DejaVuSans-72" x="203.613281"/>
      <use xlink:href="#DejaVuSans-79" x="244.726562"/>
      <use xlink:href="#DejaVuSans-20" x="303.90625"/>
      <use xlink:href="#DejaVuSans-6e" x="335.693359"/>
      <use xlink:href="#DejaVuSans-75" x="399.072266"/>
      <use xlink:href="#DejaVuSans-6d" x="462.451172"/>
      <use xlink:href="#DejaVuSans-62" x="559.863281"/>
      <use xlink:href="#DejaVuSans-65" x="623.339844"/>
      <use xlink:href="#DejaVuSans-72" x="684.863281"/>
     </g>
    </g>
   </g>
   <g id="matplotlib.axis_2">
    <g id="ytick_1">
     <g id="line2d_13">
      <path d="M 90 317.514839 
L 648 317.514839 
" clip-path="url(#p4e0442c5cf)" style="fill: none; stroke: #b0b0b0; stroke-width: 0.8; stroke-linecap: square"/>
     </g>
     <g id="line2d_14">
      <defs>
       <path id="m199f0c9a23" d="M 0 0 
L -3.5 0 
" style="stroke: #000000; stroke-width: 0.8"/>
      </defs>
      <g>
       <use xlink:href="#m199f0c9a23" x="90" y="317.514839" style="stroke: #000000; stroke-width: 0.8"/>
      </g>
     </g>
     <g id="text_8">
      <!-- 0.0 -->
      <g transform="translate(67.096875 321.314058) scale(0.1 -0.1)">
       <defs>
        <path id="DejaVuSans-2e" d="M 684 794 
L 1344 794 
L 1344 0 
L 684 0 
L 684 794 
z
" transform="scale(0.015625)"/>
       </defs>
       <use xlink:href="#DejaVuSans-30"/>
       <use xlink:href="#DejaVuSans-2e" x="63.623047"/>
       <use xlink:href="#DejaVuSans-30" x="95.410156"/>
      </g>
     </g>
    </g>
    <g id="ytick_2">
     <g id="line2d_15">
      <path d="M 90 276.563092 
L 648 276.563092 
" clip-path="url(#p4e0442c5cf)" style="fill: none; stroke: #b0b0b0; stroke-width: 0.8; stroke-linecap: square"/>
     </g>
     <g id="line2d_16">
      <g>
       <use xlink:href="#m199f0c9a23" x="90" y="276.563092" style="stroke: #000000; stroke-width: 0.8"/>
      </g>
     </g>
     <g id="text_9">
      <!-- 0.2 -->
      <g transform="translate(67.096875 280.36231) scale(0.1 -0.1)">
       <use xlink:href="#DejaVuSans-30"/>
       <use xlink:href="#DejaVuSans-2e" x="63.623047"/>
       <use xlink:href="#DejaVuSans-32" x="95.410156"/>
      </g>
     </g>
    </g>
    <g id="ytick_3">
     <g id="line2d_17">
      <path d="M 90 235.611344 
L 648 235.611344 
" clip-path="url(#p4e0442c5cf)" style="fill: none; stroke: #b0b0b0; stroke-width: 0.8; stroke-linecap: square"/>
     </g>
     <g id="line2d_18">
      <g>
       <use xlink:href="#m199f0c9a23" x="90" y="235.611344" style="stroke: #000000; stroke-width: 0.8"/>
      </g>
     </g>
     <g id="text_10">
      <!-- 0.4 -->
      <g transform="translate(67.096875 239.410563) scale(0.1 -0.1)">
       <use xlink:href="#DejaVuSans-30"/>
       <use xlink:href="#DejaVuSans-2e" x="63.623047"/>
       <use xlink:href="#DejaVuSans-34" x="95.410156"/>
      </g>
     </g>
    </g>
    <g id="ytick_4">
     <g id="line2d_19">
      <path d="M 90 194.659596 
L 648 194.659596 
" clip-path="url(#p4e0442c5cf)" style="fill: none; stroke: #b0b0b0; stroke-width: 0.8; stroke-linecap: square"/>
     </g>
     <g id="line2d_20">
      <g>
       <use xlink:href="#m199f0c9a23" x="90" y="194.659596" style="stroke: #000000; stroke-width: 0.8"/>
      </g>
     </g>
     <g id="text_11">
      <!-- 0.6 -->
      <g transform="translate(67.096875 198.458815) scale(0.1 -0.1)">
       <use xlink:href="#DejaVuSans-30"/>
       <use xlink:href="#DejaVuSans-2e" x="63.623047"/>
       <use xlink:href="#DejaVuSans-36" x="95.410156"/>
      </g>
     </g>
    </g>
    <g id="ytick_5">
     <g id="line2d_21">
      <path d="M 90 153.707848 
L 648 153.707848 
" clip-path="url(#p4e0442c5cf)" style="fill: none; stroke: #b0b0b0; stroke-width: 0.8; stroke-linecap: square"/>
     </g>
     <g id="line2d_22">
      <g>
       <use xlink:href="#m199f0c9a23" x="90" y="153.707848" style="stroke: #000000; stroke-width: 0.8"/>
      </g>
     </g>
     <g id="text_12">
      <!-- 0.8 -->
      <g transform="translate(67.096875 157.507067) scale(0.1 -0.1)">
       <use xlink:href="#DejaVuSans-30"/>
       <use xlink:href="#DejaVuSans-2e" x="63.623047"/>
       <use xlink:href="#DejaVuSans-38" x="95.410156"/>
      </g>
     </g>
    </g>
    <g id="ytick_6">
     <g id="line2d_23">
      <path d="M 90 112.756101 
L 648 112.756101 
" clip-path="url(#p4e0442c5cf)" style="fill: none; stroke: #b0b0b0; stroke-width: 0.8; stroke-linecap: square"/>
     </g>
     <g id="line2d_24">
      <g>
       <use xlink:href="#m199f0c9a23" x="90" y="112.756101" style="stroke: #000000; stroke-width: 0.8"/>
      </g>
     </g>
     <g id="text_13">
      <!-- 1.0 -->
      <g transform="translate(67.096875 116.555319) scale(0.1 -0.1)">
       <use xlink:href="#DejaVuSans-31"/>
       <use xlink:href="#DejaVuSans-2e" x="63.623047"/>
       <use xlink:href="#DejaVuSans-30" x="95.410156"/>
      </g>
     </g>
    </g>
    <g id="ytick_7">
     <g id="line2d_25">
      <path d="M 90 71.804353 
L 648 71.804353 
" clip-path="url(#p4e0442c5cf)" style="fill: none; stroke: #b0b0b0; stroke-width: 0.8; stroke-linecap: square"/>
     </g>
     <g id="line2d_26">
      <g>
       <use xlink:href="#m199f0c9a23" x="90" y="71.804353" style="stroke: #000000; stroke-width: 0.8"/>
      </g>
     </g>
     <g id="text_14">
      <!-- 1.2 -->
      <g transform="translate(67.096875 75.603572) scale(0.1 -0.1)">
       <use xlink:href="#DejaVuSans-31"/>
       <use xlink:href="#DejaVuSans-2e" x="63.623047"/>
       <use xlink:href="#DejaVuSans-32" x="95.410156"/>
      </g>
     </g>
    </g>
    <g id="text_15">
     <!-- Time (milliseconds) -->
     <g transform="translate(61.017187 230.388281) rotate(-90) scale(0.1 -0.1)">
      <defs>
       <path id="DejaVuSans-54" d="M -19 4666 
L 3928 4666 
L 3928 4134 
L 2272 4134 
L 2272 0 
L 1638 0 
L 1638 4134 
L -19 4134 
L -19 4666 
z
" transform="scale(0.015625)"/>
       <path id="DejaVuSans-69" d="M 603 3500 
L 1178 3500 
L 1178 0 
L 603 0 
L 603 3500 
z
M 603 4863 
L 1178 4863 
L 1178 4134 
L 603 4134 
L 603 4863 
z
" transform="scale(0.015625)"/>
       <path id="DejaVuSans-28" d="M 1984 4856 
Q 1566 4138 1362 3434 
Q 1159 2731 1159 2009 
Q 1159 1288 1364 580 
Q 1569 -128 1984 -844 
L 1484 -844 
Q 1016 -109 783 600 
Q 550 1309 550 2009 
Q 550 2706 781 3412 
Q 1013 4119 1484 4856 
L 1984 4856 
z
" transform="scale(0.015625)"/>
       <path id="DejaVuSans-6c" d="M 603 4863 
L 1178 4863 
L 1178 0 
L 603 0 
L 603 4863 
z
" transform="scale(0.015625)"/>
       <path id="DejaVuSans-73" d="M 2834 3397 
L 2834 2853 
Q 2591 2978 2328 3040 
Q 2066 3103 1784 3103 
Q 1356 3103 1142 2972 
Q 928 2841 928 2578 
Q 928 2378 1081 2264 
Q 1234 2150 1697 2047 
L 1894 2003 
Q 2506 1872 2764 1633 
Q 3022 1394 3022 966 
Q 3022 478 2636 193 
Q 2250 -91 1575 -91 
Q 1294 -91 989 -36 
Q 684 19 347 128 
L 347 722 
Q 666 556 975 473 
Q 1284 391 1588 391 
Q 1994 391 2212 530 
Q 2431 669 2431 922 
Q 2431 1156 2273 1281 
Q 2116 1406 1581 1522 
L 1381 1569 
Q 847 1681 609 1914 
Q 372 2147 372 2553 
Q 372 3047 722 3315 
Q 1072 3584 1716 3584 
Q 2034 3584 2315 3537 
Q 2597 3491 2834 3397 
z
" transform="scale(0.015625)"/>
       <path id="DejaVuSans-63" d="M 3122 3366 
L 3122 2828 
Q 2878 2963 2633 3030 
Q 2388 3097 2138 3097 
Q 1578 3097 1268 2742 
Q 959 2388 959 1747 
Q 959 1106 1268 751 
Q 1578 397 2138 397 
Q 2388 397 2633 464 
Q 2878 531 3122 666 
L 3122 134 
Q 2881 22 2623 -34 
Q 2366 -91 2075 -91 
Q 1284 -91 818 406 
Q 353 903 353 1747 
Q 353 2603 823 3093 
Q 1294 3584 2113 3584 
Q 2378 3584 2631 3529 
Q 2884 3475 3122 3366 
z
" transform="scale(0.015625)"/>
       <path id="DejaVuSans-6f" d="M 1959 3097 
Q 1497 3097 1228 2736 
Q 959 2375 959 1747 
Q 959 1119 1226 758 
Q 1494 397 1959 397 
Q 2419 397 2687 759 
Q 2956 1122 2956 1747 
Q 2956 2369 2687 2733 
Q 2419 3097 1959 3097 
z
M 1959 3584 
Q 2709 3584 3137 3096 
Q 3566 2609 3566 1747 
Q 3566 888 3137 398 
Q 2709 -91 1959 -91 
Q 1206 -91 779 398 
Q 353 888 353 1747 
Q 353 2609 779 3096 
Q 1206 3584 1959 3584 
z
" transform="scale(0.015625)"/>
       <path id="DejaVuSans-64" d="M 2906 2969 
L 2906 4863 
L 3481 4863 
L 3481 0 
L 2906 0 
L 2906 525 
Q 2725 213 2448 61 
Q 2172 -91 1784 -91 
Q 1150 -91 751 415 
Q 353 922 353 1747 
Q 353 2572 751 3078 
Q 1150 3584 1784 3584 
Q 2172 3584 2448 3432 
Q 2725 3281 2906 2969 
z
M 947 1747 
Q 947 1113 1208 752 
Q 1469 391 1925 391 
Q 2381 391 2643 752 
Q 2906 1113 2906 1747 
Q 2906 2381 2643 2742 
Q 2381 3103 1925 3103 
Q 1469 3103 1208 2742 
Q 947 2381 947 1747 
z
" transform="scale(0.015625)"/>
       <path id="DejaVuSans-29" d="M 513 4856 
L 1013 4856 
Q 1481 4119 1714 3412 
Q 1947 2706 1947 2009 
Q 1947 1309 1714 600 
Q 1481 -109 1013 -844 
L 513 -844 
Q 928 -128 1133 580 
Q 1338 1288 1338 2009 
Q 1338 2731 1133 3434 
Q 928 4138 513 4856 
z
" transform="scale(0.015625)"/>
      </defs>
      <use xlink:href="#DejaVuSans-54"/>
      <use xlink:href="#DejaVuSans-69" x="57.958984"/>
      <use xlink:href="#DejaVuSans-6d" x="85.742188"/>
      <use xlink:href="#DejaVuSans-65" x="183.154297"/>
      <use xlink:href="#DejaVuSans-20" x="244.677734"/>
      <use xlink:href="#DejaVuSans-28" x="276.464844"/>
      <use xlink:href="#DejaVuSans-6d" x="315.478516"/>
      <use xlink:href="#DejaVuSans-69" x="412.890625"/>
      <use xlink:href="#DejaVuSans-6c" x="440.673828"/>
      <use xlink:href="#DejaVuSans-6c" x="468.457031"/>
      <use xlink:href="#DejaVuSans-69" x="496.240234"/>
      <use xlink:href="#DejaVuSans-73" x="524.023438"/>
      <use xlink:href="#DejaVuSans-65" x="576.123047"/>
      <use xlink:href="#DejaVuSans-63" x="637.646484"/>
      <use xlink:href="#DejaVuSans-6f" x="692.626953"/>
      <use xlink:href="#DejaVuSans-6e" x="753.808594"/>
      <use xlink:href="#DejaVuSans-64" x="817.1875"/>
      <use xlink:href="#DejaVuSans-73" x="880.664062"/>
      <use xlink:href="#DejaVuSans-29" x="932.763672"/>
     </g>
    </g>
   </g>
   <g id="line2d_27">
    <path d="M 115.363636 90.168074 
L 115.871417 55.8 
L 116.379197 173.061527 
L 116.886978 173.793801 
L 117.394758 168.911972 
L 117.902539 177.211081 
L 118.410319 152.557846 
L 119.42588 192.149477 
L 119.933661 199.032855 
L 120.441441 173.012708 
L 120.949222 72.739946 
L 121.457002 177.7969 
L 121.964783 179.212631 
L 122.472563 169.83952 
L 122.980344 178.822084 
L 123.488124 179.310267 
L 123.995905 178.968539 
L 124.503686 165.152964 
L 125.011466 173.940256 
L 125.519247 169.595428 
L 126.027027 255.027431 
L 126.534808 257.370709 
L 127.042588 176.96699 
L 127.550369 228.372646 
L 128.058149 261.32499 
L 128.56593 261.276172 
L 129.07371 262.203719 
L 129.581491 251.756606 
L 130.089271 214.166525 
L 130.597052 262.398993 
L 131.104832 262.496629 
L 131.612613 262.789539 
L 132.120393 262.594266 
L 132.628174 262.643084 
L 133.135954 262.887176 
L 133.643735 258.49353 
L 134.151515 261.471445 
L 134.659296 262.447811 
L 135.167076 262.594266 
L 135.674857 265.621 
L 136.182637 266.158001 
L 136.690418 266.158001 
L 137.198198 83.626424 
L 137.705979 266.646184 
L 138.213759 265.230453 
L 138.72154 265.962728 
L 139.22932 266.011546 
L 139.737101 214.264161 
L 140.244881 202.840682 
L 140.752662 266.402092 
L 141.260442 266.646184 
L 141.768223 264.595816 
L 142.276003 264.400542 
L 142.783784 250.584967 
L 143.291564 205.476869 
L 143.799345 208.064239 
L 144.307125 214.264161 
L 144.814906 207.478419 
L 145.322686 209.528787 
L 145.830467 206.209144 
L 146.338247 204.549322 
L 146.846028 205.916234 
L 147.353808 185.559008 
L 147.861589 206.502053 
L 148.369369 204.061139 
L 148.87715 205.672143 
L 149.38493 177.064626 
L 149.892711 166.715149 
L 150.908272 208.161875 
L 151.416052 206.013871 
L 151.923833 170.132429 
L 152.431613 229.593103 
L 152.939394 253.172336 
L 153.447174 249.852693 
L 153.954955 254.588067 
L 154.462735 254.295157 
L 154.970516 252.293607 
L 155.478296 253.611701 
L 155.986077 257.663619 
L 156.493857 257.028981 
L 157.001638 256.931344 
L 157.509419 257.90771 
L 158.017199 257.224254 
L 158.52498 257.273072 
L 159.03276 268.306005 
L 159.540541 261.569082 
L 160.048321 270.551647 
L 160.556102 272.211468 
L 161.571663 222.075087 
L 162.079443 222.221542 
L 162.587224 222.514452 
L 163.095004 215.923983 
L 163.602785 221.098721 
L 164.110565 221.977451 
L 164.618346 223.14909 
L 165.126126 222.416815 
L 165.633907 269.03828 
L 166.141687 272.894924 
L 166.649468 250.975513 
L 168.172809 259.811623 
L 168.68059 270.063464 
L 169.18837 272.113832 
L 169.696151 271.674467 
L 170.203931 272.016195 
L 170.711712 272.065014 
L 171.219492 271.479194 
L 171.727273 272.650833 
L 172.235053 272.846106 
L 172.742834 270.698102 
L 173.250614 264.74227 
L 173.758395 257.224254 
L 174.266175 262.301356 
L 174.773956 270.405192 
L 175.281736 273.773654 
L 175.789517 274.701201 
L 176.297297 273.724835 
L 176.805078 273.968927 
L 177.312858 273.920108 
L 177.820639 274.847656 
L 178.328419 274.847656 
L 178.8362 271.088648 
L 179.34398 274.261836 
L 179.851761 274.45711 
L 180.359541 275.531112 
L 180.867322 275.287021 
L 181.375102 274.066563 
L 181.882883 274.847656 
L 182.390663 274.603565 
L 182.898444 273.431926 
L 183.406224 274.115382 
L 183.914005 274.603565 
L 184.421785 274.847656 
L 184.929566 274.603565 
L 185.437346 273.236652 
L 185.945127 274.847656 
L 186.960688 274.213018 
L 187.468468 274.798838 
L 188.484029 274.701201 
L 188.99181 275.287021 
L 189.49959 274.994111 
L 190.007371 274.896474 
L 190.515152 273.334289 
L 191.022932 274.750019 
L 191.530713 274.115382 
L 192.038493 273.773654 
L 192.546274 271.186284 
L 193.054054 274.310655 
L 193.561835 274.750019 
L 194.069615 274.945293 
L 194.577396 274.798838 
L 195.085176 274.847656 
L 195.592957 275.140566 
L 196.608518 274.066563 
L 197.116298 274.603565 
L 197.624079 274.652383 
L 198.131859 269.770554 
L 198.63964 273.968927 
L 199.14742 274.115382 
L 199.655201 272.553196 
L 200.162981 274.554746 
L 200.670762 274.896474 
L 201.178542 275.042929 
L 201.686323 274.896474 
L 202.194103 264.839907 
L 202.701884 272.113832 
L 203.209664 272.357923 
L 203.717445 267.817823 
L 204.225225 270.258737 
L 204.733006 270.893375 
L 205.240786 270.551647 
L 205.748567 271.186284 
L 206.256347 270.551647 
L 206.764128 267.32964 
L 207.271908 267.573731 
L 207.779689 269.087098 
L 208.287469 269.477644 
L 208.79525 270.356373 
L 209.30303 269.770554 
L 209.810811 271.03983 
L 210.318591 270.942193 
L 210.826372 269.917009 
L 211.334152 270.893375 
L 211.841933 271.235103 
L 212.349713 262.935994 
L 212.857494 243.311042 
L 213.365274 261.6179 
L 213.873055 266.74382 
L 214.380835 266.45091 
L 214.888616 266.597365 
L 215.396396 254.636885 
L 215.904177 264.058814 
L 216.411957 267.964277 
L 216.919738 269.233553 
L 217.427518 249.559783 
L 217.935299 264.449361 
L 218.443079 264.351724 
L 219.45864 261.959628 
L 219.966421 264.449361 
L 220.474201 265.425726 
L 220.981982 264.986362 
L 221.489762 266.353274 
L 221.997543 265.376908 
L 222.505324 266.060364 
L 223.013104 267.378458 
L 223.520885 266.158001 
L 224.536446 266.939093 
L 225.044226 266.597365 
L 225.552007 267.573731 
L 226.059787 266.646184 
L 226.567568 266.939093 
L 227.075348 265.767454 
L 227.583129 265.962728 
L 228.090909 268.550097 
L 229.10647 268.891825 
L 229.614251 269.526463 
L 230.122031 269.624099 
L 230.629812 269.03828 
L 231.137592 269.819372 
L 231.645373 271.186284 
L 232.153153 267.915459 
L 232.660934 263.375358 
L 233.168714 264.986362 
L 233.676495 265.767454 
L 234.184275 265.230453 
L 234.692056 267.817823 
L 235.199836 271.186284 
L 235.707617 269.770554 
L 236.723178 270.45401 
L 237.230958 268.501279 
L 238.246519 265.913909 
L 238.7543 266.548547 
L 239.26208 269.868191 
L 239.769861 269.965827 
L 240.785422 266.158001 
L 241.293202 267.134367 
L 241.800983 265.572181 
L 242.308763 269.184735 
L 242.816544 268.843007 
L 243.324324 268.989461 
L 243.832105 269.526463 
L 244.339885 267.622549 
L 244.847666 269.917009 
L 245.355446 270.1611 
L 245.863227 269.135916 
L 246.371007 263.131267 
L 246.878788 266.158001 
L 247.386568 265.132817 
L 248.90991 269.624099 
L 249.41769 269.965827 
L 249.925471 269.819372 
L 250.433251 270.600465 
L 250.941032 268.208369 
L 251.448812 268.208369 
L 251.956593 269.575281 
L 252.464373 269.868191 
L 252.972154 269.770554 
L 253.479934 270.014645 
L 253.987715 270.45401 
L 254.495495 269.526463 
L 255.003276 267.378458 
L 255.511057 267.427276 
L 256.018837 263.91236 
L 256.526618 269.721736 
L 257.034398 270.063464 
L 257.542179 270.112282 
L 258.049959 269.965827 
L 259.06552 269.868191 
L 259.573301 270.112282 
L 260.081081 263.32654 
L 261.604423 266.890275 
L 262.619984 270.698102 
L 263.127764 268.403642 
L 263.635545 267.280821 
L 264.143325 263.131267 
L 264.651106 266.939093 
L 265.158886 267.32964 
L 265.666667 268.696552 
L 266.174447 270.649283 
L 266.682228 268.74537 
L 267.190008 267.476095 
L 267.697789 262.740721 
L 268.205569 253.025881 
L 268.71335 266.695002 
L 269.728911 270.258737 
L 270.236691 270.063464 
L 270.744472 264.302906 
L 271.252252 266.987912 
L 271.760033 267.622549 
L 272.267813 266.939093 
L 272.775594 265.865091 
L 273.283374 267.622549 
L 273.791155 266.695002 
L 274.298935 266.792639 
L 274.806716 244.482681 
L 275.314496 262.740721 
L 276.330057 268.159551 
L 276.837838 268.354824 
L 277.345618 268.403642 
L 277.853399 269.282371 
L 278.361179 265.621 
L 278.86896 267.769004 
L 279.37674 268.306005 
L 279.884521 265.962728 
L 280.392301 265.621 
L 280.900082 267.32964 
L 281.407862 268.550097 
L 281.915643 269.282371 
L 282.423423 270.74692 
L 282.931204 267.378458 
L 283.438984 269.184735 
L 283.946765 269.477644 
L 284.454545 269.477644 
L 284.962326 269.282371 
L 285.470106 266.74382 
L 285.977887 266.011546 
L 286.485667 259.128167 
L 286.993448 265.913909 
L 287.501229 268.501279 
L 288.009009 269.428826 
L 288.51679 269.380008 
L 289.02457 268.647733 
L 289.532351 270.014645 
L 290.040131 270.551647 
L 291.055692 260.446261 
L 291.563473 262.301356 
L 292.071253 262.203719 
L 292.579034 259.958078 
L 293.086814 264.986362 
L 293.594595 262.643084 
L 294.102375 264.205269 
L 294.610156 266.987912 
L 295.117936 263.424177 
L 295.625717 264.058814 
L 296.133497 265.279272 
L 296.641278 265.425726 
L 297.149058 266.646184 
L 298.164619 264.791089 
L 298.6724 266.646184 
L 299.18018 264.351724 
L 299.687961 264.74227 
L 300.195741 266.060364 
L 300.703522 266.499729 
L 301.211302 266.109182 
L 301.719083 259.176986 
L 302.226863 262.447811 
L 302.734644 266.939093 
L 303.242424 257.956528 
L 304.257985 266.109182 
L 304.765766 269.135916 
L 305.273546 269.575281 
L 305.781327 269.184735 
L 306.289107 269.868191 
L 306.796888 270.258737 
L 307.304668 270.258737 
L 307.812449 267.134367 
L 308.320229 268.794188 
L 308.82801 269.477644 
L 309.33579 266.646184 
L 309.843571 266.011546 
L 310.351351 267.378458 
L 310.859132 269.624099 
L 311.366912 270.502828 
L 311.874693 270.1611 
L 312.382473 270.795738 
L 312.890254 267.817823 
L 313.398034 269.135916 
L 313.905815 260.739171 
L 314.413595 261.080899 
L 314.921376 262.350174 
L 315.429156 262.008446 
L 315.936937 257.224254 
L 316.444717 255.662069 
L 316.952498 253.0747 
L 317.460278 262.496629 
L 317.968059 266.74382 
L 318.475839 261.764355 
L 318.98362 247.118869 
L 319.4914 258.542348 
L 319.999181 260.983262 
L 320.506962 257.224254 
L 321.014742 255.515614 
L 321.522523 259.860442 
L 322.030303 262.106083 
L 322.538084 261.129717 
L 323.045864 262.691902 
L 323.553645 260.885626 
L 324.061425 260.983262 
L 324.569206 262.594266 
L 325.076986 262.057265 
L 325.584767 256.247888 
L 326.092547 256.540798 
L 326.600328 262.789539 
L 327.108108 262.740721 
L 327.615889 260.543898 
L 328.123669 262.691902 
L 329.13923 249.315692 
L 329.647011 260.641534 
L 330.154791 262.935994 
L 330.662572 262.691902 
L 331.170352 261.32499 
L 331.678133 262.984812 
L 332.185913 262.203719 
L 332.693694 262.740721 
L 333.201474 262.594266 
L 333.709255 262.301356 
L 334.217035 249.169237 
L 334.724816 242.627586 
L 335.232596 250.682604 
L 335.740377 261.422627 
L 336.248157 262.008446 
L 336.755938 262.203719 
L 337.263718 261.813173 
L 337.771499 262.154901 
L 338.279279 261.861991 
L 338.78706 253.172336 
L 339.29484 252.830608 
L 339.802621 264.791089 
L 340.310401 265.621 
L 340.818182 258.639985 
L 341.325962 267.03673 
L 341.833743 269.428826 
L 342.341523 270.502828 
L 342.849304 264.546997 
L 343.357084 269.624099 
L 343.864865 268.940643 
L 344.372645 269.721736 
L 344.880426 270.063464 
L 345.388206 269.428826 
L 345.895987 269.282371 
L 346.403767 270.600465 
L 346.911548 267.524913 
L 347.419328 267.476095 
L 347.927109 264.693452 
L 348.434889 266.402092 
L 348.94267 266.646184 
L 349.45045 268.598915 
L 349.958231 269.672917 
L 350.466011 269.868191 
L 350.973792 269.672917 
L 351.481572 270.45401 
L 351.989353 268.550097 
L 352.497133 264.74227 
L 353.004914 263.521813 
L 353.512695 264.546997 
L 354.020475 268.794188 
L 354.528256 269.135916 
L 355.036036 266.304456 
L 355.543817 268.74537 
L 356.051597 254.148702 
L 356.559378 244.189771 
L 357.574939 267.524913 
L 358.082719 268.74537 
L 358.5905 268.843007 
L 359.09828 269.477644 
L 359.606061 269.819372 
L 360.113841 269.624099 
L 360.621622 269.868191 
L 361.129402 270.258737 
L 361.637183 267.817823 
L 362.144963 268.74537 
L 362.652744 265.865091 
L 363.160524 265.962728 
L 363.668305 266.206819 
L 364.176085 266.158001 
L 364.683866 264.986362 
L 365.191646 270.698102 
L 365.699427 270.356373 
L 366.207207 262.740721 
L 366.714988 266.255637 
L 367.222768 266.304456 
L 367.730549 269.331189 
L 368.238329 269.721736 
L 368.74611 264.595816 
L 369.25389 268.843007 
L 369.761671 256.540798 
L 370.269451 268.940643 
L 370.777232 269.380008 
L 371.285012 269.282371 
L 371.792793 269.477644 
L 372.300573 267.134367 
L 372.808354 266.255637 
L 373.316134 266.74382 
L 373.823915 267.622549 
L 374.331695 263.91236 
L 374.839476 265.523363 
L 375.347256 268.940643 
L 375.855037 268.989461 
L 376.362817 268.110732 
L 376.870598 270.258737 
L 377.378378 268.74537 
L 377.886159 268.794188 
L 378.393939 270.405192 
L 378.90172 270.45401 
L 379.4095 266.841457 
L 379.917281 266.255637 
L 380.425061 265.865091 
L 380.932842 269.331189 
L 381.440622 270.405192 
L 381.948403 265.669818 
L 382.456183 266.939093 
L 382.963964 269.282371 
L 383.471744 268.013096 
L 383.979525 263.961178 
L 384.487305 265.962728 
L 384.995086 269.233553 
L 385.502867 270.258737 
L 386.010647 269.135916 
L 386.518428 268.696552 
L 387.533989 270.649283 
L 388.041769 270.795738 
L 388.54955 266.890275 
L 389.05733 268.45246 
L 389.565111 268.647733 
L 390.072891 269.331189 
L 390.580672 269.380008 
L 391.088452 269.868191 
L 391.596233 270.063464 
L 392.104013 269.721736 
L 392.611794 270.45401 
L 393.119574 270.844556 
L 393.627355 264.693452 
L 394.135135 264.839907 
L 394.642916 264.546997 
L 395.658477 269.380008 
L 396.166257 269.380008 
L 396.674038 264.498179 
L 397.181818 265.230453 
L 397.689599 269.380008 
L 398.197379 268.306005 
L 398.70516 269.184735 
L 399.21294 268.696552 
L 399.720721 269.624099 
L 400.736282 268.794188 
L 401.244062 270.649283 
L 401.751843 258.20062 
L 402.259623 260.495079 
L 402.767404 264.009996 
L 403.275184 266.158001 
L 403.782965 270.74692 
L 404.290745 270.112282 
L 404.798526 259.469895 
L 405.306306 267.573731 
L 405.814087 269.477644 
L 406.321867 268.891825 
L 406.829648 270.405192 
L 407.337428 270.502828 
L 407.845209 267.476095 
L 408.352989 266.597365 
L 408.86077 270.209919 
L 409.36855 268.208369 
L 409.876331 269.526463 
L 410.384111 269.721736 
L 410.891892 268.843007 
L 411.399672 268.501279 
L 411.907453 269.624099 
L 412.415233 263.472995 
L 412.923014 265.279272 
L 413.430794 265.816273 
L 414.446355 270.45401 
L 414.954136 269.917009 
L 415.969697 270.893375 
L 416.477477 265.083998 
L 416.985258 265.816273 
L 417.493038 269.331189 
L 418.000819 267.964277 
L 418.5086 267.378458 
L 419.01638 267.524913 
L 419.524161 266.304456 
L 420.031941 269.526463 
L 420.539722 258.20062 
L 421.047502 266.939093 
L 421.555283 266.255637 
L 422.063063 266.597365 
L 422.570844 265.865091 
L 423.078624 266.402092 
L 423.586405 266.402092 
L 424.094185 269.575281 
L 424.601966 268.110732 
L 425.109746 269.770554 
L 425.617527 265.767454 
L 426.125307 267.183185 
L 426.633088 267.817823 
L 427.140868 269.526463 
L 427.648649 269.575281 
L 428.156429 269.184735 
L 428.66421 269.477644 
L 429.17199 269.965827 
L 429.679771 269.624099 
L 430.187551 262.301356 
L 430.695332 267.866641 
L 431.203112 265.572181 
L 431.710893 265.865091 
L 432.218673 266.45091 
L 432.726454 268.940643 
L 433.742015 268.354824 
L 434.249795 270.551647 
L 435.265356 265.376908 
L 435.773137 265.865091 
L 436.280917 260.250988 
L 436.788698 261.276172 
L 437.296478 259.665169 
L 437.804259 265.621 
L 438.312039 267.232003 
L 438.81982 269.331189 
L 439.3276 264.058814 
L 439.835381 265.865091 
L 440.343161 266.402092 
L 440.850942 266.011546 
L 441.358722 265.474545 
L 441.866503 263.131267 
L 442.374283 266.158001 
L 442.882064 267.280821 
L 443.389844 262.740721 
L 443.897625 264.107633 
L 444.405405 264.107633 
L 444.913186 263.961178 
L 445.420966 265.474545 
L 445.928747 265.962728 
L 446.944308 266.402092 
L 447.452088 214.264161 
L 447.959869 273.480744 
L 448.467649 274.1642 
L 448.97543 274.45711 
L 449.48321 274.115382 
L 449.990991 274.115382 
L 451.006552 274.896474 
L 451.514333 274.652383 
L 452.022113 273.529562 
L 452.529894 272.846106 
L 453.037674 271.576831 
L 453.545455 273.676017 
L 454.053235 274.1642 
L 455.068796 273.676017 
L 455.576577 274.505928 
L 456.084357 274.359473 
L 456.592138 274.45711 
L 457.099918 274.408291 
L 457.607699 274.652383 
L 458.115479 274.45711 
L 458.62326 274.750019 
L 459.13104 274.45711 
L 459.638821 272.16265 
L 460.146601 273.187834 
L 460.654382 273.187834 
L 461.162162 274.359473 
L 461.669943 274.701201 
L 462.177723 274.408291 
L 462.685504 274.554746 
L 463.193284 274.45711 
L 464.208845 274.554746 
L 464.716626 274.066563 
L 465.224406 274.505928 
L 465.732187 272.846106 
L 466.239967 274.017745 
L 466.747748 273.285471 
L 467.255528 274.213018 
L 467.763309 274.115382 
L 468.271089 273.480744 
L 468.77887 273.139016 
L 469.28665 274.359473 
L 469.794431 274.554746 
L 470.809992 274.505928 
L 471.317772 264.107633 
L 471.825553 274.310655 
L 472.333333 272.211468 
L 472.841114 274.505928 
L 473.348894 275.238202 
L 473.856675 274.408291 
L 475.380016 274.652383 
L 475.887797 275.091747 
L 476.395577 274.798838 
L 476.903358 273.139016 
L 477.411138 260.20217 
L 477.918919 270.551647 
L 478.426699 274.554746 
L 478.93448 275.042929 
L 479.44226 257.370709 
L 479.950041 256.443162 
L 480.457821 262.301356 
L 480.965602 261.666718 
L 481.473382 262.252538 
L 481.981163 253.269973 
L 482.488943 261.373809 
L 482.996724 261.178535 
L 483.504505 257.175436 
L 484.012285 254.78334 
L 484.520066 259.61635 
L 485.027846 261.91081 
L 485.535627 254.978613 
L 486.043407 261.276172 
L 486.551188 260.739171 
L 487.058968 261.569082 
L 487.566749 261.569082 
L 488.074529 255.271523 
L 488.58231 255.808524 
L 489.09009 253.806974 
L 489.597871 254.002247 
L 490.105651 258.249438 
L 490.613432 254.832158 
L 491.121212 255.417978 
L 491.628993 254.78334 
L 492.136773 255.125068 
L 492.644554 253.562883 
L 493.152334 255.173886 
L 493.660115 254.49043 
L 494.167895 255.710887 
L 494.675676 255.271523 
L 495.183456 256.49198 
L 495.691237 256.931344 
L 496.706798 264.839907 
L 497.722359 267.573731 
L 498.230139 269.282371 
L 498.73792 264.058814 
L 499.2457 261.813173 
L 499.753481 263.375358 
L 500.261261 260.836807 
L 500.769042 262.106083 
L 501.276822 267.378458 
L 501.784603 268.843007 
L 502.292383 265.816273 
L 502.800164 265.230453 
L 503.307944 266.841457 
L 503.815725 266.74382 
L 504.323505 265.474545 
L 504.831286 269.428826 
L 505.339066 269.917009 
L 505.846847 269.672917 
L 506.354627 269.868191 
L 506.862408 269.868191 
L 507.370188 270.1611 
L 507.877969 267.280821 
L 508.385749 267.32964 
L 508.89353 264.302906 
L 509.40131 267.476095 
L 509.909091 267.524913 
L 510.416871 268.403642 
L 510.924652 270.063464 
L 511.432432 269.575281 
L 511.940213 269.770554 
L 512.447993 270.258737 
L 512.955774 270.209919 
L 513.463554 270.698102 
L 513.971335 268.794188 
L 514.479115 269.672917 
L 514.986896 267.134367 
L 516.002457 266.548547 
L 516.510238 269.770554 
L 517.018018 269.672917 
L 517.525799 269.819372 
L 518.033579 267.915459 
L 518.54136 265.03518 
L 519.556921 269.770554 
L 520.064701 269.428826 
L 520.572482 268.940643 
L 521.080262 269.428826 
L 521.588043 270.405192 
L 522.095823 256.150252 
L 522.603604 264.693452 
L 523.111384 266.304456 
L 523.619165 266.011546 
L 524.126945 266.792639 
L 524.634726 267.183185 
L 525.142506 269.233553 
L 525.650287 270.551647 
L 526.158067 264.351724 
L 526.665848 265.572181 
L 527.173628 264.546997 
L 527.681409 265.816273 
L 528.189189 267.427276 
L 528.69697 267.134367 
L 529.20475 266.548547 
L 529.712531 264.205269 
L 530.220311 265.621 
L 530.728092 266.304456 
L 531.235872 266.646184 
L 531.743653 265.962728 
L 532.251433 266.304456 
L 532.759214 267.134367 
L 533.266994 268.257187 
L 533.774775 265.816273 
L 534.282555 267.03673 
L 534.790336 266.74382 
L 535.298116 267.03673 
L 535.805897 268.061914 
L 536.313677 270.45401 
L 536.821458 258.932894 
L 537.329238 260.739171 
L 537.837019 263.131267 
L 538.344799 259.176986 
L 538.85258 265.572181 
L 539.36036 267.03673 
L 539.868141 269.965827 
L 540.375921 270.014645 
L 540.883702 270.74692 
L 541.391482 265.279272 
L 541.899263 267.866641 
L 542.407043 269.135916 
L 542.914824 269.868191 
L 543.422604 269.965827 
L 543.930385 267.03673 
L 544.438165 266.353274 
L 544.945946 270.405192 
L 545.453726 270.1611 
L 545.961507 267.183185 
L 546.469287 268.647733 
L 546.977068 269.233553 
L 547.484848 266.597365 
L 547.992629 265.865091 
L 548.50041 267.817823 
L 549.00819 268.843007 
L 549.515971 256.296707 
L 550.023751 264.498179 
L 550.531532 268.013096 
L 551.039312 269.331189 
L 551.547093 269.477644 
L 553.070434 269.233553 
L 553.578215 270.307555 
L 554.085995 267.720186 
L 554.593776 267.232003 
L 555.101556 261.959628 
L 555.609337 266.109182 
L 556.117117 265.962728 
L 556.624898 267.378458 
L 557.640459 269.233553 
L 558.148239 268.696552 
L 558.65602 269.917009 
L 559.1638 270.405192 
L 559.671581 269.380008 
L 560.179361 270.258737 
L 560.687142 270.551647 
L 561.194922 267.378458 
L 561.702703 266.353274 
L 562.210483 266.060364 
L 563.226044 270.014645 
L 563.733825 270.45401 
L 564.241605 267.524913 
L 564.749386 268.696552 
L 565.257166 268.891825 
L 565.764947 265.816273 
L 566.272727 265.913909 
L 566.780508 258.20062 
L 567.288288 266.499729 
L 567.796069 268.74537 
L 568.303849 270.063464 
L 568.81163 266.011546 
L 569.31941 267.964277 
L 569.827191 266.158001 
L 570.334971 266.255637 
L 570.842752 269.282371 
L 571.350532 268.110732 
L 571.858313 269.135916 
L 572.366093 269.03828 
L 572.873874 254.099884 
L 573.381654 268.843007 
L 573.889435 269.087098 
L 574.397215 266.255637 
L 574.904996 264.351724 
L 575.412776 266.011546 
L 575.920557 265.816273 
L 576.428337 267.03673 
L 576.936118 266.695002 
L 577.443898 268.257187 
L 577.951679 268.940643 
L 578.459459 269.03828 
L 578.96724 268.696552 
L 579.47502 269.331189 
L 579.982801 269.477644 
L 580.490581 270.405192 
L 580.998362 270.112282 
L 581.506143 268.061914 
L 582.013923 264.449361 
L 582.521704 264.644634 
L 583.029484 265.083998 
L 583.537265 265.913909 
L 584.045045 266.109182 
L 584.552826 267.183185 
L 585.060606 266.890275 
L 585.568387 261.178535 
L 586.076167 268.159551 
L 586.583948 269.477644 
L 587.091728 267.32964 
L 587.599509 266.841457 
L 588.61507 267.622549 
L 589.12285 267.524913 
L 589.630631 262.789539 
L 590.138411 266.060364 
L 590.646192 266.304456 
L 591.153972 265.425726 
L 591.661753 265.767454 
L 592.169533 266.841457 
L 592.677314 266.987912 
L 593.185094 263.228904 
L 593.692875 264.302906 
L 594.200655 267.378458 
L 594.708436 255.954979 
L 595.216216 252.635335 
L 595.723997 256.78489 
L 596.231777 262.643084 
L 596.739558 260.885626 
L 597.247338 261.129717 
L 597.755119 255.515614 
L 598.262899 252.440062 
L 598.77068 252.635335 
L 599.27846 253.0747 
L 599.786241 266.792639 
L 600.294021 252.928245 
L 600.801802 265.669818 
L 601.309582 268.110732 
L 601.817363 268.598915 
L 602.325143 268.550097 
L 602.832924 269.526463 
L 603.340704 267.427276 
L 603.848485 262.838357 
L 604.356265 256.540798 
L 604.864046 264.156451 
L 605.371826 266.646184 
L 605.879607 267.964277 
L 606.387387 268.403642 
L 606.895168 269.331189 
L 607.402948 269.917009 
L 607.910729 268.208369 
L 608.418509 268.257187 
L 608.92629 269.03828 
L 609.43407 268.598915 
L 609.941851 267.476095 
L 610.449631 265.865091 
L 610.957412 266.353274 
L 611.465192 267.720186 
L 611.972973 264.449361 
L 612.480753 269.087098 
L 612.988534 269.087098 
L 614.004095 269.819372 
L 614.511876 268.940643 
L 615.019656 269.917009 
L 615.527437 269.819372 
L 616.035217 267.915459 
L 616.542998 263.32654 
L 617.050778 265.376908 
L 617.558559 266.158001 
L 618.066339 265.474545 
L 618.57412 266.402092 
L 619.0819 266.158001 
L 619.589681 267.03673 
L 620.097461 263.61945 
L 620.605242 269.331189 
L 621.113022 269.624099 
L 621.620803 266.646184 
L 622.128583 266.499729 
L 622.636364 265.425726 
L 622.636364 265.425726 
" clip-path="url(#p4e0442c5cf)" style="fill: none; stroke: #1f77b4; stroke-width: 1.5; stroke-linecap: square"/>
   </g>
   <g id="line2d_28">
    <path d="M 115.363636 199.813948 
L 115.871417 233.40093 
L 116.379197 277.532662 
L 116.886978 285.490043 
L 117.394758 258.20062 
L 117.902539 261.813173 
L 118.410319 268.501279 
L 118.9181 259.90926 
L 119.42588 266.792639 
L 119.933661 271.186284 
L 120.441441 250.096784 
L 120.949222 278.362573 
L 121.457002 286.905773 
L 121.964783 287.442774 
L 122.472563 286.856955 
L 123.488124 287.149864 
L 123.995905 280.852305 
L 124.503686 270.307555 
L 125.011466 273.139016 
L 125.519247 275.287021 
L 126.027027 287.052228 
L 126.534808 287.149864 
L 127.042588 284.562495 
L 127.550369 283.976676 
L 128.058149 287.149864 
L 128.56593 287.638047 
L 129.07371 287.247501 
L 129.581491 297.401705 
L 130.089271 297.841069 
L 130.597052 299.012708 
L 131.612613 298.866253 
L 132.120393 299.207981 
L 132.628174 299.207981 
L 133.135954 299.012708 
L 133.643735 297.694614 
L 134.151515 299.061527 
L 134.659296 299.012708 
L 135.167076 299.207981 
L 135.674857 302.820535 
L 136.690418 304.285083 
L 137.198198 303.7969 
L 137.705979 301.307168 
L 138.213759 303.601627 
L 138.72154 304.040992 
L 139.22932 303.455172 
L 139.737101 255.271523 
L 140.244881 300.135529 
L 140.752662 302.283534 
L 141.260442 302.185897 
L 141.768223 265.03518 
L 142.276003 295.107245 
L 142.783784 302.137079 
L 143.291564 301.892987 
L 143.799345 296.230066 
L 144.307125 296.474157 
L 144.814906 295.985974 
L 145.322686 296.474157 
L 145.830467 296.425339 
L 146.338247 302.332352 
L 147.353808 292.324603 
L 147.861589 296.278884 
L 148.369369 287.247501 
L 148.87715 300.623712 
L 149.38493 276.556296 
L 149.892711 287.345138 
L 150.400491 293.740333 
L 150.908272 285.197133 
L 151.416052 283.390856 
L 151.923833 273.480744 
L 152.431613 266.890275 
L 152.939394 295.400155 
L 153.447174 295.2537 
L 154.462735 296.034793 
L 154.970516 296.425339 
L 155.478296 294.765517 
L 155.986077 295.107245 
L 156.493857 295.693065 
L 157.001638 295.302518 
L 157.509419 293.008059 
L 158.017199 296.474157 
L 158.52498 296.718249 
L 159.03276 296.376521 
L 159.540541 294.863154 
L 160.048321 295.497792 
L 160.556102 295.302518 
L 161.063882 295.497792 
L 161.571663 294.911972 
L 162.079443 295.741883 
L 162.587224 295.54661 
L 163.095004 294.765517 
L 163.602785 294.96079 
L 164.110565 295.741883 
L 164.618346 295.54661 
L 165.633907 295.937156 
L 166.141687 295.985974 
L 166.649468 260.836807 
L 167.157248 266.109182 
L 167.665029 274.408291 
L 168.172809 286.808136 
L 168.68059 294.96079 
L 169.18837 295.790701 
L 170.203931 295.741883 
L 170.711712 295.54661 
L 171.219492 295.644246 
L 171.727273 296.181248 
L 172.235053 296.425339 
L 172.742834 290.957691 
L 173.250614 292.471058 
L 173.758395 292.031693 
L 174.266175 293.496242 
L 174.773956 303.992174 
L 175.281736 304.626811 
L 175.789517 304.919721 
L 176.297297 285.050678 
L 176.805078 304.333902 
L 177.312858 307.311817 
L 177.820639 307.50709 
L 178.328419 307.409454 
L 178.8362 304.773266 
L 179.34398 305.700814 
L 179.851761 305.749632 
L 180.359541 305.944905 
L 180.867322 305.554359 
L 181.375102 307.360635 
L 181.882883 307.50709 
L 182.390663 307.50709 
L 182.898444 301.746532 
L 183.406224 304.577993 
L 183.914005 304.529175 
L 184.421785 304.333902 
L 184.929566 302.527625 
L 185.437346 307.018907 
L 185.945127 307.50709 
L 186.452907 307.653545 
L 187.468468 307.360635 
L 188.484029 307.555909 
L 188.99181 305.114994 
L 189.49959 305.017358 
L 190.007371 304.431538 
L 190.515152 305.79845 
L 191.022932 307.604727 
L 191.530713 305.651995 
L 192.038493 306.042542 
L 192.546274 305.749632 
L 193.054054 306.970089 
L 193.561835 307.409454 
L 194.577396 307.50709 
L 195.592957 307.8 
L 196.100737 307.262999 
L 196.608518 305.066176 
L 197.116298 305.114994 
L 197.624079 305.310267 
L 198.131859 302.283534 
L 198.63964 305.700814 
L 199.14742 306.38427 
L 199.655201 306.38427 
L 200.670762 307.653545 
L 201.178542 307.50709 
L 201.686323 306.530725 
L 202.194103 288.370322 
L 202.701884 295.985974 
L 203.209664 296.376521 
L 203.717445 291.152964 
L 204.225225 293.593878 
L 204.733006 293.984425 
L 205.240786 294.228516 
L 205.748567 294.277334 
L 206.256347 292.959241 
L 206.764128 276.507478 
L 207.271908 276.312205 
L 207.779689 294.277334 
L 208.287469 293.25215 
L 208.79525 294.179698 
L 209.30303 294.179698 
L 209.810811 294.472608 
L 210.318591 294.472608 
L 210.826372 294.179698 
L 211.334152 294.765517 
L 211.841933 289.54196 
L 212.349713 250.78024 
L 212.857494 267.378458 
L 213.365274 275.091747 
L 214.380835 277.337389 
L 214.888616 278.020845 
L 215.396396 260.20217 
L 216.411957 286.12468 
L 216.919738 294.033243 
L 217.427518 280.412941 
L 217.935299 284.953041 
L 218.443079 284.953041 
L 219.45864 284.41604 
L 219.966421 285.929407 
L 220.474201 286.271135 
L 220.981982 285.929407 
L 221.489762 286.661682 
L 221.997543 286.564045 
L 222.505324 288.907323 
L 223.013104 285.441224 
L 223.520885 289.102596 
L 224.028665 289.54196 
L 224.536446 289.639597 
L 225.044226 289.883688 
L 226.059787 289.590779 
L 226.567568 283.781403 
L 227.075348 287.930957 
L 227.583129 298.182797 
L 228.090909 299.500891 
L 228.59869 299.647346 
L 229.10647 299.989074 
L 229.614251 297.841069 
L 230.122031 299.598528 
L 230.629812 297.743433 
L 231.137592 298.622162 
L 231.645373 298.67098 
L 232.153153 289.297869 
L 232.660934 284.562495 
L 233.168714 285.636497 
L 233.676495 286.41759 
L 234.184275 286.905773 
L 234.692056 299.549709 
L 235.199836 296.181248 
L 235.707617 298.719799 
L 236.215397 299.842619 
L 236.723178 297.792251 
L 237.230958 293.300969 
L 237.738739 286.612863 
L 238.246519 286.905773 
L 238.7543 291.592329 
L 239.26208 299.891437 
L 239.769861 299.793801 
L 240.785422 270.893375 
L 241.293202 279.241302 
L 241.800983 296.522976 
L 242.308763 295.156064 
L 242.816544 297.694614 
L 243.324324 299.598528 
L 243.832105 296.327702 
L 244.339885 297.059977 
L 244.847666 299.549709 
L 245.355446 299.989074 
L 245.863227 289.249051 
L 246.371007 285.831771 
L 246.878788 286.271135 
L 247.386568 286.466408 
L 247.894349 286.466408 
L 248.402129 298.085161 
L 248.90991 297.596978 
L 249.41769 297.352886 
L 249.925471 297.792251 
L 250.433251 297.596978 
L 250.941032 297.694614 
L 251.448812 297.450523 
L 251.956593 298.133979 
L 252.464373 297.059977 
L 253.479934 298.67098 
L 253.987715 297.499341 
L 254.495495 289.395506 
L 255.003276 289.493142 
L 255.511057 273.773654 
L 256.018837 287.198683 
L 256.526618 286.515227 
L 257.034398 286.564045 
L 257.542179 287.052228 
L 258.049959 287.247501 
L 259.06552 287.149864 
L 259.573301 280.559396 
L 260.081081 270.649283 
L 260.588862 272.16265 
L 261.096642 273.139016 
L 261.604423 273.480744 
L 262.112203 286.319954 
L 262.619984 287.149864 
L 263.127764 274.652383 
L 263.635545 275.140566 
L 264.143325 272.846106 
L 264.651106 275.57993 
L 265.158886 276.16575 
L 265.666667 287.393956 
L 266.174447 286.661682 
L 266.682228 276.800387 
L 267.190008 274.603565 
L 268.205569 272.211468 
L 268.71335 274.847656 
L 269.22113 286.954591 
L 269.728911 287.198683 
L 270.236691 276.946842 
L 270.744472 276.361023 
L 271.252252 277.190934 
L 272.267813 277.776753 
L 272.775594 277.532662 
L 273.283374 274.45711 
L 273.791155 288.12623 
L 274.298935 239.210306 
L 274.806716 259.90926 
L 275.314496 270.551647 
L 275.822277 291.689965 
L 277.345618 291.885238 
L 277.853399 291.738783 
L 278.361179 290.469508 
L 278.86896 291.689965 
L 279.37674 291.83642 
L 279.884521 272.065014 
L 280.392301 272.894924 
L 280.900082 292.226966 
L 281.407862 293.008059 
L 281.915643 294.179698 
L 282.423423 288.321503 
L 282.931204 293.056877 
L 283.438984 294.082061 
L 283.946765 272.45556 
L 284.454545 294.228516 
L 284.962326 276.214568 
L 285.470106 276.16575 
L 285.977887 294.277334 
L 286.485667 294.277334 
L 286.993448 292.275785 
L 287.501229 293.740333 
L 288.009009 293.593878 
L 288.51679 293.886788 
L 289.02457 294.570244 
L 289.532351 293.789151 
L 290.040131 292.324603 
L 290.547912 277.386207 
L 291.055692 270.844556 
L 291.563473 275.726385 
L 292.071253 257.273072 
L 292.579034 281.779853 
L 293.086814 285.978225 
L 293.594595 286.515227 
L 294.102375 287.345138 
L 294.610156 288.565595 
L 295.117936 284.41604 
L 295.625717 285.831771 
L 296.133497 286.7105 
L 296.641278 285.734134 
L 297.149058 286.7105 
L 297.656839 286.905773 
L 298.164619 288.077412 
L 298.6724 285.343588 
L 299.18018 284.70895 
L 299.687961 286.515227 
L 300.195741 286.564045 
L 300.703522 287.101046 
L 301.211302 287.052228 
L 301.719083 286.7105 
L 302.734644 289.053778 
L 303.242424 285.490043 
L 303.750205 286.222317 
L 304.257985 273.383107 
L 304.765766 293.740333 
L 305.273546 294.911972 
L 305.781327 299.354436 
L 306.289107 299.647346 
L 306.796888 299.744983 
L 307.304668 298.719799 
L 308.320229 295.107245 
L 308.82801 285.782952 
L 309.33579 286.222317 
L 309.843571 286.027044 
L 310.351351 297.596978 
L 310.859132 294.326153 
L 311.874693 298.622162 
L 312.382473 294.423789 
L 312.890254 298.329252 
L 313.398034 298.67098 
L 313.905815 289.639597 
L 314.413595 290.469508 
L 314.921376 290.371871 
L 315.429156 290.42069 
L 315.936937 274.750019 
L 316.444717 272.406742 
L 316.952498 286.222317 
L 317.460278 290.371871 
L 317.968059 287.247501 
L 318.475839 289.737234 
L 319.4914 290.12778 
L 319.999181 287.247501 
L 320.506962 276.16575 
L 321.014742 275.140566 
L 321.522523 290.371871 
L 322.030303 290.42069 
L 322.538084 290.274235 
L 323.045864 290.42069 
L 323.553645 290.225417 
L 324.061425 290.469508 
L 324.569206 289.249051 
L 325.076986 277.337389 
L 325.584767 276.214568 
L 326.092547 284.464859 
L 326.600328 290.469508 
L 327.108108 283.29322 
L 327.615889 290.469508 
L 328.123669 290.42069 
L 328.63145 249.803874 
L 329.13923 256.687253 
L 329.647011 290.371871 
L 330.154791 290.371871 
L 330.662572 281.731034 
L 331.170352 289.883688 
L 331.678133 290.030143 
L 332.185913 290.42069 
L 333.201474 290.42069 
L 333.709255 283.439675 
L 334.217035 270.649283 
L 334.724816 272.065014 
L 335.232596 290.225417 
L 335.740377 287.296319 
L 336.248157 290.274235 
L 336.755938 290.371871 
L 337.263718 290.323053 
L 337.771499 290.518326 
L 338.279279 289.786052 
L 338.78706 268.696552 
L 339.29484 272.504378 
L 339.802621 292.12933 
L 340.310401 281.438125 
L 340.818182 288.12623 
L 341.325962 296.718249 
L 341.833743 297.401705 
L 342.341523 298.573344 
L 342.849304 296.66943 
L 343.357084 298.524525 
L 344.880426 298.622162 
L 345.388206 298.817435 
L 346.403767 298.817435 
L 347.419328 281.779853 
L 347.927109 287.101046 
L 348.434889 288.809686 
L 348.94267 288.565595 
L 349.45045 297.54816 
L 349.958231 298.622162 
L 350.466011 298.524525 
L 350.973792 298.719799 
L 351.989353 298.719799 
L 352.497133 284.513677 
L 353.512695 286.222317 
L 354.020475 297.792251 
L 354.528256 296.522976 
L 355.036036 285.587679 
L 355.543817 293.691515 
L 356.051597 296.66943 
L 356.559378 296.767067 
L 357.067158 297.401705 
L 357.574939 297.54816 
L 358.5905 297.54816 
L 359.09828 297.743433 
L 359.606061 297.401705 
L 360.113841 299.598528 
L 360.621622 299.647346 
L 361.129402 298.817435 
L 361.637183 296.66943 
L 362.144963 282.560945 
L 362.652744 285.099496 
L 363.160524 286.41759 
L 363.668305 286.368772 
L 364.176085 286.12468 
L 365.191646 298.768617 
L 365.699427 298.719799 
L 366.207207 284.757768 
L 366.714988 287.784502 
L 367.222768 287.735684 
L 367.730549 297.450523 
L 368.238329 297.499341 
L 369.25389 298.622162 
L 369.761671 297.54816 
L 370.269451 297.841069 
L 370.777232 298.475707 
L 371.285012 298.329252 
L 371.792793 298.719799 
L 372.300573 288.907323 
L 372.808354 289.053778 
L 373.316134 289.54196 
L 373.823915 289.737234 
L 374.331695 284.562495 
L 374.839476 294.472608 
L 375.347256 295.448973 
L 375.855037 297.792251 
L 376.362817 295.497792 
L 376.870598 298.280434 
L 377.378378 299.891437 
L 377.886159 297.743433 
L 378.393939 298.475707 
L 378.90172 296.034793 
L 379.4095 286.027044 
L 380.425061 288.809686 
L 380.932842 297.499341 
L 381.440622 297.743433 
L 381.948403 279.094847 
L 382.456183 295.54661 
L 382.963964 298.133979 
L 383.471744 275.677567 
L 384.487305 297.596978 
L 384.995086 297.54816 
L 385.502867 298.866253 
L 386.010647 298.96389 
L 386.518428 297.792251 
L 387.026208 298.67098 
L 387.533989 298.329252 
L 388.041769 298.817435 
L 388.54955 295.302518 
L 389.05733 293.984425 
L 389.565111 297.499341 
L 390.072891 294.326153 
L 390.580672 294.472608 
L 391.088452 297.694614 
L 391.596233 297.596978 
L 392.104013 298.036343 
L 392.611794 298.036343 
L 393.119574 297.645796 
L 393.627355 284.70895 
L 394.135135 288.467958 
L 394.642916 288.760868 
L 395.150696 298.622162 
L 395.658477 298.524525 
L 396.166257 298.817435 
L 396.674038 278.655482 
L 397.181818 294.863154 
L 397.689599 295.351337 
L 398.197379 298.085161 
L 398.70516 298.719799 
L 399.21294 298.96389 
L 399.720721 297.841069 
L 400.228501 297.743433 
L 400.736282 298.866253 
L 401.244062 297.352886 
L 401.751843 283.00031 
L 402.259623 287.442774 
L 402.767404 286.612863 
L 403.275184 293.984425 
L 403.782965 298.67098 
L 404.290745 295.448973 
L 404.798526 295.302518 
L 405.306306 298.524525 
L 406.321867 298.866253 
L 406.829648 298.817435 
L 407.337428 294.911972 
L 407.845209 297.206432 
L 408.352989 295.888338 
L 408.86077 298.719799 
L 409.876331 298.96389 
L 410.891892 298.817435 
L 411.399672 294.374971 
L 411.907453 298.085161 
L 412.415233 288.321503 
L 412.923014 288.223867 
L 413.430794 289.395506 
L 413.938575 278.264936 
L 414.446355 298.524525 
L 414.954136 298.96389 
L 415.461916 298.719799 
L 415.969697 298.817435 
L 416.477477 298.573344 
L 416.985258 296.083611 
L 417.493038 297.499341 
L 418.000819 289.444324 
L 418.5086 289.395506 
L 419.01638 289.493142 
L 419.524161 298.475707 
L 420.031941 298.866253 
L 420.539722 294.619062 
L 421.047502 286.368772 
L 421.555283 289.249051 
L 422.570844 289.297869 
L 423.078624 289.590779 
L 424.094185 297.059977 
L 424.601966 297.011158 
L 425.109746 281.389306 
L 425.617527 288.809686 
L 426.125307 289.688415 
L 426.633088 297.450523 
L 427.140868 297.54816 
L 427.648649 298.768617 
L 429.17199 298.67098 
L 430.187551 293.984425 
L 430.695332 297.841069 
L 431.203112 286.368772 
L 431.710893 286.612863 
L 432.218673 295.400155 
L 432.726454 299.452073 
L 433.234234 297.743433 
L 433.742015 299.647346 
L 434.249795 298.817435 
L 434.757576 296.522976 
L 435.265356 286.466408 
L 435.773137 286.12468 
L 436.280917 286.466408 
L 436.788698 286.515227 
L 437.296478 287.101046 
L 437.804259 295.351337 
L 438.312039 288.467958 
L 438.81982 289.737234 
L 439.3276 287.149864 
L 439.835381 289.297869 
L 440.850942 289.493142 
L 441.358722 289.639597 
L 441.866503 289.249051 
L 442.882064 289.590779 
L 443.389844 285.294769 
L 443.897625 286.466408 
L 444.405405 286.808136 
L 444.913186 286.466408 
L 445.420966 286.905773 
L 445.928747 288.71205 
L 446.436527 289.444324 
L 446.944308 287.686866 
L 447.452088 303.552809 
L 447.959869 305.017358 
L 448.467649 304.919721 
L 448.97543 303.650446 
L 449.48321 304.773266 
L 449.990991 304.724448 
L 450.498771 304.870903 
L 451.006552 304.67563 
L 451.514333 304.773266 
L 452.022113 302.283534 
L 452.529894 302.429988 
L 453.037674 305.310267 
L 453.545455 305.749632 
L 454.561016 305.749632 
L 455.068796 306.872453 
L 455.576577 307.311817 
L 457.099918 307.262999 
L 457.607699 307.50709 
L 458.115479 307.409454 
L 458.62326 305.066176 
L 459.13104 305.163812 
L 459.638821 303.259899 
L 460.146601 303.503991 
L 460.654382 305.896087 
L 461.162162 307.067726 
L 461.669943 307.262999 
L 462.177723 306.237815 
L 462.685504 307.165362 
L 463.193284 307.458272 
L 464.208845 307.458272 
L 464.716626 304.822084 
L 465.224406 304.529175 
L 465.732187 303.064626 
L 466.239967 303.455172 
L 466.747748 304.040992 
L 467.255528 304.38272 
L 467.763309 304.431538 
L 468.271089 307.018907 
L 469.794431 307.214181 
L 470.302211 307.458272 
L 470.809992 307.458272 
L 471.317772 303.357536 
L 471.825553 306.481906 
L 472.333333 304.333902 
L 473.348894 304.285083 
L 473.856675 304.431538 
L 474.364455 307.311817 
L 474.872236 307.604727 
L 475.380016 307.751182 
L 476.395577 307.262999 
L 476.903358 306.628361 
L 477.411138 306.970089 
L 477.918919 307.165362 
L 478.93448 307.262999 
L 479.44226 284.464859 
L 479.950041 290.42069 
L 480.965602 290.371871 
L 481.981163 285.343588 
L 482.488943 290.42069 
L 482.996724 290.615963 
L 483.504505 275.042929 
L 484.012285 275.287021 
L 484.520066 290.469508 
L 485.027846 265.279272 
L 485.535627 281.779853 
L 486.043407 289.83487 
L 486.551188 286.027044 
L 487.058968 285.978225 
L 487.566749 276.898024 
L 488.074529 275.628749 
L 488.58231 277.28857 
L 489.09009 271.820922 
L 489.597871 276.702751 
L 490.105651 275.57993 
L 491.628993 275.677567 
L 492.136773 269.184735 
L 492.644554 276.214568 
L 493.152334 276.214568 
L 493.660115 277.093297 
L 494.167895 276.214568 
L 494.675676 277.28857 
L 495.183456 276.556296 
L 495.691237 271.86974 
L 496.199017 281.29167 
L 496.706798 285.245951 
L 497.214578 287.638047 
L 497.722359 289.444324 
L 498.230139 298.622162 
L 498.73792 290.469508 
L 500.769042 290.42069 
L 501.276822 297.157613 
L 501.784603 292.373421 
L 502.292383 286.515227 
L 502.800164 286.319954 
L 503.307944 288.907323 
L 503.815725 283.00031 
L 504.323505 294.765517 
L 504.831286 298.719799 
L 505.339066 298.378071 
L 505.846847 297.645796 
L 506.862408 297.743433 
L 507.370188 291.299419 
L 507.877969 289.883688 
L 508.385749 289.346687 
L 508.89353 294.374971 
L 509.40131 289.54196 
L 509.909091 296.571794 
L 510.416871 294.033243 
L 510.924652 294.472608 
L 511.432432 294.423789 
L 511.940213 299.842619 
L 512.447993 299.989074 
L 512.955774 298.67098 
L 513.463554 296.083611 
L 513.971335 298.231616 
L 514.479115 298.768617 
L 514.986896 289.053778 
L 515.494676 289.151414 
L 516.002457 295.058427 
L 516.510238 298.768617 
L 517.018018 298.915072 
L 517.525799 289.444324 
L 518.033579 289.395506 
L 518.54136 285.392406 
L 519.04914 294.472608 
L 519.556921 299.744983 
L 520.064701 299.647346 
L 520.572482 297.499341 
L 521.080262 299.2568 
L 521.588043 298.67098 
L 522.095823 293.398605 
L 522.603604 274.017745 
L 523.111384 276.605114 
L 523.619165 276.361023 
L 524.126945 276.702751 
L 524.634726 287.442774 
L 525.142506 286.759318 
L 525.650287 281.145215 
L 526.158067 271.723286 
L 526.665848 273.334289 
L 527.173628 270.1611 
L 527.681409 274.261836 
L 528.189189 276.312205 
L 528.69697 276.116931 
L 529.20475 275.726385 
L 529.712531 274.310655 
L 530.220311 275.970477 
L 531.235872 275.87284 
L 531.743653 276.312205 
L 532.251433 275.677567 
L 532.759214 276.361023 
L 533.266994 266.939093 
L 533.774775 273.285471 
L 534.282555 274.45711 
L 534.790336 274.945293 
L 535.298116 276.16575 
L 535.805897 286.564045 
L 536.313677 287.00341 
L 536.821458 278.216118 
L 537.329238 286.856955 
L 537.837019 290.078962 
L 538.344799 269.331189 
L 538.85258 275.921658 
L 539.36036 293.54506 
L 539.868141 294.277334 
L 540.375921 294.814336 
L 540.883702 292.178148 
L 541.391482 291.738783 
L 541.899263 293.740333 
L 542.407043 293.740333 
L 542.914824 294.179698 
L 543.422604 277.190934 
L 543.930385 275.824022 
L 544.438165 278.460209 
L 544.945946 294.374971 
L 545.453726 294.423789 
L 545.961507 290.323053 
L 546.977068 292.617513 
L 547.484848 241.260674 
L 547.992629 273.139016 
L 548.50041 291.641147 
L 549.00819 292.910422 
L 549.515971 294.619062 
L 550.023751 292.031693 
L 550.531532 292.471058 
L 551.039312 292.617513 
L 551.547093 297.304068 
L 552.054873 297.645796 
L 552.562654 299.354436 
L 553.070434 294.326153 
L 553.578215 298.280434 
L 554.085995 289.981325 
L 554.593776 276.995661 
L 555.101556 285.587679 
L 555.609337 289.297869 
L 556.117117 289.688415 
L 556.624898 297.059977 
L 557.132678 299.842619 
L 557.640459 300.477257 
L 558.148239 298.866253 
L 558.65602 299.061527 
L 559.1638 294.570244 
L 559.671581 298.231616 
L 560.179361 298.67098 
L 560.687142 298.915072 
L 561.194922 289.395506 
L 561.702703 289.786052 
L 562.210483 291.006509 
L 562.718264 296.278884 
L 563.226044 298.67098 
L 563.733825 300.37962 
L 564.749386 294.033243 
L 565.257166 286.319954 
L 565.764947 286.7105 
L 566.272727 287.247501 
L 566.780508 295.351337 
L 567.796069 299.793801 
L 568.303849 298.915072 
L 568.81163 297.304068 
L 569.31941 299.207981 
L 569.827191 295.204882 
L 570.334971 297.54816 
L 570.842752 297.450523 
L 571.350532 299.2568 
L 571.858313 297.645796 
L 572.366093 299.647346 
L 572.873874 295.351337 
L 573.381654 297.108795 
L 573.889435 297.499341 
L 574.397215 283.537311 
L 574.904996 285.245951 
L 575.412776 285.636497 
L 575.920557 287.979775 
L 576.428337 289.297869 
L 576.936118 297.987524 
L 577.443898 298.622162 
L 577.951679 297.743433 
L 578.459459 297.108795 
L 578.96724 298.133979 
L 579.982801 298.817435 
L 580.490581 298.622162 
L 580.998362 298.622162 
L 581.506143 288.907323 
L 582.013923 285.831771 
L 582.521704 285.148315 
L 583.029484 268.159551 
L 583.537265 272.16265 
L 584.045045 274.750019 
L 584.552826 224.418365 
L 585.060606 279.680666 
L 585.568387 284.904223 
L 586.076167 291.689965 
L 586.583948 292.373421 
L 587.091728 273.431926 
L 587.599509 275.824022 
L 588.107289 276.312205 
L 588.61507 275.87284 
L 589.12285 276.312205 
L 589.630631 275.335839 
L 590.138411 276.263386 
L 590.646192 275.970477 
L 591.153972 276.605114 
L 591.661753 276.849206 
L 592.169533 275.726385 
L 592.677314 275.384657 
L 593.185094 272.211468 
L 593.692875 274.652383 
L 594.200655 278.704301 
L 594.708436 251.756606 
L 595.216216 253.611701 
L 595.723997 282.658582 
L 596.231777 283.439675 
L 596.739558 282.365672 
L 597.247338 282.121581 
L 597.755119 254.49043 
L 598.262899 255.222704 
L 598.77068 254.734522 
L 599.786241 290.518326 
L 600.294021 290.176598 
L 600.801802 291.006509 
L 601.309582 291.592329 
L 602.325143 291.982875 
L 602.832924 293.154514 
L 603.848485 262.447811 
L 604.356265 266.158001 
L 604.864046 272.699651 
L 605.371826 292.275785 
L 605.879607 292.275785 
L 606.387387 292.519876 
L 607.402948 294.179698 
L 607.910729 291.641147 
L 608.418509 292.178148 
L 608.92629 291.934057 
L 609.43407 271.772104 
L 609.941851 272.260287 
L 610.449631 272.553196 
L 610.957412 274.115382 
L 611.465192 276.116931 
L 611.972973 291.54351 
L 612.480753 293.54506 
L 612.988534 293.83797 
L 613.496314 293.789151 
L 614.004095 293.593878 
L 614.511876 294.033243 
L 615.019656 294.277334 
L 615.527437 294.326153 
L 616.035217 277.28857 
L 616.542998 272.357923 
L 617.050778 271.772104 
L 617.558559 272.992561 
L 618.066339 271.088648 
L 618.57412 272.309105 
L 620.097461 278.216118 
L 620.605242 284.660132 
L 621.113022 284.611313 
L 621.620803 272.553196 
L 622.128583 273.57838 
L 622.636364 273.480744 
L 622.636364 273.480744 
" clip-path="url(#p4e0442c5cf)" style="fill: none; stroke: #ff7f0e; stroke-width: 1.5; stroke-linecap: square"/>
   </g>
   <g id="patch_3">
    <path d="M 90 320.4 
L 90 43.2 
" style="fill: none; stroke: #000000; stroke-width: 0.8; stroke-linejoin: miter; stroke-linecap: square"/>
   </g>
   <g id="patch_4">
    <path d="M 648 320.4 
L 648 43.2 
" style="fill: none; stroke: #000000; stroke-width: 0.8; stroke-linejoin: miter; stroke-linecap: square"/>
   </g>
   <g id="patch_5">
    <path d="M 90 320.4 
L 648 320.4 
" style="fill: none; stroke: #000000; stroke-width: 0.8; stroke-linejoin: miter; stroke-linecap: square"/>
   </g>
   <g id="patch_6">
    <path d="M 90 43.2 
L 648 43.2 
" style="fill: none; stroke: #000000; stroke-width: 0.8; stroke-linejoin: miter; stroke-linecap: square"/>
   </g>
   <g id="text_16">
    <!-- Time Comparison: PostgreSQL vs Redis -->
    <g transform="translate(251.620313 37.2) scale(0.12 -0.12)">
     <defs>
      <path id="DejaVuSans-43" d="M 4122 4306 
L 4122 3641 
Q 3803 3938 3442 4084 
Q 3081 4231 2675 4231 
Q 1875 4231 1450 3742 
Q 1025 3253 1025 2328 
Q 1025 1406 1450 917 
Q 1875 428 2675 428 
Q 3081 428 3442 575 
Q 3803 722 4122 1019 
L 4122 359 
Q 3791 134 3420 21 
Q 3050 -91 2638 -91 
Q 1578 -91 968 557 
Q 359 1206 359 2328 
Q 359 3453 968 4101 
Q 1578 4750 2638 4750 
Q 3056 4750 3426 4639 
Q 3797 4528 4122 4306 
z
" transform="scale(0.015625)"/>
      <path id="DejaVuSans-70" d="M 1159 525 
L 1159 -1331 
L 581 -1331 
L 581 3500 
L 1159 3500 
L 1159 2969 
Q 1341 3281 1617 3432 
Q 1894 3584 2278 3584 
Q 2916 3584 3314 3078 
Q 3713 2572 3713 1747 
Q 3713 922 3314 415 
Q 2916 -91 2278 -91 
Q 1894 -91 1617 61 
Q 1341 213 1159 525 
z
M 3116 1747 
Q 3116 2381 2855 2742 
Q 2594 3103 2138 3103 
Q 1681 3103 1420 2742 
Q 1159 2381 1159 1747 
Q 1159 1113 1420 752 
Q 1681 391 2138 391 
Q 2594 391 2855 752 
Q 3116 1113 3116 1747 
z
" transform="scale(0.015625)"/>
      <path id="DejaVuSans-61" d="M 2194 1759 
Q 1497 1759 1228 1600 
Q 959 1441 959 1056 
Q 959 750 1161 570 
Q 1363 391 1709 391 
Q 2188 391 2477 730 
Q 2766 1069 2766 1631 
L 2766 1759 
L 2194 1759 
z
M 3341 1997 
L 3341 0 
L 2766 0 
L 2766 531 
Q 2569 213 2275 61 
Q 1981 -91 1556 -91 
Q 1019 -91 701 211 
Q 384 513 384 1019 
Q 384 1609 779 1909 
Q 1175 2209 1959 2209 
L 2766 2209 
L 2766 2266 
Q 2766 2663 2505 2880 
Q 2244 3097 1772 3097 
Q 1472 3097 1187 3025 
Q 903 2953 641 2809 
L 641 3341 
Q 956 3463 1253 3523 
Q 1550 3584 1831 3584 
Q 2591 3584 2966 3190 
Q 3341 2797 3341 1997 
z
" transform="scale(0.015625)"/>
      <path id="DejaVuSans-3a" d="M 750 794 
L 1409 794 
L 1409 0 
L 750 0 
L 750 794 
z
M 750 3309 
L 1409 3309 
L 1409 2516 
L 750 2516 
L 750 3309 
z
" transform="scale(0.015625)"/>
      <path id="DejaVuSans-50" d="M 1259 4147 
L 1259 2394 
L 2053 2394 
Q 2494 2394 2734 2622 
Q 2975 2850 2975 3272 
Q 2975 3691 2734 3919 
Q 2494 4147 2053 4147 
L 1259 4147 
z
M 628 4666 
L 2053 4666 
Q 2838 4666 3239 4311 
Q 3641 3956 3641 3272 
Q 3641 2581 3239 2228 
Q 2838 1875 2053 1875 
L 1259 1875 
L 1259 0 
L 628 0 
L 628 4666 
z
" transform="scale(0.015625)"/>
      <path id="DejaVuSans-74" d="M 1172 4494 
L 1172 3500 
L 2356 3500 
L 2356 3053 
L 1172 3053 
L 1172 1153 
Q 1172 725 1289 603 
Q 1406 481 1766 481 
L 2356 481 
L 2356 0 
L 1766 0 
Q 1100 0 847 248 
Q 594 497 594 1153 
L 594 3053 
L 172 3053 
L 172 3500 
L 594 3500 
L 594 4494 
L 1172 4494 
z
" transform="scale(0.015625)"/>
      <path id="DejaVuSans-67" d="M 2906 1791 
Q 2906 2416 2648 2759 
Q 2391 3103 1925 3103 
Q 1463 3103 1205 2759 
Q 947 2416 947 1791 
Q 947 1169 1205 825 
Q 1463 481 1925 481 
Q 2391 481 2648 825 
Q 2906 1169 2906 1791 
z
M 3481 434 
Q 3481 -459 3084 -895 
Q 2688 -1331 1869 -1331 
Q 1566 -1331 1297 -1286 
Q 1028 -1241 775 -1147 
L 775 -588 
Q 1028 -725 1275 -790 
Q 1522 -856 1778 -856 
Q 2344 -856 2625 -561 
Q 2906 -266 2906 331 
L 2906 616 
Q 2728 306 2450 153 
Q 2172 0 1784 0 
Q 1141 0 747 490 
Q 353 981 353 1791 
Q 353 2603 747 3093 
Q 1141 3584 1784 3584 
Q 2172 3584 2450 3431 
Q 2728 3278 2906 2969 
L 2906 3500 
L 3481 3500 
L 3481 434 
z
" transform="scale(0.015625)"/>
      <path id="DejaVuSans-53" d="M 3425 4513 
L 3425 3897 
Q 3066 4069 2747 4153 
Q 2428 4238 2131 4238 
Q 1616 4238 1336 4038 
Q 1056 3838 1056 3469 
Q 1056 3159 1242 3001 
Q 1428 2844 1947 2747 
L 2328 2669 
Q 3034 2534 3370 2195 
Q 3706 1856 3706 1288 
Q 3706 609 3251 259 
Q 2797 -91 1919 -91 
Q 1588 -91 1214 -16 
Q 841 59 441 206 
L 441 856 
Q 825 641 1194 531 
Q 1563 422 1919 422 
Q 2459 422 2753 634 
Q 3047 847 3047 1241 
Q 3047 1584 2836 1778 
Q 2625 1972 2144 2069 
L 1759 2144 
Q 1053 2284 737 2584 
Q 422 2884 422 3419 
Q 422 4038 858 4394 
Q 1294 4750 2059 4750 
Q 2388 4750 2728 4690 
Q 3069 4631 3425 4513 
z
" transform="scale(0.015625)"/>
      <path id="DejaVuSans-4c" d="M 628 4666 
L 1259 4666 
L 1259 531 
L 3531 531 
L 3531 0 
L 628 0 
L 628 4666 
z
" transform="scale(0.015625)"/>
      <path id="DejaVuSans-76" d="M 191 3500 
L 800 3500 
L 1894 563 
L 2988 3500 
L 3597 3500 
L 2284 0 
L 1503 0 
L 191 3500 
z
" transform="scale(0.015625)"/>
      <path id="DejaVuSans-52" d="M 2841 2188 
Q 3044 2119 3236 1894 
Q 3428 1669 3622 1275 
L 4263 0 
L 3584 0 
L 2988 1197 
Q 2756 1666 2539 1819 
Q 2322 1972 1947 1972 
L 1259 1972 
L 1259 0 
L 628 0 
L 628 4666 
L 2053 4666 
Q 2853 4666 3247 4331 
Q 3641 3997 3641 3322 
Q 3641 2881 3436 2590 
Q 3231 2300 2841 2188 
z
M 1259 4147 
L 1259 2491 
L 2053 2491 
Q 2509 2491 2742 2702 
Q 2975 2913 2975 3322 
Q 2975 3731 2742 3939 
Q 2509 4147 2053 4147 
L 1259 4147 
z
" transform="scale(0.015625)"/>
     </defs>
     <use xlink:href="#DejaVuSans-54"/>
     <use xlink:href="#DejaVuSans-69" x="57.958984"/>
     <use xlink:href="#DejaVuSans-6d" x="85.742188"/>
     <use xlink:href="#DejaVuSans-65" x="183.154297"/>
     <use xlink:href="#DejaVuSans-20" x="244.677734"/>
     <use xlink:href="#DejaVuSans-43" x="276.464844"/>
     <use xlink:href="#DejaVuSans-6f" x="346.289062"/>
     <use xlink:href="#DejaVuSans-6d" x="407.470703"/>
     <use xlink:href="#DejaVuSans-70" x="504.882812"/>
     <use xlink:href="#DejaVuSans-61" x="568.359375"/>
     <use xlink:href="#DejaVuSans-72" x="629.638672"/>
     <use xlink:href="#DejaVuSans-69" x="670.751953"/>
     <use xlink:href="#DejaVuSans-73" x="698.535156"/>
     <use xlink:href="#DejaVuSans-6f" x="750.634766"/>
     <use xlink:href="#DejaVuSans-6e" x="811.816406"/>
     <use xlink:href="#DejaVuSans-3a" x="875.195312"/>
     <use xlink:href="#DejaVuSans-20" x="908.886719"/>
     <use xlink:href="#DejaVuSans-50" x="940.673828"/>
     <use xlink:href="#DejaVuSans-6f" x="997.351562"/>
     <use xlink:href="#DejaVuSans-73" x="1058.533203"/>
     <use xlink:href="#DejaVuSans-74" x="1110.632812"/>
     <use xlink:href="#DejaVuSans-67" x="1149.841797"/>
     <use xlink:href="#DejaVuSans-72" x="1213.318359"/>
     <use xlink:href="#DejaVuSans-65" x="1252.181641"/>
     <use xlink:href="#DejaVuSans-53" x="1313.705078"/>
     <use xlink:href="#DejaVuSans-51" x="1377.181641"/>
     <use xlink:href="#DejaVuSans-4c" x="1455.892578"/>
     <use xlink:href="#DejaVuSans-20" x="1511.605469"/>
     <use xlink:href="#DejaVuSans-76" x="1543.392578"/>
     <use xlink:href="#DejaVuSans-73" x="1602.572266"/>
     <use xlink:href="#DejaVuSans-20" x="1654.671875"/>
     <use xlink:href="#DejaVuSans-52" x="1686.458984"/>
     <use xlink:href="#DejaVuSans-65" x="1751.441406"/>
     <use xlink:href="#DejaVuSans-64" x="1812.964844"/>
     <use xlink:href="#DejaVuSans-69" x="1876.441406"/>
     <use xlink:href="#DejaVuSans-73" x="1904.224609"/>
    </g>
   </g>
   <g id="legend_1">
    <g id="patch_7">
     <path d="M 526.134375 80.55625 
L 641 80.55625 
Q 643 80.55625 643 78.55625 
L 643 50.2 
Q 643 48.2 641 48.2 
L 526.134375 48.2 
Q 524.134375 48.2 524.134375 50.2 
L 524.134375 78.55625 
Q 524.134375 80.55625 526.134375 80.55625 
z
" style="fill: #ffffff; opacity: 0.8; stroke: #cccccc; stroke-linejoin: miter"/>
    </g>
    <g id="line2d_29">
     <path d="M 528.134375 56.298437 
L 538.134375 56.298437 
L 548.134375 56.298437 
" style="fill: none; stroke: #1f77b4; stroke-width: 1.5; stroke-linecap: square"/>
    </g>
    <g id="text_17">
     <!-- PostgreSQL time -->
     <g transform="translate(556.134375 59.798437) scale(0.1 -0.1)">
      <use xlink:href="#DejaVuSans-50"/>
      <use xlink:href="#DejaVuSans-6f" x="56.677734"/>
      <use xlink:href="#DejaVuSans-73" x="117.859375"/>
      <use xlink:href="#DejaVuSans-74" x="169.958984"/>
      <use xlink:href="#DejaVuSans-67" x="209.167969"/>
      <use xlink:href="#DejaVuSans-72" x="272.644531"/>
      <use xlink:href="#DejaVuSans-65" x="311.507812"/>
      <use xlink:href="#DejaVuSans-53" x="373.03125"/>
      <use xlink:href="#DejaVuSans-51" x="436.507812"/>
      <use xlink:href="#DejaVuSans-4c" x="515.21875"/>
      <use xlink:href="#DejaVuSans-20" x="570.931641"/>
      <use xlink:href="#DejaVuSans-74" x="602.71875"/>
      <use xlink:href="#DejaVuSans-69" x="641.927734"/>
      <use xlink:href="#DejaVuSans-6d" x="669.710938"/>
      <use xlink:href="#DejaVuSans-65" x="767.123047"/>
     </g>
    </g>
    <g id="line2d_30">
     <path d="M 528.134375 70.976562 
L 538.134375 70.976562 
L 548.134375 70.976562 
" style="fill: none; stroke: #ff7f0e; stroke-width: 1.5; stroke-linecap: square"/>
    </g>
    <g id="text_18">
     <!-- Redis time -->
     <g transform="translate(556.134375 74.476562) scale(0.1 -0.1)">
      <use xlink:href="#DejaVuSans-52"/>
      <use xlink:href="#DejaVuSans-65" x="64.982422"/>
      <use xlink:href="#DejaVuSans-64" x="126.505859"/>
      <use xlink:href="#DejaVuSans-69" x="189.982422"/>
      <use xlink:href="#DejaVuSans-73" x="217.765625"/>
      <use xlink:href="#DejaVuSans-20" x="269.865234"/>
      <use xlink:href="#DejaVuSans-74" x="301.652344"/>
      <use xlink:href="#DejaVuSans-69" x="340.861328"/>
      <use xlink:href="#DejaVuSans-6d" x="368.644531"/>
      <use xlink:href="#DejaVuSans-65" x="466.056641"/>
     </g>
    </g>
   </g>
  </g>
 </g>
 <defs>
  <clipPath id="p4e0442c5cf">
   <rect x="90" y="43.2" width="558" height="277.2"/>
  </clipPath>
 </defs>
</svg>
